<?xml version="1.0" encoding="utf-8"?>
<!-- Generator: $$$/GeneralStr/196=Adobe Illustrator 27.6.0, SVG Export Plug-In . SVG Version: 6.00 Build 0)  -->
<svg version="1.1" id="Calque_1" xmlns="http://www.w3.org/2000/svg" xmlns:xlink="http://www.w3.org/1999/xlink" x="0px" y="0px"
	 viewBox="0 0 64 64" style="enable-background:new 0 0 64 64;" xml:space="preserve">
<style type="text/css">
	.st0{fill:#FFFFFF;}
</style>
<g>
	<circle class="st0" cx="32.5" cy="32.5" r="26.5"/>
	<path d="M32.5,9C45.5,9,56,19.5,56,32.5S45.5,56,32.5,56S9,45.5,9,32.5S19.5,9,32.5,9 M32.5,3C16.2,3,3,16.2,3,32.5
		S16.2,62,32.5,62S62,48.8,62,32.5S48.8,3,32.5,3L32.5,3z"/>
</g>
<g>
	<path d="M46.3,31.1l-11.8-9.3v7.6H22.7v7h11.7v7.2l11.8-9.3C47.2,33.4,47.2,31.9,46.3,31.1z"/>
</g>
</svg>
