<?xml version="1.0" encoding="utf-8"?>
<!-- Generator: Adobe Illustrator 26.5.0, SVG Export Plug-In . SVG Version: 6.00 Build 0)  -->
<svg version="1.1" id="Calque_1" xmlns="http://www.w3.org/2000/svg" xmlns:xlink="http://www.w3.org/1999/xlink" x="0px" y="0px"
	 viewBox="0 0 100 200" style="enable-background:new 0 0 100 200;" xml:space="preserve">
<style type="text/css">
	.st0{fill-rule:evenodd;clip-rule:evenodd;}
	.st1{fill-rule:evenodd;clip-rule:evenodd;fill:none;stroke:#000000;stroke-width:5;stroke-miterlimit:10;}
	.st2{fill:none;stroke:#000000;stroke-width:4.4;stroke-linecap:round;stroke-miterlimit:10;}
</style>
<g>
	<path class="st0" d="M61.4,32L61.4,32c-1,1-1,2.6,0,3.6c3.8,3.8,6,8.9,6,14.4c0,5.4-2.1,10.4-6,14.3c-1,1-1,2.6,0,3.6
		c0.5,0.5,1.1,0.7,1.7,0.7c0.7,0,1.3-0.2,1.8-0.7c4.7-4.7,7.4-11.2,7.4-17.9c0-6.8-2.6-13.1-7.4-18c-0.5-0.5-1.1-0.7-1.7-0.7h-0.1
		C62.4,31.3,61.9,31.5,61.4,32L61.4,32z"/>
	<path class="st0" d="M54,35.2L54,35.2c-0.7,0.8-0.7,2.2,0,3.1c3.3,3.2,5.1,7.6,5.1,12.2c0,4.6-1.8,8.9-5.1,12.2
		c-0.7,0.7-0.7,2.1,0,3.1c0.5,0.4,1,0.6,1.6,0.6c0.6,0,1.1-0.2,1.5-0.6c4.1-4.1,6.4-9.5,6.4-15.3c0-5.8-2.2-11.2-6.4-15.3
		c-0.4-0.4-0.9-0.7-1.5-0.7l0,0C55,34.5,54.5,34.7,54,35.2L54,35.2z"/>
	<path class="st0" d="M34.8,42L34.8,42h-5.3c-1.1,0-1.9,0.9-1.9,1.9v13c0,1,0.8,1.9,1.9,1.9h5.3V42z"/>
	<path class="st0" d="M42.5,37l-6,4.5v17.9l6,4.5c1.2,0.9,3,0.1,3-1.5V38.5C45.5,36.9,43.8,36.1,42.5,37L42.5,37z"/>
</g>
<circle class="st1" cx="50" cy="50" r="34"/>
<g>
	<path class="st0" d="M34.8,142L34.8,142h-5.3c-1.1,0-1.9,0.9-1.9,1.9v13c0,1,0.8,1.9,1.9,1.9h5.3V142z"/>
	<path class="st0" d="M42.5,137l-6,4.5v17.9l6,4.5c1.2,0.9,3,0.1,3-1.5v-23.9C45.5,136.9,43.8,136.1,42.5,137L42.5,137z"/>
</g>
<circle class="st1" cx="50" cy="150" r="34"/>
<g>
	<line class="st2" x1="52" y1="155" x2="63" y2="144"/>
	<line class="st2" x1="63" y1="155" x2="52" y2="144"/>
</g>
</svg>
