<?xml version="1.0" encoding="utf-8"?>
<!-- Generator: Adobe Illustrator 27.3.1, SVG Export Plug-In . SVG Version: 6.00 Build 0)  -->
<svg version="1.1" id="Calque_1" xmlns="http://www.w3.org/2000/svg" xmlns:xlink="http://www.w3.org/1999/xlink" x="0px" y="0px"
	 viewBox="0 0 100 200" style="enable-background:new 0 0 100 200;" xml:space="preserve">
<style type="text/css">
	.st0{fill:none;stroke:#000000;stroke-width:5;stroke-linecap:round;stroke-miterlimit:10;}
	.st1{fill:none;stroke:#000000;stroke-width:5;stroke-linecap:round;stroke-linejoin:round;stroke-miterlimit:10;}
</style>
<g>
	<path class="st0" d="M43.9,65.8c-9.3-1.3-16-5.6-16-10.6c0-6.1,9.9-11.1,22.1-11.1S72.1,49,72.1,55.2c0,4.8-6,8.8-14.5,10.4"/>
	<polyline class="st1" points="40.1,59.9 47.6,65.5 40.1,70.1 	"/>
</g>
<g>
	<path class="st0" d="M56.1,165.8c9.3-1.3,16-5.6,16-10.6c0-6.1-9.9-11.1-22.1-11.1s-22.1,4.9-22.1,11.1c0,4.8,6,8.8,14.5,10.4"/>
	<polyline class="st1" points="59.9,159.9 52.4,165.5 59.9,170.1 	"/>
</g>
</svg>
