<?xml version="1.0" encoding="utf-8"?>
<!-- Generator: Adobe Illustrator 27.3.1, SVG Export Plug-In . SVG Version: 6.00 Build 0)  -->
<svg version="1.1" id="Calque_1" xmlns="http://www.w3.org/2000/svg" xmlns:xlink="http://www.w3.org/1999/xlink" x="0px" y="0px"
	 viewBox="0 0 100 200" style="enable-background:new 0 0 100 200;" xml:space="preserve">
<style type="text/css">
	.st0{fill:none;stroke:#000000;stroke-width:5;stroke-linecap:round;stroke-miterlimit:10;}
	.st1{fill:none;stroke:#000000;stroke-width:5;stroke-linecap:round;stroke-linejoin:round;stroke-miterlimit:10;}
	.st2{fill:#FFFFFF;}
	.st3{fill:#B53471;}
	.st4{fill:#EE5A24;}
	.st5{fill:#006266;}
</style>
<g>
	<path class="st0" d="M43.9,75.8c-9.3-1.3-16-5.6-16-10.6c0-6.1,9.9-11.1,22.1-11.1S72.1,59,72.1,65.2c0,4.8-6,8.8-14.5,10.4"/>
	<polyline class="st1" points="40.1,69.9 47.6,75.5 40.1,80.1 	"/>
</g>
<g>
	<path class="st0" d="M56.1,175.8c9.3-1.3,16-5.6,16-10.6c0-6.1-9.9-11.1-22.1-11.1s-22.1,4.9-22.1,11.1c0,4.8,6,8.8,14.5,10.4"/>
	<polyline class="st1" points="59.9,169.9 52.4,175.5 59.9,180.1 	"/>
</g>
<g>
	<g>
		<rect x="35.6" y="114.1" class="st2" width="12.9" height="12.9"/>
		<path d="M49.7,128.3H34.2v-15.5h15.5V128.3z M36.9,125.7h10.3v-10.3H36.9V125.7z"/>
	</g>
	<rect x="39" y="117.6" width="5.9" height="5.9"/>
</g>
<g>
	<g>
		<rect x="53.8" y="114.1" class="st2" width="12.9" height="12.9"/>
		<path d="M67.9,128.3H52.5v-15.5h15.5V128.3z M55.1,125.7h10.3v-10.3H55.1V125.7z"/>
	</g>
	<rect x="57.3" y="117.6" width="5.9" height="5.9"/>
</g>
<g>
	<g>
		<rect x="35.6" y="132.2" class="st2" width="12.9" height="12.9"/>
		<path d="M49.7,146.4H34.2v-15.5h15.5V146.4z M36.9,143.8h10.3v-10.3H36.9V143.8z"/>
	</g>
	<rect x="39" y="135.7" width="5.9" height="5.9"/>
</g>
<rect x="52.5" y="130.9" class="st2" width="3.9" height="3.9"/>
<rect x="56.3" y="130.9" width="3.9" height="3.9"/>
<rect x="60.2" y="130.9" class="st2" width="3.9" height="3.9"/>
<rect x="64.1" y="130.9" width="3.9" height="3.9"/>
<rect x="52.5" y="134.8" width="3.9" height="3.9"/>
<rect x="56.3" y="134.8" class="st2" width="3.9" height="3.9"/>
<rect x="60.2" y="134.8" width="3.9" height="3.9"/>
<rect x="64.1" y="134.8" class="st2" width="3.9" height="3.9"/>
<rect x="52.5" y="138.7" class="st2" width="3.9" height="3.9"/>
<rect x="56.3" y="138.7" width="3.9" height="3.9"/>
<rect x="60.2" y="138.7" class="st2" width="3.9" height="3.9"/>
<rect x="64.1" y="138.7" width="3.9" height="3.9"/>
<rect x="52.5" y="142.5" width="3.9" height="3.9"/>
<rect x="56.3" y="142.5" class="st2" width="3.9" height="3.9"/>
<rect x="60.2" y="142.5" width="3.9" height="3.9"/>
<rect x="64.1" y="142.5" class="st2" width="3.9" height="3.9"/>
<path class="st3" d="M36.8,38.9h-7.7c-2,0-3.7-1.6-3.7-3.7v-7.7c0-2,1.6-3.7,3.7-3.7h7.7c2,0,3.7,1.6,3.7,3.7v7.7
	C40.5,37.3,38.8,38.9,36.8,38.9z"/>
<path class="st4" d="M54.8,38.9h-7.7c-2,0-3.7-1.6-3.7-3.7v-7.7c0-2,1.6-3.7,3.7-3.7h7.7c2,0,3.7,1.6,3.7,3.7v7.7
	C58.5,37.3,56.8,38.9,54.8,38.9z"/>
<path class="st5" d="M72.9,38.9h-7.7c-2,0-3.7-1.6-3.7-3.7v-7.7c0-2,1.6-3.7,3.7-3.7h7.7c2,0,3.7,1.6,3.7,3.7v7.7
	C76.5,37.3,74.9,38.9,72.9,38.9z"/>
</svg>
