<?xml version="1.0" encoding="utf-8"?>
<!-- Generator: Adobe Illustrator 26.0.2, SVG Export Plug-In . SVG Version: 6.00 Build 0)  -->
<svg version="1.1" id="Calque_1" xmlns="http://www.w3.org/2000/svg" xmlns:xlink="http://www.w3.org/1999/xlink" x="0px" y="0px"
	 viewBox="0 0 407.8 403" style="enable-background:new 0 0 407.8 403;" xml:space="preserve">
<style type="text/css">
	.st0{fill:#FFFFFF;}
</style>
<g>
	<g>
		<path class="st0" d="M56.9,2.4c0.4,0.5,0.7,1.1,0.7,1.7v85.1c0,0.6-0.2,1.2-0.7,1.7c-0.5,0.5-1.1,0.7-1.7,0.7
			c-0.7,0-1.3-0.2-1.8-0.7c-0.4-0.5-0.7-1.1-0.7-1.7V77.6c-1.9,4.3-5,7.9-9.2,10.8s-8.9,4.4-14.1,4.4c-5.3,0-10-1.4-14.3-4.2
			C10.7,85.8,7.3,82,4.8,77.1c-2.5-4.9-3.7-10.3-3.7-16.3c0-6,1.2-11.4,3.7-16.3c2.5-4.9,5.8-8.7,10.2-11.4
			c4.3-2.7,9.1-4.1,14.3-4.1c5,0,9.7,1.4,14,4.2c4.3,2.8,7.4,6.5,9.4,11.1V4.1c0-0.7,0.2-1.2,0.7-1.7c0.4-0.5,1-0.7,1.8-0.7
			S56.4,1.9,56.9,2.4z M41.7,84.7c3.6-2.4,6.4-5.6,8.4-9.8c2-4.2,3-8.9,3-14c0-5.2-1-9.8-3-14c-2-4.1-4.8-7.4-8.4-9.7
			s-7.6-3.5-12.1-3.5c-4.4,0-8.4,1.2-12,3.5c-3.6,2.3-6.4,5.6-8.5,9.8C7,51.1,6,55.7,6,60.9c0,5.2,1,9.9,3.1,14
			c2.1,4.1,4.9,7.4,8.5,9.8c3.6,2.4,7.6,3.6,12,3.6C34.1,88.2,38.2,87,41.7,84.7z"/>
		<path class="st0" d="M127.2,77.7c0.4,0.4,0.6,0.9,0.6,1.5s-0.2,1.1-0.5,1.5c-2.7,3.6-6,6.5-10,8.8s-8.2,3.4-12.8,3.4
			c-6.1,0-11.5-1.3-16.2-3.9s-8.4-6.3-11-11.1s-3.9-10.3-3.9-16.7c0-6.5,1.3-12.2,3.8-17.1c2.6-4.9,5.9-8.7,10.2-11.2
			s8.7-3.9,13.5-3.9s9.2,1,13.3,3.1s7.4,5.2,10,9.3c2.6,4.1,4,9.2,4.1,15.3c0,0.7-0.2,1.2-0.7,1.8c-0.5,0.5-1.1,0.8-1.7,0.8H78.2
			v1.6c0,5,1,9.6,3,13.8c2,4.2,5,7.5,9,9.9c4,2.4,8.8,3.6,14.3,3.6c3.9,0,7.6-0.9,11-2.9c3.4-1.9,6.1-4.3,8.1-7.2
			c0.6-0.7,1.2-1.1,2.1-1.1C126.3,77,126.8,77.2,127.2,77.7z M91.7,36.2c-3.1,1.6-5.9,3.9-8.3,7.1c-2.4,3.1-4,6.9-4.8,11.4h44.7
			v-1.1c-0.4-4.1-1.7-7.7-3.9-10.6s-5-5.2-8.3-6.8c-3.3-1.5-6.7-2.3-10.3-2.3C97.9,33.9,94.9,34.7,91.7,36.2z"/>
		<path class="st0" d="M191.2,29.3c0.5,0.4,0.8,0.8,0.8,1.4c0,0.5-0.1,1-0.4,1.5L167.4,90c-0.2,0.5-0.5,0.9-0.9,1.1
			c-0.4,0.3-0.9,0.4-1.4,0.4c-0.5,0-0.9-0.1-1.4-0.4c-0.4-0.3-0.8-0.7-0.9-1.1l-24.3-57.7c-0.2-0.5-0.2-0.8-0.2-1.1
			c0-0.7,0.2-1.2,0.7-1.7c0.4-0.5,1.1-0.7,1.9-0.7c0.4,0,0.8,0.1,1.3,0.4c0.4,0.3,0.8,0.7,0.9,1.2l22,52.9l22.1-52.9
			c0.4-1.1,1.3-1.6,2.6-1.6C190.1,28.8,190.6,28.9,191.2,29.3z"/>
	</g>
	<g>
		<path class="st0" d="M84.4,209.4c-1-1-1.5-2.3-1.5-3.8v-1.1c0-2.7,1.7-4.4,5-5.2c5.2-1.5,7.8-5.5,7.8-12.2v-58
			c0-1.6,0.6-3,1.6-4.1s2.5-1.7,4.2-1.7c1.6,0,3,0.6,4.1,1.7c1.1,1.1,1.6,2.5,1.6,4.1v60.9c0,4.2-0.9,7.9-2.6,11.1s-4.1,5.6-7,7.3
			s-6,2.5-9.4,2.5C86.7,211,85.4,210.5,84.4,209.4z M96.3,113.5c-1-0.9-1.5-2.2-1.5-4.1v-1.9c0-1.9,0.6-3.3,1.6-4.1s2.8-1.2,5-1.2
			c2.3,0,3.9,0.4,4.9,1.3s1.5,2.2,1.5,4.1v1.9c0,1.9-0.5,3.3-1.6,4.1s-2.7,1.2-5,1.2C99,114.7,97.3,114.3,96.3,113.5z"/>
		<path class="st0" d="M169.4,124.9c4.2,2,6.4,4.6,6.4,7.8c0,1.4-0.4,2.6-1.3,3.7c-0.9,1.1-2,1.6-3.4,1.6c-1.1,0-1.9-0.2-2.5-0.5
			c-0.6-0.3-1.4-0.9-2.5-1.6c-0.5-0.5-1.3-1.1-2.3-1.7c-1-0.5-2.4-0.9-4.1-1.2c-1.8-0.3-3.4-0.5-4.9-0.5c-4.2,0-7.9,1-11.2,2.9
			c-3.2,1.9-5.8,4.6-7.5,8.1c-1.8,3.4-2.7,7.3-2.7,11.5c0,4.3,0.9,8.1,2.6,11.6c1.7,3.4,4.2,6.1,7.4,8s6.8,2.9,10.8,2.9
			c4.2,0,7.6-0.6,10.2-1.9c0.6-0.3,1.3-0.9,2.3-1.6c0.8-0.6,1.5-1.1,2.1-1.5c0.6-0.3,1.4-0.5,2.2-0.5c1.6,0,2.9,0.5,3.8,1.5
			c0.9,1,1.4,2.3,1.4,3.9c0,1.7-1.1,3.4-3.2,5c-2.1,1.7-5,3-8.6,4.1c-3.6,1.1-7.5,1.6-11.6,1.6c-6.2,0-11.6-1.4-16.3-4.3
			s-8.3-6.9-10.9-11.9s-3.8-10.7-3.8-17c0-6.2,1.3-11.9,4-17c2.7-5.1,6.4-9,11.2-11.9c4.8-2.9,10.2-4.3,16.4-4.3
			C159.8,121.9,165.1,122.9,169.4,124.9z"/>
		<path class="st0" d="M242,181.2c0,1.6-0.6,3-1.9,4.1c-1.3,1.1-2.6,1.6-4,1.6c-1.8,0-3.2-0.6-4.2-1.9L208,159.6l-7.3,6.6v15.1
			c0,1.6-0.6,3-1.6,4.1c-1.1,1.1-2.4,1.7-4.1,1.7c-1.7,0-3.1-0.6-4.2-1.7c-1.1-1.1-1.6-2.5-1.6-4.1v-78.3c0-1.6,0.6-3,1.6-4.1
			s2.5-1.7,4.2-1.7c1.6,0,3,0.6,4.1,1.7c1.1,1.1,1.6,2.5,1.6,4.1v49.4l29.8-27.4c1.4-1.2,2.8-1.8,4.2-1.8c1.4,0,2.6,0.6,3.8,1.8
			c1.1,1.2,1.7,2.4,1.7,3.7c0,1.6-0.8,3.1-2.3,4.4l-21,18.7l23.3,25.3C241.4,178.3,242,179.7,242,181.2z"/>
	</g>
</g>
<g>
	<path d="M30.3,268.9c0.3,0.3,0.5,0.7,0.5,1.1v20.5c0,0.5-0.2,0.8-0.5,1.1c-0.3,0.3-0.7,0.5-1.2,0.5c-0.5,0-0.9-0.1-1.2-0.5
		s-0.5-0.7-0.5-1.2v-15.7l-6.6,10c-0.2,0.2-0.4,0.4-0.6,0.5c-0.2,0.1-0.5,0.2-0.7,0.2c-0.2,0-0.5,0-0.7-0.2s-0.4-0.3-0.6-0.5
		l-6.6-10.3v16c0,0.5-0.1,0.9-0.4,1.2s-0.7,0.5-1.1,0.5c-0.5,0-0.8-0.1-1.1-0.5s-0.4-0.7-0.4-1.2V270c0-0.4,0.2-0.8,0.5-1.1
		c0.3-0.3,0.7-0.5,1.2-0.5c0.3,0,0.5,0.1,0.8,0.2c0.3,0.1,0.5,0.3,0.6,0.5l8,12.2l8.1-12.2c0.4-0.5,0.8-0.8,1.4-0.8
		C29.6,268.4,30,268.6,30.3,268.9z"/>
	<path d="M50.4,274.8c0.3,0.3,0.5,0.7,0.5,1.1v9c0,2.4-0.7,4.2-1.9,5.5c-1.3,1.3-3.1,2-5.5,2c-2.3,0-4.2-0.6-5.5-2
		c-1.3-1.3-1.9-3.1-1.9-5.5v-9c0-0.5,0.2-0.8,0.5-1.1c0.3-0.3,0.7-0.5,1.1-0.5c0.5,0,0.9,0.2,1.2,0.5s0.5,0.7,0.5,1.1v9
		c0,3,1.4,4.4,4.2,4.4c1.4,0,2.4-0.4,3.2-1.1c0.7-0.8,1.1-1.9,1.1-3.3v-9c0-0.5,0.2-0.8,0.5-1.1s0.7-0.5,1.1-0.5
		C49.7,274.4,50.1,274.5,50.4,274.8z"/>
	<path d="M58.7,291.7c-0.3,0.3-0.7,0.5-1.2,0.5c-0.4,0-0.8-0.2-1.1-0.5c-0.3-0.3-0.5-0.7-0.5-1.1v-21.9c0-0.5,0.2-0.8,0.5-1.1
		c0.3-0.3,0.7-0.5,1.2-0.5c0.4,0,0.8,0.2,1.1,0.5c0.3,0.3,0.5,0.7,0.5,1.1v21.9C59.2,291,59,291.4,58.7,291.7z"/>
	<path d="M69,277.5v10.1c0,1.1,0.5,1.7,1.5,1.7c0.2,0,0.4,0,0.6-0.1s0.5-0.1,0.6-0.1c0.3,0,0.5,0.1,0.8,0.4s0.3,0.6,0.3,1
		c0,0.5-0.3,0.9-0.8,1.2s-1.2,0.5-1.8,0.5c-0.8,0-1.4-0.1-2.1-0.2s-1.2-0.6-1.7-1.2c-0.5-0.6-0.7-1.6-0.7-2.9v-10.2h-2
		c-0.4,0-0.8-0.1-1.1-0.4s-0.4-0.6-0.4-1.1s0.1-0.8,0.4-1s0.6-0.4,1.1-0.4h2v-2.9c0-0.5,0.2-0.8,0.5-1.1s0.7-0.5,1.2-0.5
		c0.4,0,0.8,0.2,1.1,0.5s0.5,0.7,0.5,1.1v2.9h2.8c0.4,0,0.8,0.1,1.1,0.4s0.4,0.6,0.4,1.1s-0.1,0.8-0.4,1s-0.6,0.4-1.1,0.4L69,277.5
		L69,277.5z"/>
	<path d="M77.1,271.6c-0.3-0.2-0.4-0.6-0.4-1.1v-0.5c0-0.5,0.2-0.9,0.5-1.1c0.3-0.2,0.8-0.3,1.4-0.3c0.6,0,1.1,0.1,1.4,0.4
		c0.3,0.2,0.4,0.6,0.4,1.1v0.5c0,0.5-0.2,0.9-0.4,1.1c-0.3,0.2-0.8,0.3-1.4,0.3C77.8,272,77.3,271.8,77.1,271.6z M79.6,291.7
		c-0.3,0.3-0.7,0.5-1.2,0.5c-0.4,0-0.8-0.2-1.1-0.5c-0.3-0.3-0.5-0.7-0.5-1.1v-14.7c0-0.5,0.2-0.8,0.5-1.1c0.3-0.3,0.7-0.5,1.1-0.5
		c0.5,0,0.9,0.2,1.2,0.5c0.3,0.3,0.5,0.7,0.5,1.1v14.7C80.1,291,79.9,291.4,79.6,291.7z"/>
	<path d="M111.1,281.5v9.1c0,0.5-0.1,0.9-0.4,1.2c-0.3,0.3-0.7,0.5-1.1,0.5s-0.9-0.2-1.2-0.5c-0.3-0.3-0.5-0.7-0.5-1.1v-9
		c0-3-1.2-4.4-3.7-4.4c-0.9,0-1.7,0.2-2.4,0.6s-1.3,0.9-1.7,1.6c-0.4,0.7-0.6,1.4-0.6,2.2v9c0,0.5-0.1,0.8-0.5,1.1
		c-0.3,0.3-0.7,0.5-1.2,0.5s-0.9-0.1-1.1-0.5s-0.4-0.7-0.4-1.2v-9.1c0-1.3-0.3-2.4-0.9-3.2c-0.6-0.8-1.5-1.2-2.8-1.2
		c-1.3,0-2.4,0.4-3.3,1.3c-0.9,0.9-1.3,1.9-1.3,3.1v9.1c0,0.5-0.2,0.8-0.5,1.1s-0.7,0.5-1.2,0.5s-0.9-0.1-1.2-0.5s-0.4-0.7-0.4-1.2
		V276c0-0.5,0.2-0.8,0.5-1.1c0.3-0.3,0.7-0.5,1.1-0.5c0.5,0,0.9,0.2,1.2,0.5s0.5,0.7,0.5,1.1v1.2c0.6-0.9,1.4-1.6,2.4-2.2
		c1-0.6,2.1-0.9,3.2-0.9c2.8,0,4.6,1.2,5.5,3.7c0.5-1,1.3-1.8,2.5-2.6s2.4-1.1,3.7-1.1C109.1,274.1,111.1,276.5,111.1,281.5z"/>
	<path d="M131,283.6c-0.3,0.3-0.7,0.4-1.1,0.4h-11.9c0.2,1.6,0.8,3,1.9,4c1.1,1,2.4,1.5,4,1.5c1.1,0,2-0.2,2.6-0.5
		c0.7-0.3,1.3-0.7,1.8-1.2c0.3-0.2,0.7-0.3,1-0.3c0.4,0,0.7,0.1,1,0.4s0.4,0.6,0.4,1c0,0.5-0.2,0.9-0.7,1.3
		c-0.7,0.7-1.5,1.2-2.6,1.7s-2.2,0.7-3.3,0.7c-1.8,0-3.4-0.4-4.8-1.1s-2.5-1.8-3.2-3.2c-0.8-1.4-1.1-2.9-1.1-4.7
		c0-1.9,0.4-3.6,1.2-5c0.8-1.4,1.8-2.5,3.1-3.3s2.6-1.1,4.1-1.1c1.4,0,2.8,0.4,4.1,1.1s2.3,1.8,3.1,3.1s1.2,2.8,1.2,4.4
		C131.5,283,131.3,283.3,131,283.6z M119.9,278c-0.9,0.7-1.5,1.8-1.8,3.3h10v-0.3c-0.1-1.2-0.6-2.2-1.6-3s-2.1-1.1-3.3-1.1
		C121.9,276.9,120.8,277.3,119.9,278z"/>
	<path d="M150.8,267.5c0.3,0.3,0.5,0.7,0.5,1.2v21.9c0,0.5-0.1,0.8-0.5,1.1s-0.7,0.5-1.2,0.5s-0.9-0.1-1.1-0.5s-0.4-0.7-0.4-1.2v-1
		c-0.6,0.8-1.4,1.5-2.4,2.1s-2.1,0.9-3.3,0.9c-1.5,0-2.9-0.4-4.2-1.2s-2.2-1.9-2.9-3.3c-0.7-1.4-1.1-3-1.1-4.8s0.4-3.4,1.1-4.8
		c0.7-1.4,1.7-2.5,2.9-3.3c1.2-0.8,2.6-1.2,4.1-1.2c1.2,0,2.3,0.2,3.3,0.8s1.8,1.1,2.5,1.9v-8c0-0.5,0.1-0.9,0.4-1.2
		c0.3-0.3,0.7-0.5,1.1-0.5S150.5,267.2,150.8,267.5z M145.6,288.7c0.8-0.5,1.5-1.3,1.9-2.2c0.5-1,0.7-2,0.7-3.2
		c0-1.2-0.2-2.2-0.7-3.2c-0.5-1-1.1-1.7-1.9-2.3c-0.8-0.5-1.8-0.8-2.8-0.8s-2,0.3-2.8,0.8c-0.8,0.5-1.5,1.3-1.9,2.3
		c-0.5,1-0.7,2-0.7,3.2c0,1.2,0.2,2.3,0.7,3.2c0.5,1,1.1,1.7,1.9,2.2c0.8,0.5,1.8,0.8,2.8,0.8S144.7,289.2,145.6,288.7z"/>
	<path d="M156.1,271.6c-0.3-0.2-0.4-0.6-0.4-1.1v-0.5c0-0.5,0.1-0.9,0.5-1.1c0.3-0.2,0.8-0.3,1.4-0.3c0.6,0,1.1,0.1,1.4,0.4
		s0.4,0.6,0.4,1.1v0.5c0,0.5-0.1,0.9-0.4,1.1c-0.3,0.2-0.8,0.3-1.4,0.3C156.8,272,156.4,271.8,156.1,271.6z M158.6,291.7
		c-0.3,0.3-0.7,0.5-1.2,0.5c-0.4,0-0.8-0.2-1.1-0.5c-0.3-0.3-0.5-0.7-0.5-1.1v-14.7c0-0.5,0.1-0.8,0.5-1.1c0.3-0.3,0.7-0.5,1.1-0.5
		c0.5,0,0.9,0.2,1.2,0.5c0.3,0.3,0.5,0.7,0.5,1.1v14.7C159.1,291,159,291.4,158.6,291.7z"/>
	<path d="M179.3,274.6c0.3,0.3,0.5,0.7,0.5,1.2v14.7c0,0.5-0.1,0.8-0.5,1.1s-0.7,0.5-1.2,0.5s-0.9-0.1-1.1-0.5s-0.4-0.7-0.4-1.2
		v-0.9c-0.6,0.8-1.4,1.5-2.4,2c-1,0.5-2.1,0.8-3.3,0.8c-1.5,0-2.9-0.4-4.2-1.2c-1.2-0.8-2.2-1.9-2.9-3.3s-1.1-3-1.1-4.8
		s0.4-3.4,1.1-4.8c0.7-1.4,1.7-2.5,2.9-3.3c1.2-0.8,2.6-1.2,4.1-1.2c1.2,0,2.3,0.2,3.3,0.8s1.9,1.1,2.5,1.9v-0.8
		c0-0.5,0.1-0.9,0.4-1.2c0.3-0.3,0.7-0.5,1.1-0.5S179,274.3,179.3,274.6z M174.1,288.7c0.8-0.5,1.5-1.3,1.9-2.2c0.5-1,0.7-2,0.7-3.2
		c0-1.2-0.2-2.2-0.7-3.2c-0.5-1-1.1-1.7-1.9-2.3c-0.8-0.5-1.8-0.8-2.8-0.8s-2,0.3-2.8,0.8c-0.8,0.5-1.5,1.3-1.9,2.2
		c-0.5,1-0.7,2-0.7,3.2s0.2,2.3,0.7,3.2c0.5,1,1.1,1.7,1.9,2.2c0.8,0.5,1.8,0.8,2.8,0.8C172.3,289.5,173.3,289.2,174.1,288.7z"/>
	<path d="M212.7,290.7c0,0.5-0.1,0.8-0.5,1.1s-0.7,0.4-1.1,0.4c-0.3,0-0.6-0.1-0.9-0.3s-0.5-0.5-0.6-0.8l-2.1-5h-10.5l-2.1,5
		c-0.1,0.3-0.3,0.6-0.6,0.8s-0.6,0.3-0.9,0.3c-0.5,0-0.8-0.1-1.1-0.4s-0.4-0.6-0.4-1c0-0.1,0-0.3,0.1-0.5l8.6-21
		c0.2-0.4,0.4-0.6,0.7-0.8c0.3-0.2,0.6-0.3,1-0.2c0.3,0,0.6,0.1,0.9,0.3c0.3,0.2,0.5,0.4,0.6,0.8l8.6,20.7
		C212.7,290.2,212.7,290.5,212.7,290.7z M198.4,283.1h7.9l-4-9.5L198.4,283.1z"/>
	<path d="M228.9,275.2c1.2,0.8,2.2,1.9,2.9,3.3s1.1,3,1.1,4.8s-0.4,3.3-1.1,4.7c-0.7,1.4-1.7,2.5-2.9,3.3s-2.6,1.2-4.1,1.2
		c-1.2,0-2.3-0.3-3.3-0.8c-1-0.5-1.8-1.1-2.5-1.9v7.5c0,0.5-0.1,0.8-0.5,1.1s-0.7,0.5-1.2,0.5c-0.5,0-0.8-0.1-1.1-0.5
		c-0.3-0.3-0.5-0.7-0.5-1.2V276c0-0.5,0.1-0.9,0.4-1.2c0.3-0.3,0.7-0.5,1.1-0.5s0.9,0.2,1.2,0.5c0.3,0.3,0.5,0.7,0.5,1.2v1
		c0.5-0.8,1.3-1.5,2.4-2c1-0.6,2.1-0.9,3.3-0.9C226.2,274.1,227.6,274.5,228.9,275.2z M227.1,288.7c0.8-0.5,1.5-1.3,2-2.2
		c0.5-0.9,0.7-2,0.7-3.2s-0.2-2.2-0.7-3.2c-0.5-0.9-1.1-1.7-2-2.2c-0.8-0.5-1.8-0.8-2.8-0.8c-1.1,0-2,0.3-2.9,0.8s-1.5,1.3-2,2.2
		c-0.5,1-0.7,2-0.7,3.2s0.2,2.2,0.7,3.2c0.5,1,1.1,1.7,2,2.2c0.8,0.5,1.8,0.8,2.9,0.8C225.3,289.5,226.3,289.2,227.1,288.7z"/>
	<path d="M249.7,275.2c1.2,0.8,2.2,1.9,2.9,3.3s1.1,3,1.1,4.8s-0.4,3.3-1.1,4.7c-0.7,1.4-1.7,2.5-2.9,3.3s-2.6,1.2-4.1,1.2
		c-1.2,0-2.3-0.3-3.3-0.8c-1-0.5-1.8-1.1-2.5-1.9v7.5c0,0.5-0.1,0.8-0.5,1.1c-0.3,0.3-0.7,0.5-1.2,0.5c-0.5,0-0.8-0.1-1.1-0.5
		c-0.3-0.3-0.5-0.7-0.5-1.2V276c0-0.5,0.1-0.9,0.4-1.2s0.7-0.5,1.1-0.5s0.9,0.2,1.2,0.5c0.3,0.3,0.5,0.7,0.5,1.2v1
		c0.5-0.8,1.3-1.5,2.4-2c1-0.6,2.1-0.9,3.3-0.9C247,274.1,248.4,274.5,249.7,275.2z M247.9,288.7c0.8-0.5,1.5-1.3,2-2.2
		c0.5-0.9,0.7-2,0.7-3.2s-0.2-2.2-0.7-3.2c-0.5-0.9-1.1-1.7-2-2.2c-0.8-0.5-1.8-0.8-2.8-0.8c-1.1,0-2,0.3-2.9,0.8s-1.5,1.3-2,2.2
		c-0.5,1-0.7,2-0.7,3.2s0.2,2.2,0.7,3.2c0.5,1,1.1,1.7,2,2.2c0.8,0.5,1.8,0.8,2.9,0.8C246.2,289.5,247.1,289.2,247.9,288.7z"/>
	<path d="M282.7,270c1.5,1.1,2.7,2.5,3.4,4.3c0.8,1.8,1.1,3.8,1.1,6c0,2.2-0.4,4.2-1.1,6s-1.9,3.2-3.4,4.3s-3.3,1.6-5.5,1.6h-8.3
		c-0.5,0-0.8-0.2-1.1-0.5c-0.3-0.3-0.5-0.7-0.5-1.1V270c0-0.5,0.2-0.8,0.5-1.1c0.3-0.3,0.7-0.5,1.1-0.5h8.3
		C279.3,268.4,281.1,268.9,282.7,270z M282,286.6c1.1-1.6,1.7-3.7,1.7-6.3c0-2.5-0.6-4.6-1.8-6.3c-1.2-1.6-2.9-2.5-5.2-2.5h-6.3V289
		h6.3C279.2,289,280.9,288.2,282,286.6z"/>
	<path d="M306.5,283.6c-0.3,0.3-0.7,0.4-1.1,0.4h-11.9c0.2,1.6,0.8,3,1.9,4c1.1,1,2.4,1.5,4,1.5c1.1,0,2-0.2,2.6-0.5
		c0.7-0.3,1.3-0.7,1.8-1.2c0.3-0.2,0.7-0.3,1-0.3c0.4,0,0.7,0.1,1,0.4s0.4,0.6,0.4,1c0,0.5-0.2,0.9-0.7,1.3
		c-0.7,0.7-1.5,1.2-2.6,1.7s-2.2,0.7-3.3,0.7c-1.8,0-3.4-0.4-4.8-1.1c-1.4-0.8-2.5-1.8-3.2-3.2c-0.8-1.4-1.1-2.9-1.1-4.7
		c0-1.9,0.4-3.6,1.2-5c0.8-1.4,1.8-2.5,3.1-3.3s2.6-1.1,4.1-1.1c1.5,0,2.8,0.4,4.1,1.1c1.3,0.8,2.3,1.8,3,3.1s1.2,2.8,1.2,4.4
		C307,283,306.8,283.3,306.5,283.6z M295.4,278c-0.9,0.7-1.5,1.8-1.8,3.3h10v-0.3c-0.1-1.2-0.6-2.2-1.6-3s-2-1.1-3.3-1.1
		C297.4,276.9,296.3,277.3,295.4,278z"/>
	<path d="M309.4,288.4c0-0.5,0.2-0.8,0.7-1.1c0.2-0.2,0.5-0.2,0.8-0.2c0.4,0,0.8,0.2,1.1,0.5c0.7,0.8,1.4,1.4,2.2,1.7
		s1.7,0.6,2.8,0.6c0.9,0,1.6-0.2,2.3-0.6s1-1,1-1.8c0-0.8-0.3-1.4-1-1.8s-1.6-0.8-2.9-1.1c-1.3-0.3-2.3-0.7-3.1-1.1
		c-0.8-0.4-1.5-0.9-2.1-1.6s-0.9-1.6-0.9-2.8c0-1,0.3-1.9,0.9-2.7c0.6-0.8,1.4-1.4,2.3-1.8s2-0.6,3.1-0.6c1.1,0,2.2,0.2,3.2,0.6
		s2,1,2.6,1.9c0.3,0.3,0.4,0.6,0.4,1c0,0.4-0.2,0.7-0.5,1c-0.2,0.2-0.5,0.3-0.9,0.3c-0.4,0-0.7-0.1-1-0.4c-0.5-0.5-1.1-1-1.8-1.2
		s-1.5-0.4-2.3-0.4c-0.9,0-1.6,0.2-2.2,0.5s-0.9,0.9-0.9,1.8c0,0.8,0.4,1.4,1,1.8c0.7,0.4,1.7,0.8,3.1,1.1c1.2,0.3,2.2,0.7,3,1
		c0.8,0.4,1.5,0.9,2,1.6s0.8,1.6,0.8,2.8c0,1.1-0.3,2-0.9,2.8c-0.6,0.8-1.4,1.4-2.4,1.8c-1,0.4-2,0.6-3.1,0.6c-1.4,0-2.7-0.2-4-0.8
		s-2.2-1.3-3.1-2.4C309.5,289,309.4,288.7,309.4,288.4z"/>
	<path d="M326.9,271.6c-0.3-0.2-0.4-0.6-0.4-1.1v-0.5c0-0.5,0.1-0.9,0.5-1.1c0.3-0.2,0.8-0.3,1.4-0.3c0.6,0,1.1,0.1,1.4,0.4
		s0.4,0.6,0.4,1.1v0.5c0,0.5-0.1,0.9-0.4,1.1c-0.3,0.2-0.8,0.3-1.4,0.3C327.7,272,327.2,271.8,326.9,271.6z M329.5,291.7
		c-0.3,0.3-0.7,0.5-1.2,0.5c-0.5,0-0.8-0.2-1.1-0.5c-0.3-0.3-0.5-0.7-0.5-1.1v-14.7c0-0.5,0.1-0.8,0.5-1.1c0.3-0.3,0.7-0.5,1.1-0.5
		c0.5,0,0.9,0.2,1.2,0.5c0.3,0.3,0.5,0.7,0.5,1.1v14.7C330,291,329.8,291.4,329.5,291.7z"/>
	<path d="M350.7,274.6c0.3,0.3,0.5,0.7,0.5,1.2v14.9c0,1.8-0.4,3.4-1.2,4.6c-0.8,1.2-1.8,2.1-3.2,2.7c-1.3,0.6-2.8,0.9-4.5,0.9
		c-0.9,0-2-0.2-3.2-0.5s-2-0.6-2.3-1c-0.7-0.4-1-0.8-1-1.4c0-0.1,0-0.3,0.1-0.5c0.2-0.6,0.7-0.9,1.2-0.9c0.3,0,0.6,0.1,1,0.2
		c1.8,0.7,3.2,1,4.2,1c1.8,0,3.2-0.4,4.2-1.3c1-0.9,1.4-2.1,1.4-3.6v-1.8c-0.5,0.9-1.3,1.6-2.4,2.3s-2.3,1-3.5,1
		c-1.6,0-3-0.4-4.3-1.2c-1.3-0.8-2.3-1.9-3-3.3c-0.7-1.4-1.1-3-1.1-4.8s0.4-3.4,1.1-4.8c0.7-1.4,1.7-2.5,3-3.3s2.7-1.2,4.2-1.2
		c1.2,0,2.4,0.3,3.5,0.9s1.9,1.2,2.5,2.1v-1.1c0-0.5,0.1-0.9,0.4-1.2s0.7-0.5,1.1-0.5C350,274.1,350.3,274.3,350.7,274.6z
		 M345.3,288.7c0.9-0.5,1.5-1.3,2-2.2s0.7-2,0.7-3.2c0-1.2-0.2-2.3-0.7-3.2s-1.2-1.7-2-2.2s-1.8-0.8-3-0.8c-1.1,0-2.1,0.3-2.9,0.8
		s-1.5,1.3-2,2.3c-0.5,1-0.7,2-0.7,3.2s0.2,2.2,0.7,3.2c0.5,1,1.2,1.7,2,2.3s1.8,0.8,2.9,0.8C343.4,289.5,344.4,289.2,345.3,288.7z"
		/>
	<path d="M371.1,281.3v9.2c0,0.5-0.1,0.8-0.5,1.1c-0.3,0.3-0.7,0.5-1.2,0.5c-0.5,0-0.8-0.2-1.1-0.5s-0.5-0.7-0.5-1.1v-9.2
		c0-1.3-0.3-2.4-0.9-3.2c-0.6-0.8-1.6-1.2-3-1.2c-0.9,0-1.7,0.2-2.5,0.6c-0.7,0.4-1.3,0.9-1.7,1.6c-0.4,0.7-0.6,1.4-0.6,2.2v9.2
		c0,0.5-0.1,0.8-0.5,1.1c-0.3,0.3-0.7,0.5-1.2,0.5s-0.9-0.1-1.1-0.5s-0.4-0.7-0.4-1.2V276c0-0.5,0.1-0.8,0.5-1.1
		c0.3-0.3,0.7-0.5,1.1-0.5c0.5,0,0.9,0.2,1.2,0.5c0.3,0.3,0.5,0.7,0.5,1.1v1.2c0.6-0.9,1.4-1.7,2.5-2.3s2.2-0.9,3.4-0.9
		C369,274,371.1,276.4,371.1,281.3z"/>
	<path d="M391,283.6c-0.3,0.3-0.7,0.4-1.1,0.4h-11.9c0.2,1.6,0.8,3,1.9,4c1.1,1,2.4,1.5,4,1.5c1.1,0,2-0.2,2.6-0.5
		c0.7-0.3,1.3-0.7,1.8-1.2c0.3-0.2,0.7-0.3,1-0.3c0.4,0,0.7,0.1,1,0.4s0.4,0.6,0.4,1c0,0.5-0.2,0.9-0.7,1.3
		c-0.7,0.7-1.5,1.2-2.6,1.7s-2.2,0.7-3.3,0.7c-1.8,0-3.4-0.4-4.8-1.1c-1.4-0.8-2.5-1.8-3.2-3.2c-0.8-1.4-1.1-2.9-1.1-4.7
		c0-1.9,0.4-3.6,1.2-5c0.8-1.4,1.8-2.5,3.1-3.3s2.6-1.1,4.1-1.1c1.5,0,2.8,0.4,4.1,1.1c1.3,0.8,2.3,1.8,3,3.1s1.2,2.8,1.2,4.4
		C391.5,283,391.3,283.3,391,283.6z M379.9,278c-0.9,0.7-1.5,1.8-1.8,3.3h10v-0.3c-0.1-1.2-0.6-2.2-1.6-3s-2-1.1-3.3-1.1
		C381.9,276.9,380.8,277.3,379.9,278z"/>
	<path d="M405.6,274.4c0.4,0.3,0.6,0.7,0.6,1.1c0,0.5-0.1,1-0.4,1.2s-0.6,0.4-1,0.4c-0.2,0-0.5-0.1-0.9-0.2
		c-0.5-0.2-0.9-0.2-1.1-0.2c-0.7,0-1.4,0.2-2,0.7c-0.7,0.5-1.2,1.1-1.6,2s-0.6,1.8-0.6,2.8v8.2c0,0.5-0.1,0.8-0.5,1.1
		c-0.3,0.3-0.7,0.5-1.2,0.5s-0.9-0.1-1.1-0.5s-0.4-0.7-0.4-1.2V276c0-0.5,0.1-0.8,0.5-1.1c0.3-0.3,0.7-0.5,1.1-0.5
		c0.5,0,0.9,0.2,1.2,0.5c0.3,0.3,0.5,0.7,0.5,1.1v1.7c0.5-1.1,1.2-2,2.2-2.7s2.1-1,3.4-1.1C404.7,274,405.2,274.1,405.6,274.4z"/>
	<path d="M26.8,311.6c0.3,0.3,0.5,0.7,0.5,1.2v20.5c0,0.5-0.2,0.9-0.5,1.2s-0.7,0.5-1.2,0.5c-0.4,0-0.8-0.2-1.2-0.5
		c-0.3-0.3-0.5-0.7-0.5-1.2v-8.8H11.9v8.8c0,0.5-0.2,0.9-0.5,1.2s-0.7,0.5-1.2,0.5c-0.5,0-0.9-0.2-1.2-0.5c-0.3-0.3-0.5-0.7-0.5-1.2
		v-20.5c0-0.5,0.2-0.8,0.5-1.1c0.3-0.3,0.7-0.5,1.2-0.5c0.5,0,0.8,0.2,1.2,0.5c0.3,0.3,0.5,0.7,0.5,1.1v8.5h12v-8.5
		c0-0.5,0.2-0.8,0.5-1.1c0.3-0.3,0.7-0.5,1.2-0.5C26.1,311.1,26.5,311.3,26.8,311.6z"/>
	<path d="M49.5,311.5c0.3,0.3,0.5,0.7,0.5,1.1s-0.2,0.9-0.5,1.1s-0.7,0.4-1.2,0.4h-6v19c0,0.5-0.2,0.8-0.5,1.1
		c-0.3,0.3-0.7,0.5-1.2,0.5s-0.9-0.2-1.2-0.5c-0.3-0.3-0.5-0.7-0.5-1.1v-19h-6c-0.5,0-0.9-0.1-1.2-0.4c-0.3-0.3-0.5-0.7-0.5-1.1
		c0-0.5,0.2-0.8,0.5-1.1s0.7-0.4,1.2-0.4h15.5C48.8,311.1,49.2,311.2,49.5,311.5z"/>
	<path d="M75.6,311.6c0.3,0.3,0.5,0.7,0.5,1.1v20.5c0,0.5-0.2,0.8-0.5,1.1c-0.3,0.3-0.7,0.5-1.2,0.5c-0.5,0-0.9-0.1-1.2-0.5
		s-0.5-0.7-0.5-1.2v-15.7l-6.6,10c-0.2,0.2-0.4,0.4-0.6,0.5c-0.2,0.1-0.5,0.2-0.7,0.2c-0.2,0-0.5,0-0.7-0.2s-0.4-0.3-0.6-0.5
		l-6.6-10.3v16c0,0.5-0.1,0.9-0.4,1.2s-0.7,0.5-1.1,0.5c-0.4,0-0.8-0.1-1.1-0.5s-0.4-0.7-0.4-1.2v-20.5c0-0.4,0.2-0.8,0.5-1.1
		c0.3-0.3,0.7-0.5,1.2-0.5c0.3,0,0.5,0.1,0.8,0.2c0.3,0.1,0.5,0.3,0.6,0.5l8,12.2l8.1-12.2c0.4-0.5,0.8-0.8,1.4-0.8
		C74.9,311.1,75.3,311.3,75.6,311.6z"/>
	<path d="M96,332.1c0.3,0.3,0.5,0.7,0.5,1.1c0,0.5-0.1,0.8-0.5,1.1c-0.3,0.3-0.7,0.4-1.2,0.4H83.3c-0.5,0-0.9-0.2-1.2-0.5
		c-0.3-0.3-0.5-0.7-0.5-1.1v-20.5c0-0.5,0.2-0.8,0.5-1.1c0.3-0.3,0.7-0.5,1.2-0.5c0.4,0,0.8,0.2,1.2,0.5c0.3,0.3,0.5,0.7,0.5,1.1v19
		h9.7C95.3,331.7,95.7,331.8,96,332.1z"/>
	<path d="M108.1,338.9c-0.3-0.3-0.5-0.6-0.5-1c0-0.2,0.1-0.4,0.2-0.7l14.2-28.6c0.3-0.6,0.8-0.9,1.3-0.9c0.3,0,0.7,0.1,0.9,0.4
		s0.4,0.6,0.4,1c0,0.3-0.1,0.5-0.2,0.8l-14.2,28.6c-0.3,0.6-0.7,0.9-1.3,0.9C108.8,339.3,108.4,339.2,108.1,338.9z"/>
	<path d="M139.7,334.2c-1.1-0.6-2-1.5-2.7-2.6c-0.2-0.3-0.3-0.6-0.3-0.9c0-0.4,0.2-0.8,0.5-1.1c0.3-0.3,0.7-0.5,1.1-0.5
		c0.5,0,1,0.3,1.5,0.9c0.9,1.3,2.1,2,3.6,2c1.2,0,2.3-0.4,3.2-1.2c0.9-0.8,1.3-1.9,1.3-3.1v-14.9c0-0.5,0.2-0.8,0.5-1.1
		s0.7-0.5,1.2-0.5c0.5,0,0.9,0.1,1.2,0.5c0.3,0.3,0.5,0.7,0.5,1.2v14.9c0,1.4-0.3,2.6-1,3.8c-0.7,1.1-1.6,2.1-2.8,2.8s-2.5,1-4,1
		C142,335.2,140.8,334.9,139.7,334.2z"/>
	<path d="M159.6,334.5c-1.3-0.5-2.5-1.2-3.6-2.3c-0.5-0.4-0.7-0.9-0.7-1.4c0-0.4,0.2-0.8,0.5-1.1c0.3-0.3,0.7-0.5,1.1-0.5
		c0.4,0,0.7,0.1,1,0.4c0.9,0.8,1.8,1.5,2.8,1.9s2.1,0.6,3.3,0.6c1.4,0,2.6-0.3,3.6-1c1-0.7,1.5-1.5,1.5-2.5c0-1.2-0.5-2.1-1.5-2.7
		c-1-0.6-2.4-1.2-4.4-1.6c-2.3-0.5-4.1-1.2-5.4-2.3c-1.3-1.1-1.9-2.6-1.9-4.5c0-1.3,0.4-2.5,1.1-3.5s1.7-1.8,2.9-2.3
		c1.2-0.5,2.6-0.8,4.2-0.8c1.4,0,2.7,0.2,4,0.7c1.2,0.5,2.2,1,3,1.8c0.5,0.5,0.8,0.9,0.8,1.5c0,0.4-0.1,0.8-0.5,1.1
		c-0.3,0.3-0.7,0.5-1.1,0.5c-0.3,0-0.6-0.1-0.8-0.3c-0.6-0.6-1.4-1.1-2.4-1.5c-1-0.4-2-0.6-3-0.6c-1.5,0-2.7,0.3-3.6,0.9
		s-1.3,1.4-1.3,2.5c0,1.1,0.4,2,1.3,2.5c0.9,0.6,2.2,1.1,4,1.5c1.8,0.4,3.2,0.8,4.3,1.4s2,1.2,2.6,2.2c0.6,0.9,0.9,2.1,0.9,3.6
		c0,1.3-0.4,2.5-1.1,3.5s-1.7,1.8-3,2.4c-1.3,0.6-2.7,0.9-4.2,0.9C162.3,335.2,160.9,335,159.6,334.5z"/>
	<path d="M184.3,338.9c-0.3-0.3-0.5-0.6-0.5-1c0-0.2,0.1-0.4,0.2-0.7l14.2-28.6c0.3-0.6,0.8-0.9,1.3-0.9c0.3,0,0.7,0.1,0.9,0.4
		s0.4,0.6,0.4,1c0,0.3-0.1,0.5-0.2,0.8l-14.2,28.6c-0.3,0.6-0.7,0.9-1.3,0.9C184.9,339.3,184.6,339.2,184.3,338.9z"/>
	<path d="M232.3,333.4c0,0.5-0.1,0.8-0.5,1.1c-0.3,0.3-0.7,0.4-1.1,0.4c-0.3,0-0.6-0.1-0.9-0.3s-0.5-0.5-0.6-0.8l-2.1-5h-10.5
		l-2.1,5c-0.1,0.3-0.3,0.6-0.6,0.8s-0.6,0.3-0.9,0.3c-0.5,0-0.8-0.1-1.1-0.4s-0.4-0.6-0.4-1c0-0.1,0-0.3,0.1-0.5l8.6-21
		c0.2-0.4,0.4-0.6,0.7-0.8c0.3-0.2,0.6-0.3,1-0.2c0.3,0,0.6,0.1,0.9,0.3c0.3,0.2,0.5,0.4,0.6,0.8l8.6,20.7
		C232.3,333,232.3,333.2,232.3,333.4z M218,325.8h7.9l-4-9.5L218,325.8z"/>
	<path d="M254.5,311.5c0.3,0.3,0.4,0.6,0.4,1.1v20.6c0,0.5-0.1,0.9-0.5,1.2s-0.7,0.5-1.2,0.5c-0.2,0-0.5,0-0.7-0.1
		c-0.2-0.1-0.4-0.2-0.6-0.4L238.7,317v16.4c0,0.4-0.1,0.8-0.4,1.1s-0.6,0.4-1.1,0.4s-0.8-0.1-1-0.4s-0.4-0.6-0.4-1.1v-20.6
		c0-0.5,0.1-0.9,0.5-1.2c0.3-0.3,0.7-0.5,1.1-0.5c0.3,0,0.5,0,0.8,0.1s0.4,0.2,0.6,0.4l13.3,17.4v-16.5c0-0.4,0.1-0.8,0.4-1.1
		s0.6-0.4,1.1-0.4S254.3,311.2,254.5,311.5z"/>
	<path d="M263.4,334.4c-0.3,0.3-0.7,0.5-1.2,0.5c-0.5,0-0.9-0.2-1.2-0.5c-0.3-0.3-0.5-0.7-0.5-1.2v-20.5c0-0.5,0.2-0.8,0.5-1.1
		c0.3-0.3,0.7-0.5,1.2-0.5c0.5,0,0.8,0.2,1.2,0.5c0.3,0.3,0.5,0.7,0.5,1.1v20.5C263.9,333.7,263.8,334.1,263.4,334.4z"/>
	<path d="M291.3,311.6c0.3,0.3,0.5,0.7,0.5,1.1v20.5c0,0.5-0.1,0.8-0.5,1.1c-0.3,0.3-0.7,0.5-1.2,0.5c-0.5,0-0.9-0.1-1.2-0.5
		s-0.5-0.7-0.5-1.2v-15.7l-6.6,10c-0.2,0.2-0.4,0.4-0.6,0.5s-0.5,0.2-0.7,0.2c-0.2,0-0.5,0-0.7-0.2s-0.4-0.3-0.6-0.5l-6.6-10.3v16
		c0,0.5-0.1,0.9-0.4,1.2c-0.3,0.3-0.7,0.5-1.1,0.5c-0.5,0-0.8-0.1-1.1-0.5s-0.4-0.7-0.4-1.2v-20.5c0-0.4,0.2-0.8,0.5-1.1
		c0.3-0.3,0.7-0.5,1.2-0.5c0.3,0,0.5,0.1,0.8,0.2c0.3,0.1,0.5,0.3,0.6,0.5l8,12.2l8.1-12.2c0.4-0.5,0.8-0.8,1.4-0.8
		C290.6,311.1,291,311.3,291.3,311.6z"/>
	<path d="M315.8,333.4c0,0.5-0.1,0.8-0.5,1.1c-0.3,0.3-0.7,0.4-1.1,0.4c-0.3,0-0.6-0.1-0.9-0.3s-0.5-0.5-0.6-0.8l-2.1-5h-10.5
		l-2.1,5c-0.1,0.3-0.3,0.6-0.6,0.8s-0.5,0.3-0.9,0.3c-0.5,0-0.8-0.1-1.1-0.4s-0.4-0.6-0.4-1c0-0.1,0-0.3,0.1-0.5l8.6-21
		c0.2-0.4,0.4-0.6,0.7-0.8c0.3-0.2,0.6-0.3,1-0.2c0.3,0,0.6,0.1,0.9,0.3c0.3,0.2,0.5,0.4,0.6,0.8l8.6,20.7
		C315.8,333,315.8,333.2,315.8,333.4z M301.5,325.8h7.9l-4-9.5L301.5,325.8z"/>
	<path d="M334.1,311.5c0.3,0.3,0.5,0.7,0.5,1.1s-0.1,0.9-0.5,1.1s-0.7,0.4-1.2,0.4h-6v19c0,0.5-0.2,0.8-0.5,1.1s-0.7,0.5-1.2,0.5
		s-0.9-0.2-1.2-0.5s-0.5-0.7-0.5-1.1v-19h-6c-0.5,0-0.9-0.1-1.2-0.4c-0.3-0.3-0.5-0.7-0.5-1.1c0-0.5,0.1-0.8,0.5-1.1
		c0.3-0.3,0.7-0.4,1.2-0.4h15.5C333.4,311.1,333.8,311.2,334.1,311.5z"/>
	<path d="M353.1,332.2c0.3,0.3,0.5,0.7,0.5,1.1c0,0.5-0.1,0.8-0.5,1.1s-0.7,0.4-1.2,0.4h-11.8c-0.5,0-0.8-0.2-1.1-0.5
		c-0.3-0.3-0.5-0.7-0.5-1.1v-20.5c0-0.5,0.2-0.8,0.5-1.1c0.3-0.3,0.7-0.5,1.1-0.5h11.8c0.5,0,0.9,0.1,1.2,0.4
		c0.3,0.3,0.5,0.7,0.5,1.1c0,0.5-0.1,0.8-0.5,1.1s-0.7,0.4-1.2,0.4h-10.1v6.9h8.5c0.5,0,0.9,0.1,1.2,0.4c0.3,0.3,0.5,0.7,0.5,1.1
		c0,0.5-0.1,0.9-0.5,1.1s-0.7,0.4-1.2,0.4h-8.5v7.5h10.1C352.4,331.7,352.8,331.9,353.1,332.2z"/>
</g>
<g>
	<path d="M22.7,394c0.1,0.1,0.2,0.3,0.2,0.5c0,0.2-0.1,0.4-0.2,0.5s-0.3,0.2-0.5,0.2H9.8c-0.2,0-0.4-0.1-0.5-0.2
		c-0.1-0.1-0.2-0.3-0.2-0.5v-22.4c0-0.2,0.1-0.3,0.2-0.5c0.1-0.1,0.3-0.2,0.5-0.2c0.2,0,0.4,0.1,0.5,0.2s0.2,0.3,0.2,0.5v21.7h11.7
		C22.4,393.8,22.6,393.9,22.7,394z"/>
	<path d="M38.7,377.9c0.1,0.1,0.2,0.3,0.2,0.5v15.1c0,1.7-0.3,3.2-1,4.5c-0.7,1.3-1.6,2.3-2.8,3s-2.6,1-4.1,1c-1,0-1.9-0.1-2.7-0.4
		c-0.8-0.2-1.5-0.5-2.1-0.9c-0.4-0.3-0.5-0.6-0.4-0.9c0.2-0.3,0.3-0.4,0.6-0.4c0.1,0,0.2,0,0.3,0.1c0.5,0.3,1.2,0.6,1.9,0.9
		c0.8,0.3,1.6,0.4,2.4,0.4c1.3,0,2.4-0.3,3.4-0.9c1-0.6,1.8-1.5,2.3-2.6s0.8-2.4,0.8-3.8v-1.5c-0.5,1-1.3,1.9-2.5,2.5s-2.3,1-3.5,1
		c-2,0-3.6-0.6-4.6-1.8c-1-1.2-1.5-2.8-1.5-4.8v-10.6c0-0.2,0.1-0.3,0.2-0.5c0.1-0.1,0.3-0.2,0.5-0.2s0.4,0.1,0.5,0.2
		c0.1,0.1,0.2,0.3,0.2,0.5v10.6c0,3.5,1.6,5.3,4.7,5.3c1,0,1.9-0.2,2.9-0.8s1.7-1.2,2.3-2c0.6-0.8,0.9-1.6,0.9-2.5v-10.6
		c0-0.2,0.1-0.3,0.2-0.5c0.1-0.1,0.3-0.2,0.5-0.2S38.6,377.7,38.7,377.9z"/>
	<path d="M58.8,391.1c-0.7,1.4-1.7,2.4-3,3.2s-2.7,1.2-4.3,1.2s-3-0.4-4.3-1.2s-2.3-1.9-3-3.2s-1.1-2.9-1.1-4.5
		c0-1.7,0.4-3.2,1.1-4.5c0.7-1.4,1.7-2.4,3-3.2c1.3-0.8,2.7-1.2,4.3-1.2c1.6,0,3,0.4,4.3,1.2s2.3,1.9,3,3.2s1.1,2.9,1.1,4.5
		C59.9,388.3,59.6,389.8,58.8,391.1z M57.7,382.7c-0.6-1.1-1.4-2.1-2.5-2.7s-2.3-1-3.6-1c-1.3,0-2.5,0.3-3.6,1
		c-1.1,0.7-1.9,1.6-2.5,2.7c-0.6,1.1-0.9,2.5-0.9,3.9c0,1.4,0.3,2.7,0.9,3.9c0.6,1.1,1.4,2.1,2.5,2.7c1.1,0.7,2.3,1,3.6,1
		c1.3,0,2.5-0.3,3.6-1c1.1-0.7,1.9-1.6,2.5-2.7c0.6-1.2,0.9-2.5,0.9-3.9C58.6,385.1,58.3,383.8,57.7,382.7z"/>
	<path d="M76.6,379.5c1,1.2,1.5,2.7,1.5,4.6v10.4c0,0.2-0.1,0.3-0.2,0.5s-0.3,0.2-0.5,0.2c-0.2,0-0.4-0.1-0.5-0.2
		c-0.1-0.1-0.2-0.3-0.2-0.5v-10.2c0-1.5-0.4-2.8-1.2-3.8c-0.8-1-2-1.5-3.7-1.5c-1,0-2,0.2-2.9,0.7s-1.8,1.1-2.4,1.9
		s-0.9,1.7-0.9,2.6v10.2c0,0.2-0.1,0.3-0.2,0.5s-0.3,0.2-0.5,0.2c-0.2,0-0.4-0.1-0.5-0.2c-0.1-0.1-0.2-0.3-0.2-0.5v-15.6
		c0-0.2,0.1-0.3,0.2-0.5s0.3-0.2,0.5-0.2c0.2,0,0.4,0.1,0.5,0.2c0.1,0.1,0.2,0.3,0.2,0.5v2.3c0.7-1,1.6-1.9,2.8-2.5
		c1.2-0.7,2.4-1,3.6-1C74.1,377.7,75.6,378.3,76.6,379.5z"/>
	<path d="M85.1,397c-0.3,0.6-0.7,1.1-1.2,1.4S83,399,82.6,399c-0.2,0-0.3,0-0.4-0.1c-0.1-0.1-0.2-0.2-0.2-0.4c0-0.2,0-0.3,0.1-0.4
		c0.1-0.1,0.2-0.1,0.5-0.2c0.2-0.1,0.4-0.1,0.6-0.2c0.3-0.2,0.6-0.4,0.7-0.8c0.2-0.3,0.2-0.7,0.2-1c0-0.5-0.2-0.8-0.6-0.8
		c-0.3,0-0.6,0.1-0.9,0.3c-0.2-0.2-0.3-0.5-0.3-0.7c0-0.3,0.2-0.5,0.5-0.8s0.7-0.3,1-0.3c0.5,0,0.9,0.1,1.2,0.4s0.4,0.7,0.4,1.1
		C85.5,395.8,85.4,396.4,85.1,397z"/>
	<path d="M113.1,371.6c0.1,0.1,0.2,0.3,0.2,0.5c0,0.2-0.1,0.4-0.2,0.5c-0.1,0.1-0.3,0.2-0.5,0.2h-12.1v9.4h10.6
		c0.2,0,0.3,0.1,0.5,0.2s0.2,0.3,0.2,0.5c0,0.2-0.1,0.4-0.2,0.5c-0.1,0.1-0.3,0.2-0.5,0.2h-10.6v11c0,0.2-0.1,0.3-0.2,0.5
		c-0.1,0.1-0.3,0.2-0.5,0.2s-0.4-0.1-0.5-0.2c-0.1-0.1-0.2-0.3-0.2-0.5v-22.4c0-0.2,0.1-0.3,0.2-0.5c0.1-0.1,0.3-0.2,0.5-0.2h12.8
		C112.8,371.4,113,371.5,113.1,371.6z"/>
	<path d="M126.7,378.5c0,0.2-0.1,0.4-0.2,0.5s-0.3,0.2-0.4,0.2c-0.1,0-0.2,0-0.5-0.1c-0.3-0.1-0.5-0.1-0.8-0.1
		c-0.9,0-1.9,0.4-2.8,1.1c-0.9,0.7-1.7,1.7-2.3,2.8c-0.6,1.1-0.9,2.2-0.9,3.2v8.5c0,0.2-0.1,0.3-0.2,0.5s-0.3,0.2-0.5,0.2
		c-0.2,0-0.4-0.1-0.5-0.2c-0.1-0.1-0.2-0.3-0.2-0.5v-15.6c0-0.2,0.1-0.3,0.2-0.5s0.3-0.2,0.5-0.2c0.2,0,0.4,0.1,0.5,0.2
		c0.1,0.1,0.2,0.3,0.2,0.5v3.6c0.5-1.4,1.3-2.5,2.4-3.4c1.1-0.9,2.4-1.4,3.9-1.4C126.2,377.7,126.7,377.9,126.7,378.5z"/>
	<path d="M144,378.4c0.1,0.1,0.2,0.3,0.2,0.5v15.6c0,0.2-0.1,0.3-0.2,0.5s-0.3,0.2-0.5,0.2c-0.2,0-0.4-0.1-0.5-0.2
		c-0.1-0.1-0.2-0.3-0.2-0.5v-3c-0.6,1.1-1.4,2.1-2.6,2.9c-1.2,0.8-2.5,1.2-3.9,1.2c-1.5,0-2.8-0.4-4-1.2s-2.1-1.9-2.8-3.2
		c-0.7-1.4-1-2.9-1-4.6c0-1.7,0.3-3.2,1-4.5c0.7-1.3,1.6-2.4,2.8-3.1c1.2-0.8,2.5-1.1,4-1.1s2.8,0.4,4,1.1c1.2,0.8,2,1.8,2.5,3.1v-3
		c0-0.2,0.1-0.3,0.2-0.5c0.1-0.1,0.3-0.2,0.5-0.2S143.8,378.3,144,378.4z M139.7,393.2c1-0.7,1.8-1.6,2.4-2.8
		c0.6-1.2,0.9-2.5,0.9-3.9c0-1.4-0.3-2.6-0.9-3.8s-1.4-2.1-2.4-2.7s-2.1-1-3.4-1c-1.2,0-2.4,0.3-3.4,1s-1.8,1.5-2.4,2.7
		c-0.6,1.1-0.9,2.4-0.9,3.9s0.3,2.8,0.9,3.9c0.6,1.2,1.4,2.1,2.3,2.8c1,0.7,2.1,1,3.4,1C137.6,394.2,138.7,393.9,139.7,393.2z"/>
	<path d="M162,379.5c1,1.2,1.5,2.7,1.5,4.6v10.4c0,0.2-0.1,0.3-0.2,0.5s-0.3,0.2-0.5,0.2c-0.2,0-0.4-0.1-0.5-0.2
		c-0.1-0.1-0.2-0.3-0.2-0.5v-10.2c0-1.5-0.4-2.8-1.2-3.8s-2-1.5-3.6-1.5c-1,0-2,0.2-2.9,0.7c-1,0.5-1.8,1.1-2.4,1.9
		s-0.9,1.7-0.9,2.6v10.2c0,0.2-0.1,0.3-0.2,0.5s-0.3,0.2-0.5,0.2c-0.2,0-0.4-0.1-0.5-0.2c-0.1-0.1-0.2-0.3-0.2-0.5v-15.6
		c0-0.2,0.1-0.3,0.2-0.5s0.3-0.2,0.5-0.2c0.2,0,0.4,0.1,0.5,0.2c0.1,0.1,0.2,0.3,0.2,0.5v2.3c0.7-1,1.6-1.9,2.8-2.5s2.4-1,3.6-1
		C159.5,377.7,161,378.3,162,379.5z"/>
	<path d="M179.4,378c0.9,0.2,1.6,0.5,2.2,0.9c0.6,0.4,0.8,0.8,0.8,1.2c0,0.2-0.1,0.3-0.2,0.5c-0.1,0.1-0.3,0.2-0.5,0.2
		c-0.2,0-0.4,0-0.5-0.1s-0.2-0.2-0.4-0.4c-0.3-0.3-0.6-0.6-0.9-0.8c-0.8-0.4-2-0.6-3.5-0.6c-1.3,0-2.5,0.3-3.6,1s-2,1.6-2.6,2.8
		c-0.6,1.2-1,2.4-1,3.8c0,1.5,0.3,2.8,0.9,3.9c0.6,1.2,1.4,2.1,2.5,2.7c1.1,0.7,2.3,1,3.7,1c0.9,0,1.6-0.1,2.1-0.2s1-0.4,1.6-0.7
		c0.4-0.2,0.7-0.5,0.9-0.8c0.1-0.1,0.2-0.2,0.3-0.3c0.1-0.1,0.2-0.1,0.3-0.1c0.2,0,0.3,0.1,0.4,0.2c0.1,0.1,0.1,0.3,0.1,0.4
		c0,0.3-0.3,0.7-0.8,1.1s-1.2,0.8-2.1,1.1s-1.9,0.5-3.1,0.5c-1.6,0-3.1-0.4-4.4-1.1s-2.3-1.8-3-3.2c-0.7-1.4-1.1-2.9-1.1-4.6
		c0-1.6,0.4-3,1.1-4.4c0.7-1.4,1.7-2.4,3-3.3c1.3-0.8,2.8-1.2,4.5-1.2C177.5,377.7,178.5,377.8,179.4,378z"/>
	<path d="M200.4,391.3c0.1,0.1,0.2,0.3,0.2,0.4s-0.1,0.3-0.1,0.4c-0.8,1-1.7,1.8-2.8,2.4s-2.3,1-3.6,1c-1.7,0-3.2-0.4-4.5-1.1
		s-2.3-1.8-3.1-3.1c-0.7-1.3-1.1-2.9-1.1-4.6c0-1.8,0.4-3.4,1.1-4.8s1.7-2.4,2.8-3.1c1.2-0.7,2.4-1.1,3.8-1.1s2.6,0.3,3.7,0.9
		s2.1,1.4,2.8,2.6c0.7,1.1,1.1,2.6,1.1,4.3c0,0.2-0.1,0.4-0.2,0.5c-0.1,0.1-0.3,0.2-0.5,0.2h-13.3v0.4c0,1.4,0.3,2.7,0.9,3.9
		c0.6,1.2,1.4,2.1,2.5,2.8s2.4,1,4,1c1.1,0,2.1-0.3,3.1-0.8s1.7-1.2,2.3-2c0.2-0.2,0.4-0.3,0.6-0.3
		C200.1,391.1,200.3,391.1,200.4,391.3z M190.5,379.7c-0.9,0.4-1.6,1.1-2.3,2s-1.1,1.9-1.3,3.2h12.5v-0.3c-0.1-1.1-0.5-2.1-1.1-3
		c-0.6-0.8-1.4-1.5-2.3-1.9s-1.9-0.6-2.9-0.6C192.2,379,191.4,379.3,190.5,379.7z"/>
</g>
</svg>
