<?xml version="1.0" encoding="utf-8"?>
<!-- Generator: Adobe Illustrator 26.5.0, SVG Export Plug-In . SVG Version: 6.00 Build 0)  -->
<svg version="1.1" id="Calque_1" xmlns="http://www.w3.org/2000/svg" xmlns:xlink="http://www.w3.org/1999/xlink" x="0px" y="0px"
	 viewBox="0 0 566.9 510.2" style="enable-background:new 0 0 566.9 510.2;" xml:space="preserve">
<g>
	<g>
		<path d="M89.1,14.3c0.5,0.8,1.1,1.6,1.1,2.5v128.4c0,0.9-0.3,1.8-1.1,2.5s-1.6,1.1-2.5,1.1c-1.1,0-2-0.3-2.7-1.1
			c-0.5-0.8-1.1-1.6-1.1-2.5v-17.5c-2.9,6.5-7.6,12-13.8,16.3c-6.4,4.4-13.4,6.6-21.3,6.6c-8,0-15-2.1-21.6-6.4
			c-6.6-4.2-11.8-10-15.6-17.4c-3.7-7.4-5.6-15.6-5.6-24.6S6.5,85,10.3,77.7c3.7-7.4,8.8-13.2,15.4-17.2c6.5-4.1,13.7-6.2,21.6-6.2
			c7.6,0,14.6,2.1,21.1,6.4s11.3,9.9,14.4,16.8V16.8c0-1.1,0.3-1.8,1.1-2.5c0.5-0.8,1.5-1.1,2.7-1.1C87.9,13.2,88.4,13.5,89.1,14.3z
			 M66.2,138.4c5.4-3.6,9.7-8.5,12.6-14.8c3-6.4,4.5-13.4,4.5-21.1c0-7.8-1.5-14.8-4.5-21.1c-3-6.2-7.2-11.2-12.6-14.6
			c-5.4-3.4-11.5-5.3-18.3-5.3c-6.6,0-12.6,1.8-18.1,5.3s-9.7,8.5-12.9,14.8c-3.2,6.2-4.7,13.2-4.7,21s1.5,14.9,4.7,21.1
			s7.4,11.2,12.9,14.8c5.5,3.6,11.4,5.4,18.1,5.4C54.7,143.8,60.8,141.9,66.2,138.4z"/>
		<path d="M195.3,127.9c0.5,0.5,0.9,1.3,0.9,2.3c0,0.9-0.3,1.6-0.8,2.3c-4.1,5.4-9,9.8-15,13.3c-6,3.5-12.4,5.2-19.3,5.2
			c-9.2,0-17.4-2-24.5-5.9c-7.1-4-12.6-9.6-16.6-16.8s-5.9-15.6-5.9-25.2c0-9.8,2-18.5,5.7-25.8c4-7.4,8.9-13.2,15.4-16.9
			c6.5-3.7,13.2-5.9,20.4-5.9s13.8,1.5,20.1,4.7c6.2,3.2,11.2,7.8,15,14.1c4,6.2,6,13.8,6.2,23.1c0,1.1-0.3,1.8-1.1,2.7
			c-0.8,0.8-1.6,1.2-2.5,1.2h-72.1v2.4c0,7.6,1.5,14.5,4.5,20.9c3,6.4,7.6,11.3,13.6,14.9c6,3.6,13.3,5.4,21.6,5.4
			c5.9,0,11.4-1.3,16.6-4.4c5.2-2.9,9.2-6.5,12.2-10.9c0.9-1.1,1.8-1.6,3.2-1.6C193.9,126.9,194.6,127.1,195.3,127.9z M141.7,65.3
			c-4.7,2.4-8.9,5.9-12.5,10.8c-3.6,4.7-6,10.4-7.2,17.2h67.4v-1.6c-0.5-6.2-2.5-11.6-5.9-16c-3.3-4.4-7.6-7.8-12.5-10.2
			c-4.9-2.3-10.1-3.5-15.6-3.5C151,61.8,146.5,63,141.7,65.3z"/>
		<path d="M291.8,54.8c0.8,0.5,1.2,1.2,1.2,2.1c0,0.8-0.1,1.5-0.5,2.3l-36.6,87.2c-0.3,0.8-0.8,1.3-1.3,1.6
			c-0.5,0.4-1.3,0.5-2.1,0.5s-1.3-0.1-2.1-0.5c-0.5-0.4-1.2-1.1-1.3-1.6l-36.7-87.1c-0.3-0.8-0.3-1.2-0.3-1.6c0-1.1,0.3-1.8,1.1-2.5
			c0.5-0.8,1.6-1.1,2.9-1.1c0.5,0,1.2,0.1,2,0.5c0.5,0.4,1.2,1.1,1.3,1.8l33.2,79.9l33.4-79.9c0.5-1.6,2-2.4,4-2.4
			C290.2,54.1,291,54.3,291.8,54.8z"/>
	</g>
	<g>
		<path d="M130.6,326.7c-1.5-1.5-2.3-3.5-2.3-5.7v-1.6c0-4.1,2.5-6.6,7.6-7.8c7.8-2.3,11.8-8.3,11.8-18.5v-87.5
			c0-2.4,0.9-4.5,2.4-6.2s3.7-2.5,6.4-2.5c2.4,0,4.5,0.9,6.2,2.5c1.6,1.6,2.4,3.7,2.4,6.2v91.9c0,6.4-1.3,12-4,16.8
			c-2.5,4.8-6.2,8.5-10.5,11c-4.4,2.5-9,3.7-14.2,3.7C134.1,329.1,132.1,328.3,130.6,326.7z M148.6,181.9c-1.5-1.3-2.3-3.3-2.3-6.2
			v-2.9c0-2.9,0.9-4.9,2.4-6.2c1.5-1.2,4.2-1.8,7.6-1.8c3.5,0,5.9,0.5,7.4,2c1.5,1.3,2.3,3.3,2.3,6.2v2.9c0,2.9-0.8,4.9-2.4,6.2
			s-4.1,1.8-7.6,1.8C152.7,183.8,150.1,183.1,148.6,181.9z"/>
		<path d="M258.9,199.2c6.4,3,9.7,6.9,9.7,11.8c0,2.1-0.5,4-2,5.6c-1.3,1.6-3,2.4-5.2,2.4c-1.6,0-2.9-0.3-3.7-0.8
			c-0.9-0.4-2.1-1.3-3.7-2.4c-0.8-0.8-2-1.6-3.5-2.5c-1.5-0.8-3.6-1.3-6.2-1.8c-2.7-0.4-5.2-0.8-7.4-0.8c-6.4,0-12,1.5-16.9,4.4
			c-4.8,2.9-8.8,6.9-11.3,12.2c-2.7,5.2-4.1,11-4.1,17.4c0,6.5,1.3,12.2,4,17.5c2.5,5.2,6.4,9.2,11.2,12.1
			c4.8,2.9,10.2,4.4,16.3,4.4c6.4,0,11.4-0.9,15.4-2.9c0.9-0.4,2-1.3,3.5-2.4c1.2-0.9,2.3-1.6,3.2-2.3c0.9-0.4,2.1-0.8,3.3-0.8
			c2.4,0,4.4,0.8,5.7,2.3s2.1,3.5,2.1,5.9c0,2.5-1.6,5.2-4.8,7.6c-3.2,2.5-7.6,4.5-13,6.2s-11.3,2.4-17.5,2.4
			c-9.3,0-17.5-2.1-24.6-6.5s-12.5-10.4-16.5-18c-4-7.6-5.7-16.1-5.7-25.7c0-9.3,2-18,6-25.7c4.1-7.7,9.7-13.6,16.9-18
			c7.2-4.4,15.4-6.5,24.7-6.5C244.5,194.7,252.4,196.1,258.9,199.2z"/>
		<path d="M368.5,284.2c0,2.4-0.9,4.5-2.9,6.2c-2,1.6-4,2.4-6,2.4c-2.7,0-4.8-0.9-6.4-2.9l-36-38.3l-11,10v22.7
			c0,2.4-0.9,4.5-2.4,6.2c-1.6,1.6-3.6,2.5-6.2,2.5c-2.5,0-4.7-0.9-6.4-2.5s-2.4-3.7-2.4-6.2V166.1c0-2.4,0.9-4.5,2.4-6.2
			c1.5-1.6,3.7-2.5,6.4-2.5c2.4,0,4.5,0.9,6.2,2.5s2.4,3.7,2.4,6.2v74.6l45-41.4c2.1-1.8,4.2-2.7,6.4-2.7s4,0.9,5.7,2.7
			c1.6,1.8,2.5,3.6,2.5,5.6c0,2.4-1.2,4.7-3.5,6.6l-31.7,28.2l35.2,38.2C367.6,279.8,368.5,281.9,368.5,284.2z"/>
	</g>
</g>
<g>
	<path d="M51.8,358.9c0.5,0.4,0.7,1,0.7,1.6c0,0.2,0,0.5-0.1,0.7l-9.1,26.6c-0.1,0.4-0.4,0.7-0.7,0.9c-0.4,0.2-0.8,0.3-1.2,0.4
		c-0.4,0-0.8-0.1-1.2-0.4c-0.4-0.2-0.7-0.6-0.8-1l-6.9-16.1l-6.8,16.1c-0.2,0.4-0.5,0.8-0.8,1c-0.4,0.2-0.8,0.4-1.2,0.4
		c-0.4,0-0.8-0.2-1.1-0.4c-0.4-0.2-0.6-0.5-0.7-0.9l-9.1-26.6c-0.1-0.3-0.1-0.5-0.1-0.7c0-0.6,0.2-1.2,0.7-1.6
		c0.5-0.4,1-0.6,1.6-0.6c0.5,0,0.9,0.1,1.3,0.4c0.4,0.2,0.6,0.6,0.7,1l7.4,22l6.4-15.7c0.2-0.4,0.4-0.7,0.8-1
		c0.4-0.2,0.7-0.4,1.2-0.4s0.8,0.1,1.2,0.4c0.4,0.2,0.6,0.6,0.8,1l6.2,15.7l7.4-22c0.1-0.4,0.4-0.8,0.7-1c0.4-0.2,0.8-0.4,1.3-0.4
		C50.9,358.3,51.4,358.5,51.8,358.9z"/>
	<path d="M75.6,378.2c-0.4,0.4-0.9,0.6-1.5,0.6H58.6c0.2,2.1,1,3.9,2.4,5.1c1.4,1.3,3.2,1.9,5.2,1.9c1.4,0,2.6-0.2,3.4-0.6
		c0.9-0.4,1.7-0.9,2.3-1.6c0.4-0.3,0.9-0.4,1.3-0.4c0.5,0,0.9,0.2,1.3,0.5c0.3,0.4,0.5,0.8,0.5,1.2c0,0.6-0.3,1.2-0.9,1.7
		c-0.9,0.9-2,1.6-3.4,2.2c-1.4,0.6-2.8,0.9-4.3,0.9c-2.4,0-4.5-0.5-6.3-1.5c-1.8-1-3.2-2.4-4.2-4.2c-1-1.8-1.5-3.8-1.5-6.1
		c0-2.5,0.5-4.6,1.5-6.5c1-1.9,2.3-3.3,4-4.3s3.4-1.5,5.3-1.5c1.9,0,3.6,0.5,5.3,1.5c1.6,1,3,2.3,4,4c1,1.7,1.5,3.6,1.5,5.7
		C76.2,377.4,76,377.8,75.6,378.2z M61.2,370.9c-1.2,0.9-2,2.4-2.4,4.3h13v-0.4c-0.1-1.6-0.8-2.8-2.1-3.8c-1.2-1-2.7-1.5-4.2-1.5
		C63.8,369.5,62.4,370,61.2,370.9z"/>
	<path d="M98,367.2c1.6,1,2.9,2.4,3.8,4.3c0.9,1.8,1.4,3.9,1.4,6.2s-0.5,4.4-1.4,6.2s-2.2,3.3-3.8,4.3c-1.6,1-3.4,1.5-5.3,1.5
		c-1.5,0-2.9-0.3-4.3-1c-1.3-0.7-2.4-1.5-3.2-2.5v1.3c0,0.6-0.2,1.1-0.6,1.5c-0.4,0.4-0.9,0.6-1.5,0.6c-0.6,0-1.1-0.2-1.5-0.6
		c-0.4-0.4-0.6-0.9-0.6-1.5v-28.6c0-0.6,0.2-1.1,0.6-1.5c0.4-0.4,0.9-0.6,1.5-0.6c0.6,0,1.1,0.2,1.5,0.6c0.4,0.4,0.6,0.9,0.6,1.5
		v10.7c0.7-1.1,1.7-2,3.1-2.7c1.3-0.8,2.8-1.1,4.3-1.1C94.6,365.7,96.4,366.2,98,367.2z M95.8,384.7c1.1-0.7,1.9-1.7,2.5-2.9
		c0.6-1.2,0.9-2.6,0.9-4.2c0-1.5-0.3-2.9-0.9-4.1c-0.6-1.2-1.4-2.2-2.5-2.9c-1.1-0.7-2.3-1.1-3.7-1.1c-1.4,0-2.6,0.4-3.7,1.1
		c-1.1,0.7-1.9,1.7-2.5,2.9c-0.6,1.2-0.9,2.6-0.9,4.2c0,1.6,0.3,2.9,0.9,4.2c0.6,1.2,1.4,2.2,2.5,2.9c1.1,0.7,2.3,1.1,3.7,1.1
		C93.5,385.8,94.7,385.5,95.8,384.7z"/>
	<path d="M111,388.5c-1.5-0.8-2.6-2-3.5-3.4c-0.3-0.4-0.4-0.8-0.4-1.2c0-0.6,0.2-1,0.7-1.4c0.4-0.4,0.9-0.6,1.4-0.6
		c0.6,0,1.3,0.4,2,1.1c1.1,1.7,2.7,2.6,4.6,2.6c1.6,0,3-0.5,4.1-1.6c1.1-1.1,1.7-2.4,1.7-4v-19.3c0-0.6,0.2-1.1,0.7-1.5
		s1-0.6,1.5-0.6c0.6,0,1.2,0.2,1.6,0.6c0.4,0.4,0.6,0.9,0.6,1.5v19.3c0,1.8-0.4,3.4-1.3,4.9s-2.1,2.7-3.6,3.6s-3.3,1.3-5.2,1.3
		C114.1,389.7,112.5,389.3,111,388.5z"/>
	<path d="M136.9,388.8c-1.6-0.6-3.2-1.6-4.7-2.9c-0.6-0.5-0.9-1.1-0.9-1.8c0-0.5,0.2-1,0.6-1.4c0.4-0.4,0.9-0.6,1.5-0.6
		c0.5,0,0.9,0.2,1.3,0.5c1.2,1.1,2.4,1.9,3.6,2.4c1.2,0.5,2.7,0.8,4.2,0.8c1.8,0,3.4-0.4,4.7-1.3c1.3-0.9,1.9-1.9,1.9-3.2
		c0-1.5-0.7-2.7-1.9-3.5c-1.2-0.8-3.1-1.5-5.7-2.1c-3-0.6-5.3-1.6-7-3c-1.6-1.4-2.4-3.4-2.4-5.9c0-1.7,0.5-3.2,1.4-4.6
		c0.9-1.3,2.2-2.3,3.8-3c1.6-0.7,3.4-1.1,5.5-1.1c1.8,0,3.5,0.3,5.1,0.9c1.6,0.6,2.9,1.4,3.9,2.3c0.7,0.6,1,1.2,1,1.9
		c0,0.5-0.2,1-0.6,1.4s-0.9,0.6-1.4,0.6c-0.4,0-0.7-0.1-1-0.4c-0.8-0.8-1.8-1.4-3.2-1.9c-1.3-0.5-2.6-0.8-3.9-0.8
		c-2,0-3.5,0.4-4.7,1.2c-1.2,0.8-1.7,1.9-1.7,3.2c0,1.4,0.6,2.5,1.7,3.3c1.2,0.8,2.9,1.4,5.2,1.9c2.3,0.5,4.2,1.1,5.6,1.8
		c1.5,0.7,2.6,1.6,3.4,2.8c0.8,1.2,1.2,2.8,1.2,4.7c0,1.7-0.5,3.2-1.4,4.5c-1,1.3-2.3,2.3-3.9,3.1c-1.6,0.7-3.4,1.1-5.4,1.1
		C140.4,389.7,138.5,389.4,136.9,388.8z"/>
	<path d="M168.9,394.5c-0.4-0.4-0.6-0.8-0.6-1.3c0-0.2,0.1-0.5,0.2-0.9l18.4-37.1c0.4-0.8,1-1.2,1.7-1.2c0.4,0,0.9,0.2,1.2,0.5
		c0.4,0.3,0.6,0.8,0.6,1.3c0,0.4-0.1,0.7-0.2,1l-18.4,37.1c-0.4,0.8-0.9,1.1-1.7,1.1C169.7,395.1,169.3,394.9,168.9,394.5z"/>
	<path d="M230.7,359c0.4,0.4,0.5,0.9,0.5,1.5v16.9c0,2.3-0.5,4.4-1.5,6.2c-1,1.8-2.4,3.3-4.2,4.3c-1.8,1-3.8,1.6-6.1,1.6
		c-2.3,0-4.3-0.5-6.2-1.6c-1.8-1-3.2-2.5-4.3-4.3c-1-1.8-1.5-3.9-1.5-6.2v-16.9c0-0.6,0.2-1.1,0.6-1.5c0.4-0.4,0.9-0.6,1.6-0.6
		c0.6,0,1,0.2,1.5,0.6c0.4,0.4,0.6,0.9,0.6,1.5v16.9c0,1.5,0.4,2.9,1.1,4.1s1.6,2.2,2.8,2.8c1.2,0.7,2.4,1,3.8,1
		c1.4,0,2.7-0.3,3.9-1c1.2-0.7,2.2-1.6,2.9-2.8c0.7-1.2,1.1-2.6,1.1-4.1v-16.9c0-0.6,0.2-1.1,0.5-1.5s0.8-0.6,1.5-0.6
		C229.8,358.4,230.3,358.6,230.7,359z"/>
	<path d="M257.7,375.2v12c0,0.6-0.2,1.1-0.6,1.5c-0.4,0.4-0.9,0.6-1.5,0.6c-0.6,0-1.1-0.2-1.5-0.6c-0.4-0.4-0.6-0.9-0.6-1.5v-11.9
		c0-1.7-0.4-3.1-1.2-4.1c-0.8-1-2.1-1.5-3.9-1.5c-1.2,0-2.2,0.3-3.2,0.8c-1,0.5-1.7,1.2-2.2,2.1c-0.5,0.9-0.8,1.8-0.8,2.8v11.9
		c0,0.6-0.2,1.1-0.6,1.5c-0.4,0.4-0.9,0.6-1.5,0.6c-0.6,0-1.1-0.2-1.5-0.6c-0.4-0.4-0.6-0.9-0.6-1.5v-18.8c0-0.6,0.2-1.1,0.6-1.5
		c0.4-0.4,0.9-0.6,1.5-0.6c0.6,0,1.1,0.2,1.5,0.6c0.4,0.4,0.6,0.9,0.6,1.5v1.5c0.8-1.2,1.8-2.2,3.2-3c1.4-0.8,2.8-1.2,4.4-1.2
		C255,365.7,257.7,368.8,257.7,375.2z"/>
	<path d="M263.9,362.6c-0.4-0.3-0.5-0.8-0.5-1.5v-0.7c0-0.7,0.2-1.2,0.6-1.5c0.4-0.3,1-0.4,1.8-0.4c0.8,0,1.4,0.2,1.8,0.5
		c0.4,0.3,0.6,0.8,0.6,1.5v0.7c0,0.7-0.2,1.2-0.6,1.5c-0.4,0.3-1,0.4-1.8,0.4C264.9,363.1,264.3,362.9,263.9,362.6z M267.3,388.6
		c-0.4,0.4-0.9,0.6-1.5,0.6c-0.6,0-1.1-0.2-1.5-0.6c-0.4-0.4-0.6-0.9-0.6-1.5v-19.1c0-0.6,0.2-1.1,0.6-1.5c0.4-0.4,0.9-0.6,1.5-0.6
		c0.6,0,1.1,0.2,1.5,0.6c0.4,0.4,0.6,0.9,0.6,1.5v19.1C267.9,387.7,267.7,388.2,267.3,388.6z"/>
	<path d="M280.2,370.3v13.1c0,1.5,0.7,2.2,2,2.2c0.2,0,0.5-0.1,0.8-0.2c0.4-0.1,0.6-0.2,0.8-0.2c0.4,0,0.7,0.2,1,0.5
		c0.3,0.3,0.4,0.7,0.4,1.2c0,0.6-0.4,1.1-1.1,1.6c-0.7,0.4-1.5,0.7-2.4,0.7c-1,0-1.9-0.1-2.7-0.3c-0.8-0.2-1.5-0.7-2.2-1.6
		c-0.6-0.8-0.9-2.1-0.9-3.8v-13.3h-2.6c-0.6,0-1-0.2-1.4-0.5c-0.4-0.4-0.5-0.8-0.5-1.4c0-0.6,0.2-1,0.5-1.4c0.4-0.4,0.8-0.5,1.4-0.5
		h2.6v-3.7c0-0.6,0.2-1.1,0.6-1.5c0.4-0.4,0.9-0.6,1.5-0.6c0.6,0,1.1,0.2,1.5,0.6c0.4,0.4,0.6,0.9,0.6,1.5v3.7h3.7
		c0.6,0,1,0.2,1.4,0.5c0.4,0.4,0.5,0.8,0.5,1.4c0,0.6-0.2,1-0.5,1.4c-0.4,0.4-0.8,0.5-1.4,0.5H280.2z"/>
	<path d="M309.3,366.6c0.4,0.4,0.6,0.9,0.6,1.5v19c0,3.7-1,6.4-3,8.2c-2,1.8-4.7,2.7-8,2.7c-1.1,0-2.2-0.1-3.2-0.3
		c-1.1-0.2-1.9-0.5-2.6-0.8c-1.1-0.5-1.6-1.2-1.6-2c0-0.1,0-0.3,0.1-0.6c0.2-0.5,0.4-0.9,0.7-1.1c0.3-0.3,0.7-0.4,1.1-0.4
		c0.2,0,0.5,0,0.7,0.1c0.9,0.4,1.7,0.7,2.4,1c0.7,0.2,1.5,0.4,2.5,0.4c4.5,0,6.8-2.3,6.8-7v-0.9c-0.8,1.1-1.8,1.9-3.1,2.5
		c-1.2,0.6-2.7,0.9-4.3,0.9c-2.4,0-4.3-0.8-5.7-2.3s-2-3.6-2-6.1v-13.2c0-0.6,0.2-1.1,0.6-1.5c0.4-0.4,0.9-0.6,1.5-0.6
		c0.6,0,1.1,0.2,1.5,0.6c0.4,0.4,0.6,0.9,0.6,1.5v12.1c0,1.9,0.4,3.4,1.3,4.3c0.9,0.9,2.1,1.4,3.9,1.4c1.7,0,3-0.5,4.1-1.6
		c1.1-1.1,1.6-2.4,1.6-4.1v-12.1c0-0.6,0.2-1.1,0.6-1.5c0.4-0.4,0.9-0.6,1.5-0.6S308.9,366.2,309.3,366.6z"/>
	<path d="M348.5,357.3c0.4,0.4,0.6,0.9,0.6,1.5v28.3c0,0.6-0.2,1.1-0.6,1.5c-0.4,0.4-0.9,0.6-1.5,0.6s-1.1-0.2-1.5-0.6
		c-0.4-0.4-0.6-0.9-0.6-1.5v-1.2c-0.7,1.1-1.8,2-3.1,2.7c-1.3,0.7-2.8,1.1-4.3,1.1c-2,0-3.8-0.5-5.4-1.5c-1.6-1-2.9-2.5-3.8-4.3
		c-0.9-1.8-1.4-3.9-1.4-6.2s0.5-4.3,1.4-6.2c0.9-1.8,2.2-3.3,3.8-4.3c1.6-1,3.4-1.5,5.3-1.5c1.6,0,3,0.3,4.3,1
		c1.3,0.6,2.4,1.5,3.2,2.5v-10.3c0-0.6,0.2-1.1,0.6-1.5c0.4-0.4,0.9-0.6,1.5-0.6S348.1,356.9,348.5,357.3z M341.7,384.8
		c1.1-0.7,1.9-1.7,2.5-2.9c0.6-1.2,0.9-2.6,0.9-4.2c0-1.5-0.3-2.9-0.9-4.2c-0.6-1.2-1.4-2.2-2.5-2.9c-1.1-0.7-2.3-1.1-3.7-1.1
		s-2.6,0.4-3.7,1.1c-1.1,0.7-1.9,1.7-2.5,2.9c-0.6,1.2-0.9,2.6-0.9,4.2c0,1.6,0.3,2.9,0.9,4.2c0.6,1.2,1.4,2.2,2.5,2.9
		c1.1,0.7,2.3,1.1,3.7,1.1S340.6,385.5,341.7,384.8z"/>
	<path d="M374.9,378.2c-0.4,0.4-0.9,0.6-1.5,0.6h-15.5c0.2,2.1,1,3.9,2.4,5.1c1.4,1.3,3.2,1.9,5.2,1.9c1.4,0,2.6-0.2,3.4-0.6
		c0.9-0.4,1.7-0.9,2.3-1.6c0.4-0.3,0.9-0.4,1.3-0.4c0.5,0,0.9,0.2,1.3,0.5c0.3,0.4,0.5,0.8,0.5,1.2c0,0.6-0.3,1.2-0.9,1.7
		c-0.9,0.9-2,1.6-3.4,2.2c-1.4,0.6-2.8,0.9-4.3,0.9c-2.4,0-4.5-0.5-6.3-1.5s-3.2-2.4-4.2-4.2c-1-1.8-1.5-3.8-1.5-6.1
		c0-2.5,0.5-4.6,1.5-6.5c1-1.9,2.3-3.3,4-4.3c1.7-1,3.4-1.5,5.3-1.5c1.9,0,3.6,0.5,5.3,1.5c1.6,1,3,2.3,4,4c1,1.7,1.5,3.6,1.5,5.7
		C375.5,377.4,375.3,377.8,374.9,378.2z M360.5,370.9c-1.2,0.9-2,2.4-2.4,4.3h13v-0.4c-0.1-1.6-0.8-2.8-2.1-3.8
		c-1.2-1-2.7-1.5-4.2-1.5C363.1,369.5,361.7,370,360.5,370.9z"/>
	<path d="M399.2,366.5c0.4,0.4,0.6,0.8,0.6,1.3c0,0.3-0.1,0.6-0.3,1.1l-8.4,19c-0.2,0.4-0.4,0.7-0.7,0.9c-0.3,0.2-0.7,0.4-1.1,0.4
		c-0.5,0.1-0.9,0-1.3-0.3c-0.4-0.2-0.7-0.6-0.9-1.1l-8.4-19c-0.1-0.4-0.2-0.8-0.2-1.1c0-0.5,0.2-0.9,0.6-1.3
		c0.4-0.4,0.9-0.6,1.5-0.6c0.4,0,0.8,0.1,1.2,0.3c0.4,0.2,0.6,0.5,0.8,1l6.6,15.4l6.6-15.4c0.4-0.9,1-1.3,1.9-1.3
		C398.3,366,398.8,366.2,399.2,366.5z"/>
	<path d="M423.6,378.2c-0.4,0.4-0.9,0.6-1.5,0.6h-15.5c0.2,2.1,1,3.9,2.4,5.1c1.4,1.3,3.2,1.9,5.2,1.9c1.4,0,2.6-0.2,3.4-0.6
		c0.9-0.4,1.7-0.9,2.3-1.6c0.4-0.3,0.9-0.4,1.3-0.4c0.5,0,0.9,0.2,1.3,0.5c0.3,0.4,0.5,0.8,0.5,1.2c0,0.6-0.3,1.2-0.9,1.7
		c-0.9,0.9-2,1.6-3.4,2.2c-1.4,0.6-2.8,0.9-4.3,0.9c-2.4,0-4.5-0.5-6.3-1.5s-3.2-2.4-4.2-4.2c-1-1.8-1.5-3.8-1.5-6.1
		c0-2.5,0.5-4.6,1.5-6.5c1-1.9,2.3-3.3,4-4.3c1.7-1,3.4-1.5,5.3-1.5c1.9,0,3.6,0.5,5.3,1.5c1.6,1,3,2.3,4,4c1,1.7,1.5,3.6,1.5,5.7
		C424.3,377.4,424,377.8,423.6,378.2z M409.3,370.9c-1.2,0.9-2,2.4-2.4,4.3h13v-0.4c-0.1-1.6-0.8-2.8-2.1-3.8
		c-1.2-1-2.7-1.5-4.2-1.5C411.9,369.5,410.5,370,409.3,370.9z"/>
	<path d="M433.1,388.6c-0.4,0.4-0.9,0.6-1.5,0.6s-1.1-0.2-1.5-0.6c-0.4-0.4-0.6-0.9-0.6-1.5v-28.3c0-0.6,0.2-1.1,0.6-1.5
		c0.4-0.4,0.9-0.6,1.5-0.6s1.1,0.2,1.5,0.6c0.4,0.4,0.6,0.9,0.6,1.5v28.3C433.7,387.7,433.5,388.2,433.1,388.6z"/>
	<path d="M460.1,383.9c-1,1.8-2.4,3.2-4.2,4.3c-1.8,1-3.7,1.5-5.9,1.5c-2.1,0-4.1-0.5-5.9-1.5c-1.8-1-3.2-2.4-4.2-4.3
		c-1-1.8-1.5-3.9-1.5-6.2s0.5-4.4,1.5-6.2c1-1.8,2.4-3.3,4.2-4.3c1.8-1,3.7-1.5,5.9-1.5c2.1,0,4.1,0.5,5.9,1.5
		c1.8,1,3.2,2.5,4.2,4.3c1,1.8,1.5,3.9,1.5,6.2S461.1,382.1,460.1,383.9z M456.5,373.5c-0.7-1.2-1.6-2.2-2.7-2.9s-2.4-1-3.8-1
		c-1.4,0-2.6,0.3-3.8,1c-1.1,0.7-2,1.7-2.7,2.9c-0.7,1.2-1,2.7-1,4.2c0,1.6,0.3,2.9,1,4.2c0.7,1.2,1.6,2.2,2.7,2.9
		c1.1,0.7,2.4,1,3.8,1c1.4,0,2.6-0.3,3.8-1s2-1.7,2.7-2.9c0.7-1.2,1-2.6,1-4.2C457.5,376.1,457.1,374.7,456.5,373.5z"/>
	<path d="M483.5,367.3c1.6,1,2.9,2.4,3.8,4.2c0.9,1.8,1.4,3.9,1.4,6.2s-0.5,4.3-1.4,6.1c-0.9,1.8-2.2,3.2-3.8,4.2
		c-1.6,1-3.4,1.5-5.3,1.5c-1.5,0-2.9-0.3-4.3-1c-1.3-0.7-2.4-1.5-3.2-2.5v9.8c0,0.6-0.2,1.1-0.6,1.5c-0.4,0.4-0.9,0.6-1.5,0.6
		c-0.6,0-1.1-0.2-1.5-0.6c-0.4-0.4-0.6-0.9-0.6-1.5v-27.7c0-0.6,0.2-1.1,0.6-1.5c0.4-0.4,0.9-0.6,1.5-0.6c0.6,0,1.1,0.2,1.5,0.6
		c0.4,0.4,0.6,0.9,0.6,1.5v1.3c0.7-1,1.7-1.9,3.1-2.6c1.3-0.7,2.8-1.1,4.3-1.1C480.1,365.8,481.9,366.3,483.5,367.3z M481.2,384.7
		c1.1-0.7,1.9-1.7,2.5-2.9c0.6-1.2,0.9-2.6,0.9-4.1c0-1.5-0.3-2.9-0.9-4.1s-1.4-2.2-2.5-2.9c-1.1-0.7-2.3-1.1-3.7-1.1
		c-1.4,0-2.6,0.3-3.7,1s-1.9,1.6-2.5,2.9c-0.6,1.2-0.9,2.6-0.9,4.1c0,1.5,0.3,2.9,0.9,4.1c0.6,1.2,1.4,2.2,2.5,2.9s2.3,1,3.7,1
		C478.9,385.8,480.1,385.4,481.2,384.7z"/>
	<path d="M513.1,378.2c-0.4,0.4-0.9,0.6-1.5,0.6h-15.5c0.2,2.1,1,3.9,2.4,5.1c1.4,1.3,3.2,1.9,5.2,1.9c1.4,0,2.6-0.2,3.4-0.6
		c0.9-0.4,1.7-0.9,2.3-1.6c0.4-0.3,0.9-0.4,1.3-0.4c0.5,0,0.9,0.2,1.3,0.5c0.3,0.4,0.5,0.8,0.5,1.2c0,0.6-0.3,1.2-0.9,1.7
		c-0.9,0.9-2,1.6-3.4,2.2c-1.4,0.6-2.8,0.9-4.3,0.9c-2.4,0-4.5-0.5-6.3-1.5s-3.2-2.4-4.2-4.2c-1-1.8-1.5-3.8-1.5-6.1
		c0-2.5,0.5-4.6,1.5-6.5c1-1.9,2.3-3.3,4-4.3c1.7-1,3.4-1.5,5.3-1.5c1.9,0,3.6,0.5,5.3,1.5c1.6,1,3,2.3,4,4c1,1.7,1.5,3.6,1.5,5.7
		C513.7,377.4,513.5,377.8,513.1,378.2z M498.7,370.9c-1.2,0.9-2,2.4-2.4,4.3h13v-0.4c-0.1-1.6-0.8-2.8-2.1-3.8
		c-1.2-1-2.7-1.5-4.2-1.5C501.3,369.5,499.9,370,498.7,370.9z"/>
	<path d="M532.1,366.3c0.6,0.4,0.8,0.9,0.8,1.5c0,0.7-0.2,1.2-0.5,1.6c-0.4,0.4-0.8,0.5-1.3,0.5c-0.3,0-0.7-0.1-1.2-0.3
		c-0.6-0.2-1.1-0.3-1.5-0.3c-0.9,0-1.8,0.3-2.7,0.9c-0.9,0.6-1.6,1.5-2.1,2.6c-0.5,1.1-0.8,2.3-0.8,3.7v10.6c0,0.6-0.2,1.1-0.6,1.5
		c-0.4,0.4-0.9,0.6-1.5,0.6c-0.6,0-1.1-0.2-1.5-0.6c-0.4-0.4-0.6-0.9-0.6-1.5v-18.8c0-0.6,0.2-1.1,0.6-1.5c0.4-0.4,0.9-0.6,1.5-0.6
		c0.6,0,1.1,0.2,1.5,0.6c0.4,0.4,0.6,0.9,0.6,1.5v2.2c0.6-1.4,1.6-2.6,2.9-3.5c1.3-0.9,2.8-1.4,4.4-1.4
		C530.8,365.7,531.5,365.9,532.1,366.3z"/>
	<path d="M19.5,415.3v9.1h10.8c0.6,0,1.1,0.2,1.5,0.6c0.4,0.4,0.6,0.9,0.6,1.5c0,0.5-0.2,1-0.6,1.4c-0.4,0.4-0.9,0.6-1.5,0.6H19.5
		v11.5c0,0.6-0.2,1.1-0.6,1.5c-0.4,0.4-0.9,0.6-1.5,0.6c-0.6,0-1.1-0.2-1.5-0.6c-0.4-0.4-0.6-0.9-0.6-1.5v-26.6
		c0-0.6,0.2-1.1,0.6-1.5c0.4-0.4,0.9-0.6,1.5-0.6h15c0.6,0,1.1,0.2,1.5,0.6s0.6,0.9,0.6,1.5c0,0.5-0.2,1-0.6,1.4
		c-0.4,0.4-0.9,0.6-1.5,0.6H19.5z"/>
	<path d="M52.6,419.1c0.6,0.4,0.8,0.9,0.8,1.5c0,0.7-0.2,1.2-0.5,1.6c-0.4,0.4-0.8,0.5-1.3,0.5c-0.3,0-0.7-0.1-1.2-0.3
		c-0.6-0.2-1.1-0.3-1.5-0.3c-0.9,0-1.8,0.3-2.7,0.9c-0.9,0.6-1.6,1.5-2.1,2.6c-0.5,1.1-0.8,2.3-0.8,3.7v10.6c0,0.6-0.2,1.1-0.6,1.5
		c-0.4,0.4-0.9,0.6-1.5,0.6c-0.6,0-1.1-0.2-1.5-0.6c-0.4-0.4-0.6-0.9-0.6-1.5v-18.8c0-0.6,0.2-1.1,0.6-1.5c0.4-0.4,0.9-0.6,1.5-0.6
		c0.6,0,1.1,0.2,1.5,0.6c0.4,0.4,0.6,0.9,0.6,1.5v2.2c0.6-1.4,1.6-2.6,2.9-3.5c1.3-0.9,2.8-1.4,4.4-1.4
		C51.4,418.5,52,418.7,52.6,419.1z"/>
	<path d="M76.6,436.7c-1,1.8-2.4,3.2-4.2,4.3c-1.8,1-3.7,1.5-5.9,1.5c-2.1,0-4.1-0.5-5.9-1.5c-1.8-1-3.2-2.4-4.2-4.3
		c-1-1.8-1.5-3.9-1.5-6.2s0.5-4.4,1.5-6.2c1-1.8,2.4-3.3,4.2-4.3c1.8-1,3.7-1.5,5.9-1.5c2.1,0,4.1,0.5,5.9,1.5
		c1.8,1,3.2,2.5,4.2,4.3c1,1.8,1.5,3.9,1.5,6.2S77.6,434.9,76.6,436.7z M73,426.3c-0.7-1.2-1.6-2.2-2.7-2.9c-1.1-0.7-2.4-1-3.8-1
		c-1.4,0-2.6,0.3-3.8,1c-1.1,0.7-2,1.7-2.7,2.9c-0.7,1.2-1,2.7-1,4.2c0,1.6,0.3,2.9,1,4.2c0.7,1.2,1.6,2.2,2.7,2.9
		c1.1,0.7,2.4,1,3.8,1c1.4,0,2.6-0.3,3.8-1c1.1-0.7,2-1.7,2.7-2.9c0.7-1.2,1-2.6,1-4.2C74,428.9,73.6,427.5,73,426.3z"/>
	<path d="M102.7,428v12c0,0.6-0.2,1.1-0.6,1.5c-0.4,0.4-0.9,0.6-1.5,0.6c-0.6,0-1.1-0.2-1.5-0.6c-0.4-0.4-0.6-0.9-0.6-1.5V428
		c0-1.7-0.4-3.1-1.2-4.1c-0.8-1-2.1-1.5-3.9-1.5c-1.2,0-2.2,0.3-3.2,0.8c-1,0.5-1.7,1.2-2.2,2.1c-0.5,0.9-0.8,1.8-0.8,2.8v11.9
		c0,0.6-0.2,1.1-0.6,1.5c-0.4,0.4-0.9,0.6-1.5,0.6c-0.6,0-1.1-0.2-1.5-0.6c-0.4-0.4-0.6-0.9-0.6-1.5v-18.8c0-0.6,0.2-1.1,0.6-1.5
		c0.4-0.4,0.9-0.6,1.5-0.6c0.6,0,1.1,0.2,1.5,0.6c0.4,0.4,0.6,0.9,0.6,1.5v1.5c0.8-1.2,1.8-2.2,3.2-3c1.4-0.8,2.8-1.2,4.4-1.2
		C100,418.5,102.7,421.6,102.7,428z"/>
	<path d="M115.2,423.1v13.1c0,1.5,0.7,2.2,2,2.2c0.2,0,0.5-0.1,0.8-0.2s0.6-0.2,0.8-0.2c0.4,0,0.7,0.2,1,0.5
		c0.3,0.3,0.4,0.7,0.4,1.2c0,0.6-0.4,1.1-1.1,1.6c-0.7,0.4-1.5,0.7-2.4,0.7c-1,0-1.9-0.1-2.7-0.3c-0.8-0.2-1.5-0.7-2.2-1.6
		c-0.6-0.8-0.9-2.1-0.9-3.8v-13.3h-2.6c-0.6,0-1-0.2-1.4-0.5c-0.4-0.4-0.5-0.8-0.5-1.4c0-0.6,0.2-1,0.5-1.4c0.4-0.4,0.8-0.5,1.4-0.5
		h2.6v-3.7c0-0.6,0.2-1.1,0.6-1.5c0.4-0.4,0.9-0.6,1.5-0.6c0.6,0,1.1,0.2,1.5,0.6c0.4,0.4,0.6,0.9,0.6,1.5v3.7h3.7
		c0.6,0,1,0.2,1.4,0.5c0.4,0.4,0.5,0.8,0.5,1.4c0,0.6-0.2,1-0.5,1.4c-0.4,0.4-0.8,0.5-1.4,0.5H115.2z"/>
	<path d="M145,431c-0.4,0.4-0.9,0.6-1.5,0.6h-15.5c0.2,2.1,1,3.9,2.4,5.1c1.4,1.3,3.2,1.9,5.2,1.9c1.4,0,2.6-0.2,3.4-0.6
		c0.9-0.4,1.7-0.9,2.3-1.6c0.4-0.3,0.9-0.4,1.3-0.4c0.5,0,0.9,0.2,1.3,0.5c0.3,0.4,0.5,0.8,0.5,1.2c0,0.6-0.3,1.2-0.9,1.7
		c-0.9,0.9-2,1.6-3.4,2.2c-1.4,0.6-2.8,0.9-4.3,0.9c-2.4,0-4.5-0.5-6.3-1.5c-1.8-1-3.2-2.4-4.2-4.2c-1-1.8-1.5-3.8-1.5-6.1
		c0-2.5,0.5-4.6,1.5-6.5c1-1.9,2.3-3.3,4-4.3s3.4-1.5,5.3-1.5c1.9,0,3.6,0.5,5.3,1.5c1.6,1,3,2.3,4,4c1,1.7,1.5,3.6,1.5,5.7
		C145.6,430.2,145.4,430.6,145,431z M130.6,423.7c-1.2,0.9-2,2.4-2.4,4.3h13v-0.4c-0.1-1.6-0.8-2.8-2.1-3.8c-1.2-1-2.7-1.5-4.2-1.5
		C133.2,422.3,131.8,422.8,130.6,423.7z"/>
	<path d="M170.2,428v12c0,0.6-0.2,1.1-0.6,1.5c-0.4,0.4-0.9,0.6-1.5,0.6c-0.6,0-1.1-0.2-1.5-0.6c-0.4-0.4-0.6-0.9-0.6-1.5V428
		c0-1.7-0.4-3.1-1.2-4.1c-0.8-1-2.1-1.5-3.9-1.5c-1.2,0-2.2,0.3-3.2,0.8c-1,0.5-1.7,1.2-2.2,2.1c-0.5,0.9-0.8,1.8-0.8,2.8v11.9
		c0,0.6-0.2,1.1-0.6,1.5c-0.4,0.4-0.9,0.6-1.5,0.6c-0.6,0-1.1-0.2-1.5-0.6c-0.4-0.4-0.6-0.9-0.6-1.5v-18.8c0-0.6,0.2-1.1,0.6-1.5
		c0.4-0.4,0.9-0.6,1.5-0.6c0.6,0,1.1,0.2,1.5,0.6c0.4,0.4,0.6,0.9,0.6,1.5v1.5c0.8-1.2,1.8-2.2,3.2-3c1.4-0.8,2.8-1.2,4.4-1.2
		C167.5,418.5,170.2,421.6,170.2,428z"/>
	<path d="M196.6,410.1c0.4,0.4,0.6,0.9,0.6,1.5v28.3c0,0.6-0.2,1.1-0.6,1.5c-0.4,0.4-0.9,0.6-1.5,0.6c-0.6,0-1.1-0.2-1.5-0.6
		c-0.4-0.4-0.6-0.9-0.6-1.5v-1.2c-0.7,1.1-1.8,2-3.1,2.7c-1.3,0.7-2.8,1.1-4.3,1.1c-2,0-3.8-0.5-5.4-1.5c-1.6-1-2.9-2.5-3.8-4.3
		c-0.9-1.8-1.4-3.9-1.4-6.2s0.5-4.3,1.4-6.2s2.2-3.3,3.8-4.3c1.6-1,3.4-1.5,5.3-1.5c1.6,0,3,0.3,4.3,1c1.3,0.6,2.4,1.5,3.2,2.5
		v-10.3c0-0.6,0.2-1.1,0.6-1.5c0.4-0.4,0.9-0.6,1.5-0.6C195.7,409.5,196.2,409.7,196.6,410.1z M189.8,437.6c1.1-0.7,1.9-1.7,2.5-2.9
		c0.6-1.2,0.9-2.6,0.9-4.2c0-1.5-0.3-2.9-0.9-4.2c-0.6-1.2-1.4-2.2-2.5-2.9c-1.1-0.7-2.3-1.1-3.7-1.1c-1.4,0-2.6,0.4-3.7,1.1
		s-1.9,1.7-2.5,2.9c-0.6,1.2-0.9,2.6-0.9,4.2c0,1.6,0.3,2.9,0.9,4.2c0.6,1.2,1.4,2.2,2.5,2.9s2.3,1.1,3.7,1.1
		C187.5,438.6,188.7,438.3,189.8,437.6z"/>
	<path d="M213.9,437.3c0-0.6,0.3-1.1,0.9-1.5c0.3-0.2,0.6-0.3,1-0.3c0.5,0,1,0.2,1.5,0.7c0.9,1,1.8,1.7,2.8,2.2
		c1,0.5,2.2,0.7,3.6,0.7c1.1,0,2.1-0.3,2.9-0.8c0.9-0.5,1.3-1.3,1.3-2.4c0-1-0.4-1.8-1.3-2.3c-0.9-0.5-2.1-1-3.8-1.5
		c-1.6-0.4-3-0.9-4.1-1.4c-1.1-0.5-2-1.2-2.8-2.1c-0.7-0.9-1.1-2.1-1.1-3.6c0-1.3,0.4-2.5,1.1-3.5c0.7-1,1.7-1.8,3-2.3
		c1.2-0.6,2.6-0.8,4.1-0.8c1.4,0,2.8,0.3,4.2,0.8c1.4,0.5,2.5,1.3,3.4,2.4c0.4,0.4,0.5,0.8,0.5,1.3c0,0.5-0.2,0.9-0.7,1.4
		c-0.3,0.3-0.7,0.4-1.1,0.4c-0.5,0-1-0.2-1.3-0.5c-0.6-0.7-1.4-1.2-2.3-1.6c-0.9-0.4-1.9-0.6-3-0.6c-1.1,0-2.1,0.2-2.8,0.7
		c-0.8,0.5-1.2,1.2-1.2,2.3c0,1,0.5,1.8,1.3,2.3c0.9,0.5,2.2,1,4,1.5c1.6,0.4,2.8,0.9,3.9,1.3c1,0.5,1.9,1.2,2.6,2.1
		c0.7,0.9,1.1,2.1,1.1,3.6c0,1.4-0.4,2.6-1.2,3.6s-1.8,1.8-3.1,2.3s-2.6,0.8-4.1,0.8c-1.8,0-3.6-0.3-5.1-1c-1.6-0.6-2.9-1.7-4-3.1
		C214,438,213.9,437.6,213.9,437.3z"/>
	<path d="M253.6,420.1c1.6,1,2.9,2.4,3.8,4.2c0.9,1.8,1.4,3.9,1.4,6.2s-0.5,4.3-1.4,6.1c-0.9,1.8-2.2,3.2-3.8,4.2
		c-1.6,1-3.4,1.5-5.3,1.5c-1.5,0-2.9-0.3-4.3-1c-1.3-0.7-2.4-1.5-3.2-2.5v9.8c0,0.6-0.2,1.1-0.6,1.5s-0.9,0.6-1.5,0.6
		c-0.6,0-1.1-0.2-1.5-0.6c-0.4-0.4-0.6-0.9-0.6-1.5v-27.7c0-0.6,0.2-1.1,0.6-1.5c0.4-0.4,0.9-0.6,1.5-0.6c0.6,0,1.1,0.2,1.5,0.6
		c0.4,0.4,0.6,0.9,0.6,1.5v1.3c0.7-1,1.7-1.9,3.1-2.6s2.8-1.1,4.3-1.1C250.2,418.6,252,419.1,253.6,420.1z M251.3,437.5
		c1.1-0.7,1.9-1.7,2.5-2.9c0.6-1.2,0.9-2.6,0.9-4.1c0-1.5-0.3-2.9-0.9-4.1c-0.6-1.2-1.4-2.2-2.5-2.9c-1.1-0.7-2.3-1.1-3.7-1.1
		c-1.4,0-2.6,0.3-3.7,1c-1.1,0.7-1.9,1.6-2.5,2.9c-0.6,1.2-0.9,2.6-0.9,4.1c0,1.5,0.3,2.9,0.9,4.1c0.6,1.2,1.4,2.2,2.5,2.9
		c1.1,0.7,2.3,1,3.7,1C249,438.6,250.3,438.2,251.3,437.5z"/>
	<path d="M283.2,431c-0.4,0.4-0.9,0.6-1.5,0.6h-15.5c0.2,2.1,1,3.9,2.4,5.1c1.4,1.3,3.2,1.9,5.2,1.9c1.4,0,2.6-0.2,3.4-0.6
		c0.9-0.4,1.7-0.9,2.3-1.6c0.4-0.3,0.9-0.4,1.3-0.4c0.5,0,0.9,0.2,1.3,0.5c0.3,0.4,0.5,0.8,0.5,1.2c0,0.6-0.3,1.2-0.9,1.7
		c-0.9,0.9-2,1.6-3.4,2.2c-1.4,0.6-2.8,0.9-4.3,0.9c-2.4,0-4.5-0.5-6.3-1.5c-1.8-1-3.2-2.4-4.2-4.2c-1-1.8-1.5-3.8-1.5-6.1
		c0-2.5,0.5-4.6,1.5-6.5c1-1.9,2.3-3.3,4-4.3s3.4-1.5,5.3-1.5c1.9,0,3.6,0.5,5.3,1.5c1.6,1,3,2.3,4,4c1,1.7,1.5,3.6,1.5,5.7
		C283.8,430.2,283.6,430.6,283.2,431z M268.8,423.7c-1.2,0.9-2,2.4-2.4,4.3h13v-0.4c-0.1-1.6-0.8-2.8-2.1-3.8
		c-1.2-1-2.7-1.5-4.2-1.5C271.4,422.3,270,422.8,268.8,423.7z"/>
	<path d="M304.5,419.6c1.5,0.7,2.3,1.7,2.3,2.8c0,0.5-0.2,0.9-0.5,1.3c-0.3,0.4-0.7,0.6-1.2,0.6c-0.4,0-0.7-0.1-0.9-0.2
		c-0.2-0.1-0.5-0.3-0.9-0.6c-0.2-0.2-0.5-0.4-0.8-0.6c-0.4-0.2-0.9-0.3-1.5-0.4c-0.6-0.1-1.2-0.2-1.8-0.2c-1.5,0-2.9,0.4-4,1.1
		c-1.2,0.7-2.1,1.7-2.7,2.9c-0.6,1.2-1,2.6-1,4.2c0,1.6,0.3,2.9,0.9,4.2c0.6,1.2,1.5,2.2,2.7,2.9c1.1,0.7,2.4,1.1,3.9,1.1
		c1.5,0,2.8-0.2,3.7-0.7c0.2-0.1,0.5-0.3,0.8-0.6c0.3-0.2,0.5-0.4,0.8-0.5c0.2-0.1,0.5-0.2,0.8-0.2c0.6,0,1,0.2,1.4,0.5
		c0.3,0.4,0.5,0.8,0.5,1.4c0,0.6-0.4,1.2-1.2,1.8c-0.8,0.6-1.8,1.1-3.1,1.5s-2.7,0.6-4.2,0.6c-2.2,0-4.2-0.5-5.9-1.6
		c-1.7-1-3-2.5-3.9-4.3c-0.9-1.8-1.4-3.9-1.4-6.1c0-2.3,0.5-4.3,1.5-6.1c1-1.8,2.3-3.3,4-4.3c1.7-1,3.7-1.6,5.9-1.6
		C301,418.5,303,418.8,304.5,419.6z"/>
	<path d="M311.3,415.4c-0.4-0.3-0.6-0.8-0.6-1.5v-0.7c0-0.7,0.2-1.2,0.6-1.5c0.4-0.3,1-0.4,1.8-0.4s1.4,0.2,1.8,0.5
		c0.4,0.3,0.5,0.8,0.5,1.5v0.7c0,0.7-0.2,1.2-0.6,1.5c-0.4,0.3-1,0.4-1.8,0.4C312.3,415.9,311.7,415.7,311.3,415.4z M314.7,441.4
		c-0.4,0.4-0.9,0.6-1.5,0.6c-0.6,0-1.1-0.2-1.5-0.6c-0.4-0.4-0.6-0.9-0.6-1.5v-19.1c0-0.6,0.2-1.1,0.6-1.5c0.4-0.4,0.9-0.6,1.5-0.6
		c0.6,0,1.1,0.2,1.5,0.6c0.4,0.4,0.6,0.9,0.6,1.5v19.1C315.3,440.5,315.1,441,314.7,441.4z"/>
	<path d="M341.5,419.3c0.4,0.4,0.6,0.9,0.6,1.6v19.1c0,0.6-0.2,1.1-0.6,1.5c-0.4,0.4-0.9,0.6-1.5,0.6s-1.1-0.2-1.5-0.6
		c-0.4-0.4-0.6-0.9-0.6-1.5v-1.1c-0.8,1-1.8,1.9-3.1,2.6c-1.3,0.7-2.7,1.1-4.3,1.1c-2,0-3.8-0.5-5.4-1.5s-2.9-2.5-3.8-4.3
		c-0.9-1.8-1.4-3.9-1.4-6.2s0.5-4.3,1.4-6.2c0.9-1.8,2.2-3.3,3.8-4.3c1.6-1,3.4-1.5,5.3-1.5c1.6,0,3,0.3,4.3,1
		c1.3,0.6,2.4,1.5,3.2,2.5v-1.1c0-0.6,0.2-1.1,0.6-1.5c0.4-0.4,0.9-0.6,1.5-0.6S341.1,418.9,341.5,419.3z M334.7,437.6
		c1.1-0.7,1.9-1.7,2.5-2.9c0.6-1.2,0.9-2.6,0.9-4.2c0-1.5-0.3-2.9-0.9-4.1c-0.6-1.2-1.4-2.2-2.5-2.9c-1.1-0.7-2.3-1.1-3.7-1.1
		s-2.6,0.4-3.7,1.1c-1.1,0.7-1.9,1.7-2.5,2.9c-0.6,1.2-0.9,2.6-0.9,4.2c0,1.6,0.3,2.9,0.9,4.2c0.6,1.2,1.4,2.2,2.5,2.9
		c1.1,0.7,2.3,1.1,3.7,1.1S333.6,438.3,334.7,437.6z"/>
	<path d="M352.2,441.4c-0.4,0.4-0.9,0.6-1.5,0.6s-1.1-0.2-1.5-0.6c-0.4-0.4-0.6-0.9-0.6-1.5v-28.3c0-0.6,0.2-1.1,0.6-1.5
		c0.4-0.4,0.9-0.6,1.5-0.6s1.1,0.2,1.5,0.6c0.4,0.4,0.6,0.9,0.6,1.5v28.3C352.8,440.5,352.6,441,352.2,441.4z"/>
	<path d="M359.5,415.4c-0.4-0.3-0.6-0.8-0.6-1.5v-0.7c0-0.7,0.2-1.2,0.6-1.5c0.4-0.3,1-0.4,1.8-0.4s1.4,0.2,1.8,0.5
		c0.4,0.3,0.5,0.8,0.5,1.5v0.7c0,0.7-0.2,1.2-0.6,1.5c-0.4,0.3-1,0.4-1.8,0.4C360.4,415.9,359.8,415.7,359.5,415.4z M362.8,441.4
		c-0.4,0.4-0.9,0.6-1.5,0.6c-0.6,0-1.1-0.2-1.5-0.6c-0.4-0.4-0.6-0.9-0.6-1.5v-19.1c0-0.6,0.2-1.1,0.6-1.5c0.4-0.4,0.9-0.6,1.5-0.6
		c0.6,0,1.1,0.2,1.5,0.6c0.4,0.4,0.6,0.9,0.6,1.5v19.1C363.4,440.5,363.2,441,362.8,441.4z"/>
	<path d="M367.7,437.3c0-0.6,0.3-1.1,0.9-1.5c0.3-0.2,0.6-0.3,1-0.3c0.5,0,1,0.2,1.5,0.7c0.9,1,1.8,1.7,2.8,2.2
		c1,0.5,2.2,0.7,3.6,0.7c1.1,0,2.1-0.3,2.9-0.8c0.9-0.5,1.3-1.3,1.3-2.4c0-1-0.4-1.8-1.3-2.3c-0.9-0.5-2.1-1-3.8-1.5
		c-1.6-0.4-3-0.9-4.1-1.4c-1.1-0.5-2-1.2-2.8-2.1c-0.7-0.9-1.1-2.1-1.1-3.6c0-1.3,0.4-2.5,1.1-3.5c0.7-1,1.7-1.8,3-2.3
		c1.2-0.6,2.6-0.8,4.1-0.8c1.4,0,2.8,0.3,4.2,0.8s2.5,1.3,3.4,2.4c0.4,0.4,0.5,0.8,0.5,1.3c0,0.5-0.2,0.9-0.7,1.4
		c-0.3,0.3-0.7,0.4-1.1,0.4c-0.5,0-1-0.2-1.3-0.5c-0.6-0.7-1.4-1.2-2.3-1.6c-0.9-0.4-1.9-0.6-3-0.6c-1.1,0-2.1,0.2-2.8,0.7
		s-1.2,1.2-1.2,2.3c0,1,0.5,1.8,1.3,2.3c0.9,0.5,2.2,1,4,1.5c1.6,0.4,2.8,0.9,3.9,1.3c1,0.5,1.9,1.2,2.6,2.1s1.1,2.1,1.1,3.6
		c0,1.4-0.4,2.6-1.2,3.6s-1.8,1.8-3.1,2.3c-1.3,0.5-2.6,0.8-4.1,0.8c-1.8,0-3.6-0.3-5.1-1c-1.6-0.6-2.9-1.7-4-3.1
		C367.8,438,367.7,437.6,367.7,437.3z"/>
	<path d="M396.7,423.1v13.1c0,1.5,0.7,2.2,2,2.2c0.2,0,0.5-0.1,0.8-0.2c0.4-0.1,0.6-0.2,0.8-0.2c0.4,0,0.7,0.2,1,0.5
		c0.3,0.3,0.4,0.7,0.4,1.2c0,0.6-0.4,1.1-1.1,1.6c-0.7,0.4-1.5,0.7-2.4,0.7c-1,0-1.9-0.1-2.7-0.3s-1.5-0.7-2.2-1.6s-0.9-2.1-0.9-3.8
		v-13.3h-2.6c-0.6,0-1-0.2-1.4-0.5c-0.4-0.4-0.5-0.8-0.5-1.4c0-0.6,0.2-1,0.5-1.4c0.4-0.4,0.8-0.5,1.4-0.5h2.6v-3.7
		c0-0.6,0.2-1.1,0.6-1.5c0.4-0.4,0.9-0.6,1.5-0.6c0.6,0,1.1,0.2,1.5,0.6c0.4,0.4,0.6,0.9,0.6,1.5v3.7h3.7c0.6,0,1,0.2,1.4,0.5
		c0.4,0.4,0.5,0.8,0.5,1.4c0,0.6-0.2,1-0.5,1.4c-0.4,0.4-0.8,0.5-1.4,0.5H396.7z"/>
</g>
<g>
	<path d="M33.5,494c0.2,0.2,0.3,0.4,0.3,0.6c0,0.3-0.1,0.5-0.3,0.6c-0.2,0.2-0.4,0.2-0.6,0.2H16.8c-0.3,0-0.5-0.1-0.6-0.3
		c-0.2-0.2-0.2-0.4-0.2-0.6v-29c0-0.2,0.1-0.4,0.3-0.6c0.2-0.2,0.4-0.3,0.7-0.3c0.3,0,0.5,0.1,0.7,0.3c0.2,0.2,0.3,0.4,0.3,0.6v28.2
		h15.2C33.2,493.7,33.4,493.8,33.5,494z"/>
	<path d="M54.3,473.1c0.2,0.2,0.2,0.4,0.2,0.6v19.6c0,2.2-0.4,4.1-1.3,5.8c-0.9,1.7-2.1,2.9-3.7,3.8c-1.6,0.9-3.4,1.3-5.3,1.3
		c-1.3,0-2.5-0.2-3.5-0.5c-1.1-0.3-2-0.7-2.7-1.2c-0.5-0.4-0.7-0.7-0.5-1.2c0.2-0.4,0.5-0.5,0.7-0.5c0.1,0,0.3,0,0.4,0.1
		c0.7,0.4,1.5,0.8,2.5,1.2c1,0.3,2,0.5,3.1,0.5c1.7,0,3.2-0.4,4.4-1.2c1.3-0.8,2.3-1.9,3-3.3s1.1-3,1.1-4.9v-2
		c-0.7,1.3-1.8,2.4-3.2,3.3c-1.5,0.9-3,1.3-4.6,1.3c-2.6,0-4.6-0.8-5.9-2.3c-1.3-1.5-1.9-3.6-1.9-6.2v-13.7c0-0.2,0.1-0.4,0.2-0.6
		c0.2-0.2,0.4-0.3,0.6-0.3c0.3,0,0.5,0.1,0.6,0.3c0.2,0.2,0.2,0.4,0.2,0.6v13.7c0,4.5,2,6.8,6.1,6.8c1.3,0,2.5-0.3,3.7-1
		c1.2-0.7,2.2-1.5,3-2.6c0.8-1.1,1.1-2.1,1.1-3.3v-13.7c0-0.2,0.1-0.4,0.2-0.6c0.2-0.2,0.4-0.3,0.6-0.3
		C54,472.8,54.2,472.9,54.3,473.1z"/>
	<path d="M80.4,490.3c-0.9,1.7-2.2,3.1-3.9,4.1c-1.7,1-3.5,1.5-5.5,1.5s-3.9-0.5-5.5-1.5c-1.7-1-3-2.4-3.9-4.2
		c-1-1.8-1.4-3.7-1.4-5.9c0-2.2,0.5-4.1,1.4-5.9c1-1.8,2.3-3.1,3.9-4.2c1.6-1,3.5-1.5,5.5-1.5c2,0,3.9,0.5,5.5,1.5
		c1.7,1,3,2.4,3.9,4.2c0.9,1.8,1.4,3.7,1.4,5.9S81.3,488.5,80.4,490.3z M78.9,479.4c-0.8-1.5-1.9-2.7-3.2-3.5
		c-1.4-0.9-2.9-1.3-4.7-1.3c-1.7,0-3.2,0.4-4.6,1.3c-1.4,0.9-2.5,2-3.3,3.5c-0.8,1.5-1.2,3.2-1.2,5.1c0,1.8,0.4,3.5,1.2,5
		s1.9,2.7,3.3,3.5c1.4,0.9,2.9,1.3,4.6,1.3c1.7,0,3.3-0.4,4.7-1.3c1.4-0.9,2.5-2,3.2-3.5c0.8-1.5,1.2-3.2,1.2-5
		C80.1,482.5,79.7,480.8,78.9,479.4z"/>
	<path d="M103.5,475.2c1.3,1.5,2,3.5,2,6v13.5c0,0.2-0.1,0.4-0.3,0.6c-0.2,0.2-0.4,0.3-0.6,0.3c-0.3,0-0.5-0.1-0.6-0.3
		c-0.2-0.2-0.2-0.4-0.2-0.6v-13.3c0-2-0.5-3.6-1.6-4.9c-1-1.3-2.6-1.9-4.7-1.9c-1.3,0-2.6,0.3-3.8,0.9c-1.2,0.6-2.3,1.5-3.1,2.5
		c-0.8,1.1-1.2,2.2-1.2,3.4v13.3c0,0.2-0.1,0.4-0.3,0.6c-0.2,0.2-0.4,0.3-0.6,0.3c-0.3,0-0.5-0.1-0.6-0.3c-0.2-0.2-0.2-0.4-0.2-0.6
		v-20.2c0-0.2,0.1-0.4,0.3-0.6c0.2-0.2,0.4-0.3,0.6-0.3c0.3,0,0.5,0.1,0.6,0.3c0.2,0.2,0.2,0.4,0.2,0.6v2.9c0.9-1.3,2-2.4,3.6-3.3
		s3.1-1.3,4.6-1.3C100.2,472.8,102.1,473.6,103.5,475.2z"/>
	<path d="M114.4,497.9c-0.4,0.8-0.9,1.4-1.5,1.8c-0.6,0.5-1.2,0.7-1.7,0.7c-0.2,0-0.4-0.1-0.5-0.2c-0.2-0.1-0.2-0.3-0.2-0.5
		c0-0.3,0.1-0.4,0.2-0.5c0.1-0.1,0.3-0.2,0.6-0.3c0.3-0.1,0.5-0.2,0.7-0.3c0.4-0.2,0.7-0.5,0.9-1c0.2-0.4,0.3-0.9,0.3-1.4
		c0-0.7-0.2-1.1-0.7-1.1c-0.4,0-0.8,0.1-1.1,0.4c-0.2-0.3-0.4-0.6-0.4-0.9c0-0.4,0.2-0.7,0.6-1s0.8-0.4,1.3-0.4
		c0.6,0,1.1,0.2,1.5,0.6c0.4,0.4,0.6,0.9,0.6,1.5C115,496.3,114.8,497.2,114.4,497.9z"/>
	<path d="M150.8,465c0.2,0.2,0.3,0.4,0.3,0.6c0,0.3-0.1,0.5-0.3,0.6c-0.2,0.2-0.4,0.2-0.6,0.2h-15.7v12.1h13.7
		c0.2,0,0.4,0.1,0.6,0.3c0.2,0.2,0.3,0.4,0.3,0.6c0,0.3-0.1,0.5-0.3,0.6c-0.2,0.2-0.4,0.2-0.6,0.2h-13.7v14.3c0,0.2-0.1,0.4-0.2,0.6
		c-0.2,0.2-0.4,0.3-0.6,0.3c-0.3,0-0.5-0.1-0.6-0.3c-0.2-0.2-0.2-0.4-0.2-0.6v-29c0-0.2,0.1-0.4,0.3-0.6c0.2-0.2,0.4-0.3,0.6-0.3
		h16.6C150.4,464.7,150.6,464.8,150.8,465z"/>
	<path d="M168.5,473.9c0,0.3-0.1,0.5-0.2,0.7c-0.1,0.2-0.3,0.3-0.6,0.3c-0.1,0-0.3-0.1-0.6-0.2c-0.3-0.1-0.7-0.2-1.1-0.2
		c-1.2,0-2.4,0.5-3.6,1.4c-1.2,1-2.2,2.2-2.9,3.6c-0.8,1.5-1.1,2.9-1.1,4.2v11c0,0.2-0.1,0.4-0.3,0.6c-0.2,0.2-0.4,0.3-0.6,0.3
		c-0.3,0-0.5-0.1-0.6-0.3c-0.2-0.2-0.2-0.4-0.2-0.6v-20.2c0-0.2,0.1-0.4,0.3-0.6c0.2-0.2,0.4-0.3,0.6-0.3c0.3,0,0.5,0.1,0.6,0.3
		c0.2,0.2,0.2,0.4,0.2,0.6v4.7c0.7-1.8,1.7-3.3,3.1-4.4c1.4-1.2,3.1-1.8,5-1.8C167.8,472.8,168.5,473.2,168.5,473.9z"/>
	<path d="M190.8,473.8c0.2,0.2,0.2,0.4,0.2,0.6v20.2c0,0.2-0.1,0.4-0.3,0.6c-0.2,0.2-0.4,0.3-0.6,0.3c-0.3,0-0.5-0.1-0.6-0.3
		c-0.2-0.2-0.2-0.4-0.2-0.6v-4c-0.7,1.5-1.9,2.8-3.4,3.8c-1.5,1-3.2,1.5-5.1,1.5c-1.9,0-3.7-0.5-5.2-1.5c-1.6-1-2.8-2.4-3.7-4.2
		c-0.9-1.8-1.3-3.8-1.3-6c0-2.2,0.4-4.1,1.3-5.9c0.9-1.7,2.1-3.1,3.7-4.1c1.6-1,3.3-1.5,5.2-1.5s3.6,0.5,5.1,1.5
		c1.5,1,2.6,2.3,3.3,4v-3.9c0-0.2,0.1-0.4,0.2-0.6c0.2-0.2,0.4-0.3,0.6-0.3S190.7,473.6,190.8,473.8z M185.3,493
		c1.3-0.9,2.3-2.1,3.1-3.6c0.7-1.5,1.1-3.2,1.1-5.1c0-1.8-0.4-3.4-1.1-4.9c-0.7-1.5-1.8-2.7-3.1-3.5c-1.3-0.9-2.8-1.3-4.4-1.3
		c-1.6,0-3.1,0.4-4.4,1.3s-2.3,2-3.1,3.5c-0.7,1.5-1.1,3.2-1.1,5s0.4,3.6,1.1,5.1c0.7,1.5,1.7,2.7,3,3.6c1.3,0.9,2.8,1.3,4.4,1.3
		C182.6,494.3,184,493.8,185.3,493z"/>
	<path d="M214.2,475.2c1.3,1.5,2,3.5,2,6v13.5c0,0.2-0.1,0.4-0.3,0.6c-0.2,0.2-0.4,0.3-0.6,0.3c-0.3,0-0.5-0.1-0.6-0.3
		c-0.2-0.2-0.2-0.4-0.2-0.6v-13.3c0-2-0.5-3.6-1.6-4.9c-1-1.3-2.6-1.9-4.7-1.9c-1.3,0-2.6,0.3-3.8,0.9c-1.2,0.6-2.3,1.5-3.1,2.5
		c-0.8,1.1-1.2,2.2-1.2,3.4v13.3c0,0.2-0.1,0.4-0.3,0.6c-0.2,0.2-0.4,0.3-0.6,0.3c-0.3,0-0.5-0.1-0.6-0.3c-0.2-0.2-0.2-0.4-0.2-0.6
		v-20.2c0-0.2,0.1-0.4,0.3-0.6c0.2-0.2,0.4-0.3,0.6-0.3c0.3,0,0.5,0.1,0.6,0.3c0.2,0.2,0.2,0.4,0.2,0.6v2.9c0.9-1.3,2-2.4,3.6-3.3
		s3.1-1.3,4.6-1.3C211,472.8,212.9,473.6,214.2,475.2z"/>
	<path d="M236.8,473.3c1.2,0.3,2.1,0.7,2.9,1.2c0.7,0.5,1.1,1,1.1,1.5c0,0.2-0.1,0.4-0.2,0.6c-0.2,0.2-0.4,0.3-0.6,0.3
		c-0.3,0-0.5,0-0.6-0.1c-0.1-0.1-0.3-0.2-0.5-0.5c-0.4-0.4-0.8-0.8-1.2-1c-1.1-0.5-2.6-0.7-4.5-0.7c-1.7,0-3.2,0.4-4.6,1.3
		c-1.4,0.9-2.6,2.1-3.4,3.6s-1.3,3.2-1.3,5c0,1.9,0.4,3.6,1.2,5.1c0.8,1.5,1.9,2.7,3.3,3.5c1.4,0.9,3,1.3,4.8,1.3
		c1.2,0,2.1-0.1,2.8-0.3c0.7-0.2,1.3-0.5,2-0.9c0.5-0.3,0.9-0.6,1.2-1c0.1-0.1,0.3-0.3,0.4-0.4c0.1-0.1,0.3-0.2,0.4-0.2
		c0.2,0,0.4,0.1,0.5,0.2c0.1,0.1,0.2,0.3,0.2,0.6c0,0.4-0.3,0.9-1,1.5c-0.7,0.6-1.6,1.1-2.8,1.5c-1.2,0.4-2.5,0.6-4,0.6
		c-2.1,0-4-0.5-5.7-1.5c-1.7-1-2.9-2.4-3.9-4.1c-0.9-1.8-1.4-3.7-1.4-5.9c0-2.1,0.5-4,1.4-5.7c0.9-1.8,2.2-3.2,3.9-4.2
		c1.7-1.1,3.6-1.6,5.8-1.6C234.3,472.8,235.6,473,236.8,473.3z"/>
	<path d="M264,490.5c0.1,0.2,0.2,0.3,0.2,0.5c0,0.2-0.1,0.4-0.2,0.5c-1,1.3-2.2,2.3-3.6,3.2c-1.4,0.8-3,1.2-4.6,1.2
		c-2.2,0-4.2-0.5-5.9-1.4c-1.7-0.9-3-2.3-4-4c-1-1.7-1.4-3.7-1.4-6c0-2.3,0.5-4.4,1.4-6.2s2.1-3.1,3.7-4.1c1.5-0.9,3.2-1.4,4.9-1.4
		c1.7,0,3.3,0.4,4.8,1.1c1.5,0.7,2.7,1.9,3.6,3.4c0.9,1.5,1.4,3.3,1.5,5.5c0,0.2-0.1,0.4-0.3,0.6c-0.2,0.2-0.4,0.3-0.6,0.3h-17.3
		v0.6c0,1.8,0.4,3.5,1.1,5c0.7,1.5,1.8,2.7,3.3,3.6c1.4,0.9,3.2,1.3,5.2,1.3c1.4,0,2.7-0.3,4-1c1.2-0.7,2.2-1.6,2.9-2.6
		c0.2-0.3,0.5-0.4,0.7-0.4C263.7,490.2,263.9,490.3,264,490.5z M251.2,475.5c-1.1,0.6-2.1,1.4-3,2.6c-0.9,1.1-1.4,2.5-1.7,4.1h16.2
		v-0.4c-0.1-1.5-0.6-2.8-1.4-3.8c-0.8-1.1-1.8-1.9-3-2.4c-1.2-0.6-2.4-0.8-3.7-0.8C253.4,474.6,252.3,474.9,251.2,475.5z"/>
</g>
</svg>
