<?xml version="1.0" encoding="utf-8"?>
<!-- Generator: Adobe Illustrator 26.2.1, SVG Export Plug-In . SVG Version: 6.00 Build 0)  -->
<svg version="1.1" id="Calque_1" xmlns="http://www.w3.org/2000/svg" xmlns:xlink="http://www.w3.org/1999/xlink" x="0px" y="0px"
	 viewBox="0 0 566.9 510.2" style="enable-background:new 0 0 566.9 510.2;" xml:space="preserve">
<g>
	<g>
		<path d="M81.5,14.2c0.5,0.7,1,1.5,1,2.3v116.9c0,0.8-0.3,1.6-1,2.3s-1.5,1-2.3,1c-1,0-1.8-0.3-2.5-1c-0.5-0.7-1-1.5-1-2.3v-15.9
			c-2.6,5.9-6.9,10.9-12.6,14.8c-5.8,4-12.2,6-19.4,6c-7.3,0-13.7-1.9-19.7-5.8c-6-3.8-10.7-9.1-14.2-15.8
			c-3.4-6.7-5.1-14.2-5.1-22.4s1.6-15.7,5.1-22.4c3.4-6.7,8-12,14-15.7c5.9-3.7,12.5-5.6,19.7-5.6c6.9,0,13.3,1.9,19.2,5.8
			s10.3,9,13.1,15.3V16.5c0-1,0.3-1.6,1-2.3c0.5-0.7,1.4-1,2.5-1S80.9,13.5,81.5,14.2z M60.7,127.2c4.9-3.3,8.8-7.7,11.5-13.5
			s4.1-12.2,4.1-19.2c0-7.1-1.4-13.5-4.1-19.2c-2.7-5.6-6.6-10.2-11.5-13.3S50.2,57.2,44,57.2c-6,0-11.5,1.6-16.5,4.8
			c-5,3.2-8.8,7.7-11.7,13.5c-2.9,5.6-4.3,12-4.3,19.1s1.4,13.6,4.3,19.2c2.9,5.6,6.7,10.2,11.7,13.5s10.4,4.9,16.5,4.9
			C50.2,132.1,55.8,130.4,60.7,127.2z"/>
		<path d="M178.2,117.6c0.5,0.5,0.8,1.2,0.8,2.1c0,0.8-0.3,1.5-0.7,2.1c-3.7,4.9-8.2,8.9-13.7,12.1s-11.3,4.7-17.6,4.7
			c-8.4,0-15.8-1.8-22.3-5.4c-6.5-3.6-11.5-8.7-15.1-15.3s-5.4-14.2-5.4-22.9c0-8.9,1.8-16.8,5.2-23.5c3.6-6.7,8.1-12,14-15.4
			c5.9-3.4,12-5.4,18.6-5.4s12.6,1.4,18.3,4.3c5.6,2.9,10.2,7.1,13.7,12.8c3.6,5.6,5.5,12.6,5.6,21c0,1-0.3,1.6-1,2.5
			c-0.7,0.7-1.5,1.1-2.3,1.1h-65.6v2.2c0,6.9,1.4,13.2,4.1,19s6.9,10.3,12.4,13.6c5.5,3.3,12.1,4.9,19.7,4.9c5.4,0,10.4-1.2,15.1-4
			c4.7-2.6,8.4-5.9,11.1-9.9c0.8-1,1.6-1.5,2.9-1.5C176.9,116.7,177.6,116.9,178.2,117.6z M129.4,60.6c-4.3,2.2-8.1,5.4-11.4,9.8
			c-3.3,4.3-5.5,9.5-6.6,15.7h61.4v-1.5c-0.5-5.6-2.3-10.6-5.4-14.6c-3-4-6.9-7.1-11.4-9.3c-4.5-2.1-9.2-3.2-14.2-3.2
			C137.9,57.4,133.8,58.5,129.4,60.6z"/>
		<path d="M266.1,51.1c0.7,0.5,1.1,1.1,1.1,1.9c0,0.7-0.1,1.4-0.5,2.1l-33.3,79.4c-0.3,0.7-0.7,1.2-1.2,1.5
			c-0.5,0.4-1.2,0.5-1.9,0.5s-1.2-0.1-1.9-0.5c-0.5-0.4-1.1-1-1.2-1.5l-33.4-79.3c-0.3-0.7-0.3-1.1-0.3-1.5c0-1,0.3-1.6,1-2.3
			c0.5-0.7,1.5-1,2.6-1c0.5,0,1.1,0.1,1.8,0.5c0.5,0.4,1.1,1,1.2,1.6l30.2,72.7l30.4-72.7c0.5-1.5,1.8-2.2,3.6-2.2
			C264.6,50.4,265.3,50.6,266.1,51.1z"/>
	</g>
	<g>
		<path d="M119.3,298.6c-1.4-1.4-2.1-3.2-2.1-5.2v-1.5c0-3.7,2.3-6,6.9-7.1c7.1-2.1,10.7-7.6,10.7-16.8v-79.7c0-2.2,0.8-4.1,2.2-5.6
			s3.4-2.3,5.8-2.3c2.2,0,4.1,0.8,5.6,2.3s2.2,3.4,2.2,5.6V272c0,5.8-1.2,10.9-3.6,15.3c-2.3,4.4-5.6,7.7-9.6,10s-8.2,3.4-12.9,3.4
			C122.5,300.8,120.7,300.1,119.3,298.6z M135.7,166.8c-1.4-1.2-2.1-3-2.1-5.6v-2.6c0-2.6,0.8-4.5,2.2-5.6s3.8-1.6,6.9-1.6
			c3.2,0,5.4,0.5,6.7,1.8c1.4,1.2,2.1,3,2.1,5.6v2.6c0,2.6-0.7,4.5-2.2,5.6s-3.7,1.6-6.9,1.6C139.4,168.5,137.1,167.9,135.7,166.8z"
			/>
		<path d="M236.1,182.5c5.8,2.7,8.8,6.3,8.8,10.7c0,1.9-0.5,3.6-1.8,5.1c-1.2,1.5-2.7,2.2-4.7,2.2c-1.5,0-2.6-0.3-3.4-0.7
			c-0.8-0.4-1.9-1.2-3.4-2.2c-0.7-0.7-1.8-1.5-3.2-2.3c-1.4-0.7-3.3-1.2-5.6-1.6c-2.5-0.4-4.7-0.7-6.7-0.7c-5.8,0-10.9,1.4-15.4,4
			c-4.4,2.6-8,6.3-10.3,11.1c-2.5,4.7-3.7,10-3.7,15.8c0,5.9,1.2,11.1,3.6,15.9c2.3,4.7,5.8,8.4,10.2,11s9.3,4,14.8,4
			c5.8,0,10.4-0.8,14-2.6c0.8-0.4,1.8-1.2,3.2-2.2c1.1-0.8,2.1-1.5,2.9-2.1c0.8-0.4,1.9-0.7,3-0.7c2.2,0,4,0.7,5.2,2.1
			c1.2,1.4,1.9,3.2,1.9,5.4c0,2.3-1.5,4.7-4.4,6.9c-2.9,2.3-6.9,4.1-11.8,5.6s-10.3,2.2-15.9,2.2c-8.5,0-15.9-1.9-22.4-5.9
			s-11.4-9.5-15-16.4s-5.2-14.7-5.2-23.4c0-8.5,1.8-16.4,5.5-23.4s8.8-12.4,15.4-16.4c6.6-4,14-5.9,22.5-5.9
			C223,178.4,230.2,179.7,236.1,182.5z"/>
		<path d="M335.9,259.9c0,2.2-0.8,4.1-2.6,5.6c-1.8,1.5-3.6,2.2-5.5,2.2c-2.5,0-4.4-0.8-5.8-2.6l-32.8-34.9l-10,9.1V260
			c0,2.2-0.8,4.1-2.2,5.6c-1.5,1.5-3.3,2.3-5.6,2.3s-4.3-0.8-5.8-2.3s-2.2-3.4-2.2-5.6V152.4c0-2.2,0.8-4.1,2.2-5.6
			c1.4-1.5,3.4-2.3,5.8-2.3c2.2,0,4.1,0.8,5.6,2.3s2.2,3.4,2.2,5.6v67.9l41-37.7c1.9-1.6,3.8-2.5,5.8-2.5s3.6,0.8,5.2,2.5
			c1.5,1.6,2.3,3.3,2.3,5.1c0,2.2-1.1,4.3-3.2,6l-28.9,25.7l32,34.8C335.1,255.9,335.9,257.8,335.9,259.9z"/>
	</g>
</g>
<g>
	<path d="M34.5,493.8c0.1,0.1,0.3,0.4,0.3,0.7c0,0.3-0.1,0.5-0.3,0.7c-0.1,0.1-0.4,0.3-0.7,0.3h-17c-0.3,0-0.5-0.1-0.7-0.3
		c-0.1-0.1-0.3-0.4-0.3-0.7v-30.8c0-0.3,0.1-0.4,0.3-0.7c0.1-0.1,0.4-0.3,0.7-0.3s0.5,0.1,0.7,0.3c0.1,0.1,0.3,0.4,0.3,0.7v29.8
		h16.1C34.1,493.5,34.4,493.6,34.5,493.8z"/>
	<path d="M56.5,471.6c0.1,0.1,0.3,0.4,0.3,0.7v20.8c0,2.3-0.4,4.4-1.4,6.2c-1,1.8-2.2,3.2-3.8,4.1c-1.6,1-3.6,1.4-5.6,1.4
		c-1.4,0-2.6-0.1-3.7-0.5c-1.1-0.3-2.1-0.7-2.9-1.2c-0.5-0.4-0.7-0.8-0.5-1.2c0.3-0.4,0.4-0.5,0.8-0.5c0.1,0,0.3,0,0.4,0.1
		c0.7,0.4,1.6,0.8,2.6,1.2c1.1,0.4,2.2,0.5,3.3,0.5c1.8,0,3.3-0.4,4.7-1.2c1.4-0.8,2.5-2.1,3.2-3.6s1.1-3.3,1.1-5.2V491
		c-0.7,1.4-1.8,2.6-3.4,3.4s-3.2,1.4-4.8,1.4c-2.7,0-4.9-0.8-6.3-2.5c-1.4-1.6-2.1-3.8-2.1-6.6v-14.6c0-0.3,0.1-0.4,0.3-0.7
		c0.1-0.1,0.4-0.3,0.7-0.3s0.5,0.1,0.7,0.3c0.1,0.1,0.3,0.4,0.3,0.7v14.6c0,4.8,2.2,7.3,6.5,7.3c1.4,0,2.6-0.3,4-1.1
		c1.4-0.8,2.3-1.6,3.2-2.7s1.2-2.2,1.2-3.4v-14.6c0-0.3,0.1-0.4,0.3-0.7c0.1-0.1,0.4-0.3,0.7-0.3C56.3,471.2,56.4,471.4,56.5,471.6z
		"/>
	<path d="M84.2,489.8c-1,1.9-2.3,3.3-4.1,4.4c-1.8,1.1-3.7,1.6-5.9,1.6s-4.1-0.5-5.9-1.6s-3.2-2.6-4.1-4.4c-1-1.8-1.5-4-1.5-6.2
		c0-2.3,0.5-4.4,1.5-6.2c1-1.9,2.3-3.3,4.1-4.4c1.8-1.1,3.7-1.6,5.9-1.6s4.1,0.5,5.9,1.6s3.2,2.6,4.1,4.4s1.5,4,1.5,6.2
		C85.7,485.9,85.3,488,84.2,489.8z M82.6,478.2c-0.8-1.5-1.9-2.9-3.4-3.7s-3.2-1.4-4.9-1.4c-1.8,0-3.4,0.4-4.9,1.4s-2.6,2.2-3.4,3.7
		s-1.2,3.4-1.2,5.4s0.4,3.7,1.2,5.4c0.8,1.5,1.9,2.9,3.4,3.7c1.5,1,3.2,1.4,4.9,1.4c1.8,0,3.4-0.4,4.9-1.4s2.6-2.2,3.4-3.7
		c0.8-1.6,1.2-3.4,1.2-5.4C83.9,481.5,83.5,479.7,82.6,478.2z"/>
	<path d="M108.6,473.8c1.4,1.6,2.1,3.7,2.1,6.3v14.3c0,0.3-0.1,0.4-0.3,0.7s-0.4,0.3-0.7,0.3s-0.5-0.1-0.7-0.3s-0.3-0.4-0.3-0.7v-14
		c0-2.1-0.5-3.8-1.6-5.2c-1.1-1.4-2.7-2.1-5.1-2.1c-1.4,0-2.7,0.3-4,1c-1.2,0.7-2.5,1.5-3.3,2.6s-1.2,2.3-1.2,3.6v14
		c0,0.3-0.1,0.4-0.3,0.7s-0.4,0.3-0.7,0.3s-0.5-0.1-0.7-0.3s-0.3-0.4-0.3-0.7v-21.4c0-0.3,0.1-0.4,0.3-0.7c0.1-0.3,0.4-0.3,0.7-0.3
		s0.5,0.1,0.7,0.3c0.1,0.1,0.3,0.4,0.3,0.7v3.2c1-1.4,2.2-2.6,3.8-3.4c1.6-1,3.3-1.4,4.9-1.4C105.2,471.4,107.2,472.2,108.6,473.8z"
		/>
	<path d="M120.3,497.9c-0.4,0.8-1,1.5-1.6,1.9c-0.7,0.4-1.2,0.8-1.8,0.8c-0.3,0-0.4,0-0.5-0.1s-0.3-0.3-0.3-0.5s0-0.4,0.1-0.5
		s0.3-0.1,0.7-0.3c0.3-0.1,0.5-0.1,0.8-0.3c0.4-0.3,0.8-0.5,1-1.1c0.3-0.4,0.3-1,0.3-1.4c0-0.7-0.3-1.1-0.8-1.1
		c-0.4,0-0.8,0.1-1.2,0.4c-0.3-0.3-0.4-0.7-0.4-1c0-0.4,0.3-0.7,0.7-1.1c0.4-0.4,1-0.4,1.4-0.4c0.7,0,1.2,0.1,1.6,0.5s0.5,1,0.5,1.5
		C120.8,496.2,120.7,497.1,120.3,497.9z"/>
	<path d="M158.8,463c0.1,0.1,0.3,0.4,0.3,0.7c0,0.3-0.1,0.5-0.3,0.7s-0.4,0.3-0.7,0.3h-16.6v12.9H156c0.3,0,0.4,0.1,0.7,0.3
		s0.3,0.4,0.3,0.7c0,0.3-0.1,0.5-0.3,0.7c-0.1,0.1-0.4,0.3-0.7,0.3h-14.6v15.1c0,0.3-0.1,0.4-0.3,0.7c-0.1,0.1-0.4,0.3-0.7,0.3
		s-0.5-0.1-0.7-0.3c-0.1-0.1-0.3-0.4-0.3-0.7v-30.8c0-0.3,0.1-0.4,0.3-0.7c0.1-0.1,0.4-0.3,0.7-0.3H158
		C158.4,462.7,158.6,462.8,158.8,463z"/>
	<path d="M177.5,472.5c0,0.3-0.1,0.5-0.3,0.7c-0.1,0.1-0.4,0.3-0.5,0.3s-0.3,0-0.7-0.1s-0.7-0.1-1.1-0.1c-1.2,0-2.6,0.5-3.8,1.5
		s-2.3,2.3-3.2,3.8c-0.8,1.5-1.2,3-1.2,4.4v11.7c0,0.3-0.1,0.4-0.3,0.7c-0.1,0.3-0.4,0.3-0.7,0.3s-0.5-0.1-0.7-0.3
		c-0.1-0.1-0.3-0.4-0.3-0.7v-21.4c0-0.3,0.1-0.4,0.3-0.7s0.4-0.3,0.7-0.3s0.5,0.1,0.7,0.3s0.3,0.4,0.3,0.7v4.9
		c0.7-1.9,1.8-3.4,3.3-4.7c1.5-1.2,3.3-1.9,5.4-1.9C176.8,471.4,177.5,471.6,177.5,472.5z"/>
	<path d="M201.2,472.3c0.1,0.1,0.3,0.4,0.3,0.7v21.4c0,0.3-0.1,0.4-0.3,0.7c-0.1,0.3-0.4,0.3-0.7,0.3s-0.5-0.1-0.7-0.3
		c-0.1-0.1-0.3-0.4-0.3-0.7v-4.1c-0.8,1.5-1.9,2.9-3.6,4c-1.6,1.1-3.4,1.6-5.4,1.6c-2.1,0-3.8-0.5-5.5-1.6c-1.6-1.1-2.9-2.6-3.8-4.4
		c-1-1.9-1.4-4-1.4-6.3s0.4-4.4,1.4-6.2c1-1.8,2.2-3.3,3.8-4.3c1.6-1.1,3.4-1.5,5.5-1.5s3.8,0.5,5.5,1.5c1.6,1.1,2.7,2.5,3.4,4.3
		v-4.1c0-0.3,0.1-0.4,0.3-0.7c0.1-0.1,0.4-0.3,0.7-0.3C200.8,472.3,201,472.2,201.2,472.3z M195.3,492.7c1.4-1,2.5-2.2,3.3-3.8
		c0.8-1.6,1.2-3.4,1.2-5.4s-0.4-3.6-1.2-5.2s-1.9-2.9-3.3-3.7c-1.4-0.8-2.9-1.4-4.7-1.4c-1.6,0-3.3,0.4-4.7,1.4s-2.5,2.1-3.3,3.7
		c-0.8,1.5-1.2,3.3-1.2,5.4s0.4,3.8,1.2,5.4s1.9,2.9,3.2,3.8c1.4,1,2.9,1.4,4.7,1.4C192.4,494,194,493.6,195.3,492.7z"/>
	<path d="M226,473.8c1.4,1.6,2.1,3.7,2.1,6.3v14.3c0,0.3-0.1,0.4-0.3,0.7c-0.1,0.3-0.4,0.3-0.7,0.3s-0.5-0.1-0.7-0.3
		s-0.3-0.4-0.3-0.7v-14c0-2.1-0.5-3.8-1.6-5.2c-1.1-1.4-2.7-2.1-4.9-2.1c-1.4,0-2.7,0.3-4,1c-1.4,0.7-2.5,1.5-3.3,2.6
		s-1.2,2.3-1.2,3.6v14c0,0.3-0.1,0.4-0.3,0.7c-0.1,0.3-0.4,0.3-0.7,0.3s-0.5-0.1-0.7-0.3s-0.3-0.4-0.3-0.7v-21.4
		c0-0.3,0.1-0.4,0.3-0.7c0.1-0.3,0.4-0.3,0.7-0.3s0.5,0.1,0.7,0.3c0.1,0.1,0.3,0.4,0.3,0.7v3.2c1-1.4,2.2-2.6,3.8-3.4
		s3.3-1.4,4.9-1.4C222.5,471.4,224.6,472.2,226,473.8z"/>
	<path d="M249.9,471.8c1.2,0.3,2.2,0.7,3,1.2s1.1,1.1,1.1,1.6c0,0.3-0.1,0.4-0.3,0.7c-0.1,0.1-0.4,0.3-0.7,0.3s-0.5,0-0.7-0.1
		c-0.1-0.1-0.3-0.3-0.5-0.5c-0.4-0.4-0.8-0.8-1.2-1.1c-1.1-0.5-2.7-0.8-4.8-0.8c-1.8,0-3.4,0.4-4.9,1.4s-2.7,2.2-3.6,3.8
		c-0.8,1.6-1.4,3.3-1.4,5.2c0,2.1,0.4,3.8,1.2,5.4s1.9,2.9,3.4,3.7c1.5,1,3.2,1.4,5.1,1.4c1.2,0,2.2-0.1,2.9-0.3
		c0.7-0.1,1.4-0.5,2.2-1c0.5-0.3,1-0.7,1.2-1.1c0.1-0.1,0.3-0.3,0.4-0.4c0.1-0.1,0.3-0.1,0.4-0.1c0.3,0,0.4,0.1,0.5,0.3
		c0.1,0.1,0.1,0.4,0.1,0.5c0,0.4-0.4,1-1.1,1.5c-0.7,0.5-1.6,1.1-2.9,1.5s-2.6,0.7-4.3,0.7c-2.2,0-4.3-0.5-6-1.5s-3.2-2.5-4.1-4.4
		c-1-1.9-1.5-4-1.5-6.3c0-2.2,0.5-4.1,1.5-6s2.3-3.3,4.1-4.5c1.8-1.1,3.8-1.6,6.2-1.6C247.3,471.4,248.7,471.5,249.9,471.8z"/>
	<path d="M278.7,490c0.1,0.1,0.3,0.4,0.3,0.5s-0.1,0.4-0.1,0.5c-1.1,1.4-2.3,2.5-3.8,3.3s-3.2,1.4-4.9,1.4c-2.3,0-4.4-0.5-6.2-1.5
		s-3.2-2.5-4.3-4.3c-1-1.8-1.5-4-1.5-6.3c0-2.5,0.5-4.7,1.5-6.6s2.3-3.3,3.8-4.3c1.6-1,3.3-1.5,5.2-1.5c1.9,0,3.6,0.4,5.1,1.2
		c1.5,0.8,2.9,1.9,3.8,3.6c1,1.5,1.5,3.6,1.5,5.9c0,0.3-0.1,0.5-0.3,0.7c-0.1,0.1-0.4,0.3-0.7,0.3h-18.3v0.5c0,1.9,0.4,3.7,1.2,5.4
		c0.8,1.6,1.9,2.9,3.4,3.8c1.5,1,3.3,1.4,5.5,1.4c1.5,0,2.9-0.4,4.3-1.1s2.3-1.6,3.2-2.7c0.3-0.3,0.5-0.4,0.8-0.4
		C278.3,489.8,278.6,489.8,278.7,490z M265.1,474.1c-1.2,0.5-2.2,1.5-3.2,2.7s-1.5,2.6-1.8,4.4h17.2v-0.4c-0.1-1.5-0.7-2.9-1.5-4.1
		c-0.8-1.1-1.9-2.1-3.2-2.6s-2.6-0.8-4-0.8C267.5,473.1,266.4,473.6,265.1,474.1z"/>
</g>
<g>
	<path d="M39.3,349.1c0.4,0.4,0.6,0.9,0.6,1.6V368c0,2.4-0.5,4.5-1.6,6.4s-2.5,3.4-4.4,4.5c-1.9,1.1-4,1.6-6.3,1.6
		c-2.4,0-4.5-0.5-6.3-1.6c-1.9-1.1-3.3-2.6-4.4-4.5s-1.6-4-1.6-6.4v-17.4c0-0.6,0.2-1.2,0.6-1.6c0.4-0.4,1-0.6,1.6-0.6
		s1.1,0.2,1.5,0.6s0.7,0.9,0.7,1.5V368c0,1.6,0.4,3,1.1,4.2c0.7,1.3,1.7,2.2,2.9,2.9c1.2,0.7,2.5,1,3.9,1c1.5,0,2.8-0.3,4-1
		c1.2-0.7,2.2-1.7,3-2.9c0.7-1.3,1.1-2.7,1.1-4.2v-17.4c0-0.6,0.2-1.2,0.5-1.6c0.4-0.4,0.9-0.6,1.5-0.6
		C38.4,348.5,38.9,348.7,39.3,349.1z"/>
	<path d="M67.1,365.7V378c0,0.6-0.2,1.1-0.6,1.5s-0.9,0.6-1.6,0.6c-0.6,0-1.1-0.2-1.5-0.6s-0.6-0.9-0.6-1.5v-12.3
		c0-1.8-0.4-3.2-1.2-4.3s-2.1-1.6-4-1.6c-1.2,0-2.3,0.3-3.3,0.8s-1.8,1.2-2.3,2.1c-0.6,0.9-0.8,1.9-0.8,2.9v12.3
		c0,0.6-0.2,1.1-0.6,1.5c-0.4,0.4-0.9,0.6-1.6,0.6c-0.6,0-1.1-0.2-1.5-0.6s-0.6-0.9-0.6-1.6v-19.4c0-0.6,0.2-1.1,0.6-1.5
		c0.4-0.4,0.9-0.6,1.5-0.6s1.2,0.2,1.6,0.6c0.4,0.4,0.6,0.9,0.6,1.5v1.6c0.8-1.2,1.9-2.2,3.3-3.1c1.4-0.8,2.9-1.2,4.5-1.2
		C64.3,355.9,67.1,359.2,67.1,365.7z"/>
	<path d="M73.5,352.8c-0.4-0.3-0.6-0.8-0.6-1.5v-0.7c0-0.7,0.2-1.2,0.6-1.5s1-0.5,1.9-0.5c0.8,0,1.5,0.2,1.8,0.5
		c0.4,0.3,0.6,0.8,0.6,1.5v0.7c0,0.7-0.2,1.2-0.6,1.5s-1,0.5-1.9,0.5C74.5,353.3,73.9,353.1,73.5,352.8z M77,379.6
		c-0.4,0.4-0.9,0.6-1.6,0.6c-0.6,0-1.1-0.2-1.5-0.6s-0.6-0.9-0.6-1.5v-19.6c0-0.6,0.2-1.1,0.6-1.5s0.9-0.6,1.5-0.6s1.2,0.2,1.6,0.6
		s0.6,0.9,0.6,1.5v19.6C77.6,378.7,77.4,379.2,77,379.6z"/>
	<path d="M90.2,360.7v13.5c0,1.5,0.7,2.3,2,2.3c0.2,0,0.5-0.1,0.9-0.2s0.6-0.2,0.9-0.2c0.4,0,0.7,0.2,1,0.5s0.4,0.8,0.4,1.3
		c0,0.6-0.4,1.2-1.1,1.6c-0.7,0.5-1.5,0.7-2.4,0.7c-1,0-1.9-0.1-2.7-0.3c-0.8-0.2-1.6-0.7-2.2-1.6s-1-2.2-1-3.9v-13.7h-2.6
		c-0.6,0-1.1-0.2-1.4-0.6c-0.4-0.4-0.6-0.9-0.6-1.4c0-0.6,0.2-1,0.6-1.4s0.9-0.5,1.4-0.5H86V353c0-0.6,0.2-1.1,0.6-1.5
		s0.9-0.6,1.6-0.6c0.6,0,1.1,0.2,1.5,0.6s0.6,0.9,0.6,1.5v3.8H94c0.6,0,1,0.2,1.4,0.6s0.6,0.9,0.6,1.4s-0.2,1-0.6,1.4
		s-0.9,0.5-1.4,0.5L90.2,360.7L90.2,360.7z"/>
	<path d="M120.2,356.9c0.4,0.4,0.6,0.9,0.6,1.5V378c0,3.8-1,6.6-3.1,8.5s-4.8,2.8-8.2,2.8c-1.1,0-2.2-0.1-3.3-0.3
		c-1.1-0.2-2-0.5-2.7-0.9c-1.1-0.5-1.7-1.2-1.7-2.1c0-0.2,0-0.3,0.1-0.6c0.2-0.5,0.4-0.9,0.8-1.2c0.3-0.3,0.7-0.4,1.1-0.4
		c0.2,0,0.5,0,0.7,0.1c0.9,0.4,1.8,0.8,2.5,1s1.6,0.4,2.5,0.4c4.7,0,7-2.4,7-7.2v-0.9c-0.8,1.1-1.9,1.9-3.1,2.5
		c-1.3,0.6-2.8,0.9-4.4,0.9c-2.5,0-4.5-0.8-5.9-2.4s-2.1-3.7-2.1-6.3v-13.6c0-0.6,0.2-1.2,0.6-1.6s0.9-0.6,1.5-0.6s1.2,0.2,1.6,0.6
		s0.6,0.9,0.6,1.5v12.4c0,2,0.4,3.5,1.3,4.4c0.9,1,2.2,1.4,4,1.4c1.7,0,3.1-0.5,4.3-1.6c1.1-1.1,1.7-2.5,1.7-4.2v-12.4
		c0-0.6,0.2-1.2,0.6-1.6s0.9-0.6,1.5-0.6C119.3,356.3,119.8,356.5,120.2,356.9z"/>
	<path d="M164.1,352.2c0,0.5-0.2,1-0.5,1.5c-0.4,0.5-0.9,0.7-1.5,0.7c-0.4,0-0.8-0.1-1.2-0.3c-1.9-1.1-3.9-1.6-6.1-1.6
		c-2.3,0-4.3,0.5-6,1.5s-3.1,2.4-4.1,4.2c-1,1.8-1.5,3.9-1.5,6.2c0,2.5,0.5,4.7,1.5,6.5s2.4,3.2,4.1,4.1c1.8,1,3.7,1.4,5.9,1.4
		s4.3-0.5,6.1-1.6c0.4-0.2,0.8-0.3,1.2-0.3c0.7,0,1.2,0.3,1.6,0.8c0.4,0.5,0.5,0.9,0.5,1.5c0,0.4-0.1,0.7-0.3,1s-0.5,0.6-0.8,0.7
		c-1.2,0.7-2.5,1.2-4,1.6s-2.9,0.6-4.3,0.6c-2.9,0-5.6-0.6-8.1-1.9s-4.4-3.2-5.9-5.7s-2.2-5.4-2.2-8.7c0-3.1,0.7-5.8,2.1-8.3
		c1.4-2.5,3.3-4.4,5.8-5.8s5.2-2.1,8.3-2.1c2.9,0,5.7,0.7,8.2,2.2C163.7,350.8,164.1,351.4,164.1,352.2z"/>
	<path d="M189.6,359.9l-1.5,8.8h2.9c0.6,0,1.1,0.2,1.5,0.6s0.6,0.9,0.6,1.5c0,0.5-0.2,1-0.6,1.3c-0.4,0.3-0.9,0.5-1.5,0.5h-3.6l-1,6
		c-0.1,0.5-0.3,0.9-0.6,1.2c-0.3,0.3-0.8,0.5-1.2,0.5c-0.6,0-1-0.2-1.4-0.6s-0.6-0.9-0.6-1.5c0-0.2,0-0.4,0-0.5l0.9-5.1h-8l-1,6
		c-0.1,0.5-0.3,0.9-0.7,1.2c-0.3,0.3-0.8,0.4-1.2,0.4c-0.6,0-1.1-0.2-1.5-0.6s-0.5-0.9-0.5-1.5c0-0.2,0-0.4,0-0.5l0.9-5.1H169
		c-0.6,0-1.1-0.2-1.5-0.6s-0.6-0.9-0.6-1.5c0-0.5,0.2-1,0.6-1.3c0.4-0.3,0.9-0.5,1.5-0.5h3.1l1.5-8.8h-2.9c-0.6,0-1.1-0.2-1.5-0.6
		s-0.6-0.9-0.6-1.5c0-0.5,0.2-1,0.6-1.3c0.4-0.3,0.9-0.5,1.5-0.5h3.6l1-5.8c0.1-0.5,0.3-0.9,0.6-1.2c0.3-0.3,0.8-0.5,1.2-0.5
		c0.6,0,1,0.2,1.4,0.6s0.6,0.9,0.6,1.5c0,0.2,0,0.4,0,0.5l-0.9,4.9h8.1l1-5.8c0.1-0.5,0.3-0.9,0.6-1.2c0.3-0.3,0.8-0.5,1.3-0.5
		c0.6,0,1,0.2,1.4,0.6s0.6,0.9,0.6,1.5c0,0.2,0,0.4,0,0.5l-0.9,4.9h2.4c0.6,0,1.1,0.2,1.5,0.6s0.6,0.9,0.6,1.5c0,0.5-0.2,1-0.6,1.3
		c-0.4,0.3-0.9,0.5-1.5,0.5h-3.1L189.6,359.9L189.6,359.9z M184.1,368.7l1.5-8.8h-8l-1.5,8.8H184.1z"/>
	<path d="M229.6,349.8c1.4,0.9,2.4,2,3.2,3.5s1.2,3.1,1.2,4.9s-0.4,3.4-1.2,4.9s-1.9,2.7-3.2,3.6c-1.4,0.9-2.8,1.3-4.4,1.3h-8.5v10
		c0,0.6-0.2,1.1-0.6,1.5c-0.4,0.4-0.9,0.6-1.5,0.6s-1.1-0.2-1.5-0.6s-0.6-0.9-0.6-1.6v-27.4c0-0.6,0.2-1.1,0.6-1.5
		c0.4-0.4,0.9-0.6,1.5-0.6h10.5C226.8,348.5,228.3,348.9,229.6,349.8z M227.5,363.1c0.7-0.5,1.2-1.2,1.7-2.1
		c0.4-0.9,0.6-1.8,0.6-2.8c0-1.5-0.4-2.8-1.3-3.9c-0.9-1.1-2-1.6-3.2-1.6h-8.5v11.2h8.5C226,363.9,226.8,363.6,227.5,363.1z"/>
	<path d="M253,356.5c0.6,0.4,0.9,0.9,0.9,1.5c0,0.7-0.2,1.3-0.6,1.7c-0.4,0.4-0.8,0.6-1.4,0.6c-0.3,0-0.7-0.1-1.2-0.3
		c-0.6-0.2-1.1-0.3-1.5-0.3c-0.9,0-1.9,0.3-2.7,1c-0.9,0.7-1.6,1.5-2.2,2.7c-0.6,1.1-0.8,2.4-0.8,3.8v10.9c0,0.6-0.2,1.1-0.6,1.5
		c-0.4,0.4-0.9,0.6-1.6,0.6c-0.6,0-1.1-0.2-1.5-0.6s-0.6-0.9-0.6-1.6v-19.4c0-0.6,0.2-1.1,0.6-1.5c0.4-0.4,0.9-0.6,1.5-0.6
		s1.2,0.2,1.6,0.6c0.4,0.4,0.6,0.9,0.6,1.5v2.3c0.7-1.5,1.7-2.7,3-3.6s2.8-1.4,4.5-1.4C251.8,355.9,252.4,356.1,253,356.5z"/>
	<path d="M277.8,374.7c-1.1,1.9-2.5,3.3-4.3,4.4s-3.8,1.6-6.1,1.6s-4.2-0.5-6.1-1.6c-1.8-1.1-3.3-2.5-4.3-4.4
		c-1.1-1.9-1.6-4-1.6-6.3c0-2.4,0.5-4.5,1.6-6.4s2.5-3.4,4.3-4.4c1.8-1.1,3.8-1.6,6.1-1.6s4.2,0.5,6.1,1.6c1.8,1.1,3.3,2.5,4.3,4.4
		s1.6,4,1.6,6.4C279.4,370.7,278.8,372.8,277.8,374.7z M274,364c-0.7-1.3-1.6-2.3-2.8-3c-1.2-0.7-2.5-1.1-3.9-1.1s-2.7,0.4-3.9,1.1
		c-1.2,0.7-2.1,1.7-2.8,3c-0.7,1.3-1,2.7-1,4.4c0,1.6,0.3,3,1,4.3s1.6,2.3,2.8,3c1.2,0.7,2.5,1.1,3.9,1.1s2.7-0.4,3.9-1.1
		c1.2-0.7,2.1-1.7,2.8-3c0.7-1.3,1-2.7,1-4.3C275,366.7,274.7,365.3,274,364z"/>
	<path d="M305.8,356.8c0.4,0.4,0.6,0.9,0.6,1.6v19.9c0,2.4-0.5,4.5-1.6,6.1s-2.5,2.9-4.2,3.6s-3.8,1.2-6,1.2c-1.2,0-2.6-0.2-4.2-0.6
		s-2.7-0.9-3.1-1.3c-0.9-0.5-1.4-1.1-1.4-1.8c0-0.2,0.1-0.4,0.2-0.7c0.3-0.8,0.9-1.1,1.7-1.1c0.4,0,0.8,0.1,1.3,0.3
		c2.4,0.9,4.3,1.4,5.7,1.4c2.4,0,4.3-0.6,5.6-1.7c1.3-1.2,1.9-2.8,1.9-4.8v-2.4c-0.6,1.2-1.7,2.2-3.2,3s-3.1,1.3-4.7,1.3
		c-2.1,0-4-0.5-5.7-1.6s-3.1-2.5-4.1-4.4s-1.5-4-1.5-6.4s0.5-4.5,1.5-6.4s2.3-3.4,4-4.4c1.7-1.1,3.6-1.6,5.6-1.6
		c1.7,0,3.2,0.4,4.6,1.1c1.4,0.8,2.6,1.7,3.4,2.8v-1.5c0-0.6,0.2-1.2,0.6-1.6s0.9-0.6,1.5-0.6C304.8,356.2,305.3,356.4,305.8,356.8z
		 M298.6,375.6c1.1-0.7,2-1.7,2.7-3c0.6-1.3,1-2.7,1-4.3c0-1.6-0.3-3-1-4.3s-1.5-2.3-2.7-3c-1.1-0.7-2.5-1.1-3.9-1.1
		s-2.8,0.4-3.9,1.1s-2,1.7-2.7,3s-1,2.7-1,4.3c0,1.6,0.3,3,1,4.3c0.6,1.3,1.5,2.3,2.7,3c1.1,0.7,2.4,1.1,3.9,1.1
		C296.1,376.7,297.4,376.3,298.6,375.6z"/>
	<path d="M326.6,356.5c0.6,0.4,0.9,0.9,0.9,1.5c0,0.7-0.2,1.3-0.6,1.7c-0.4,0.4-0.8,0.6-1.4,0.6c-0.3,0-0.7-0.1-1.2-0.3
		c-0.6-0.2-1.1-0.3-1.5-0.3c-0.9,0-1.9,0.3-2.7,1c-0.9,0.7-1.6,1.5-2.2,2.7c-0.6,1.1-0.8,2.4-0.8,3.8v10.9c0,0.6-0.2,1.1-0.6,1.5
		s-0.9,0.6-1.6,0.6c-0.6,0-1.1-0.2-1.5-0.6s-0.6-0.9-0.6-1.6v-19.4c0-0.6,0.2-1.1,0.6-1.5s0.9-0.6,1.5-0.6s1.2,0.2,1.6,0.6
		s0.6,0.9,0.6,1.5v2.3c0.7-1.5,1.7-2.7,3-3.6s2.8-1.4,4.5-1.4C325.4,355.9,326,356.1,326.6,356.5z"/>
	<path d="M351.8,356.8c0.4,0.4,0.6,0.9,0.6,1.6v19.7c0,0.6-0.2,1.1-0.6,1.5s-0.9,0.6-1.6,0.6c-0.6,0-1.1-0.2-1.5-0.6
		s-0.6-0.9-0.6-1.6v-1.2c-0.8,1.1-1.9,2-3.2,2.7s-2.8,1.1-4.4,1.1c-2.1,0-3.9-0.5-5.6-1.6s-3-2.5-3.9-4.4c-1-1.9-1.4-4-1.4-6.4
		s0.5-4.5,1.4-6.4s2.3-3.4,3.9-4.4s3.5-1.6,5.5-1.6c1.6,0,3.1,0.3,4.5,1s2.5,1.5,3.3,2.5v-1.1c0-0.6,0.2-1.2,0.6-1.6
		s0.9-0.6,1.5-0.6C350.8,356.2,351.3,356.4,351.8,356.8z M344.7,375.6c1.1-0.7,2-1.7,2.6-3s0.9-2.7,0.9-4.3c0-1.6-0.3-3-0.9-4.3
		s-1.5-2.3-2.6-3s-2.4-1.1-3.8-1.1s-2.7,0.4-3.8,1.1c-1.1,0.7-2,1.7-2.6,3s-0.9,2.7-0.9,4.3c0,1.6,0.3,3,0.9,4.3s1.5,2.3,2.6,3
		s2.4,1.1,3.8,1.1C342.4,376.7,343.6,376.3,344.7,375.6z"/>
	<path d="M393.9,366v12.1c0,0.6-0.2,1.2-0.6,1.6s-0.9,0.6-1.5,0.6s-1.2-0.2-1.6-0.6s-0.6-0.9-0.6-1.5V366c0-4-1.7-5.9-5-5.9
		c-1.2,0-2.2,0.3-3.2,0.8s-1.7,1.2-2.2,2.2s-0.8,1.9-0.8,3v12.1c0,0.6-0.2,1.1-0.6,1.5s-0.9,0.6-1.6,0.6c-0.6,0-1.1-0.2-1.5-0.6
		s-0.6-0.9-0.6-1.6V366c0-1.8-0.4-3.2-1.1-4.3c-0.8-1.1-2-1.6-3.8-1.6s-3.3,0.6-4.4,1.7c-1.2,1.1-1.7,2.5-1.7,4.2v12.1
		c0,0.6-0.2,1.1-0.6,1.5s-0.9,0.6-1.6,0.6c-0.6,0-1.1-0.2-1.5-0.6s-0.6-0.9-0.6-1.6v-19.4c0-0.6,0.2-1.1,0.6-1.5s0.9-0.6,1.5-0.6
		s1.2,0.2,1.6,0.6s0.6,0.9,0.6,1.5v1.6c0.8-1.2,1.8-2.2,3.2-3c1.3-0.8,2.7-1.2,4.3-1.2c3.7,0,6.2,1.7,7.3,5c0.7-1.3,1.8-2.4,3.3-3.4
		s3.2-1.5,4.9-1.5C391.3,356.1,393.9,359.4,393.9,366z"/>
	<path d="M435.5,366v12.1c0,0.6-0.2,1.2-0.6,1.6s-0.9,0.6-1.5,0.6s-1.2-0.2-1.6-0.6s-0.6-0.9-0.6-1.5V366c0-4-1.7-5.9-5-5.9
		c-1.2,0-2.2,0.3-3.2,0.8s-1.7,1.2-2.2,2.2s-0.8,1.9-0.8,3v12.1c0,0.6-0.2,1.1-0.6,1.5s-0.9,0.6-1.6,0.6c-0.6,0-1.1-0.2-1.5-0.6
		s-0.6-0.9-0.6-1.6V366c0-1.8-0.4-3.2-1.1-4.3c-0.8-1.1-2-1.6-3.8-1.6s-3.3,0.6-4.4,1.7c-1.2,1.1-1.7,2.5-1.7,4.2v12.1
		c0,0.6-0.2,1.1-0.6,1.5s-0.9,0.6-1.6,0.6c-0.6,0-1.1-0.2-1.5-0.6s-0.6-0.9-0.6-1.6v-19.4c0-0.6,0.2-1.1,0.6-1.5s0.9-0.6,1.5-0.6
		s1.2,0.2,1.6,0.6s0.6,0.9,0.6,1.5v1.6c0.8-1.2,1.8-2.2,3.2-3c1.3-0.8,2.7-1.2,4.3-1.2c3.7,0,6.2,1.7,7.3,5c0.7-1.3,1.8-2.4,3.3-3.4
		s3.2-1.5,4.9-1.5C432.9,356.1,435.5,359.4,435.5,366z"/>
	<path d="M462.1,368.8c-0.4,0.4-0.9,0.6-1.5,0.6h-16c0.2,2.2,1,4,2.5,5.3s3.3,2,5.4,2c1.5,0,2.6-0.2,3.5-0.6s1.7-1,2.4-1.6
		c0.5-0.3,0.9-0.4,1.3-0.4c0.5,0,0.9,0.2,1.3,0.5c0.3,0.4,0.5,0.8,0.5,1.3c0,0.6-0.3,1.2-0.9,1.7c-0.9,0.9-2,1.6-3.5,2.2
		s-2.9,0.9-4.4,0.9c-2.4,0-4.6-0.5-6.5-1.5s-3.3-2.5-4.3-4.3s-1.5-3.9-1.5-6.3c0-2.5,0.5-4.8,1.6-6.7c1-1.9,2.4-3.4,4.1-4.4
		s3.5-1.5,5.5-1.5c1.9,0,3.7,0.5,5.4,1.5s3.1,2.4,4.1,4.1c1,1.8,1.6,3.7,1.6,5.9C462.8,368,462.6,368.5,462.1,368.8z M447.3,361.3
		c-1.2,1-2.1,2.4-2.4,4.4h13.4v-0.4c-0.2-1.6-0.9-2.9-2.2-3.9c-1.3-1-2.7-1.5-4.4-1.5S448.6,360.4,447.3,361.3z"/>
	<path d="M481.7,356.5c0.6,0.4,0.9,0.9,0.9,1.5c0,0.7-0.2,1.3-0.6,1.7c-0.4,0.4-0.8,0.6-1.4,0.6c-0.3,0-0.7-0.1-1.2-0.3
		c-0.6-0.2-1.1-0.3-1.5-0.3c-0.9,0-1.9,0.3-2.7,1c-0.9,0.7-1.6,1.5-2.2,2.7c-0.6,1.1-0.8,2.4-0.8,3.8v10.9c0,0.6-0.2,1.1-0.6,1.5
		s-0.9,0.6-1.6,0.6c-0.6,0-1.1-0.2-1.5-0.6s-0.6-0.9-0.6-1.6v-19.4c0-0.6,0.2-1.1,0.6-1.5s0.9-0.6,1.5-0.6s1.2,0.2,1.6,0.6
		s0.6,0.9,0.6,1.5v2.3c0.7-1.5,1.7-2.7,3-3.6s2.8-1.4,4.5-1.4C480.4,355.9,481.1,356.1,481.7,356.5z"/>
	<path d="M19,434.1c-1.7-0.6-3.3-1.6-4.8-3c-0.6-0.5-1-1.2-1-1.9c0-0.5,0.2-1,0.6-1.5c0.4-0.4,0.9-0.7,1.5-0.7c0.5,0,1,0.2,1.3,0.5
		c1.2,1.1,2.5,1.9,3.7,2.5c1.3,0.5,2.7,0.8,4.4,0.8c1.9,0,3.5-0.4,4.8-1.3s2-2,2-3.3c0-1.6-0.7-2.8-2-3.6c-1.3-0.9-3.2-1.6-5.9-2.2
		c-3.1-0.6-5.5-1.7-7.2-3.1c-1.7-1.5-2.5-3.5-2.5-6c0-1.8,0.5-3.3,1.4-4.7s2.2-2.4,3.9-3.1c1.7-0.7,3.5-1.1,5.6-1.1
		c1.9,0,3.6,0.3,5.3,0.9s3,1.4,4,2.4c0.7,0.6,1,1.3,1,1.9c0,0.5-0.2,1-0.6,1.5c-0.4,0.4-0.9,0.6-1.5,0.6c-0.4,0-0.8-0.1-1-0.4
		c-0.8-0.8-1.9-1.5-3.3-2s-2.7-0.8-4-0.8c-2,0-3.6,0.4-4.8,1.2c-1.2,0.8-1.8,1.9-1.8,3.3c0,1.5,0.6,2.6,1.8,3.4c1.2,0.8,3,1.5,5.3,2
		c2.4,0.5,4.3,1.1,5.8,1.8s2.7,1.7,3.5,2.9c0.8,1.2,1.2,2.9,1.2,4.8c0,1.8-0.5,3.3-1.5,4.7c-1,1.4-2.3,2.4-4,3.2
		c-1.7,0.8-3.6,1.1-5.6,1.1C22.7,435.1,20.7,434.8,19,434.1z"/>
	<path d="M58.6,412c1.7,1,3,2.5,3.9,4.4c1,1.9,1.4,4,1.4,6.3c0,2.4-0.5,4.5-1.4,6.3c-1,1.9-2.3,3.3-3.9,4.4
		c-1.7,1.1-3.5,1.6-5.5,1.6c-1.6,0-3-0.3-4.4-1s-2.5-1.5-3.3-2.5v10.1c0,0.6-0.2,1.1-0.6,1.5s-0.9,0.6-1.6,0.6
		c-0.6,0-1.1-0.2-1.5-0.6s-0.6-0.9-0.6-1.6V413c0-0.6,0.2-1.2,0.6-1.6c0.4-0.4,0.9-0.6,1.5-0.6s1.2,0.2,1.6,0.6
		c0.4,0.4,0.6,1,0.6,1.6v1.3c0.7-1.1,1.8-2,3.2-2.7c1.4-0.8,2.9-1.1,4.4-1.1C55.1,410.5,56.9,411,58.6,412z M56.3,429.9
		c1.1-0.7,2-1.7,2.6-3s0.9-2.7,0.9-4.2s-0.3-3-0.9-4.2c-0.6-1.3-1.5-2.2-2.6-3c-1.1-0.7-2.4-1.1-3.8-1.1c-1.4,0-2.7,0.4-3.8,1.1
		s-2,1.7-2.6,3s-0.9,2.7-0.9,4.3s0.3,3,0.9,4.3c0.6,1.3,1.5,2.3,2.6,3s2.4,1.1,3.8,1.1C53.9,431,55.2,430.7,56.3,429.9z"/>
	<path d="M89.1,423.2c-0.4,0.4-0.9,0.6-1.5,0.6h-16c0.2,2.2,1,4,2.5,5.3s3.3,2,5.4,2c1.5,0,2.6-0.2,3.5-0.6s1.7-1,2.4-1.6
		c0.5-0.3,0.9-0.4,1.3-0.4c0.5,0,0.9,0.2,1.3,0.5c0.3,0.4,0.5,0.8,0.5,1.3c0,0.6-0.3,1.2-0.9,1.7c-0.9,0.9-2,1.6-3.5,2.2
		s-2.9,0.9-4.4,0.9c-2.4,0-4.6-0.5-6.5-1.5s-3.3-2.5-4.3-4.3s-1.5-3.9-1.5-6.3c0-2.5,0.5-4.8,1.6-6.7c1-1.9,2.4-3.4,4.1-4.4
		s3.5-1.5,5.5-1.5c1.9,0,3.7,0.5,5.4,1.5c1.7,1,3.1,2.4,4.1,4.1c1,1.8,1.6,3.7,1.6,5.9C89.7,422.4,89.5,422.8,89.1,423.2z
		 M74.3,415.7c-1.2,1-2.1,2.4-2.4,4.4h13.4v-0.4c-0.2-1.6-0.9-2.9-2.2-3.9c-1.3-1-2.7-1.5-4.4-1.5C77,414.3,75.5,414.8,74.3,415.7z"
		/>
	<path d="M111,411.5c1.6,0.8,2.4,1.7,2.4,2.9c0,0.5-0.2,1-0.5,1.4s-0.8,0.6-1.3,0.6c-0.4,0-0.7-0.1-0.9-0.2
		c-0.2-0.1-0.5-0.3-0.9-0.6c-0.2-0.2-0.5-0.4-0.9-0.6s-0.9-0.3-1.5-0.5c-0.7-0.1-1.3-0.2-1.8-0.2c-1.6,0-3,0.4-4.2,1.1
		s-2.1,1.7-2.8,3c-0.7,1.3-1,2.7-1,4.3c0,1.6,0.3,3,1,4.3c0.6,1.3,1.6,2.3,2.7,3c1.2,0.7,2.5,1.1,4,1.1c1.6,0,2.8-0.2,3.8-0.7
		c0.2-0.1,0.5-0.3,0.9-0.6c0.3-0.2,0.6-0.4,0.8-0.5c0.2-0.1,0.5-0.2,0.8-0.2c0.6,0,1.1,0.2,1.4,0.6s0.5,0.9,0.5,1.5
		s-0.4,1.3-1.2,1.9c-0.8,0.6-1.9,1.1-3.2,1.5c-1.3,0.4-2.8,0.6-4.3,0.6c-2.3,0-4.3-0.5-6.1-1.6c-1.8-1.1-3.1-2.6-4.1-4.4
		c-1-1.9-1.4-4-1.4-6.3s0.5-4.4,1.5-6.3s2.4-3.4,4.2-4.4s3.8-1.6,6.1-1.6C107.5,410.3,109.5,410.7,111,411.5z"/>
	<path d="M118.1,407.2c-0.4-0.3-0.6-0.8-0.6-1.5V405c0-0.7,0.2-1.2,0.6-1.5s1-0.5,1.9-0.5c0.8,0,1.5,0.2,1.8,0.5
		c0.4,0.3,0.6,0.8,0.6,1.5v0.7c0,0.7-0.2,1.2-0.6,1.5s-1,0.5-1.9,0.5C119.1,407.6,118.5,407.5,118.1,407.2z M121.5,434
		c-0.4,0.4-0.9,0.6-1.6,0.6c-0.6,0-1.1-0.2-1.5-0.6s-0.6-0.9-0.6-1.5v-19.6c0-0.6,0.2-1.1,0.6-1.5s0.9-0.6,1.5-0.6s1.2,0.2,1.6,0.6
		s0.6,0.9,0.6,1.5v19.6C122.1,433,121.9,433.6,121.5,434z"/>
	<path d="M149.2,411.2c0.4,0.4,0.6,0.9,0.6,1.6v19.7c0,0.6-0.2,1.1-0.6,1.5c-0.4,0.4-0.9,0.6-1.6,0.6c-0.6,0-1.1-0.2-1.5-0.6
		s-0.6-0.9-0.6-1.6v-1.2c-0.8,1.1-1.9,2-3.2,2.7s-2.8,1.1-4.4,1.1c-2.1,0-3.9-0.5-5.6-1.6c-1.7-1.1-3-2.5-3.9-4.4
		c-1-1.9-1.4-4-1.4-6.4s0.5-4.5,1.4-6.4c0.9-1.9,2.3-3.4,3.9-4.4c1.7-1.1,3.5-1.6,5.5-1.6c1.6,0,3.1,0.3,4.5,1s2.5,1.5,3.3,2.5v-1.1
		c0-0.6,0.2-1.2,0.6-1.6c0.4-0.4,0.9-0.6,1.5-0.6C148.2,410.5,148.8,410.8,149.2,411.2z M142.1,430c1.1-0.7,2-1.7,2.6-3
		s0.9-2.7,0.9-4.3c0-1.6-0.3-3-0.9-4.3c-0.6-1.3-1.5-2.3-2.6-3s-2.4-1.1-3.8-1.1c-1.4,0-2.7,0.4-3.8,1.1s-2,1.7-2.6,3
		s-0.9,2.7-0.9,4.3c0,1.6,0.3,3,0.9,4.3c0.6,1.3,1.5,2.3,2.6,3s2.4,1.1,3.8,1.1C139.8,431.1,141,430.7,142.1,430z"/>
	<path d="M160.2,434c-0.4,0.4-0.9,0.6-1.5,0.6s-1.1-0.2-1.5-0.6s-0.6-0.9-0.6-1.5v-29.2c0-0.6,0.2-1.1,0.6-1.5
		c0.4-0.4,0.9-0.6,1.5-0.6s1.1,0.2,1.5,0.6s0.6,0.9,0.6,1.5v29.2C160.8,433,160.6,433.6,160.2,434z"/>
	<path d="M167.7,407.2c-0.4-0.3-0.6-0.8-0.6-1.5V405c0-0.7,0.2-1.2,0.6-1.5c0.4-0.3,1-0.5,1.9-0.5c0.8,0,1.5,0.2,1.8,0.5
		c0.4,0.3,0.6,0.8,0.6,1.5v0.7c0,0.7-0.2,1.2-0.6,1.5c-0.4,0.3-1,0.5-1.9,0.5C168.7,407.6,168,407.5,167.7,407.2z M171.1,434
		c-0.4,0.4-0.9,0.6-1.6,0.6c-0.6,0-1.1-0.2-1.5-0.6s-0.6-0.9-0.6-1.5v-19.6c0-0.6,0.2-1.1,0.6-1.5c0.4-0.4,0.9-0.6,1.5-0.6
		s1.2,0.2,1.6,0.6s0.6,0.9,0.6,1.5v19.6C171.7,433,171.5,433.6,171.1,434z"/>
	<path d="M176.2,429.7c0-0.6,0.3-1.1,1-1.5c0.3-0.2,0.6-0.3,1-0.3c0.5,0,1,0.2,1.5,0.7c0.9,1,1.9,1.8,2.9,2.3s2.3,0.8,3.7,0.8
		c1.1,0,2.2-0.3,3-0.8c0.9-0.5,1.3-1.3,1.3-2.4c0-1-0.4-1.8-1.3-2.4s-2.2-1-3.9-1.5s-3.1-0.9-4.2-1.4c-1.1-0.5-2.1-1.2-2.8-2.2
		s-1.2-2.2-1.2-3.7c0-1.4,0.4-2.6,1.2-3.6s1.8-1.8,3.1-2.4s2.7-0.9,4.2-0.9s2.9,0.3,4.3,0.8c1.4,0.5,2.6,1.4,3.5,2.5
		c0.4,0.4,0.5,0.9,0.5,1.3c0,0.5-0.2,1-0.7,1.4c-0.3,0.3-0.7,0.4-1.1,0.4c-0.5,0-1-0.2-1.3-0.5c-0.6-0.7-1.4-1.3-2.3-1.7
		c-0.9-0.4-1.9-0.6-3.1-0.6c-1.1,0-2.1,0.2-2.9,0.7c-0.8,0.5-1.2,1.3-1.2,2.4s0.5,1.8,1.4,2.4c0.9,0.5,2.3,1,4.1,1.5
		c1.6,0.4,2.9,0.9,4,1.4s1.9,1.2,2.7,2.2c0.7,1,1.1,2.2,1.1,3.7c0,1.4-0.4,2.7-1.2,3.7s-1.9,1.8-3.2,2.4s-2.7,0.8-4.2,0.8
		c-1.9,0-3.7-0.3-5.3-1s-3-1.7-4.1-3.2C176.3,430.5,176.2,430.1,176.2,429.7z"/>
	<path d="M206,415.1v13.5c0,1.5,0.7,2.3,2,2.3c0.2,0,0.5-0.1,0.9-0.2s0.6-0.2,0.9-0.2c0.4,0,0.7,0.2,1,0.5s0.4,0.8,0.4,1.3
		c0,0.6-0.4,1.2-1.1,1.6c-0.7,0.5-1.5,0.7-2.4,0.7c-1,0-1.9-0.1-2.7-0.3c-0.8-0.2-1.6-0.7-2.2-1.6c-0.6-0.9-1-2.2-1-3.9v-13.7H199
		c-0.6,0-1.1-0.2-1.4-0.6c-0.4-0.4-0.6-0.9-0.6-1.4c0-0.6,0.2-1,0.6-1.4c0.4-0.4,0.9-0.5,1.4-0.5h2.6v-3.8c0-0.6,0.2-1.1,0.6-1.5
		c0.4-0.4,0.9-0.6,1.6-0.6c0.6,0,1.1,0.2,1.5,0.6s0.6,0.9,0.6,1.5v3.8h3.8c0.6,0,1,0.2,1.4,0.6s0.6,0.9,0.6,1.4s-0.2,1-0.6,1.4
		c-0.4,0.4-0.9,0.5-1.4,0.5L206,415.1L206,415.1z"/>
	<path d="M253.9,403.5c0.4,0.4,0.6,0.9,0.6,1.6v17.4c0,2.4-0.5,4.5-1.6,6.4s-2.5,3.4-4.4,4.5s-4,1.6-6.3,1.6c-2.4,0-4.5-0.5-6.3-1.6
		c-1.9-1.1-3.3-2.6-4.4-4.5c-1.1-1.9-1.6-4-1.6-6.4V405c0-0.6,0.2-1.2,0.6-1.6c0.4-0.4,1-0.6,1.6-0.6s1.1,0.2,1.5,0.6
		s0.7,0.9,0.7,1.5v17.4c0,1.6,0.4,3,1.1,4.2c0.7,1.3,1.7,2.2,2.9,2.9c1.2,0.7,2.5,1,3.9,1c1.5,0,2.8-0.3,4-1s2.2-1.7,3-2.9
		c0.7-1.3,1.1-2.7,1.1-4.2V405c0-0.6,0.2-1.2,0.5-1.6c0.4-0.4,0.9-0.6,1.5-0.6C253,402.8,253.5,403,253.9,403.5z"/>
	<path d="M265.8,434c-0.5,0.4-1,0.6-1.6,0.6c-0.7,0-1.2-0.2-1.6-0.6s-0.6-1-0.6-1.6v-27.3c0-0.6,0.2-1.1,0.6-1.5s1-0.6,1.6-0.6
		s1.1,0.2,1.6,0.6s0.7,0.9,0.7,1.5v27.3C266.4,433,266.2,433.6,265.8,434z"/>
	<path d="M271.8,440.1c-0.4-0.4-0.6-0.8-0.6-1.3c0-0.2,0.1-0.5,0.2-0.9l19-38.3c0.4-0.8,1-1.2,1.8-1.2c0.5,0,0.9,0.2,1.3,0.5
		s0.6,0.8,0.6,1.3c0,0.4-0.1,0.7-0.2,1L275,439.5c-0.4,0.8-0.9,1.2-1.7,1.2C272.6,440.6,272.2,440.4,271.8,440.1z"/>
	<path d="M322.8,403.5c0.4,0.4,0.6,0.9,0.6,1.6v17.4c0,2.4-0.5,4.5-1.6,6.4s-2.5,3.4-4.4,4.5s-4,1.6-6.3,1.6c-2.4,0-4.5-0.5-6.3-1.6
		c-1.9-1.1-3.3-2.6-4.4-4.5s-1.6-4-1.6-6.4V405c0-0.6,0.2-1.2,0.6-1.6s1-0.6,1.6-0.6s1.1,0.2,1.5,0.6s0.7,0.9,0.7,1.5v17.4
		c0,1.6,0.4,3,1.1,4.2c0.7,1.3,1.7,2.2,2.9,2.9c1.2,0.7,2.5,1,3.9,1c1.5,0,2.8-0.3,4-1s2.2-1.7,3-2.9c0.7-1.3,1.1-2.7,1.1-4.2V405
		c0-0.6,0.2-1.2,0.5-1.6s0.9-0.6,1.5-0.6C322,402.8,322.5,403,322.8,403.5z"/>
	<path d="M353.2,431.3c0.3,0.4,0.4,0.8,0.4,1.3c0,0.6-0.2,1.1-0.7,1.5c-0.4,0.4-0.9,0.6-1.5,0.6c-0.8,0-1.3-0.3-1.8-0.9l-8.8-11.8
		l-8.6,11.7c-0.5,0.6-1,1-1.8,1c-0.5,0-1-0.2-1.4-0.6s-0.6-0.8-0.6-1.3s0.2-1,0.5-1.5l9.3-12.6l-9.3-12.6c-0.3-0.4-0.5-0.8-0.5-1.3
		c0-0.6,0.2-1.1,0.7-1.5c0.4-0.4,0.9-0.6,1.5-0.6c0.3,0,0.7,0.1,1,0.2s0.6,0.4,0.8,0.7l8.7,11.7l8.6-11.6c0.5-0.7,1.1-1,1.7-1
		c0.5,0,1,0.2,1.4,0.6s0.6,0.9,0.6,1.4s-0.2,0.9-0.5,1.3l-9.4,12.6L353.2,431.3z"/>
</g>
</svg>
