<?xml version="1.0" encoding="utf-8"?>
<!-- Generator: Adobe Illustrator 26.1.0, SVG Export Plug-In . SVG Version: 6.00 Build 0)  -->
<svg version="1.1" id="Calque_1" xmlns="http://www.w3.org/2000/svg" xmlns:xlink="http://www.w3.org/1999/xlink" x="0px" y="0px"
	 viewBox="0 0 566.9 510.2" style="enable-background:new 0 0 566.9 510.2;" xml:space="preserve">
<style type="text/css">
	.st0{fill:#FFFFFF;}
</style>
<g>
	<g>
		<path class="st0" d="M81.5,14.2c0.5,0.7,1,1.5,1,2.3v116.9c0,0.8-0.3,1.6-1,2.3s-1.5,1-2.3,1c-1,0-1.8-0.3-2.5-1
			c-0.5-0.7-1-1.5-1-2.3v-15.9c-2.6,5.9-6.9,10.9-12.6,14.8c-5.8,4-12.2,6-19.4,6c-7.3,0-13.7-1.9-19.7-5.8
			c-6-3.8-10.7-9.1-14.2-15.8c-3.4-6.7-5.1-14.2-5.1-22.4s1.6-15.7,5.1-22.4c3.4-6.7,8-12,14-15.7c5.9-3.7,12.5-5.6,19.7-5.6
			c6.9,0,13.3,1.9,19.2,5.8s10.3,9,13.1,15.3V16.5c0-1,0.3-1.6,1-2.3c0.5-0.7,1.4-1,2.5-1S80.9,13.5,81.5,14.2z M60.7,127.2
			c4.9-3.3,8.8-7.7,11.5-13.5s4.1-12.2,4.1-19.2c0-7.1-1.4-13.5-4.1-19.2c-2.7-5.6-6.6-10.2-11.5-13.3S50.2,57.2,44,57.2
			c-6,0-11.5,1.6-16.5,4.8c-5,3.2-8.8,7.7-11.7,13.5c-2.9,5.6-4.3,12-4.3,19.1s1.4,13.6,4.3,19.2c2.9,5.6,6.7,10.2,11.7,13.5
			s10.4,4.9,16.5,4.9C50.2,132.1,55.8,130.4,60.7,127.2z"/>
		<path class="st0" d="M178.2,117.6c0.5,0.5,0.8,1.2,0.8,2.1c0,0.8-0.3,1.5-0.7,2.1c-3.7,4.9-8.2,8.9-13.7,12.1s-11.3,4.7-17.6,4.7
			c-8.4,0-15.8-1.8-22.3-5.4c-6.5-3.6-11.5-8.7-15.1-15.3s-5.4-14.2-5.4-22.9c0-8.9,1.8-16.8,5.2-23.5c3.6-6.7,8.1-12,14-15.4
			c5.9-3.4,12-5.4,18.6-5.4s12.6,1.4,18.3,4.3c5.6,2.9,10.2,7.1,13.7,12.8c3.6,5.6,5.5,12.6,5.6,21c0,1-0.3,1.6-1,2.5
			c-0.7,0.7-1.5,1.1-2.3,1.1h-65.6v2.2c0,6.9,1.4,13.2,4.1,19s6.9,10.3,12.4,13.6c5.5,3.3,12.1,4.9,19.7,4.9c5.4,0,10.4-1.2,15.1-4
			c4.7-2.6,8.4-5.9,11.1-9.9c0.8-1,1.6-1.5,2.9-1.5C176.9,116.7,177.6,116.9,178.2,117.6z M129.4,60.6c-4.3,2.2-8.1,5.4-11.4,9.8
			c-3.3,4.3-5.5,9.5-6.6,15.7h61.4v-1.5c-0.5-5.6-2.3-10.6-5.4-14.6c-3-4-6.9-7.1-11.4-9.3c-4.5-2.1-9.2-3.2-14.2-3.2
			C137.9,57.4,133.8,58.5,129.4,60.6z"/>
		<path class="st0" d="M266.1,51.1c0.7,0.5,1.1,1.1,1.1,1.9c0,0.7-0.1,1.4-0.5,2.1l-33.3,79.4c-0.3,0.7-0.7,1.2-1.2,1.5
			c-0.5,0.4-1.2,0.5-1.9,0.5s-1.2-0.1-1.9-0.5c-0.5-0.4-1.1-1-1.2-1.5l-33.4-79.3c-0.3-0.7-0.3-1.1-0.3-1.5c0-1,0.3-1.6,1-2.3
			c0.5-0.7,1.5-1,2.6-1c0.5,0,1.1,0.1,1.8,0.5c0.5,0.4,1.1,1,1.2,1.6l30.2,72.7l30.4-72.7c0.5-1.5,1.8-2.2,3.6-2.2
			C264.6,50.4,265.3,50.6,266.1,51.1z"/>
	</g>
	<g>
		<path class="st0" d="M119.3,298.6c-1.4-1.4-2.1-3.2-2.1-5.2v-1.5c0-3.7,2.3-6,6.9-7.1c7.1-2.1,10.7-7.6,10.7-16.8v-79.7
			c0-2.2,0.8-4.1,2.2-5.6s3.4-2.3,5.8-2.3c2.2,0,4.1,0.8,5.6,2.3s2.2,3.4,2.2,5.6V272c0,5.8-1.2,10.9-3.6,15.3
			c-2.3,4.4-5.6,7.7-9.6,10s-8.2,3.4-12.9,3.4C122.5,300.8,120.7,300.1,119.3,298.6z M135.7,166.8c-1.4-1.2-2.1-3-2.1-5.6v-2.6
			c0-2.6,0.8-4.5,2.2-5.6s3.8-1.6,6.9-1.6c3.2,0,5.4,0.5,6.7,1.8c1.4,1.2,2.1,3,2.1,5.6v2.6c0,2.6-0.7,4.5-2.2,5.6s-3.7,1.6-6.9,1.6
			C139.4,168.5,137.1,167.9,135.7,166.8z"/>
		<path class="st0" d="M236.1,182.5c5.8,2.7,8.8,6.3,8.8,10.7c0,1.9-0.5,3.6-1.8,5.1c-1.2,1.5-2.7,2.2-4.7,2.2
			c-1.5,0-2.6-0.3-3.4-0.7c-0.8-0.4-1.9-1.2-3.4-2.2c-0.7-0.7-1.8-1.5-3.2-2.3c-1.4-0.7-3.3-1.2-5.6-1.6c-2.5-0.4-4.7-0.7-6.7-0.7
			c-5.8,0-10.9,1.4-15.4,4c-4.4,2.6-8,6.3-10.3,11.1c-2.5,4.7-3.7,10-3.7,15.8c0,5.9,1.2,11.1,3.6,15.9c2.3,4.7,5.8,8.4,10.2,11
			s9.3,4,14.8,4c5.8,0,10.4-0.8,14-2.6c0.8-0.4,1.8-1.2,3.2-2.2c1.1-0.8,2.1-1.5,2.9-2.1c0.8-0.4,1.9-0.7,3-0.7c2.2,0,4,0.7,5.2,2.1
			c1.2,1.4,1.9,3.2,1.9,5.4c0,2.3-1.5,4.7-4.4,6.9c-2.9,2.3-6.9,4.1-11.8,5.6s-10.3,2.2-15.9,2.2c-8.5,0-15.9-1.9-22.4-5.9
			s-11.4-9.5-15-16.4s-5.2-14.7-5.2-23.4c0-8.5,1.8-16.4,5.5-23.4s8.8-12.4,15.4-16.4c6.6-4,14-5.9,22.5-5.9
			C223,178.4,230.2,179.7,236.1,182.5z"/>
		<path class="st0" d="M335.9,259.9c0,2.2-0.8,4.1-2.6,5.6c-1.8,1.5-3.6,2.2-5.5,2.2c-2.5,0-4.4-0.8-5.8-2.6l-32.8-34.9l-10,9.1V260
			c0,2.2-0.8,4.1-2.2,5.6c-1.5,1.5-3.3,2.3-5.6,2.3s-4.3-0.8-5.8-2.3s-2.2-3.4-2.2-5.6V152.4c0-2.2,0.8-4.1,2.2-5.6
			c1.4-1.5,3.4-2.3,5.8-2.3c2.2,0,4.1,0.8,5.6,2.3s2.2,3.4,2.2,5.6v67.9l41-37.7c1.9-1.6,3.8-2.5,5.8-2.5s3.6,0.8,5.2,2.5
			c1.5,1.6,2.3,3.3,2.3,5.1c0,2.2-1.1,4.3-3.2,6l-28.9,25.7l32,34.8C335.1,255.9,335.9,257.8,335.9,259.9z"/>
	</g>
</g>
<g>
	<path d="M34.5,493.8c0.1,0.1,0.3,0.4,0.3,0.7c0,0.3-0.1,0.5-0.3,0.7c-0.1,0.1-0.4,0.3-0.7,0.3h-17c-0.3,0-0.5-0.1-0.7-0.3
		c-0.1-0.1-0.3-0.4-0.3-0.7v-30.8c0-0.3,0.1-0.4,0.3-0.7c0.1-0.1,0.4-0.3,0.7-0.3s0.5,0.1,0.7,0.3c0.1,0.1,0.3,0.4,0.3,0.7v29.8
		h16.1C34.1,493.5,34.4,493.6,34.5,493.8z"/>
	<path d="M56.5,471.6c0.1,0.1,0.3,0.4,0.3,0.7v20.8c0,2.3-0.4,4.4-1.4,6.2c-1,1.8-2.2,3.2-3.8,4.1c-1.6,1-3.6,1.4-5.6,1.4
		c-1.4,0-2.6-0.1-3.7-0.5c-1.1-0.3-2.1-0.7-2.9-1.2c-0.5-0.4-0.7-0.8-0.5-1.2c0.3-0.4,0.4-0.5,0.8-0.5c0.1,0,0.3,0,0.4,0.1
		c0.7,0.4,1.6,0.8,2.6,1.2c1.1,0.4,2.2,0.5,3.3,0.5c1.8,0,3.3-0.4,4.7-1.2c1.4-0.8,2.5-2.1,3.2-3.6s1.1-3.3,1.1-5.2V491
		c-0.7,1.4-1.8,2.6-3.4,3.4s-3.2,1.4-4.8,1.4c-2.7,0-4.9-0.8-6.3-2.5c-1.4-1.6-2.1-3.8-2.1-6.6v-14.6c0-0.3,0.1-0.4,0.3-0.7
		c0.1-0.1,0.4-0.3,0.7-0.3s0.5,0.1,0.7,0.3c0.1,0.1,0.3,0.4,0.3,0.7v14.6c0,4.8,2.2,7.3,6.5,7.3c1.4,0,2.6-0.3,4-1.1
		c1.4-0.8,2.3-1.6,3.2-2.7s1.2-2.2,1.2-3.4v-14.6c0-0.3,0.1-0.4,0.3-0.7c0.1-0.1,0.4-0.3,0.7-0.3C56.3,471.2,56.4,471.4,56.5,471.6z
		"/>
	<path d="M84.2,489.8c-1,1.9-2.3,3.3-4.1,4.4c-1.8,1.1-3.7,1.6-5.9,1.6s-4.1-0.5-5.9-1.6s-3.2-2.6-4.1-4.4c-1-1.8-1.5-4-1.5-6.2
		c0-2.3,0.5-4.4,1.5-6.2c1-1.9,2.3-3.3,4.1-4.4c1.8-1.1,3.7-1.6,5.9-1.6s4.1,0.5,5.9,1.6s3.2,2.6,4.1,4.4s1.5,4,1.5,6.2
		C85.7,485.9,85.3,488,84.2,489.8z M82.6,478.2c-0.8-1.5-1.9-2.9-3.4-3.7s-3.2-1.4-4.9-1.4c-1.8,0-3.4,0.4-4.9,1.4s-2.6,2.2-3.4,3.7
		s-1.2,3.4-1.2,5.4s0.4,3.7,1.2,5.4c0.8,1.5,1.9,2.9,3.4,3.7c1.5,1,3.2,1.4,4.9,1.4c1.8,0,3.4-0.4,4.9-1.4s2.6-2.2,3.4-3.7
		c0.8-1.6,1.2-3.4,1.2-5.4C83.9,481.5,83.5,479.7,82.6,478.2z"/>
	<path d="M108.6,473.8c1.4,1.6,2.1,3.7,2.1,6.3v14.3c0,0.3-0.1,0.4-0.3,0.7s-0.4,0.3-0.7,0.3s-0.5-0.1-0.7-0.3s-0.3-0.4-0.3-0.7v-14
		c0-2.1-0.5-3.8-1.6-5.2c-1.1-1.4-2.7-2.1-5.1-2.1c-1.4,0-2.7,0.3-4,1c-1.2,0.7-2.5,1.5-3.3,2.6s-1.2,2.3-1.2,3.6v14
		c0,0.3-0.1,0.4-0.3,0.7s-0.4,0.3-0.7,0.3s-0.5-0.1-0.7-0.3s-0.3-0.4-0.3-0.7v-21.4c0-0.3,0.1-0.4,0.3-0.7c0.1-0.3,0.4-0.3,0.7-0.3
		s0.5,0.1,0.7,0.3c0.1,0.1,0.3,0.4,0.3,0.7v3.2c1-1.4,2.2-2.6,3.8-3.4c1.6-1,3.3-1.4,4.9-1.4C105.2,471.4,107.2,472.2,108.6,473.8z"
		/>
	<path d="M120.3,497.9c-0.4,0.8-1,1.5-1.6,1.9c-0.7,0.4-1.2,0.8-1.8,0.8c-0.3,0-0.4,0-0.5-0.1s-0.3-0.3-0.3-0.5s0-0.4,0.1-0.5
		s0.3-0.1,0.7-0.3c0.3-0.1,0.5-0.1,0.8-0.3c0.4-0.3,0.8-0.5,1-1.1c0.3-0.4,0.3-1,0.3-1.4c0-0.7-0.3-1.1-0.8-1.1
		c-0.4,0-0.8,0.1-1.2,0.4c-0.3-0.3-0.4-0.7-0.4-1c0-0.4,0.3-0.7,0.7-1.1c0.4-0.4,1-0.4,1.4-0.4c0.7,0,1.2,0.1,1.6,0.5s0.5,1,0.5,1.5
		C120.8,496.2,120.7,497.1,120.3,497.9z"/>
	<path d="M158.8,463c0.1,0.1,0.3,0.4,0.3,0.7c0,0.3-0.1,0.5-0.3,0.7s-0.4,0.3-0.7,0.3h-16.6v12.9H156c0.3,0,0.4,0.1,0.7,0.3
		s0.3,0.4,0.3,0.7c0,0.3-0.1,0.5-0.3,0.7c-0.1,0.1-0.4,0.3-0.7,0.3h-14.6v15.1c0,0.3-0.1,0.4-0.3,0.7c-0.1,0.1-0.4,0.3-0.7,0.3
		s-0.5-0.1-0.7-0.3c-0.1-0.1-0.3-0.4-0.3-0.7v-30.8c0-0.3,0.1-0.4,0.3-0.7c0.1-0.1,0.4-0.3,0.7-0.3H158
		C158.4,462.7,158.6,462.8,158.8,463z"/>
	<path d="M177.5,472.5c0,0.3-0.1,0.5-0.3,0.7c-0.1,0.1-0.4,0.3-0.5,0.3s-0.3,0-0.7-0.1s-0.7-0.1-1.1-0.1c-1.2,0-2.6,0.5-3.8,1.5
		s-2.3,2.3-3.2,3.8c-0.8,1.5-1.2,3-1.2,4.4v11.7c0,0.3-0.1,0.4-0.3,0.7c-0.1,0.3-0.4,0.3-0.7,0.3s-0.5-0.1-0.7-0.3
		c-0.1-0.1-0.3-0.4-0.3-0.7v-21.4c0-0.3,0.1-0.4,0.3-0.7s0.4-0.3,0.7-0.3s0.5,0.1,0.7,0.3s0.3,0.4,0.3,0.7v4.9
		c0.7-1.9,1.8-3.4,3.3-4.7c1.5-1.2,3.3-1.9,5.4-1.9C176.8,471.4,177.5,471.6,177.5,472.5z"/>
	<path d="M201.2,472.3c0.1,0.1,0.3,0.4,0.3,0.7v21.4c0,0.3-0.1,0.4-0.3,0.7c-0.1,0.3-0.4,0.3-0.7,0.3s-0.5-0.1-0.7-0.3
		c-0.1-0.1-0.3-0.4-0.3-0.7v-4.1c-0.8,1.5-1.9,2.9-3.6,4c-1.6,1.1-3.4,1.6-5.4,1.6c-2.1,0-3.8-0.5-5.5-1.6c-1.6-1.1-2.9-2.6-3.8-4.4
		c-1-1.9-1.4-4-1.4-6.3s0.4-4.4,1.4-6.2c1-1.8,2.2-3.3,3.8-4.3c1.6-1.1,3.4-1.5,5.5-1.5s3.8,0.5,5.5,1.5c1.6,1.1,2.7,2.5,3.4,4.3
		v-4.1c0-0.3,0.1-0.4,0.3-0.7c0.1-0.1,0.4-0.3,0.7-0.3C200.8,472.3,201,472.2,201.2,472.3z M195.3,492.7c1.4-1,2.5-2.2,3.3-3.8
		c0.8-1.6,1.2-3.4,1.2-5.4s-0.4-3.6-1.2-5.2s-1.9-2.9-3.3-3.7c-1.4-0.8-2.9-1.4-4.7-1.4c-1.6,0-3.3,0.4-4.7,1.4s-2.5,2.1-3.3,3.7
		c-0.8,1.5-1.2,3.3-1.2,5.4s0.4,3.8,1.2,5.4s1.9,2.9,3.2,3.8c1.4,1,2.9,1.4,4.7,1.4C192.4,494,194,493.6,195.3,492.7z"/>
	<path d="M226,473.8c1.4,1.6,2.1,3.7,2.1,6.3v14.3c0,0.3-0.1,0.4-0.3,0.7c-0.1,0.3-0.4,0.3-0.7,0.3s-0.5-0.1-0.7-0.3
		s-0.3-0.4-0.3-0.7v-14c0-2.1-0.5-3.8-1.6-5.2c-1.1-1.4-2.7-2.1-4.9-2.1c-1.4,0-2.7,0.3-4,1c-1.4,0.7-2.5,1.5-3.3,2.6
		s-1.2,2.3-1.2,3.6v14c0,0.3-0.1,0.4-0.3,0.7c-0.1,0.3-0.4,0.3-0.7,0.3s-0.5-0.1-0.7-0.3s-0.3-0.4-0.3-0.7v-21.4
		c0-0.3,0.1-0.4,0.3-0.7c0.1-0.3,0.4-0.3,0.7-0.3s0.5,0.1,0.7,0.3c0.1,0.1,0.3,0.4,0.3,0.7v3.2c1-1.4,2.2-2.6,3.8-3.4
		s3.3-1.4,4.9-1.4C222.5,471.4,224.6,472.2,226,473.8z"/>
	<path d="M249.9,471.8c1.2,0.3,2.2,0.7,3,1.2s1.1,1.1,1.1,1.6c0,0.3-0.1,0.4-0.3,0.7c-0.1,0.1-0.4,0.3-0.7,0.3s-0.5,0-0.7-0.1
		c-0.1-0.1-0.3-0.3-0.5-0.5c-0.4-0.4-0.8-0.8-1.2-1.1c-1.1-0.5-2.7-0.8-4.8-0.8c-1.8,0-3.4,0.4-4.9,1.4s-2.7,2.2-3.6,3.8
		c-0.8,1.6-1.4,3.3-1.4,5.2c0,2.1,0.4,3.8,1.2,5.4s1.9,2.9,3.4,3.7c1.5,1,3.2,1.4,5.1,1.4c1.2,0,2.2-0.1,2.9-0.3
		c0.7-0.1,1.4-0.5,2.2-1c0.5-0.3,1-0.7,1.2-1.1c0.1-0.1,0.3-0.3,0.4-0.4c0.1-0.1,0.3-0.1,0.4-0.1c0.3,0,0.4,0.1,0.5,0.3
		c0.1,0.1,0.1,0.4,0.1,0.5c0,0.4-0.4,1-1.1,1.5c-0.7,0.5-1.6,1.1-2.9,1.5s-2.6,0.7-4.3,0.7c-2.2,0-4.3-0.5-6-1.5s-3.2-2.5-4.1-4.4
		c-1-1.9-1.5-4-1.5-6.3c0-2.2,0.5-4.1,1.5-6s2.3-3.3,4.1-4.5c1.8-1.1,3.8-1.6,6.2-1.6C247.3,471.4,248.7,471.5,249.9,471.8z"/>
	<path d="M278.7,490c0.1,0.1,0.3,0.4,0.3,0.5s-0.1,0.4-0.1,0.5c-1.1,1.4-2.3,2.5-3.8,3.3s-3.2,1.4-4.9,1.4c-2.3,0-4.4-0.5-6.2-1.5
		s-3.2-2.5-4.3-4.3c-1-1.8-1.5-4-1.5-6.3c0-2.5,0.5-4.7,1.5-6.6s2.3-3.3,3.8-4.3c1.6-1,3.3-1.5,5.2-1.5c1.9,0,3.6,0.4,5.1,1.2
		c1.5,0.8,2.9,1.9,3.8,3.6c1,1.5,1.5,3.6,1.5,5.9c0,0.3-0.1,0.5-0.3,0.7c-0.1,0.1-0.4,0.3-0.7,0.3h-18.3v0.5c0,1.9,0.4,3.7,1.2,5.4
		c0.8,1.6,1.9,2.9,3.4,3.8c1.5,1,3.3,1.4,5.5,1.4c1.5,0,2.9-0.4,4.3-1.1s2.3-1.6,3.2-2.7c0.3-0.3,0.5-0.4,0.8-0.4
		C278.3,489.8,278.6,489.8,278.7,490z M265.1,474.1c-1.2,0.5-2.2,1.5-3.2,2.7s-1.5,2.6-1.8,4.4h17.2v-0.4c-0.1-1.5-0.7-2.9-1.5-4.1
		c-0.8-1.1-1.9-2.1-3.2-2.6s-2.6-0.8-4-0.8C267.5,473.1,266.4,473.6,265.1,474.1z"/>
</g>
<g>
	<path d="M40.4,347.1c0.4,0.4,0.6,0.9,0.6,1.6v17.7c0,2.4-0.5,4.6-1.6,6.6c-1.1,1.9-2.6,3.5-4.5,4.5c-1.9,1.1-4,1.6-6.4,1.6
		c-2.4,0-4.6-0.5-6.5-1.6c-1.9-1.1-3.4-2.6-4.5-4.5c-1.1-1.9-1.6-4.1-1.6-6.6v-17.7c0-0.6,0.2-1.2,0.6-1.6c0.4-0.4,1-0.6,1.7-0.6
		c0.6,0,1.1,0.2,1.5,0.6c0.4,0.4,0.7,1,0.7,1.6v17.7c0,1.6,0.4,3,1.1,4.3c0.7,1.3,1.7,2.3,3,3c1.2,0.7,2.6,1.1,4,1.1
		c1.5,0,2.8-0.4,4.1-1.1c1.3-0.7,2.3-1.7,3-3c0.8-1.3,1.1-2.7,1.1-4.3v-17.7c0-0.6,0.2-1.2,0.6-1.6s0.9-0.6,1.5-0.6
		S40,346.7,40.4,347.1z"/>
	<path d="M68.7,364v12.6c0,0.6-0.2,1.1-0.6,1.6c-0.4,0.4-0.9,0.6-1.6,0.6c-0.6,0-1.1-0.2-1.5-0.6c-0.4-0.4-0.6-1-0.6-1.6v-12.5
		c0-1.8-0.4-3.3-1.2-4.3c-0.8-1.1-2.2-1.6-4.1-1.6c-1.2,0-2.3,0.3-3.3,0.8c-1,0.5-1.8,1.3-2.4,2.2c-0.6,0.9-0.9,1.9-0.9,3v12.5
		c0,0.6-0.2,1.1-0.6,1.6c-0.4,0.4-0.9,0.6-1.6,0.6s-1.2-0.2-1.6-0.6c-0.4-0.4-0.6-0.9-0.6-1.6v-19.8c0-0.6,0.2-1.1,0.6-1.6
		c0.4-0.4,0.9-0.6,1.5-0.6c0.6,0,1.2,0.2,1.6,0.6c0.4,0.4,0.6,1,0.6,1.6v1.6c0.8-1.2,1.9-2.3,3.3-3.1c1.4-0.8,3-1.3,4.6-1.3
		C65.9,354.1,68.7,357.4,68.7,364z"/>
	<path d="M75.2,350.9c-0.4-0.3-0.6-0.8-0.6-1.5v-0.7c0-0.7,0.2-1.3,0.6-1.6c0.4-0.3,1.1-0.5,1.9-0.5c0.9,0,1.5,0.2,1.9,0.5
		c0.4,0.3,0.6,0.8,0.6,1.5v0.7c0,0.7-0.2,1.3-0.6,1.6c-0.4,0.3-1,0.5-1.9,0.5C76.3,351.4,75.6,351.2,75.2,350.9z M78.8,378.2
		c-0.4,0.4-0.9,0.6-1.6,0.6c-0.6,0-1.1-0.2-1.5-0.6c-0.4-0.4-0.6-1-0.6-1.6v-20c0-0.6,0.2-1.1,0.6-1.6c0.4-0.4,0.9-0.6,1.5-0.6
		c0.6,0,1.2,0.2,1.6,0.6c0.4,0.4,0.6,1,0.6,1.6v20C79.4,377.2,79.2,377.7,78.8,378.2z"/>
	<path d="M92.3,358.9v13.8c0,1.5,0.7,2.3,2.1,2.3c0.2,0,0.5-0.1,0.9-0.2c0.4-0.1,0.7-0.2,0.9-0.2c0.4,0,0.7,0.2,1,0.5
		c0.3,0.3,0.4,0.8,0.4,1.3c0,0.6-0.4,1.2-1.1,1.7c-0.7,0.5-1.6,0.7-2.5,0.7c-1,0-1.9-0.1-2.8-0.3c-0.8-0.2-1.6-0.8-2.3-1.6
		c-0.7-0.9-1-2.2-1-4v-13.9h-2.7c-0.6,0-1.1-0.2-1.5-0.6c-0.4-0.4-0.6-0.9-0.6-1.5s0.2-1.1,0.6-1.4c0.4-0.4,0.9-0.6,1.5-0.6h2.7V351
		c0-0.6,0.2-1.1,0.6-1.6c0.4-0.4,0.9-0.6,1.6-0.6c0.6,0,1.1,0.2,1.5,0.6c0.4,0.4,0.6,1,0.6,1.6v3.9h3.8c0.6,0,1.1,0.2,1.5,0.6
		c0.4,0.4,0.6,0.9,0.6,1.5c0,0.6-0.2,1.1-0.6,1.4c-0.4,0.4-0.9,0.6-1.5,0.6H92.3z"/>
	<path d="M122.8,355c0.4,0.4,0.6,1,0.6,1.6v19.9c0,3.8-1.1,6.7-3.2,8.6c-2.1,1.9-4.9,2.9-8.4,2.9c-1.1,0-2.3-0.1-3.4-0.3
		s-2-0.5-2.7-0.9c-1.1-0.5-1.7-1.2-1.7-2.1c0-0.2,0-0.4,0.1-0.6c0.2-0.5,0.4-0.9,0.8-1.2c0.3-0.3,0.7-0.4,1.2-0.4
		c0.2,0,0.5,0,0.7,0.1c1,0.4,1.8,0.8,2.5,1s1.6,0.4,2.6,0.4c4.8,0,7.2-2.4,7.2-7.3v-0.9c-0.8,1.1-1.9,2-3.2,2.6
		c-1.3,0.6-2.8,0.9-4.5,0.9c-2.6,0-4.5-0.8-6-2.4c-1.4-1.6-2.1-3.8-2.1-6.4v-13.8c0-0.6,0.2-1.2,0.6-1.6c0.4-0.4,0.9-0.6,1.6-0.6
		s1.2,0.2,1.6,0.6c0.4,0.4,0.6,1,0.6,1.6v12.6c0,2,0.4,3.5,1.3,4.5c0.9,1,2.2,1.5,4.1,1.5c1.8,0,3.2-0.6,4.3-1.7
		c1.1-1.1,1.7-2.5,1.7-4.3v-12.6c0-0.6,0.2-1.2,0.6-1.6s0.9-0.6,1.6-0.6S122.4,354.6,122.8,355z"/>
	<path d="M167.4,350.2c0,0.6-0.2,1.1-0.6,1.5c-0.4,0.5-0.9,0.7-1.5,0.7c-0.4,0-0.8-0.1-1.2-0.3c-1.9-1.1-4-1.6-6.2-1.6
		c-2.3,0-4.3,0.5-6.1,1.5c-1.8,1-3.1,2.4-4.1,4.3c-1,1.8-1.5,3.9-1.5,6.3c0,2.6,0.5,4.8,1.5,6.6s2.4,3.3,4.2,4.2
		c1.8,1,3.8,1.5,6,1.5c2.3,0,4.3-0.6,6.2-1.7c0.4-0.2,0.8-0.3,1.2-0.3c0.7,0,1.2,0.3,1.6,0.8c0.4,0.5,0.6,1,0.6,1.5
		c0,0.4-0.1,0.7-0.3,1c-0.2,0.3-0.5,0.6-0.8,0.8c-1.2,0.7-2.5,1.2-4,1.6c-1.5,0.4-3,0.6-4.4,0.6c-3,0-5.7-0.7-8.2-2
		c-2.5-1.3-4.5-3.2-6-5.8c-1.5-2.5-2.2-5.5-2.2-8.9c0-3.1,0.7-5.9,2.1-8.4c1.4-2.5,3.4-4.5,5.9-5.9c2.5-1.4,5.3-2.1,8.4-2.1
		c3,0,5.8,0.7,8.4,2.2C167,348.8,167.4,349.4,167.4,350.2z"/>
	<path d="M193.4,358.1l-1.5,9h3c0.6,0,1.1,0.2,1.5,0.6c0.4,0.4,0.6,0.9,0.6,1.5c0,0.6-0.2,1-0.6,1.4c-0.4,0.4-0.9,0.5-1.5,0.5h-3.7
		l-1.1,6.1c-0.1,0.5-0.3,0.9-0.6,1.2c-0.4,0.3-0.8,0.5-1.3,0.5c-0.6,0-1.1-0.2-1.5-0.6c-0.4-0.4-0.6-0.9-0.6-1.5c0-0.2,0-0.4,0-0.5
		l0.9-5.2H179l-1.1,6.1c-0.1,0.5-0.3,0.9-0.7,1.2c-0.4,0.3-0.8,0.4-1.3,0.4c-0.6,0-1.1-0.2-1.5-0.6s-0.6-0.9-0.6-1.5
		c0-0.2,0-0.4,0-0.5l0.9-5.2h-2.5c-0.6,0-1.1-0.2-1.5-0.6c-0.4-0.4-0.6-0.9-0.6-1.5c0-0.6,0.2-1,0.6-1.4c0.4-0.4,0.9-0.5,1.5-0.5
		h3.2l1.6-9h-3c-0.6,0-1.1-0.2-1.5-0.6c-0.4-0.4-0.6-0.9-0.6-1.5c0-0.6,0.2-1,0.6-1.4c0.4-0.4,0.9-0.5,1.5-0.5h3.7l1-6
		c0.1-0.5,0.3-0.9,0.6-1.2c0.4-0.3,0.8-0.5,1.3-0.5c0.6,0,1.1,0.2,1.5,0.6c0.4,0.4,0.6,0.9,0.6,1.5c0,0.2,0,0.4,0,0.5l-0.9,5h8.2
		l1-6c0.1-0.5,0.3-0.9,0.6-1.2c0.4-0.3,0.8-0.5,1.3-0.5c0.6,0,1.1,0.2,1.5,0.6c0.4,0.4,0.6,0.9,0.6,1.5c0,0.2,0,0.4,0,0.5l-0.9,5
		h2.5c0.6,0,1.1,0.2,1.5,0.6c0.4,0.4,0.6,0.9,0.6,1.5c0,0.6-0.2,1-0.6,1.4c-0.4,0.4-0.9,0.5-1.5,0.5H193.4z M187.9,367l1.5-9h-8.2
		l-1.6,9H187.9z"/>
	<path d="M234.2,347.8c1.4,0.9,2.5,2.1,3.3,3.6c0.8,1.5,1.2,3.2,1.2,5c0,1.8-0.4,3.5-1.2,5c-0.8,1.5-1.9,2.8-3.3,3.6
		c-1.4,0.9-2.9,1.3-4.5,1.3H221v10.2c0,0.6-0.2,1.1-0.6,1.6c-0.4,0.4-0.9,0.6-1.5,0.6c-0.6,0-1.2-0.2-1.5-0.6
		c-0.4-0.4-0.6-0.9-0.6-1.6v-27.9c0-0.6,0.2-1.1,0.6-1.6c0.4-0.4,1-0.6,1.6-0.6h10.7C231.3,346.5,232.8,346.9,234.2,347.8z
		 M232,361.4c0.7-0.5,1.3-1.3,1.7-2.1c0.4-0.9,0.6-1.8,0.6-2.9c0-1.6-0.5-2.9-1.4-4c-0.9-1.1-2-1.6-3.3-1.6H221v11.4h8.7
		C230.5,362.2,231.3,361.9,232,361.4z"/>
	<path d="M258,354.7c0.6,0.4,0.9,0.9,0.9,1.5c0,0.7-0.2,1.3-0.6,1.7c-0.4,0.4-0.9,0.6-1.4,0.6c-0.3,0-0.7-0.1-1.2-0.3
		c-0.6-0.2-1.2-0.3-1.5-0.3c-1,0-1.9,0.3-2.8,1c-0.9,0.7-1.6,1.6-2.2,2.7c-0.6,1.2-0.9,2.4-0.9,3.9v11.1c0,0.6-0.2,1.1-0.6,1.6
		c-0.4,0.4-0.9,0.6-1.6,0.6s-1.2-0.2-1.6-0.6c-0.4-0.4-0.6-0.9-0.6-1.6v-19.8c0-0.6,0.2-1.1,0.6-1.6c0.4-0.4,0.9-0.6,1.5-0.6
		c0.6,0,1.2,0.2,1.6,0.6c0.4,0.4,0.6,1,0.6,1.6v2.4c0.7-1.5,1.7-2.7,3-3.7c1.4-0.9,2.9-1.4,4.6-1.5
		C256.7,354.1,257.4,354.3,258,354.7z"/>
	<path d="M283.2,373.2c-1.1,1.9-2.5,3.4-4.4,4.5c-1.9,1.1-3.9,1.6-6.2,1.6c-2.2,0-4.3-0.5-6.2-1.6c-1.9-1.1-3.3-2.6-4.4-4.5
		c-1.1-1.9-1.6-4.1-1.6-6.5s0.5-4.6,1.6-6.5c1.1-1.9,2.5-3.4,4.4-4.5c1.9-1.1,3.9-1.6,6.2-1.6c2.2,0,4.3,0.5,6.2,1.6
		c1.9,1.1,3.3,2.6,4.4,4.5c1.1,1.9,1.6,4.1,1.6,6.5S284.3,371.3,283.2,373.2z M279.4,362.3c-0.7-1.3-1.6-2.3-2.8-3
		c-1.2-0.7-2.5-1.1-3.9-1.1c-1.4,0-2.8,0.4-3.9,1.1c-1.2,0.7-2.1,1.7-2.8,3c-0.7,1.3-1,2.8-1,4.5c0,1.6,0.3,3.1,1,4.4
		c0.7,1.3,1.6,2.3,2.8,3c1.2,0.7,2.5,1.1,3.9,1.1c1.4,0,2.8-0.4,3.9-1.1c1.2-0.7,2.1-1.7,2.8-3c0.7-1.3,1-2.8,1-4.4
		C280.4,365.1,280.1,363.6,279.4,362.3z"/>
	<path d="M311.7,354.9c0.4,0.4,0.6,1,0.6,1.6v20.3c0,2.5-0.5,4.6-1.6,6.3s-2.5,2.9-4.3,3.7c-1.8,0.8-3.9,1.2-6.1,1.2
		c-1.2,0-2.7-0.2-4.3-0.6c-1.6-0.4-2.7-0.9-3.2-1.3c-1-0.5-1.4-1.1-1.4-1.8c0-0.2,0.1-0.4,0.2-0.7c0.3-0.8,0.9-1.2,1.7-1.2
		c0.4,0,0.8,0.1,1.3,0.3c2.5,1,4.4,1.4,5.8,1.4c2.5,0,4.3-0.6,5.7-1.8c1.3-1.2,2-2.8,2-4.9v-2.5c-0.6,1.2-1.7,2.2-3.3,3.1
		c-1.5,0.9-3.1,1.3-4.8,1.3c-2.1,0-4.1-0.5-5.8-1.6c-1.8-1.1-3.1-2.6-4.1-4.5c-1-1.9-1.5-4.1-1.5-6.5s0.5-4.6,1.5-6.5
		c1-1.9,2.4-3.4,4.1-4.5c1.7-1.1,3.7-1.6,5.7-1.6c1.7,0,3.3,0.4,4.7,1.2s2.6,1.7,3.4,2.8v-1.5c0-0.6,0.2-1.2,0.6-1.6
		c0.4-0.4,0.9-0.6,1.6-0.6C310.7,354.3,311.3,354.5,311.7,354.9z M304.4,374.1c1.2-0.7,2.1-1.7,2.7-3c0.7-1.3,1-2.8,1-4.4
		c0-1.6-0.3-3.1-1-4.4s-1.6-2.3-2.7-3c-1.2-0.7-2.5-1.1-4-1.1c-1.5,0-2.8,0.4-4,1.1c-1.2,0.7-2.1,1.8-2.7,3.1c-0.7,1.3-1,2.8-1,4.4
		s0.3,3.1,1,4.4c0.7,1.3,1.6,2.3,2.7,3.1s2.5,1.1,4,1.1C301.9,375.2,303.2,374.8,304.4,374.1z"/>
	<path d="M332.9,354.7c0.6,0.4,0.9,0.9,0.9,1.5c0,0.7-0.2,1.3-0.6,1.7c-0.4,0.4-0.9,0.6-1.4,0.6c-0.3,0-0.7-0.1-1.2-0.3
		c-0.6-0.2-1.2-0.3-1.5-0.3c-1,0-1.9,0.3-2.8,1c-0.9,0.7-1.6,1.6-2.2,2.7c-0.6,1.2-0.9,2.4-0.9,3.9v11.1c0,0.6-0.2,1.1-0.6,1.6
		c-0.4,0.4-0.9,0.6-1.6,0.6c-0.6,0-1.2-0.2-1.6-0.6c-0.4-0.4-0.6-0.9-0.6-1.6v-19.8c0-0.6,0.2-1.1,0.6-1.6c0.4-0.4,0.9-0.6,1.5-0.6
		c0.6,0,1.2,0.2,1.6,0.6c0.4,0.4,0.6,1,0.6,1.6v2.4c0.7-1.5,1.7-2.7,3-3.7c1.4-0.9,2.9-1.4,4.6-1.5
		C331.7,354.1,332.3,354.3,332.9,354.7z"/>
	<path d="M358.5,354.9c0.4,0.4,0.6,1,0.6,1.6v20c0,0.6-0.2,1.1-0.6,1.6c-0.4,0.4-0.9,0.6-1.6,0.6c-0.6,0-1.2-0.2-1.6-0.6
		c-0.4-0.4-0.6-0.9-0.6-1.6v-1.2c-0.8,1.1-1.9,2-3.3,2.7c-1.4,0.8-2.9,1.1-4.5,1.1c-2.1,0-4-0.5-5.7-1.6s-3-2.6-4-4.5
		s-1.5-4.1-1.5-6.5s0.5-4.6,1.5-6.5c1-1.9,2.3-3.4,4-4.5c1.7-1.1,3.6-1.6,5.6-1.6c1.6,0,3.1,0.3,4.5,1c1.4,0.7,2.5,1.5,3.3,2.6v-1.1
		c0-0.6,0.2-1.2,0.6-1.6c0.4-0.4,0.9-0.6,1.6-0.6C357.6,354.3,358.1,354.5,358.5,354.9z M351.4,374.1c1.1-0.7,2-1.8,2.6-3
		c0.6-1.3,0.9-2.8,0.9-4.4c0-1.6-0.3-3-0.9-4.3c-0.6-1.3-1.5-2.3-2.6-3.1c-1.1-0.8-2.4-1.1-3.9-1.1c-1.4,0-2.7,0.4-3.9,1.1
		c-1.1,0.7-2,1.8-2.6,3s-0.9,2.8-0.9,4.4c0,1.6,0.3,3.1,0.9,4.4s1.5,2.3,2.6,3c1.1,0.7,2.4,1.1,3.9,1.1
		C349,375.2,350.2,374.8,351.4,374.1z"/>
	<path d="M401.5,364.3v12.3c0,0.6-0.2,1.2-0.6,1.6c-0.4,0.4-0.9,0.6-1.6,0.6c-0.6,0-1.2-0.2-1.6-0.6c-0.4-0.4-0.6-1-0.6-1.6v-12.3
		c0-4-1.7-6-5.1-6c-1.2,0-2.3,0.3-3.3,0.8c-1,0.5-1.7,1.3-2.3,2.2s-0.8,1.9-0.8,3v12.3c0,0.6-0.2,1.1-0.6,1.6
		c-0.4,0.4-0.9,0.6-1.6,0.6c-0.6,0-1.2-0.2-1.6-0.6c-0.4-0.4-0.6-0.9-0.6-1.6v-12.3c0-1.8-0.4-3.3-1.2-4.4s-2-1.6-3.8-1.6
		c-1.8,0-3.3,0.6-4.5,1.7c-1.2,1.2-1.8,2.6-1.8,4.3v12.3c0,0.6-0.2,1.1-0.6,1.6c-0.4,0.4-0.9,0.6-1.6,0.6c-0.6,0-1.2-0.2-1.6-0.6
		c-0.4-0.4-0.6-0.9-0.6-1.6v-19.8c0-0.6,0.2-1.1,0.6-1.6c0.4-0.4,0.9-0.6,1.5-0.6c0.6,0,1.2,0.2,1.6,0.6c0.4,0.4,0.6,1,0.6,1.6v1.6
		c0.8-1.2,1.9-2.2,3.2-3c1.3-0.8,2.8-1.2,4.4-1.2c3.8,0,6.3,1.7,7.4,5.1c0.7-1.3,1.8-2.5,3.4-3.5c1.6-1,3.2-1.6,5-1.6
		C398.8,354.2,401.5,357.6,401.5,364.3z"/>
	<path d="M443.8,364.3v12.3c0,0.6-0.2,1.2-0.6,1.6c-0.4,0.4-0.9,0.6-1.6,0.6c-0.6,0-1.2-0.2-1.6-0.6c-0.4-0.4-0.6-1-0.6-1.6v-12.3
		c0-4-1.7-6-5.1-6c-1.2,0-2.3,0.3-3.3,0.8c-1,0.5-1.7,1.3-2.3,2.2c-0.5,0.9-0.8,1.9-0.8,3v12.3c0,0.6-0.2,1.1-0.6,1.6
		c-0.4,0.4-0.9,0.6-1.6,0.6c-0.6,0-1.2-0.2-1.6-0.6c-0.4-0.4-0.6-0.9-0.6-1.6v-12.3c0-1.8-0.4-3.3-1.2-4.4c-0.8-1.1-2-1.6-3.8-1.6
		c-1.8,0-3.3,0.6-4.5,1.7c-1.2,1.2-1.8,2.6-1.8,4.3v12.3c0,0.6-0.2,1.1-0.6,1.6c-0.4,0.4-0.9,0.6-1.6,0.6c-0.6,0-1.2-0.2-1.6-0.6
		s-0.6-0.9-0.6-1.6v-19.8c0-0.6,0.2-1.1,0.6-1.6s0.9-0.6,1.5-0.6c0.6,0,1.2,0.2,1.6,0.6s0.6,1,0.6,1.6v1.6c0.8-1.2,1.9-2.2,3.2-3
		c1.3-0.8,2.8-1.2,4.4-1.2c3.8,0,6.3,1.7,7.4,5.1c0.7-1.3,1.8-2.5,3.4-3.5c1.6-1,3.2-1.6,5-1.6C441.1,354.2,443.8,357.6,443.8,364.3
		z"/>
	<path d="M470.9,367.2c-0.4,0.4-0.9,0.6-1.5,0.6h-16.2c0.2,2.2,1.1,4,2.6,5.4c1.5,1.4,3.3,2,5.5,2c1.5,0,2.7-0.2,3.6-0.6
		s1.7-1,2.4-1.7c0.5-0.3,0.9-0.4,1.3-0.4c0.5,0,1,0.2,1.3,0.6s0.5,0.8,0.5,1.3c0,0.6-0.3,1.2-0.9,1.8c-0.9,0.9-2.1,1.6-3.6,2.3
		c-1.5,0.6-3,0.9-4.5,0.9c-2.5,0-4.7-0.5-6.6-1.6c-1.9-1-3.4-2.5-4.4-4.4c-1-1.9-1.5-4-1.5-6.4c0-2.6,0.5-4.9,1.6-6.8
		c1.1-2,2.5-3.5,4.2-4.5c1.7-1,3.6-1.6,5.6-1.6c2,0,3.8,0.5,5.5,1.5c1.7,1,3.1,2.4,4.2,4.2s1.6,3.8,1.6,6
		C471.6,366.3,471.3,366.8,470.9,367.2z M455.8,359.6c-1.3,1-2.1,2.5-2.5,4.5h13.6v-0.4c-0.2-1.6-0.9-3-2.2-4s-2.8-1.6-4.5-1.6
		C458.6,358.1,457.1,358.6,455.8,359.6z"/>
	<path d="M490.8,354.7c0.6,0.4,0.9,0.9,0.9,1.5c0,0.7-0.2,1.3-0.6,1.7c-0.4,0.4-0.9,0.6-1.4,0.6c-0.3,0-0.7-0.1-1.2-0.3
		c-0.6-0.2-1.2-0.3-1.5-0.3c-1,0-1.9,0.3-2.8,1c-0.9,0.7-1.6,1.6-2.2,2.7c-0.6,1.2-0.9,2.4-0.9,3.9v11.1c0,0.6-0.2,1.1-0.6,1.6
		c-0.4,0.4-0.9,0.6-1.6,0.6c-0.6,0-1.2-0.2-1.6-0.6c-0.4-0.4-0.6-0.9-0.6-1.6v-19.8c0-0.6,0.2-1.1,0.6-1.6c0.4-0.4,0.9-0.6,1.5-0.6
		c0.6,0,1.2,0.2,1.6,0.6c0.4,0.4,0.6,1,0.6,1.6v2.4c0.7-1.5,1.7-2.7,3-3.7c1.4-0.9,2.9-1.4,4.6-1.5
		C489.5,354.1,490.2,354.3,490.8,354.7z"/>
	<path d="M45.6,402.5c0.4,0.4,0.6,0.9,0.6,1.5V432c0,0.6-0.2,1.1-0.6,1.6c-0.4,0.4-1,0.6-1.6,0.6c-0.7,0-1.2-0.2-1.7-0.6
		c-0.4-0.4-0.6-0.9-0.6-1.6v-21.4l-9,13.6c-0.2,0.3-0.5,0.5-0.8,0.7c-0.3,0.2-0.7,0.3-1,0.2c-0.3,0-0.6,0-0.9-0.2
		c-0.3-0.2-0.6-0.4-0.8-0.7l-9-14V432c0,0.6-0.2,1.2-0.6,1.6c-0.4,0.4-0.9,0.6-1.5,0.6c-0.6,0-1.1-0.2-1.5-0.6
		c-0.4-0.4-0.6-0.9-0.6-1.6V404c0-0.6,0.2-1.1,0.6-1.5c0.4-0.4,1-0.7,1.6-0.7c0.4,0,0.7,0.1,1.1,0.3c0.4,0.2,0.6,0.4,0.9,0.7
		l10.9,16.6l11.1-16.6c0.5-0.7,1.1-1,1.8-1C44.6,401.9,45.1,402.1,45.6,402.5z"/>
	<path d="M72.9,410.6c0.4,0.4,0.6,1,0.6,1.6v12.3c0,3.2-0.9,5.7-2.7,7.5c-1.8,1.8-4.3,2.7-7.5,2.7c-3.2,0-5.7-0.9-7.4-2.7
		c-1.8-1.8-2.6-4.3-2.6-7.5v-12.3c0-0.6,0.2-1.1,0.6-1.6c0.4-0.4,0.9-0.6,1.5-0.6c0.6,0,1.2,0.2,1.6,0.6c0.4,0.4,0.6,1,0.6,1.6v12.3
		c0,4,1.9,6,5.7,6c1.9,0,3.3-0.5,4.3-1.5c1-1,1.5-2.5,1.5-4.5v-12.3c0-0.6,0.2-1.1,0.6-1.6c0.4-0.4,0.9-0.6,1.5-0.6
		C71.9,410,72.5,410.2,72.9,410.6z"/>
	<path d="M84.2,433.5c-0.4,0.4-1,0.6-1.6,0.6c-0.6,0-1.1-0.2-1.5-0.6c-0.4-0.4-0.6-1-0.6-1.6v-29.7c0-0.6,0.2-1.1,0.6-1.6
		c0.4-0.4,1-0.6,1.6-0.6c0.6,0,1.1,0.2,1.5,0.6c0.4,0.4,0.6,1,0.6,1.6V432C84.8,432.6,84.6,433.1,84.2,433.5z"/>
	<path d="M98.2,414.3V428c0,1.5,0.7,2.3,2.1,2.3c0.2,0,0.5-0.1,0.9-0.2c0.4-0.1,0.7-0.2,0.9-0.2c0.4,0,0.7,0.2,1,0.5
		c0.3,0.3,0.4,0.8,0.4,1.3c0,0.6-0.4,1.2-1.1,1.7c-0.7,0.5-1.6,0.7-2.5,0.7c-1,0-1.9-0.1-2.8-0.3c-0.8-0.2-1.6-0.8-2.3-1.6
		c-0.7-0.9-1-2.2-1-4v-13.9h-2.7c-0.6,0-1.1-0.2-1.5-0.6c-0.4-0.4-0.6-0.9-0.6-1.5s0.2-1.1,0.6-1.4c0.4-0.4,0.9-0.6,1.5-0.6h2.7
		v-3.9c0-0.6,0.2-1.1,0.6-1.6c0.4-0.4,0.9-0.6,1.6-0.6c0.6,0,1.1,0.2,1.5,0.6c0.4,0.4,0.6,1,0.6,1.6v3.9h3.8c0.6,0,1.1,0.2,1.5,0.6
		c0.4,0.4,0.6,0.9,0.6,1.5c0,0.6-0.2,1.1-0.6,1.4c-0.4,0.4-0.9,0.6-1.5,0.6H98.2z"/>
	<path d="M109.2,406.2c-0.4-0.3-0.6-0.8-0.6-1.5V404c0-0.7,0.2-1.3,0.6-1.6c0.4-0.3,1.1-0.5,1.9-0.5c0.9,0,1.5,0.2,1.9,0.5
		c0.4,0.3,0.6,0.8,0.6,1.5v0.7c0,0.7-0.2,1.3-0.6,1.6c-0.4,0.3-1,0.5-1.9,0.5C110.2,406.7,109.5,406.6,109.2,406.2z M112.7,433.5
		c-0.4,0.4-0.9,0.6-1.6,0.6c-0.6,0-1.1-0.2-1.5-0.6c-0.4-0.4-0.6-1-0.6-1.6v-20c0-0.6,0.2-1.1,0.6-1.6c0.4-0.4,0.9-0.6,1.5-0.6
		c0.6,0,1.2,0.2,1.6,0.6c0.4,0.4,0.6,1,0.6,1.6v20C113.3,432.6,113.1,433.1,112.7,433.5z"/>
	<path d="M155.4,419.6V432c0,0.6-0.2,1.2-0.6,1.6c-0.4,0.4-0.9,0.6-1.6,0.6s-1.2-0.2-1.6-0.6c-0.4-0.4-0.6-1-0.6-1.6v-12.3
		c0-4-1.7-6-5.1-6c-1.2,0-2.3,0.3-3.3,0.8c-1,0.5-1.7,1.3-2.3,2.2c-0.5,0.9-0.8,1.9-0.8,3V432c0,0.6-0.2,1.1-0.6,1.6
		c-0.4,0.4-0.9,0.6-1.6,0.6s-1.2-0.2-1.6-0.6s-0.6-0.9-0.6-1.6v-12.3c0-1.8-0.4-3.3-1.2-4.4c-0.8-1.1-2-1.6-3.8-1.6
		c-1.8,0-3.3,0.6-4.5,1.7c-1.2,1.2-1.8,2.6-1.8,4.3V432c0,0.6-0.2,1.1-0.6,1.6c-0.4,0.4-0.9,0.6-1.6,0.6s-1.2-0.2-1.6-0.6
		c-0.4-0.4-0.6-0.9-0.6-1.6v-19.8c0-0.6,0.2-1.1,0.6-1.6c0.4-0.4,0.9-0.6,1.5-0.6c0.6,0,1.2,0.2,1.6,0.6c0.4,0.4,0.6,1,0.6,1.6v1.6
		c0.8-1.2,1.9-2.2,3.2-3c1.3-0.8,2.8-1.2,4.4-1.2c3.8,0,6.3,1.7,7.4,5.1c0.7-1.3,1.8-2.5,3.4-3.5s3.2-1.6,5-1.6
		C152.7,409.6,155.4,412.9,155.4,419.6z"/>
	<path d="M182.5,422.6c-0.4,0.4-0.9,0.6-1.5,0.6h-16.2c0.2,2.2,1.1,4,2.6,5.4c1.5,1.4,3.3,2,5.5,2c1.5,0,2.7-0.2,3.6-0.6
		s1.7-1,2.4-1.7c0.5-0.3,0.9-0.4,1.3-0.4c0.5,0,1,0.2,1.3,0.6c0.4,0.4,0.5,0.8,0.5,1.3c0,0.6-0.3,1.2-0.9,1.8
		c-0.9,0.9-2.1,1.6-3.6,2.3c-1.5,0.6-3,0.9-4.5,0.9c-2.5,0-4.7-0.5-6.6-1.6c-1.9-1-3.4-2.5-4.4-4.4c-1-1.9-1.5-4-1.5-6.4
		c0-2.6,0.5-4.9,1.6-6.8c1.1-2,2.5-3.5,4.2-4.5c1.7-1,3.6-1.6,5.6-1.6c2,0,3.8,0.5,5.5,1.5c1.7,1,3.1,2.4,4.2,4.2
		c1,1.8,1.6,3.8,1.6,6C183.2,421.7,182.9,422.2,182.5,422.6z M167.4,415c-1.3,1-2.1,2.5-2.5,4.5h13.6v-0.4c-0.2-1.6-0.9-3-2.2-4
		c-1.3-1-2.8-1.6-4.5-1.6C170.2,413.5,168.7,414,167.4,415z"/>
	<path d="M209.5,400.7c0.4,0.4,0.6,0.9,0.6,1.6V432c0,0.6-0.2,1.1-0.6,1.6c-0.4,0.4-0.9,0.6-1.6,0.6s-1.2-0.2-1.6-0.6
		c-0.4-0.4-0.6-0.9-0.6-1.6v-1.3c-0.8,1.1-1.9,2-3.3,2.8c-1.4,0.8-2.9,1.2-4.5,1.2c-2.1,0-4-0.5-5.7-1.6c-1.7-1.1-3-2.6-4-4.5
		c-1-1.9-1.5-4.1-1.5-6.5s0.5-4.6,1.5-6.5c1-1.9,2.3-3.4,4-4.5c1.7-1.1,3.6-1.6,5.6-1.6c1.6,0,3.1,0.3,4.5,1s2.5,1.6,3.4,2.6v-10.8
		c0-0.6,0.2-1.2,0.6-1.6c0.4-0.4,0.9-0.6,1.6-0.6S209.1,400.2,209.5,400.7z M202.3,429.5c1.1-0.7,2-1.8,2.6-3
		c0.6-1.3,0.9-2.8,0.9-4.4c0-1.6-0.3-3.1-0.9-4.4c-0.6-1.3-1.5-2.3-2.6-3.1c-1.1-0.7-2.4-1.1-3.9-1.1c-1.4,0-2.7,0.4-3.9,1.1
		c-1.1,0.7-2,1.8-2.6,3.1c-0.6,1.3-0.9,2.8-0.9,4.4c0,1.6,0.3,3.1,0.9,4.4c0.6,1.3,1.5,2.3,2.6,3c1.1,0.7,2.4,1.1,3.9,1.1
		C199.9,430.6,201.2,430.2,202.3,429.5z"/>
	<path d="M216.6,406.2c-0.4-0.3-0.6-0.8-0.6-1.5V404c0-0.7,0.2-1.3,0.6-1.6c0.4-0.3,1.1-0.5,1.9-0.5c0.9,0,1.5,0.2,1.9,0.5
		c0.4,0.3,0.6,0.8,0.6,1.5v0.7c0,0.7-0.2,1.3-0.6,1.6c-0.4,0.3-1,0.5-1.9,0.5C217.7,406.7,217,406.6,216.6,406.2z M220.1,433.5
		c-0.4,0.4-0.9,0.6-1.6,0.6c-0.6,0-1.1-0.2-1.5-0.6c-0.4-0.4-0.6-1-0.6-1.6v-20c0-0.6,0.2-1.1,0.6-1.6c0.4-0.4,0.9-0.6,1.5-0.6
		c0.6,0,1.2,0.2,1.6,0.6c0.4,0.4,0.6,1,0.6,1.6v20C220.8,432.6,220.6,433.1,220.1,433.5z"/>
	<path d="M248.3,410.3c0.4,0.4,0.6,1,0.6,1.6v20c0,0.6-0.2,1.1-0.6,1.6c-0.4,0.4-0.9,0.6-1.6,0.6s-1.2-0.2-1.6-0.6
		c-0.4-0.4-0.6-0.9-0.6-1.6v-1.2c-0.8,1.1-1.9,2-3.3,2.7c-1.4,0.8-2.9,1.1-4.5,1.1c-2.1,0-4-0.5-5.7-1.6c-1.7-1.1-3-2.6-4-4.5
		c-1-1.9-1.5-4.1-1.5-6.5s0.5-4.6,1.5-6.5c1-1.9,2.3-3.4,4-4.5c1.7-1.1,3.6-1.6,5.6-1.6c1.6,0,3.1,0.3,4.5,1
		c1.4,0.7,2.5,1.5,3.3,2.6v-1.1c0-0.6,0.2-1.2,0.6-1.6c0.4-0.4,0.9-0.6,1.6-0.6S247.9,409.9,248.3,410.3z M241.1,429.5
		c1.1-0.7,2-1.8,2.6-3c0.6-1.3,0.9-2.8,0.9-4.4c0-1.6-0.3-3-0.9-4.3c-0.6-1.3-1.5-2.3-2.6-3.1c-1.1-0.8-2.4-1.1-3.9-1.1
		c-1.4,0-2.7,0.4-3.9,1.1c-1.1,0.7-2,1.8-2.6,3c-0.6,1.3-0.9,2.8-0.9,4.4c0,1.6,0.3,3.1,0.9,4.4c0.6,1.3,1.5,2.3,2.6,3
		c1.1,0.7,2.4,1.1,3.9,1.1C238.7,430.6,240,430.2,241.1,429.5z"/>
	<path d="M288.6,430.6c0.4,0.4,0.6,0.9,0.6,1.5c0,0.6-0.2,1.1-0.6,1.5c-0.4,0.4-0.9,0.6-1.6,0.6H271c-0.6,0-1.1-0.2-1.6-0.6
		c-0.4-0.4-0.6-1-0.6-1.6v-27.9c0-0.6,0.2-1.1,0.6-1.6c0.4-0.4,1-0.6,1.6-0.6H287c0.6,0,1.2,0.2,1.6,0.6c0.4,0.4,0.6,0.9,0.6,1.6
		c0,0.6-0.2,1.1-0.6,1.5s-0.9,0.6-1.6,0.6h-13.7v9.4h11.6c0.6,0,1.2,0.2,1.6,0.6c0.4,0.4,0.6,0.9,0.6,1.5c0,0.6-0.2,1.2-0.6,1.5
		s-0.9,0.6-1.6,0.6h-11.6v10.2H287C287.7,429.9,288.2,430.1,288.6,430.6z"/>
	<path d="M312.6,432.1c0,0.6-0.2,1.1-0.7,1.6c-0.5,0.4-1,0.7-1.5,0.7c-0.7,0-1.3-0.3-1.8-1l-6.2-7.8l-6.1,7.8
		c-0.2,0.3-0.5,0.5-0.8,0.7c-0.3,0.2-0.6,0.2-1,0.2c-0.5,0-1-0.2-1.5-0.6s-0.7-0.8-0.7-1.4c0-0.6,0.2-1,0.5-1.4l6.9-8.6l-7.1-9
		c-0.3-0.4-0.5-0.8-0.5-1.3c0-0.6,0.2-1.1,0.7-1.6c0.4-0.4,1-0.6,1.5-0.6c0.7,0,1.3,0.3,1.8,0.9l6.3,8l6-7.9c0.5-0.6,1-1,1.8-1
		c0.6,0,1.1,0.2,1.5,0.6c0.4,0.4,0.6,0.8,0.6,1.4c0,0.6-0.2,1.1-0.5,1.4l-6.8,8.6l7,8.9C312.4,431.1,312.6,431.6,312.6,432.1z"/>
	<path d="M334.7,411.2c1.7,1.1,3,2.5,4,4.5c1,1.9,1.5,4.1,1.5,6.5s-0.5,4.5-1.5,6.4c-1,1.9-2.3,3.4-4,4.5c-1.7,1.1-3.6,1.6-5.6,1.6
		c-1.6,0-3.1-0.4-4.5-1.1c-1.4-0.7-2.5-1.6-3.4-2.6v10.2c0,0.6-0.2,1.1-0.6,1.6c-0.4,0.4-0.9,0.6-1.6,0.6c-0.6,0-1.1-0.2-1.5-0.6
		c-0.4-0.4-0.6-0.9-0.6-1.6v-29c0-0.6,0.2-1.2,0.6-1.6c0.4-0.4,0.9-0.6,1.6-0.6c0.6,0,1.2,0.2,1.6,0.6c0.4,0.4,0.6,1,0.6,1.6v1.3
		c0.7-1.1,1.8-2,3.2-2.8c1.4-0.8,2.9-1.2,4.5-1.2C331.1,409.6,333,410.1,334.7,411.2z M332.4,429.4c1.1-0.7,2-1.7,2.7-3
		c0.6-1.3,0.9-2.7,0.9-4.3c0-1.6-0.3-3-0.9-4.3c-0.6-1.3-1.5-2.3-2.7-3c-1.1-0.7-2.4-1.1-3.8-1.1c-1.4,0-2.7,0.4-3.9,1.1
		c-1.1,0.7-2,1.7-2.7,3s-0.9,2.7-0.9,4.3c0,1.6,0.3,3,0.9,4.3s1.5,2.3,2.7,3c1.1,0.7,2.4,1.1,3.9,1.1
		C330,430.5,331.2,430.2,332.4,429.4z"/>
	<path d="M365.8,422.6c-0.4,0.4-0.9,0.6-1.5,0.6H348c0.2,2.2,1.1,4,2.6,5.4c1.5,1.4,3.3,2,5.5,2c1.5,0,2.7-0.2,3.6-0.6
		s1.7-1,2.4-1.7c0.5-0.3,0.9-0.4,1.3-0.4c0.5,0,1,0.2,1.3,0.6c0.4,0.4,0.5,0.8,0.5,1.3c0,0.6-0.3,1.2-0.9,1.8
		c-0.9,0.9-2.1,1.6-3.6,2.3c-1.5,0.6-3,0.9-4.5,0.9c-2.5,0-4.7-0.5-6.6-1.6s-3.4-2.5-4.4-4.4c-1-1.9-1.5-4-1.5-6.4
		c0-2.6,0.5-4.9,1.6-6.8c1.1-2,2.5-3.5,4.2-4.5c1.7-1,3.6-1.6,5.6-1.6c2,0,3.8,0.5,5.5,1.5c1.7,1,3.1,2.4,4.2,4.2
		c1,1.8,1.6,3.8,1.6,6C366.4,421.7,366.2,422.2,365.8,422.6z M350.7,415c-1.3,1-2.1,2.5-2.5,4.5h13.6v-0.4c-0.2-1.6-0.9-3-2.2-4
		c-1.3-1-2.8-1.6-4.5-1.6C353.5,413.5,352,414,350.7,415z"/>
	<path d="M385.7,410.1c0.6,0.4,0.9,0.9,0.9,1.5c0,0.7-0.2,1.3-0.6,1.7s-0.9,0.6-1.4,0.6c-0.3,0-0.7-0.1-1.2-0.3
		c-0.6-0.2-1.2-0.3-1.5-0.3c-1,0-1.9,0.3-2.8,1c-0.9,0.7-1.6,1.6-2.2,2.7s-0.9,2.4-0.9,3.9V432c0,0.6-0.2,1.1-0.6,1.6
		c-0.4,0.4-0.9,0.6-1.6,0.6c-0.6,0-1.2-0.2-1.6-0.6s-0.6-0.9-0.6-1.6v-19.8c0-0.6,0.2-1.1,0.6-1.6s0.9-0.6,1.5-0.6
		c0.6,0,1.2,0.2,1.6,0.6s0.6,1,0.6,1.6v2.4c0.7-1.5,1.7-2.7,3-3.7c1.4-0.9,2.9-1.4,4.6-1.5C384.4,409.4,385.1,409.7,385.7,410.1z"/>
	<path d="M397.2,414.3V428c0,1.5,0.7,2.3,2.1,2.3c0.2,0,0.5-0.1,0.9-0.2c0.4-0.1,0.7-0.2,0.9-0.2c0.4,0,0.7,0.2,1,0.5
		c0.3,0.3,0.4,0.8,0.4,1.3c0,0.6-0.4,1.2-1.1,1.7c-0.7,0.5-1.6,0.7-2.5,0.7c-1,0-1.9-0.1-2.8-0.3c-0.8-0.2-1.6-0.8-2.3-1.6
		s-1-2.2-1-4v-13.9h-2.7c-0.6,0-1.1-0.2-1.5-0.6c-0.4-0.4-0.6-0.9-0.6-1.5s0.2-1.1,0.6-1.4s0.9-0.6,1.5-0.6h2.7v-3.9
		c0-0.6,0.2-1.1,0.6-1.6c0.4-0.4,0.9-0.6,1.6-0.6c0.6,0,1.1,0.2,1.5,0.6c0.4,0.4,0.6,1,0.6,1.6v3.9h3.8c0.6,0,1.1,0.2,1.5,0.6
		c0.4,0.4,0.6,0.9,0.6,1.5c0,0.6-0.2,1.1-0.6,1.4c-0.4,0.4-0.9,0.6-1.5,0.6H397.2z"/>
</g>
</svg>
