<?xml version="1.0" encoding="utf-8"?>
<!-- Generator: Adobe Illustrator 26.0.2, SVG Export Plug-In . SVG Version: 6.00 Build 0)  -->
<svg version="1.1" id="Calque_1" xmlns="http://www.w3.org/2000/svg" xmlns:xlink="http://www.w3.org/1999/xlink" x="0px" y="0px"
	 viewBox="0 0 566.9 510.2" style="enable-background:new 0 0 566.9 510.2;" xml:space="preserve">
<style type="text/css">
	.st0{fill:#FFFFFF;}
</style>
<g>
	<g>
		<path class="st0" d="M81.5,14.2c0.5,0.7,1,1.5,1,2.3v116.9c0,0.8-0.3,1.6-1,2.3c-0.7,0.7-1.5,1-2.3,1c-1,0-1.8-0.3-2.5-1
			c-0.5-0.7-1-1.5-1-2.3v-15.9c-2.6,5.9-6.9,10.9-12.6,14.8c-5.8,4-12.2,6-19.4,6c-7.3,0-13.7-1.9-19.7-5.8
			c-6-3.8-10.7-9.1-14.2-15.8c-3.4-6.7-5.1-14.2-5.1-22.4c0-8.2,1.6-15.7,5.1-22.4c3.4-6.7,8-12,14-15.7c5.9-3.7,12.5-5.6,19.7-5.6
			c6.9,0,13.3,1.9,19.2,5.8S73,65.4,75.8,71.7V16.5c0-1,0.3-1.6,1-2.3c0.5-0.7,1.4-1,2.5-1S80.9,13.5,81.5,14.2z M60.7,127.2
			c4.9-3.3,8.8-7.7,11.5-13.5c2.7-5.8,4.1-12.2,4.1-19.2c0-7.1-1.4-13.5-4.1-19.2c-2.7-5.6-6.6-10.2-11.5-13.3S50.2,57.2,44,57.2
			c-6,0-11.5,1.6-16.5,4.8s-8.8,7.7-11.7,13.5c-2.9,5.6-4.3,12-4.3,19.1s1.4,13.6,4.3,19.2c2.9,5.6,6.7,10.2,11.7,13.5
			s10.4,4.9,16.5,4.9C50.2,132.1,55.8,130.4,60.7,127.2z"/>
		<path class="st0" d="M178.2,117.6c0.5,0.5,0.8,1.2,0.8,2.1c0,0.8-0.3,1.5-0.7,2.1c-3.7,4.9-8.2,8.9-13.7,12.1
			c-5.5,3.2-11.3,4.7-17.6,4.7c-8.4,0-15.8-1.8-22.3-5.4c-6.5-3.6-11.5-8.7-15.1-15.3s-5.4-14.2-5.4-22.9c0-8.9,1.8-16.8,5.2-23.5
			c3.6-6.7,8.1-12,14-15.4c5.9-3.4,12-5.4,18.6-5.4s12.6,1.4,18.3,4.3c5.6,2.9,10.2,7.1,13.7,12.8c3.6,5.6,5.5,12.6,5.6,21
			c0,1-0.3,1.6-1,2.5c-0.7,0.7-1.5,1.1-2.3,1.1h-65.6v2.2c0,6.9,1.4,13.2,4.1,19c2.7,5.8,6.9,10.3,12.4,13.6
			c5.5,3.3,12.1,4.9,19.7,4.9c5.4,0,10.4-1.2,15.1-4c4.7-2.6,8.4-5.9,11.1-9.9c0.8-1,1.6-1.5,2.9-1.5
			C176.9,116.7,177.6,116.9,178.2,117.6z M129.4,60.6c-4.3,2.2-8.1,5.4-11.4,9.8c-3.3,4.3-5.5,9.5-6.6,15.7h61.4v-1.5
			c-0.5-5.6-2.3-10.6-5.4-14.6c-3-4-6.9-7.1-11.4-9.3c-4.5-2.1-9.2-3.2-14.2-3.2C137.9,57.4,133.8,58.5,129.4,60.6z"/>
		<path class="st0" d="M266.1,51.1c0.7,0.5,1.1,1.1,1.1,1.9c0,0.7-0.1,1.4-0.5,2.1l-33.3,79.4c-0.3,0.7-0.7,1.2-1.2,1.5
			c-0.5,0.4-1.2,0.5-1.9,0.5s-1.2-0.1-1.9-0.5c-0.5-0.4-1.1-1-1.2-1.5l-33.4-79.3c-0.3-0.7-0.3-1.1-0.3-1.5c0-1,0.3-1.6,1-2.3
			c0.5-0.7,1.5-1,2.6-1c0.5,0,1.1,0.1,1.8,0.5c0.5,0.4,1.1,1,1.2,1.6l30.2,72.7l30.4-72.7c0.5-1.5,1.8-2.2,3.6-2.2
			C264.6,50.4,265.3,50.6,266.1,51.1z"/>
	</g>
	<g>
		<path class="st0" d="M119.3,298.6c-1.4-1.4-2.1-3.2-2.1-5.2v-1.5c0-3.7,2.3-6,6.9-7.1c7.1-2.1,10.7-7.6,10.7-16.8v-79.7
			c0-2.2,0.8-4.1,2.2-5.6c1.4-1.5,3.4-2.3,5.8-2.3c2.2,0,4.1,0.8,5.6,2.3c1.5,1.5,2.2,3.4,2.2,5.6V272c0,5.8-1.2,10.9-3.6,15.3
			c-2.3,4.4-5.6,7.7-9.6,10c-4,2.3-8.2,3.4-12.9,3.4C122.5,300.8,120.7,300.1,119.3,298.6z M135.7,166.8c-1.4-1.2-2.1-3-2.1-5.6
			v-2.6c0-2.6,0.8-4.5,2.2-5.6c1.4-1.1,3.8-1.6,6.9-1.6c3.2,0,5.4,0.5,6.7,1.8c1.4,1.2,2.1,3,2.1,5.6v2.6c0,2.6-0.7,4.5-2.2,5.6
			c-1.5,1.1-3.7,1.6-6.9,1.6C139.4,168.5,137.1,167.9,135.7,166.8z"/>
		<path class="st0" d="M236.1,182.5c5.8,2.7,8.8,6.3,8.8,10.7c0,1.9-0.5,3.6-1.8,5.1c-1.2,1.5-2.7,2.2-4.7,2.2
			c-1.5,0-2.6-0.3-3.4-0.7c-0.8-0.4-1.9-1.2-3.4-2.2c-0.7-0.7-1.8-1.5-3.2-2.3c-1.4-0.7-3.3-1.2-5.6-1.6c-2.5-0.4-4.7-0.7-6.7-0.7
			c-5.8,0-10.9,1.4-15.4,4c-4.4,2.6-8,6.3-10.3,11.1c-2.5,4.7-3.7,10-3.7,15.8c0,5.9,1.2,11.1,3.6,15.9c2.3,4.7,5.8,8.4,10.2,11
			c4.4,2.6,9.3,4,14.8,4c5.8,0,10.4-0.8,14-2.6c0.8-0.4,1.8-1.2,3.2-2.2c1.1-0.8,2.1-1.5,2.9-2.1c0.8-0.4,1.9-0.7,3-0.7
			c2.2,0,4,0.7,5.2,2.1c1.2,1.4,1.9,3.2,1.9,5.4c0,2.3-1.5,4.7-4.4,6.9c-2.9,2.3-6.9,4.1-11.8,5.6s-10.3,2.2-15.9,2.2
			c-8.5,0-15.9-1.9-22.4-5.9c-6.5-4-11.4-9.5-15-16.4c-3.6-6.9-5.2-14.7-5.2-23.4c0-8.5,1.8-16.4,5.5-23.4c3.7-7,8.8-12.4,15.4-16.4
			c6.6-4,14-5.9,22.5-5.9C223,178.4,230.2,179.7,236.1,182.5z"/>
		<path class="st0" d="M335.9,259.9c0,2.2-0.8,4.1-2.6,5.6c-1.8,1.5-3.6,2.2-5.5,2.2c-2.5,0-4.4-0.8-5.8-2.6l-32.8-34.9l-10,9.1V260
			c0,2.2-0.8,4.1-2.2,5.6c-1.5,1.5-3.3,2.3-5.6,2.3s-4.3-0.8-5.8-2.3c-1.5-1.5-2.2-3.4-2.2-5.6V152.4c0-2.2,0.8-4.1,2.2-5.6
			c1.4-1.5,3.4-2.3,5.8-2.3c2.2,0,4.1,0.8,5.6,2.3c1.5,1.5,2.2,3.4,2.2,5.6v67.9l41-37.7c1.9-1.6,3.8-2.5,5.8-2.5s3.6,0.8,5.2,2.5
			c1.5,1.6,2.3,3.3,2.3,5.1c0,2.2-1.1,4.3-3.2,6l-28.9,25.7l32,34.8C335.1,255.9,335.9,257.8,335.9,259.9z"/>
	</g>
</g>
<g>
	<path d="M45,343c0.4,0.4,0.7,1,0.7,1.5v28.2c0,0.7-0.3,1.1-0.7,1.5c-0.4,0.4-1,0.7-1.6,0.7c-0.7,0-1.2-0.1-1.6-0.7s-0.7-1-0.7-1.6
		V351l-9.1,13.7c-0.3,0.3-0.5,0.5-0.8,0.7c-0.3,0.1-0.7,0.3-1,0.3s-0.7,0-1-0.3s-0.5-0.4-0.8-0.7l-9.1-14.2v22
		c0,0.7-0.1,1.2-0.5,1.6c-0.4,0.4-1,0.7-1.5,0.7c-0.7,0-1.1-0.1-1.5-0.7s-0.5-1-0.5-1.6v-28c0-0.5,0.3-1.1,0.7-1.5
		c0.4-0.4,1-0.7,1.6-0.7c0.4,0,0.7,0.1,1.1,0.3s0.7,0.4,0.8,0.7l11,16.8l11.1-16.8c0.5-0.7,1.1-1.1,1.9-1.1
		C44,342.3,44.6,342.6,45,343z"/>
	<path d="M72.6,351.1c0.4,0.4,0.7,1,0.7,1.5V365c0,3.3-1,5.8-2.6,7.6c-1.8,1.8-4.3,2.7-7.6,2.7c-3.2,0-5.8-0.8-7.6-2.7
		c-1.8-1.8-2.6-4.3-2.6-7.6v-12.4c0-0.7,0.3-1.1,0.7-1.5c0.4-0.4,1-0.7,1.5-0.7c0.7,0,1.2,0.3,1.6,0.7c0.4,0.4,0.7,1,0.7,1.5V365
		c0,4.1,1.9,6,5.8,6c1.9,0,3.3-0.5,4.4-1.5c1-1.1,1.5-2.6,1.5-4.5v-12.4c0-0.7,0.3-1.1,0.7-1.5c0.4-0.4,1-0.7,1.5-0.7
		C71.7,350.6,72.2,350.7,72.6,351.1z"/>
	<path d="M84,374.3c-0.4,0.4-1,0.7-1.6,0.7c-0.5,0-1.1-0.3-1.5-0.7c-0.4-0.4-0.7-1-0.7-1.5v-30.1c0-0.7,0.3-1.1,0.7-1.5
		c0.4-0.4,1-0.7,1.6-0.7c0.5,0,1.1,0.3,1.5,0.7c0.4,0.4,0.7,1,0.7,1.5v30.1C84.7,373.4,84.4,373.9,84,374.3z"/>
	<path d="M98.2,354.8v13.9c0,1.5,0.7,2.3,2.1,2.3c0.3,0,0.5,0,0.8-0.1s0.7-0.1,0.8-0.1c0.4,0,0.7,0.1,1.1,0.5
		c0.4,0.4,0.4,0.8,0.4,1.4c0,0.7-0.4,1.2-1.1,1.6c-0.7,0.4-1.6,0.7-2.5,0.7c-1.1,0-1.9-0.1-2.9-0.3c-1-0.1-1.6-0.8-2.3-1.6
		c-0.7-0.8-1-2.2-1-4v-14h-2.7c-0.5,0-1.1-0.1-1.5-0.5c-0.4-0.4-0.5-0.8-0.5-1.5c0-0.7,0.1-1.1,0.5-1.4c0.4-0.3,0.8-0.5,1.5-0.5h2.7
		v-4c0-0.7,0.3-1.1,0.7-1.5c0.4-0.4,1-0.7,1.6-0.7c0.5,0,1.1,0.3,1.5,0.7c0.4,0.4,0.7,1,0.7,1.5v4h3.8c0.5,0,1.1,0.1,1.5,0.5
		c0.4,0.4,0.5,0.8,0.5,1.5c0,0.7-0.1,1.1-0.5,1.4c-0.4,0.3-0.8,0.5-1.5,0.5L98.2,354.8L98.2,354.8z"/>
	<path d="M109.3,346.7c-0.4-0.3-0.5-0.8-0.5-1.5v-0.7c0-0.7,0.3-1.2,0.7-1.5c0.4-0.3,1.1-0.4,1.9-0.4c0.8,0,1.5,0.1,1.9,0.5
		c0.4,0.3,0.5,0.8,0.5,1.5v0.7c0,0.7-0.3,1.2-0.5,1.5c-0.4,0.3-1.1,0.4-1.9,0.4C110.3,347.3,109.6,347,109.3,346.7z M112.7,374.3
		c-0.4,0.4-1,0.7-1.6,0.7c-0.5,0-1.1-0.3-1.5-0.7c-0.4-0.4-0.7-1-0.7-1.5v-20.2c0-0.7,0.3-1.1,0.7-1.5c0.4-0.4,1-0.7,1.5-0.7
		c0.7,0,1.2,0.3,1.6,0.7c0.4,0.4,0.7,1,0.7,1.5v20.2C113.4,373.4,113.2,373.9,112.7,374.3z"/>
	<path d="M156,360.3v12.5c0,0.7-0.1,1.2-0.5,1.6c-0.4,0.4-1,0.7-1.5,0.7c-0.5,0-1.2-0.3-1.6-0.7c-0.4-0.4-0.7-1-0.7-1.5v-12.4
		c0-4.1-1.6-6-5.1-6c-1.2,0-2.3,0.3-3.3,0.8c-1,0.5-1.8,1.2-2.3,2.2c-0.5,1-0.8,1.9-0.8,3V373c0,0.7-0.1,1.1-0.7,1.5
		c-0.4,0.4-1,0.7-1.6,0.7c-0.7,0-1.2-0.1-1.5-0.7s-0.5-1-0.5-1.6v-12.5c0-1.8-0.4-3.3-1.2-4.4c-0.8-1.1-2.1-1.6-3.8-1.6
		s-3.3,0.5-4.5,1.8c-1.2,1.2-1.8,2.6-1.8,4.3v12.5c0,0.7-0.3,1.1-0.7,1.5c-0.4,0.4-1,0.7-1.6,0.7c-0.7,0-1.2-0.1-1.6-0.7
		s-0.5-1-0.5-1.6v-19.9c0-0.7,0.3-1.1,0.7-1.5c0.4-0.4,1-0.7,1.5-0.7c0.7,0,1.2,0.3,1.6,0.7s0.7,1,0.7,1.5v1.6
		c0.8-1.2,1.9-2.2,3.3-3c1.4-0.8,2.9-1.2,4.4-1.2c3.8,0,6.3,1.6,7.6,5.1c0.7-1.4,1.8-2.5,3.4-3.6s3.3-1.5,5.1-1.5
		C153.3,350.1,156,353.4,156,360.3z"/>
	<path d="M183.4,363.2c-0.4,0.4-1,0.5-1.5,0.5h-16.4c0.3,2.2,1.1,4.1,2.6,5.5c1.5,1.4,3.3,2.1,5.5,2.1c1.5,0,2.7-0.3,3.6-0.7
		c1-0.4,1.8-1,2.5-1.6c0.4-0.3,1-0.4,1.4-0.4c0.5,0,1,0.1,1.4,0.5c0.4,0.4,0.5,0.8,0.5,1.4c0,0.7-0.3,1.2-1,1.8
		c-1,1-2.1,1.6-3.6,2.3c-1.5,0.7-3,1-4.5,1c-2.5,0-4.7-0.5-6.6-1.5s-3.4-2.5-4.4-4.4c-1.1-1.9-1.5-4-1.5-6.5c0-2.6,0.5-4.9,1.6-6.9
		s2.5-3.4,4.3-4.5c1.8-1.1,3.6-1.5,5.6-1.5c1.9,0,3.8,0.5,5.6,1.5c1.8,1,3.2,2.5,4.3,4.3c1.1,1.8,1.6,3.8,1.6,6
		C184.1,362.4,183.8,362.8,183.4,363.2z M168.1,355.5c-1.2,1-2.1,2.5-2.5,4.5h13.7v-0.4c-0.1-1.6-0.8-3-2.2-4.1
		c-1.4-1.1-2.9-1.5-4.5-1.5C170.9,354,169.4,354.5,168.1,355.5z"/>
	<path d="M210.6,341.1c0.4,0.4,0.7,1,0.7,1.6v30.1c0,0.7-0.1,1.1-0.7,1.5s-1,0.7-1.6,0.7s-1.2-0.1-1.5-0.7c-0.3-0.5-0.5-1-0.5-1.6
		v-1.4c-0.8,1.1-1.9,2.1-3.3,2.9c-1.4,0.8-2.9,1.2-4.5,1.2c-2.1,0-4-0.5-5.8-1.6c-1.8-1.1-3-2.6-4-4.5c-1-1.9-1.5-4.1-1.5-6.6
		c0-2.5,0.5-4.7,1.5-6.6c1-1.9,2.3-3.4,4-4.5s3.6-1.6,5.6-1.6c1.6,0,3.2,0.3,4.5,1.1c1.4,0.8,2.5,1.5,3.4,2.6v-11
		c0-0.7,0.1-1.2,0.5-1.6c0.4-0.4,1-0.7,1.5-0.7C209.5,340.3,210.2,340.7,210.6,341.1z M203.4,370.2c1.1-0.7,2.1-1.8,2.6-3
		c0.7-1.4,1-2.7,1-4.4c0-1.6-0.3-3-1-4.4c-0.7-1.4-1.5-2.3-2.6-3.2c-1.1-0.7-2.5-1.1-3.8-1.1c-1.4,0-2.7,0.4-3.8,1.1
		c-1.1,0.7-2.1,1.8-2.6,3.2c-0.7,1.4-1,2.7-1,4.4c0,1.6,0.3,3.2,1,4.4c0.7,1.4,1.5,2.3,2.6,3c1.1,0.7,2.5,1.1,3.8,1.1
		C201,371.3,202.2,370.9,203.4,370.2z"/>
	<path d="M217.9,346.7c-0.4-0.3-0.5-0.8-0.5-1.5v-0.7c0-0.7,0.1-1.2,0.7-1.5c0.4-0.3,1.1-0.4,1.9-0.4c0.8,0,1.5,0.1,1.9,0.5
		c0.4,0.4,0.5,0.8,0.5,1.5v0.7c0,0.7-0.1,1.2-0.5,1.5c-0.4,0.3-1.1,0.4-1.9,0.4C218.8,347.3,218.3,347,217.9,346.7z M221.3,374.3
		c-0.4,0.4-1,0.7-1.6,0.7c-0.5,0-1.1-0.3-1.5-0.7s-0.7-1-0.7-1.5v-20.2c0-0.7,0.1-1.1,0.7-1.5c0.4-0.4,1-0.7,1.5-0.7
		c0.7,0,1.2,0.3,1.6,0.7c0.4,0.4,0.7,1,0.7,1.5v20.2C222,373.4,221.9,373.9,221.3,374.3z"/>
	<path d="M249.8,350.8c0.4,0.4,0.7,1,0.7,1.6v20.2c0,0.7-0.1,1.1-0.7,1.5s-1,0.7-1.6,0.7s-1.2-0.1-1.5-0.7c-0.3-0.5-0.5-1-0.5-1.6
		v-1.2c-0.8,1.1-1.9,2.1-3.3,2.7c-1.4,0.7-2.9,1.1-4.5,1.1c-2.1,0-4-0.5-5.8-1.6c-1.6-1.1-3-2.6-4-4.5c-1-1.9-1.5-4.1-1.5-6.6
		c0-2.5,0.5-4.7,1.5-6.6c1-1.9,2.3-3.4,4-4.5s3.6-1.6,5.6-1.6c1.6,0,3.2,0.3,4.5,1.1c1.4,0.8,2.6,1.5,3.4,2.6v-1.1
		c0-0.7,0.1-1.2,0.5-1.6c0.4-0.4,1-0.7,1.5-0.7C248.7,349.9,249.3,350.4,249.8,350.8z M242.6,370.2c1.1-0.7,2.1-1.8,2.6-3
		c0.7-1.4,1-2.7,1-4.4c0-1.6-0.3-3-1-4.4c-0.7-1.4-1.5-2.3-2.6-3.2c-1.1-0.7-2.5-1.1-3.8-1.1c-1.4,0-2.7,0.4-3.8,1.1
		c-1.1,0.7-2.1,1.8-2.6,3c-0.7,1.4-1,2.7-1,4.4c0,1.6,0.3,3.2,1,4.4c0.7,1.4,1.5,2.3,2.6,3c1.1,0.7,2.5,1.1,3.8,1.1
		C240.1,371.3,241.5,370.9,242.6,370.2z"/>
	<path d="M295.7,373c0,0.7-0.1,1.1-0.7,1.5s-1,0.5-1.5,0.5c-0.4,0-0.8-0.1-1.2-0.4c-0.4-0.3-0.7-0.7-0.8-1.1l-2.9-6.9h-14.4
		l-2.9,6.9c-0.1,0.4-0.4,0.8-0.8,1.1c-0.4,0.3-0.8,0.4-1.2,0.4c-0.7,0-1.1-0.1-1.5-0.5c-0.4-0.4-0.5-0.8-0.5-1.4
		c0-0.1,0-0.4,0.1-0.7l11.8-28.9c0.3-0.5,0.5-0.8,1-1.1c0.4-0.3,0.8-0.4,1.4-0.3c0.4,0,0.8,0.1,1.2,0.4c0.4,0.3,0.7,0.5,0.8,1.1
		l11.8,28.4C295.7,372.3,295.7,372.7,295.7,373z M276,362.5h10.9l-5.5-13.1L276,362.5z"/>
	<path d="M317.9,351.7c1.6,1.1,3,2.6,4,4.5c1,1.9,1.5,4.1,1.5,6.6c0,2.5-0.5,4.5-1.5,6.5c-1,1.9-2.3,3.4-4,4.5
		c-1.6,1.1-3.6,1.6-5.6,1.6c-1.6,0-3.2-0.4-4.5-1.1c-1.4-0.7-2.5-1.5-3.4-2.6V382c0,0.7-0.1,1.1-0.7,1.5s-1,0.7-1.6,0.7
		c-0.7,0-1.1-0.1-1.5-0.7c-0.4-0.4-0.7-1-0.7-1.6v-29.1c0-0.7,0.1-1.2,0.5-1.6c0.4-0.4,1-0.7,1.5-0.7c0.5,0,1.2,0.3,1.6,0.7
		c0.4,0.4,0.7,1,0.7,1.6v1.4c0.7-1.1,1.8-2.1,3.3-2.7c1.4-0.8,2.9-1.2,4.5-1.2C314.2,350.1,316.1,350.7,317.9,351.7z M315.4,370.2
		c1.1-0.7,2.1-1.8,2.7-3c0.7-1.2,1-2.7,1-4.4c0-1.6-0.3-3-1-4.4c-0.7-1.2-1.5-2.3-2.7-3c-1.1-0.7-2.5-1.1-3.8-1.1
		c-1.5,0-2.7,0.4-4,1.1c-1.2,0.7-2.1,1.8-2.7,3c-0.7,1.4-1,2.7-1,4.4c0,1.6,0.3,3,1,4.4c0.7,1.4,1.5,2.3,2.7,3
		c1.1,0.7,2.5,1.1,4,1.1C313,371.3,314.3,370.9,315.4,370.2z"/>
	<path d="M346.5,351.7c1.6,1.1,3,2.6,4,4.5c1,1.9,1.5,4.1,1.5,6.6c0,2.5-0.5,4.5-1.5,6.5c-1,1.9-2.3,3.4-4,4.5
		c-1.6,1.1-3.6,1.6-5.6,1.6c-1.6,0-3.2-0.4-4.5-1.1s-2.5-1.5-3.4-2.6V382c0,0.7-0.1,1.1-0.7,1.5c-0.4,0.4-1,0.7-1.6,0.7
		s-1.1-0.1-1.5-0.7c-0.4-0.4-0.7-1-0.7-1.6v-29.1c0-0.7,0.1-1.2,0.5-1.6c0.4-0.4,1-0.7,1.5-0.7c0.5,0,1.2,0.3,1.6,0.7
		c0.4,0.4,0.7,1,0.7,1.6v1.4c0.7-1.1,1.8-2.1,3.3-2.7c1.4-0.8,2.9-1.2,4.5-1.2C342.8,350.1,344.7,350.7,346.5,351.7z M344,370.2
		c1.1-0.7,2.1-1.8,2.7-3c0.7-1.2,1-2.7,1-4.4c0-1.6-0.3-3-1-4.4c-0.7-1.2-1.5-2.3-2.7-3c-1.1-0.7-2.5-1.1-3.8-1.1
		c-1.5,0-2.7,0.4-4,1.1c-1.2,0.7-2.1,1.8-2.7,3c-0.7,1.4-1,2.7-1,4.4c0,1.6,0.3,3,1,4.4c0.7,1.4,1.5,2.3,2.7,3
		c1.1,0.7,2.5,1.1,4,1.1C341.7,371.3,342.9,370.9,344,370.2z"/>
	<path d="M391.8,344.5c2.1,1.5,3.7,3.4,4.7,5.9c1.1,2.5,1.5,5.2,1.5,8.2c0,3-0.5,5.8-1.5,8.2s-2.6,4.4-4.7,5.9
		c-2.1,1.5-4.5,2.2-7.6,2.2h-11.4c-0.7,0-1.1-0.3-1.5-0.7c-0.4-0.4-0.7-1-0.7-1.5v-28.3c0-0.7,0.3-1.1,0.7-1.5
		c0.4-0.4,1-0.7,1.5-0.7h11.4C387.2,342.3,389.6,343,391.8,344.5z M390.9,367.3c1.5-2.2,2.3-5.1,2.3-8.7c0-3.4-0.8-6.3-2.5-8.7
		c-1.6-2.2-4-3.4-7.1-3.4h-8.7v24h8.7C387,370.6,389.4,369.5,390.9,367.3z"/>
	<path d="M424.6,363.2c-0.4,0.4-1,0.5-1.5,0.5h-16.4c0.3,2.2,1.1,4.1,2.6,5.5c1.5,1.4,3.3,2.1,5.5,2.1c1.5,0,2.7-0.3,3.6-0.7
		c1-0.4,1.8-1,2.5-1.6c0.4-0.3,1-0.4,1.4-0.4c0.5,0,1,0.1,1.4,0.5c0.4,0.4,0.5,0.8,0.5,1.4c0,0.7-0.3,1.2-1,1.8
		c-1,1-2.1,1.6-3.6,2.3c-1.5,0.7-3,1-4.5,1c-2.5,0-4.7-0.5-6.6-1.5c-1.9-1.1-3.4-2.5-4.4-4.4c-1.1-1.9-1.5-4-1.5-6.5
		c0-2.6,0.5-4.9,1.6-6.9c1.1-1.9,2.5-3.4,4.3-4.5c1.8-1.1,3.6-1.5,5.6-1.5s3.8,0.5,5.6,1.5c1.8,1.1,3.2,2.5,4.1,4.3
		c1,1.8,1.6,3.8,1.6,6C425.2,362.4,425,362.8,424.6,363.2z M409.3,355.5c-1.2,1-2.1,2.5-2.5,4.5h13.7v-0.4c-0.1-1.6-0.8-3-2.2-4.1
		c-1.4-1.1-2.7-1.5-4.5-1.5C412,354,410.5,354.5,409.3,355.5z"/>
	<path d="M428.5,369.8c0-0.7,0.3-1.1,1-1.5c0.3-0.3,0.7-0.3,1.1-0.3c0.5,0,1.1,0.3,1.5,0.7c1,1.1,1.9,1.9,3,2.3
		c1.1,0.4,2.3,0.8,3.8,0.8c1.2,0,2.2-0.3,3.2-0.8c1-0.5,1.4-1.4,1.4-2.5s-0.4-1.9-1.4-2.5s-2.2-1.1-4-1.5c-1.8-0.4-3.2-1-4.3-1.5
		c-1.1-0.5-2.1-1.2-2.9-2.2s-1.2-2.2-1.2-3.8c0-1.4,0.4-2.6,1.2-3.7c0.8-1.1,1.9-1.9,3.2-2.5c1.2-0.5,2.7-0.8,4.3-0.8s3,0.3,4.4,0.8
		c1.4,0.5,2.7,1.4,3.6,2.6c0.4,0.4,0.5,0.8,0.5,1.4s-0.3,1-0.7,1.4c-0.3,0.3-0.7,0.4-1.2,0.4s-1-0.1-1.4-0.5
		c-0.7-0.7-1.5-1.4-2.5-1.6c-1-0.3-2.1-0.5-3.2-0.5c-1.2,0-2.2,0.3-3,0.7c-0.8,0.4-1.2,1.2-1.2,2.5c0,1.1,0.5,1.9,1.4,2.5
		c1,0.5,2.3,1.1,4.3,1.5c1.6,0.4,3,1,4.1,1.4c1.1,0.5,2.1,1.2,2.7,2.2c0.7,1,1.1,2.2,1.1,3.8c0,1.5-0.4,2.7-1.2,3.8
		c-0.8,1.1-1.9,1.9-3.3,2.5s-2.7,0.8-4.3,0.8c-1.9,0-3.7-0.3-5.5-1.1c-1.8-0.8-3-1.8-4.3-3.3C428.7,370.6,428.5,370.2,428.5,369.8z"
		/>
	<path d="M452.6,346.7c-0.4-0.3-0.5-0.8-0.5-1.5v-0.7c0-0.7,0.1-1.2,0.7-1.5c0.4-0.3,1.1-0.4,1.9-0.4s1.5,0.1,1.9,0.5
		c0.4,0.4,0.5,0.8,0.5,1.5v0.7c0,0.7-0.1,1.2-0.5,1.5c-0.4,0.3-1.1,0.4-1.9,0.4C453.7,347.3,453,347,452.6,346.7z M456.2,374.3
		c-0.4,0.4-1,0.7-1.6,0.7c-0.7,0-1.1-0.3-1.5-0.7c-0.4-0.4-0.7-1-0.7-1.5v-20.2c0-0.7,0.1-1.1,0.7-1.5c0.4-0.4,1-0.7,1.5-0.7
		c0.7,0,1.2,0.3,1.6,0.7c0.4,0.4,0.7,1,0.7,1.5v20.2C456.8,373.4,456.6,373.9,456.2,374.3z"/>
	<path d="M485.3,350.8c0.4,0.4,0.7,1,0.7,1.6V373c0,2.5-0.5,4.7-1.6,6.3c-1.1,1.6-2.5,2.9-4.4,3.7c-1.8,0.8-3.8,1.2-6.2,1.2
		c-1.2,0-2.7-0.3-4.4-0.7c-1.6-0.4-2.7-0.8-3.2-1.4c-1-0.5-1.4-1.1-1.4-1.9c0-0.1,0-0.4,0.1-0.7c0.3-0.8,1-1.2,1.6-1.2
		c0.4,0,0.8,0.1,1.4,0.3c2.5,1,4.4,1.4,5.8,1.4c2.5,0,4.4-0.5,5.8-1.8c1.4-1.2,1.9-2.9,1.9-4.9v-2.5c-0.7,1.2-1.8,2.2-3.3,3.2
		c-1.5,1-3.2,1.4-4.8,1.4c-2.2,0-4.1-0.5-5.9-1.6c-1.8-1.1-3.2-2.6-4.1-4.5s-1.5-4.1-1.5-6.6s0.5-4.7,1.5-6.6c1-1.9,2.3-3.4,4.1-4.5
		s3.7-1.6,5.8-1.6c1.6,0,3.3,0.4,4.8,1.2c1.5,0.8,2.6,1.6,3.4,2.9v-1.5c0-0.7,0.1-1.2,0.5-1.6s1-0.7,1.5-0.7
		C484.3,350.1,484.7,350.4,485.3,350.8z M477.9,370.2c1.2-0.7,2.1-1.8,2.7-3c0.7-1.2,1-2.7,1-4.4c0-1.6-0.3-3.2-1-4.4
		c-0.7-1.2-1.6-2.3-2.7-3c-1.1-0.7-2.5-1.1-4.1-1.1c-1.5,0-2.9,0.4-4,1.1c-1.1,0.7-2.1,1.8-2.7,3.2c-0.7,1.4-1,2.7-1,4.4
		c0,1.6,0.3,3,1,4.4c0.7,1.4,1.6,2.3,2.7,3.2c1.1,0.8,2.5,1.1,4,1.1C475.3,371.3,476.6,370.9,477.9,370.2z"/>
	<path d="M513.3,360v12.6c0,0.7-0.1,1.1-0.7,1.5c-0.4,0.4-1,0.7-1.6,0.7c-0.7,0-1.1-0.3-1.5-0.7c-0.4-0.4-0.7-1-0.7-1.5V360
		c0-1.8-0.4-3.3-1.2-4.4c-0.8-1.1-2.2-1.6-4.1-1.6c-1.2,0-2.3,0.3-3.4,0.8c-1,0.5-1.8,1.2-2.3,2.2c-0.5,1-0.8,1.9-0.8,3v12.6
		c0,0.7-0.1,1.1-0.7,1.5c-0.4,0.4-1,0.7-1.6,0.7c-0.7,0-1.2-0.1-1.5-0.7c-0.3-0.5-0.5-1-0.5-1.6v-19.8c0-0.7,0.1-1.1,0.7-1.5
		c0.4-0.4,1-0.7,1.5-0.7c0.7,0,1.2,0.3,1.6,0.7c0.4,0.4,0.7,1,0.7,1.5v1.6c0.8-1.2,1.9-2.3,3.4-3.2c1.5-0.8,3-1.2,4.7-1.2
		C510.4,350,513.3,353.3,513.3,360z"/>
	<path d="M540.7,363.2c-0.4,0.4-1,0.5-1.5,0.5h-16.4c0.3,2.2,1.1,4.1,2.6,5.5c1.5,1.4,3.3,2.1,5.5,2.1c1.5,0,2.7-0.3,3.6-0.7
		c1-0.4,1.8-1,2.5-1.6c0.4-0.3,1-0.4,1.4-0.4c0.5,0,1,0.1,1.4,0.5c0.4,0.4,0.5,0.8,0.5,1.4c0,0.7-0.3,1.2-1,1.8
		c-1,1-2.1,1.6-3.6,2.3c-1.5,0.7-3,1-4.5,1c-2.5,0-4.7-0.5-6.6-1.5c-1.9-1.1-3.4-2.5-4.4-4.4c-1.1-1.9-1.5-4-1.5-6.5
		c0-2.6,0.5-4.9,1.6-6.9s2.5-3.4,4.3-4.5c1.8-1.1,3.6-1.5,5.6-1.5s3.8,0.5,5.6,1.5c1.8,1.1,3.2,2.5,4.1,4.3c1,1.8,1.6,3.8,1.6,6
		C541.4,362.4,541.1,362.8,540.7,363.2z M525.4,355.5c-1.2,1-2.1,2.5-2.5,4.5h13.7v-0.4c-0.1-1.6-0.8-3-2.2-4.1s-2.7-1.5-4.5-1.5
		C528.2,354,526.7,354.5,525.4,355.5z"/>
	<path d="M560.7,350.6c0.5,0.4,0.8,1,0.8,1.5c0,0.7-0.1,1.4-0.5,1.6s-0.8,0.5-1.4,0.5c-0.3,0-0.7-0.1-1.2-0.3
		c-0.7-0.3-1.2-0.3-1.5-0.3c-1,0-1.9,0.3-2.7,1c-1,0.7-1.6,1.5-2.2,2.7c-0.5,1.2-0.8,2.5-0.8,3.8v11.3c0,0.7-0.1,1.1-0.7,1.5
		c-0.4,0.4-1,0.7-1.6,0.7c-0.7,0-1.2-0.1-1.5-0.7c-0.3-0.5-0.5-1-0.5-1.6v-19.7c0-0.7,0.1-1.1,0.7-1.5c0.4-0.4,1-0.7,1.5-0.7
		c0.7,0,1.2,0.3,1.6,0.7c0.4,0.4,0.7,1,0.7,1.5v2.3c0.7-1.5,1.6-2.7,3-3.7c1.4-1,2.9-1.4,4.7-1.5C559.5,350,560.2,350.1,560.7,350.6
		z"/>
	<path d="M40.2,401.7c0.4,0.4,0.7,1,0.7,1.6v28.2c0,0.7-0.3,1.2-0.7,1.6c-0.4,0.4-1,0.7-1.6,0.7c-0.5,0-1.1-0.3-1.6-0.7
		c-0.4-0.4-0.7-1-0.7-1.6v-12.1H19.7v12.1c0,0.7-0.3,1.2-0.7,1.6c-0.4,0.4-1,0.7-1.6,0.7c-0.7,0-1.2-0.3-1.6-0.7
		c-0.4-0.4-0.7-1-0.7-1.6v-28.2c0-0.7,0.3-1.1,0.7-1.5c0.4-0.4,1-0.7,1.6-0.7c0.7,0,1.1,0.3,1.6,0.7c0.4,0.4,0.7,1,0.7,1.5V415h16.5
		v-11.7c0-0.7,0.3-1.1,0.7-1.5c0.4-0.4,1-0.7,1.6-0.7C39.2,401,39.8,401.3,40.2,401.7z"/>
	<path d="M71.4,401.5c0.4,0.4,0.7,1,0.7,1.5s-0.3,1.2-0.7,1.5c-0.4,0.3-1,0.5-1.6,0.5h-8.2v26.1c0,0.7-0.3,1.1-0.7,1.5
		c-0.4,0.4-1,0.7-1.6,0.7s-1.2-0.3-1.6-0.7c-0.4-0.4-0.7-1-0.7-1.5v-26.1h-8.2c-0.7,0-1.2-0.1-1.6-0.5c-0.4-0.4-0.7-1-0.7-1.5
		c0-0.7,0.3-1.1,0.7-1.5s1-0.5,1.6-0.5h21.3C70.4,401,71,401.1,71.4,401.5z"/>
	<path d="M107.2,401.7c0.4,0.4,0.7,1,0.7,1.5v28.2c0,0.7-0.3,1.1-0.7,1.5c-0.4,0.4-1,0.7-1.6,0.7c-0.7,0-1.2-0.1-1.6-0.7
		s-0.7-1-0.7-1.6v-21.6l-9.1,13.7c-0.3,0.3-0.5,0.5-0.8,0.7s-0.7,0.3-1,0.3s-0.7,0-1-0.3s-0.5-0.4-0.8-0.7l-9.1-14.2v22
		c0,0.7-0.1,1.2-0.5,1.6c-0.4,0.4-1,0.7-1.5,0.7s-1.1-0.1-1.5-0.7c-0.4-0.5-0.5-1-0.5-1.6v-28.2c0-0.5,0.3-1.1,0.7-1.5
		c0.4-0.4,1-0.7,1.6-0.7c0.4,0,0.7,0.1,1.1,0.3s0.7,0.4,0.8,0.7l11,16.8l11.1-16.8c0.5-0.7,1.1-1.1,1.9-1.1
		C106.3,401,106.8,401.3,107.2,401.7z"/>
	<path d="M135.3,429.9c0.4,0.4,0.7,1,0.7,1.5c0,0.7-0.1,1.1-0.7,1.5c-0.4,0.4-1,0.5-1.6,0.5h-15.8c-0.7,0-1.2-0.3-1.6-0.7
		c-0.4-0.4-0.7-1-0.7-1.5v-28.2c0-0.7,0.3-1.1,0.7-1.5c0.4-0.4,1-0.7,1.6-0.7c0.5,0,1.1,0.3,1.6,0.7c0.4,0.4,0.7,1,0.7,1.5v26.1
		h13.3C134.3,429.3,134.9,429.4,135.3,429.9z"/>
	<path d="M151.9,439.2c-0.4-0.4-0.7-0.8-0.7-1.4c0-0.3,0.1-0.5,0.3-1l19.5-39.3c0.4-0.8,1.1-1.2,1.8-1.2c0.4,0,1,0.1,1.2,0.5
		c0.3,0.4,0.5,0.8,0.5,1.4c0,0.4-0.1,0.7-0.3,1.1l-19.5,39.3c-0.4,0.8-1,1.2-1.8,1.2C152.9,439.7,152.3,439.6,151.9,439.2z"/>
	<path d="M195.3,432.7c-1.5-0.8-2.7-2.1-3.7-3.6c-0.3-0.4-0.4-0.8-0.4-1.2c0-0.5,0.3-1.1,0.7-1.5c0.4-0.4,1-0.7,1.5-0.7
		c0.7,0,1.4,0.4,2.1,1.2c1.2,1.8,2.9,2.7,4.9,2.7c1.6,0,3.2-0.5,4.4-1.6c1.2-1.1,1.8-2.6,1.8-4.3v-20.5c0-0.7,0.3-1.1,0.7-1.5
		c0.4-0.4,1-0.7,1.6-0.7s1.2,0.1,1.6,0.7c0.4,0.4,0.7,1,0.7,1.6v20.5c0,1.9-0.4,3.6-1.4,5.2c-1,1.5-2.2,2.9-3.8,3.8
		c-1.6,1-3.4,1.4-5.5,1.4C198.5,434.1,196.8,433.7,195.3,432.7z"/>
	<path d="M222.7,433.2c-1.8-0.7-3.4-1.6-4.9-3.2c-0.7-0.5-1-1.2-1-1.9c0-0.5,0.3-1.1,0.7-1.5c0.4-0.4,1-0.7,1.5-0.7
		c0.5,0,1,0.1,1.4,0.5c1.2,1.1,2.5,2.1,3.8,2.6c1.4,0.5,2.9,0.8,4.5,0.8c1.9,0,3.6-0.4,4.9-1.4c1.4-1,2.1-2.1,2.1-3.4
		c0-1.6-0.7-2.9-2.1-3.7c-1.4-0.8-3.3-1.6-6-2.2c-3.2-0.7-5.6-1.6-7.4-3.2c-1.8-1.5-2.6-3.6-2.6-6.2c0-1.8,0.5-3.4,1.5-4.8
		c1-1.4,2.3-2.5,4-3.2c1.6-0.7,3.6-1.1,5.8-1.1c1.9,0,3.7,0.3,5.5,1c1.6,0.7,3,1.4,4.1,2.5c0.7,0.7,1.1,1.2,1.1,2.1
		c0,0.5-0.1,1.1-0.7,1.5c-0.4,0.4-1,0.7-1.5,0.7c-0.4,0-0.8-0.1-1.1-0.4c-0.8-0.8-1.9-1.5-3.3-2.1c-1.4-0.5-2.7-0.8-4.1-0.8
		c-2.1,0-3.7,0.4-4.9,1.2c-1.2,0.8-1.8,1.9-1.8,3.4s0.5,2.7,1.8,3.4c1.2,0.8,3,1.5,5.5,2.1c2.5,0.5,4.4,1.1,5.9,1.9s2.7,1.6,3.6,3
		c0.8,1.2,1.2,2.9,1.2,4.9c0,1.8-0.5,3.4-1.5,4.8c-1,1.4-2.3,2.5-4.1,3.3c-1.8,0.8-3.7,1.2-5.8,1.2
		C226.4,434.1,224.5,433.8,222.7,433.2z"/>
	<path d="M256.6,439.2c-0.4-0.4-0.7-0.8-0.7-1.4c0-0.3,0.1-0.5,0.3-1l19.5-39.3c0.4-0.8,1.1-1.2,1.8-1.2c0.4,0,1,0.1,1.2,0.5
		s0.5,0.8,0.5,1.4c0,0.4-0.1,0.7-0.3,1.1l-19.5,39.3c-0.4,0.8-1,1.2-1.8,1.2C257.4,439.7,257,439.6,256.6,439.2z"/>
	<path d="M322.6,431.6c0,0.7-0.1,1.1-0.7,1.5c-0.4,0.4-1,0.5-1.5,0.5c-0.4,0-0.8-0.1-1.2-0.4c-0.4-0.3-0.7-0.7-0.8-1.1l-2.9-6.9H301
		l-2.9,6.9c-0.1,0.4-0.4,0.8-0.8,1.1c-0.4,0.3-0.8,0.4-1.2,0.4c-0.7,0-1.1-0.1-1.5-0.5c-0.4-0.4-0.5-0.8-0.5-1.4
		c0-0.1,0-0.4,0.1-0.7l11.8-28.9c0.3-0.5,0.5-0.8,1-1.1c0.4-0.3,0.8-0.4,1.4-0.3c0.4,0,0.8,0.1,1.2,0.4c0.4,0.3,0.7,0.5,0.8,1.1
		l11.8,28.4C322.6,431.1,322.6,431.4,322.6,431.6z M302.9,421.2h10.9l-5.5-13.1L302.9,421.2z"/>
	<path d="M353.1,401.5c0.4,0.4,0.5,0.8,0.5,1.5v28.3c0,0.7-0.1,1.2-0.7,1.6s-1,0.7-1.6,0.7c-0.3,0-0.7,0-1-0.1
		c-0.3-0.1-0.5-0.3-0.8-0.5l-18.1-23.9v22.5c0,0.5-0.1,1.1-0.5,1.5c-0.4,0.4-0.8,0.5-1.5,0.5c-0.7,0-1.1-0.1-1.4-0.5
		s-0.5-0.8-0.5-1.5v-28.3c0-0.7,0.1-1.2,0.7-1.6c0.4-0.4,1-0.7,1.5-0.7c0.4,0,0.7,0,1.1,0.1c0.4,0.1,0.5,0.3,0.8,0.5l18.3,23.9
		v-22.7c0-0.5,0.1-1.1,0.5-1.5c0.4-0.4,0.8-0.5,1.5-0.5C352.5,400.9,352.8,401.1,353.1,401.5z"/>
	<path d="M365.3,433c-0.4,0.4-1,0.7-1.6,0.7s-1.2-0.3-1.6-0.7c-0.4-0.4-0.7-1-0.7-1.6v-28.2c0-0.7,0.3-1.1,0.7-1.5
		c0.4-0.4,1-0.7,1.6-0.7s1.1,0.3,1.6,0.7c0.4,0.4,0.7,1,0.7,1.5v28.2C366,432.1,365.9,432.6,365.3,433z"/>
	<path d="M403.7,401.7c0.4,0.4,0.7,1,0.7,1.5v28.2c0,0.7-0.1,1.1-0.7,1.5c-0.4,0.4-1,0.7-1.6,0.7c-0.7,0-1.2-0.1-1.6-0.7
		s-0.7-1-0.7-1.6v-21.6l-9.1,13.7c-0.3,0.3-0.5,0.5-0.8,0.7s-0.7,0.3-1,0.3s-0.7,0-1-0.3s-0.5-0.4-0.8-0.7l-9.1-14.2v22
		c0,0.7-0.1,1.2-0.5,1.6c-0.4,0.4-1,0.7-1.5,0.7c-0.7,0-1.1-0.1-1.5-0.7s-0.5-1-0.5-1.6v-28.2c0-0.5,0.3-1.1,0.7-1.5
		c0.4-0.4,1-0.7,1.6-0.7c0.4,0,0.7,0.1,1.1,0.3s0.7,0.4,0.8,0.7l11,16.8l11.1-16.8c0.5-0.7,1.1-1.1,1.9-1.1
		C402.7,401,403.3,401.3,403.7,401.7z"/>
	<path d="M437.3,431.6c0,0.7-0.1,1.1-0.7,1.5c-0.4,0.4-1,0.5-1.5,0.5c-0.4,0-0.8-0.1-1.2-0.4c-0.4-0.3-0.7-0.7-0.8-1.1l-2.9-6.9
		h-14.4l-2.9,6.9c-0.1,0.4-0.4,0.8-0.8,1.1c-0.4,0.3-0.7,0.4-1.2,0.4c-0.7,0-1.1-0.1-1.5-0.5s-0.5-0.8-0.5-1.4c0-0.1,0-0.4,0.1-0.7
		l11.8-28.9c0.3-0.5,0.5-0.8,1-1.1c0.4-0.3,0.8-0.4,1.4-0.3c0.4,0,0.8,0.1,1.2,0.4c0.4,0.3,0.7,0.5,0.8,1.1l11.8,28.4
		C437.3,431.1,437.3,431.4,437.3,431.6z M417.7,421.2h10.9l-5.5-13.1L417.7,421.2z"/>
	<path d="M462.5,401.5c0.4,0.4,0.7,1,0.7,1.5s-0.1,1.2-0.7,1.5c-0.5,0.3-1,0.5-1.6,0.5h-8.2v26.1c0,0.7-0.3,1.1-0.7,1.5
		c-0.4,0.4-1,0.7-1.6,0.7c-0.7,0-1.2-0.3-1.6-0.7c-0.4-0.4-0.7-1-0.7-1.5v-26.1h-8.2c-0.7,0-1.2-0.1-1.6-0.5c-0.4-0.4-0.7-1-0.7-1.5
		c0-0.7,0.1-1.1,0.7-1.5c0.4-0.4,1-0.5,1.6-0.5H461C461.5,401,462.1,401.1,462.5,401.5z"/>
	<path d="M488.6,430c0.4,0.4,0.7,1,0.7,1.5c0,0.7-0.1,1.1-0.7,1.5s-1,0.5-1.6,0.5h-16.2c-0.7,0-1.1-0.3-1.5-0.7
		c-0.4-0.4-0.7-1-0.7-1.5v-28.2c0-0.7,0.3-1.1,0.7-1.5c0.4-0.4,1-0.7,1.5-0.7h16.2c0.7,0,1.2,0.1,1.6,0.5c0.4,0.4,0.7,1,0.7,1.5
		c0,0.7-0.1,1.1-0.7,1.5s-1,0.5-1.6,0.5h-13.9v9.5h11.7c0.7,0,1.2,0.1,1.6,0.5c0.4,0.4,0.7,1,0.7,1.5c0,0.7-0.1,1.2-0.7,1.5
		c-0.5,0.3-1,0.5-1.6,0.5h-11.7V429h13.9C487.6,429.3,488.2,429.6,488.6,430z"/>
</g>
<g>
	<path d="M34.5,493.8c0.1,0.1,0.3,0.4,0.3,0.7c0,0.3-0.1,0.5-0.3,0.7c-0.1,0.1-0.4,0.3-0.7,0.3h-17c-0.3,0-0.5-0.1-0.7-0.3
		c-0.1-0.1-0.3-0.4-0.3-0.7v-30.8c0-0.3,0.1-0.4,0.3-0.7c0.1-0.1,0.4-0.3,0.7-0.3s0.5,0.1,0.7,0.3c0.1,0.1,0.3,0.4,0.3,0.7v29.8
		h16.1C34.1,493.5,34.4,493.6,34.5,493.8z"/>
	<path d="M56.5,471.6c0.1,0.1,0.3,0.4,0.3,0.7v20.8c0,2.3-0.4,4.4-1.4,6.2c-1,1.8-2.2,3.2-3.8,4.1c-1.6,1-3.6,1.4-5.6,1.4
		c-1.4,0-2.6-0.1-3.7-0.5c-1.1-0.3-2.1-0.7-2.9-1.2c-0.5-0.4-0.7-0.8-0.5-1.2c0.3-0.4,0.4-0.5,0.8-0.5c0.1,0,0.3,0,0.4,0.1
		c0.7,0.4,1.6,0.8,2.6,1.2c1.1,0.4,2.2,0.5,3.3,0.5c1.8,0,3.3-0.4,4.7-1.2c1.4-0.8,2.5-2.1,3.2-3.6s1.1-3.3,1.1-5.2V491
		c-0.7,1.4-1.8,2.6-3.4,3.4s-3.2,1.4-4.8,1.4c-2.7,0-4.9-0.8-6.3-2.5c-1.4-1.6-2.1-3.8-2.1-6.6v-14.6c0-0.3,0.1-0.4,0.3-0.7
		c0.1-0.1,0.4-0.3,0.7-0.3s0.5,0.1,0.7,0.3c0.1,0.1,0.3,0.4,0.3,0.7v14.6c0,4.8,2.2,7.3,6.5,7.3c1.4,0,2.6-0.3,4-1.1
		c1.4-0.8,2.3-1.6,3.2-2.7s1.2-2.2,1.2-3.4v-14.6c0-0.3,0.1-0.4,0.3-0.7c0.1-0.1,0.4-0.3,0.7-0.3C56.3,471.2,56.4,471.4,56.5,471.6z
		"/>
	<path d="M84.2,489.8c-1,1.9-2.3,3.3-4.1,4.4c-1.8,1.1-3.7,1.6-5.9,1.6s-4.1-0.5-5.9-1.6c-1.8-1.1-3.2-2.6-4.1-4.4
		c-1-1.8-1.5-4-1.5-6.2c0-2.3,0.5-4.4,1.5-6.2c1-1.9,2.3-3.3,4.1-4.4c1.8-1.1,3.7-1.6,5.9-1.6s4.1,0.5,5.9,1.6
		c1.8,1.1,3.2,2.6,4.1,4.4s1.5,4,1.5,6.2C85.7,485.9,85.3,488,84.2,489.8z M82.6,478.2c-0.8-1.5-1.9-2.9-3.4-3.7s-3.2-1.4-4.9-1.4
		c-1.8,0-3.4,0.4-4.9,1.4s-2.6,2.2-3.4,3.7c-0.8,1.5-1.2,3.4-1.2,5.4s0.4,3.7,1.2,5.4c0.8,1.5,1.9,2.9,3.4,3.7
		c1.5,1,3.2,1.4,4.9,1.4c1.8,0,3.4-0.4,4.9-1.4s2.6-2.2,3.4-3.7c0.8-1.6,1.2-3.4,1.2-5.4C83.9,481.5,83.5,479.7,82.6,478.2z"/>
	<path d="M108.6,473.8c1.4,1.6,2.1,3.7,2.1,6.3v14.3c0,0.3-0.1,0.4-0.3,0.7s-0.4,0.3-0.7,0.3s-0.5-0.1-0.7-0.3s-0.3-0.4-0.3-0.7v-14
		c0-2.1-0.5-3.8-1.6-5.2c-1.1-1.4-2.7-2.1-5.1-2.1c-1.4,0-2.7,0.3-4,1c-1.2,0.7-2.5,1.5-3.3,2.6c-0.8,1.1-1.2,2.3-1.2,3.6v14
		c0,0.3-0.1,0.4-0.3,0.7s-0.4,0.3-0.7,0.3s-0.5-0.1-0.7-0.3s-0.3-0.4-0.3-0.7v-21.4c0-0.3,0.1-0.4,0.3-0.7c0.1-0.3,0.4-0.3,0.7-0.3
		s0.5,0.1,0.7,0.3c0.1,0.1,0.3,0.4,0.3,0.7v3.2c1-1.4,2.2-2.6,3.8-3.4c1.6-1,3.3-1.4,4.9-1.4C105.2,471.4,107.2,472.2,108.6,473.8z"
		/>
	<path d="M120.3,497.9c-0.4,0.8-1,1.5-1.6,1.9c-0.7,0.4-1.2,0.8-1.8,0.8c-0.3,0-0.4,0-0.5-0.1c-0.1-0.1-0.3-0.3-0.3-0.5
		s0-0.4,0.1-0.5c0.1-0.1,0.3-0.1,0.7-0.3c0.3-0.1,0.5-0.1,0.8-0.3c0.4-0.3,0.8-0.5,1-1.1c0.3-0.4,0.3-1,0.3-1.4
		c0-0.7-0.3-1.1-0.8-1.1c-0.4,0-0.8,0.1-1.2,0.4c-0.3-0.3-0.4-0.7-0.4-1c0-0.4,0.3-0.7,0.7-1.1c0.4-0.4,1-0.4,1.4-0.4
		c0.7,0,1.2,0.1,1.6,0.5s0.5,1,0.5,1.5C120.8,496.2,120.7,497.1,120.3,497.9z"/>
	<path d="M158.8,463c0.1,0.1,0.3,0.4,0.3,0.7c0,0.3-0.1,0.5-0.3,0.7s-0.4,0.3-0.7,0.3h-16.6v12.9H156c0.3,0,0.4,0.1,0.7,0.3
		s0.3,0.4,0.3,0.7c0,0.3-0.1,0.5-0.3,0.7c-0.1,0.1-0.4,0.3-0.7,0.3h-14.6v15.1c0,0.3-0.1,0.4-0.3,0.7c-0.1,0.1-0.4,0.3-0.7,0.3
		s-0.5-0.1-0.7-0.3c-0.1-0.1-0.3-0.4-0.3-0.7v-30.8c0-0.3,0.1-0.4,0.3-0.7c0.1-0.1,0.4-0.3,0.7-0.3h17.6
		C158.4,462.7,158.6,462.8,158.8,463z"/>
	<path d="M177.5,472.5c0,0.3-0.1,0.5-0.3,0.7c-0.1,0.1-0.4,0.3-0.5,0.3s-0.3,0-0.7-0.1c-0.4-0.1-0.7-0.1-1.1-0.1
		c-1.2,0-2.6,0.5-3.8,1.5c-1.2,1-2.3,2.3-3.2,3.8c-0.8,1.5-1.2,3-1.2,4.4v11.7c0,0.3-0.1,0.4-0.3,0.7c-0.1,0.3-0.4,0.3-0.7,0.3
		s-0.5-0.1-0.7-0.3c-0.1-0.1-0.3-0.4-0.3-0.7v-21.4c0-0.3,0.1-0.4,0.3-0.7s0.4-0.3,0.7-0.3s0.5,0.1,0.7,0.3s0.3,0.4,0.3,0.7v4.9
		c0.7-1.9,1.8-3.4,3.3-4.7c1.5-1.2,3.3-1.9,5.4-1.9C176.8,471.4,177.5,471.6,177.5,472.5z"/>
	<path d="M201.2,472.3c0.1,0.1,0.3,0.4,0.3,0.7v21.4c0,0.3-0.1,0.4-0.3,0.7c-0.1,0.3-0.4,0.3-0.7,0.3c-0.3,0-0.5-0.1-0.7-0.3
		c-0.1-0.1-0.3-0.4-0.3-0.7v-4.1c-0.8,1.5-1.9,2.9-3.6,4c-1.6,1.1-3.4,1.6-5.4,1.6c-2.1,0-3.8-0.5-5.5-1.6c-1.6-1.1-2.9-2.6-3.8-4.4
		c-1-1.9-1.4-4-1.4-6.3s0.4-4.4,1.4-6.2c1-1.8,2.2-3.3,3.8-4.3c1.6-1.1,3.4-1.5,5.5-1.5c2.1,0,3.8,0.5,5.5,1.5
		c1.6,1.1,2.7,2.5,3.4,4.3v-4.1c0-0.3,0.1-0.4,0.3-0.7c0.1-0.1,0.4-0.3,0.7-0.3C200.8,472.3,201,472.2,201.2,472.3z M195.3,492.7
		c1.4-1,2.5-2.2,3.3-3.8c0.8-1.6,1.2-3.4,1.2-5.4s-0.4-3.6-1.2-5.2s-1.9-2.9-3.3-3.7c-1.4-0.8-2.9-1.4-4.7-1.4
		c-1.6,0-3.3,0.4-4.7,1.4c-1.4,1-2.5,2.1-3.3,3.7c-0.8,1.5-1.2,3.3-1.2,5.4c0,2.1,0.4,3.8,1.2,5.4c0.8,1.6,1.9,2.9,3.2,3.8
		c1.4,1,2.9,1.4,4.7,1.4C192.4,494,194,493.6,195.3,492.7z"/>
	<path d="M226,473.8c1.4,1.6,2.1,3.7,2.1,6.3v14.3c0,0.3-0.1,0.4-0.3,0.7c-0.1,0.3-0.4,0.3-0.7,0.3s-0.5-0.1-0.7-0.3
		s-0.3-0.4-0.3-0.7v-14c0-2.1-0.5-3.8-1.6-5.2c-1.1-1.4-2.7-2.1-4.9-2.1c-1.4,0-2.7,0.3-4,1c-1.4,0.7-2.5,1.5-3.3,2.6
		c-0.8,1.1-1.2,2.3-1.2,3.6v14c0,0.3-0.1,0.4-0.3,0.7c-0.1,0.3-0.4,0.3-0.7,0.3s-0.5-0.1-0.7-0.3s-0.3-0.4-0.3-0.7v-21.4
		c0-0.3,0.1-0.4,0.3-0.7c0.1-0.3,0.4-0.3,0.7-0.3s0.5,0.1,0.7,0.3c0.1,0.1,0.3,0.4,0.3,0.7v3.2c1-1.4,2.2-2.6,3.8-3.4
		c1.6-0.8,3.3-1.4,4.9-1.4C222.5,471.4,224.6,472.2,226,473.8z"/>
	<path d="M249.9,471.8c1.2,0.3,2.2,0.7,3,1.2s1.1,1.1,1.1,1.6c0,0.3-0.1,0.4-0.3,0.7c-0.1,0.1-0.4,0.3-0.7,0.3s-0.5,0-0.7-0.1
		c-0.1-0.1-0.3-0.3-0.5-0.5c-0.4-0.4-0.8-0.8-1.2-1.1c-1.1-0.5-2.7-0.8-4.8-0.8c-1.8,0-3.4,0.4-4.9,1.4s-2.7,2.2-3.6,3.8
		c-0.8,1.6-1.4,3.3-1.4,5.2c0,2.1,0.4,3.8,1.2,5.4c0.8,1.6,1.9,2.9,3.4,3.7c1.5,1,3.2,1.4,5.1,1.4c1.2,0,2.2-0.1,2.9-0.3
		c0.7-0.1,1.4-0.5,2.2-1c0.5-0.3,1-0.7,1.2-1.1c0.1-0.1,0.3-0.3,0.4-0.4c0.1-0.1,0.3-0.1,0.4-0.1c0.3,0,0.4,0.1,0.5,0.3
		c0.1,0.1,0.1,0.4,0.1,0.5c0,0.4-0.4,1-1.1,1.5c-0.7,0.5-1.6,1.1-2.9,1.5s-2.6,0.7-4.3,0.7c-2.2,0-4.3-0.5-6-1.5s-3.2-2.5-4.1-4.4
		c-1-1.9-1.5-4-1.5-6.3c0-2.2,0.5-4.1,1.5-6c1-1.9,2.3-3.3,4.1-4.5c1.8-1.1,3.8-1.6,6.2-1.6C247.3,471.4,248.7,471.5,249.9,471.8z"
		/>
	<path d="M278.7,490c0.1,0.1,0.3,0.4,0.3,0.5c0,0.1-0.1,0.4-0.1,0.5c-1.1,1.4-2.3,2.5-3.8,3.3c-1.5,0.8-3.2,1.4-4.9,1.4
		c-2.3,0-4.4-0.5-6.2-1.5s-3.2-2.5-4.3-4.3c-1-1.8-1.5-4-1.5-6.3c0-2.5,0.5-4.7,1.5-6.6s2.3-3.3,3.8-4.3c1.6-1,3.3-1.5,5.2-1.5
		c1.9,0,3.6,0.4,5.1,1.2c1.5,0.8,2.9,1.9,3.8,3.6c1,1.5,1.5,3.6,1.5,5.9c0,0.3-0.1,0.5-0.3,0.7c-0.1,0.1-0.4,0.3-0.7,0.3h-18.3v0.5
		c0,1.9,0.4,3.7,1.2,5.4c0.8,1.6,1.9,2.9,3.4,3.8c1.5,1,3.3,1.4,5.5,1.4c1.5,0,2.9-0.4,4.3-1.1s2.3-1.6,3.2-2.7
		c0.3-0.3,0.5-0.4,0.8-0.4C278.3,489.8,278.6,489.8,278.7,490z M265.1,474.1c-1.2,0.5-2.2,1.5-3.2,2.7c-1,1.2-1.5,2.6-1.8,4.4h17.2
		v-0.4c-0.1-1.5-0.7-2.9-1.5-4.1c-0.8-1.1-1.9-2.1-3.2-2.6s-2.6-0.8-4-0.8C267.5,473.1,266.4,473.6,265.1,474.1z"/>
</g>
</svg>
