<?xml version="1.0" encoding="utf-8"?>
<!-- Generator: Adobe Illustrator 27.5.0, SVG Export Plug-In . SVG Version: 6.00 Build 0)  -->
<svg version="1.1" id="Calque_1" xmlns="http://www.w3.org/2000/svg" xmlns:xlink="http://www.w3.org/1999/xlink" x="0px" y="0px"
	 viewBox="0 0 566.9 510.2" style="enable-background:new 0 0 566.9 510.2;" xml:space="preserve">
<g>
	<g>
		<path d="M85.4,14.3c0.5,0.7,1.1,1.6,1.1,2.4v122.8c0,0.8-0.3,1.7-1.1,2.4c-0.7,0.7-1.6,1.1-2.4,1.1c-1.1,0-1.9-0.3-2.6-1.1
			c-0.5-0.7-1.1-1.6-1.1-2.4v-16.7c-2.7,6.2-7.2,11.4-13.2,15.5c-6.1,4.2-12.8,6.3-20.4,6.3c-7.7,0-14.4-2-20.7-6.1
			c-6.3-4-11.2-9.6-14.9-16.6c-3.6-7-5.4-14.9-5.4-23.5s1.7-16.5,5.4-23.5c3.6-7,8.4-12.6,14.7-16.5c6.2-3.9,13.1-5.9,20.7-5.9
			c7.2,0,14,2,20.2,6.1S76.4,68,79.4,74.6v-58c0-1.1,0.3-1.7,1.1-2.4c0.5-0.7,1.5-1.1,2.6-1.1S84.7,13.5,85.4,14.3z M63.5,132.9
			c5.1-3.5,9.2-8.1,12.1-14.2c2.8-6.1,4.3-12.8,4.3-20.2c0-7.5-1.5-14.2-4.3-20.2c-2.8-5.9-6.9-10.7-12.1-14c-5.1-3.3-11-5-17.5-5
			c-6.3,0-12.1,1.7-17.3,5s-9.2,8.1-12.3,14.2c-3,5.9-4.5,12.6-4.5,20.1s1.5,14.3,4.5,20.2s7,10.7,12.3,14.2s10.9,5.1,17.3,5.1
			C52.5,138.1,58.4,136.3,63.5,132.9z"/>
		<path d="M186.9,122.9c0.5,0.5,0.8,1.3,0.8,2.2c0,0.8-0.3,1.6-0.7,2.2c-3.9,5.1-8.6,9.3-14.4,12.7s-11.9,4.9-18.5,4.9
			c-8.8,0-16.6-1.9-23.4-5.7c-6.8-3.8-12.1-9.1-15.9-16.1c-3.8-6.9-5.7-14.9-5.7-24.1c0-9.3,1.9-17.6,5.5-24.7
			c3.8-7,8.5-12.6,14.7-16.2c6.2-3.6,12.6-5.7,19.5-5.7s13.2,1.5,19.2,4.5c5.9,3,10.7,7.5,14.4,13.4c3.8,5.9,5.8,13.2,5.9,22.1
			c0,1.1-0.3,1.7-1.1,2.6c-0.7,0.7-1.6,1.2-2.4,1.2H116v2.3c0,7.2,1.5,13.9,4.3,20s7.2,10.8,13,14.3c5.8,3.5,12.7,5.1,20.7,5.1
			c5.7,0,10.9-1.3,15.9-4.2c4.9-2.7,8.8-6.2,11.7-10.4c0.8-1.1,1.7-1.6,3-1.6C185.6,121.9,186.3,122.1,186.9,122.9z M135.7,63
			c-4.5,2.3-8.5,5.7-12,10.3c-3.5,4.5-5.8,10-6.9,16.5h64.5v-1.6c-0.5-5.9-2.4-11.1-5.7-15.3c-3.2-4.2-7.2-7.5-12-9.8
			c-4.7-2.2-9.7-3.4-14.9-3.4C144.6,59.6,140.3,60.8,135.7,63z"/>
		<path d="M279.3,53c0.7,0.5,1.2,1.2,1.2,2c0,0.7-0.1,1.5-0.5,2.2l-35,83.4c-0.3,0.7-0.7,1.3-1.3,1.6c-0.5,0.4-1.3,0.5-2,0.5
			s-1.3-0.1-2-0.5c-0.5-0.4-1.2-1.1-1.3-1.6l-35.1-83.3c-0.3-0.7-0.3-1.2-0.3-1.6c0-1.1,0.3-1.7,1.1-2.4c0.5-0.7,1.6-1.1,2.7-1.1
			c0.5,0,1.2,0.1,1.9,0.5c0.5,0.4,1.2,1.1,1.3,1.7l31.7,76.4l31.9-76.4c0.5-1.6,1.9-2.3,3.8-2.3C277.7,52.3,278.4,52.5,279.3,53z"/>
	</g>
	<g>
		<path d="M125.1,313c-1.5-1.5-2.2-3.4-2.2-5.5v-1.6c0-3.9,2.4-6.3,7.2-7.5c7.5-2.2,11.2-8,11.2-17.6v-83.7c0-2.3,0.8-4.3,2.3-5.9
			c1.5-1.6,3.6-2.4,6.1-2.4c2.3,0,4.3,0.8,5.9,2.4c1.6,1.6,2.3,3.6,2.3,5.9V285c0,6.1-1.3,11.4-3.8,16.1c-2.4,4.6-5.9,8.1-10.1,10.5
			c-4.2,2.4-8.6,3.6-13.5,3.6C128.4,315.3,126.5,314.5,125.1,313z M142.3,174.5c-1.5-1.3-2.2-3.2-2.2-5.9v-2.7
			c0-2.7,0.8-4.7,2.3-5.9c1.5-1.2,4-1.7,7.2-1.7c3.4,0,5.7,0.5,7,1.9c1.5,1.3,2.2,3.2,2.2,5.9v2.7c0,2.7-0.7,4.7-2.3,5.9
			c-1.6,1.2-3.9,1.7-7.2,1.7C146.2,176.3,143.8,175.7,142.3,174.5z"/>
		<path d="M247.8,191c6.1,2.8,9.2,6.6,9.2,11.2c0,2-0.5,3.8-1.9,5.4c-1.3,1.6-2.8,2.3-4.9,2.3c-1.6,0-2.7-0.3-3.6-0.7
			c-0.8-0.4-2-1.3-3.6-2.3c-0.7-0.7-1.9-1.6-3.4-2.4c-1.5-0.7-3.5-1.3-5.9-1.7c-2.6-0.4-4.9-0.7-7-0.7c-6.1,0-11.4,1.5-16.2,4.2
			c-4.6,2.7-8.4,6.6-10.8,11.7c-2.6,4.9-3.9,10.5-3.9,16.6c0,6.2,1.3,11.7,3.8,16.7c2.4,4.9,6.1,8.8,10.7,11.6
			c4.6,2.7,9.8,4.2,15.5,4.2c6.1,0,10.9-0.8,14.7-2.7c0.8-0.4,1.9-1.3,3.4-2.3c1.2-0.8,2.2-1.6,3-2.2c0.8-0.4,2-0.7,3.2-0.7
			c2.3,0,4.2,0.7,5.5,2.2s2,3.4,2,5.7c0,2.4-1.6,4.9-4.6,7.2c-3,2.4-7.2,4.3-12.4,5.9c-5.1,1.6-10.8,2.3-16.7,2.3
			c-8.9,0-16.7-2-23.5-6.2c-6.8-4.2-12-10-15.8-17.2c-3.8-7.2-5.5-15.4-5.5-24.6c0-8.9,1.9-17.2,5.8-24.6c3.9-7.4,9.2-13,16.2-17.2
			c6.9-4.2,14.7-6.2,23.6-6.2C234,186.7,241.6,188.1,247.8,191z"/>
		<path d="M352.6,272.3c0,2.3-0.8,4.3-2.7,5.9c-1.9,1.6-3.8,2.3-5.8,2.3c-2.6,0-4.6-0.8-6.1-2.7l-34.5-36.7l-10.5,9.6v21.7
			c0,2.3-0.8,4.3-2.3,5.9c-1.6,1.6-3.5,2.4-5.9,2.4s-4.5-0.8-6.1-2.4c-1.6-1.6-2.3-3.6-2.3-5.9v-113c0-2.3,0.8-4.3,2.3-5.9
			c1.5-1.6,3.6-2.4,6.1-2.4c2.3,0,4.3,0.8,5.9,2.4c1.6,1.6,2.3,3.6,2.3,5.9v71.3l43.1-39.6c2-1.7,4-2.6,6.1-2.6s3.8,0.8,5.5,2.6
			c1.6,1.7,2.4,3.5,2.4,5.4c0,2.3-1.2,4.5-3.4,6.3l-30.4,27l33.6,36.6C351.7,268.1,352.6,270.1,352.6,272.3z"/>
	</g>
</g>
<g>
	<path d="M21.2,349.4v10.1h12.1c0.7,0,1.2,0.2,1.7,0.6c0.4,0.4,0.7,1,0.7,1.7c0,0.6-0.2,1.1-0.7,1.5c-0.4,0.4-1,0.6-1.7,0.6H21.2
		v12.8c0,0.7-0.2,1.2-0.7,1.7c-0.5,0.5-1,0.7-1.7,0.7c-0.7,0-1.3-0.2-1.7-0.7c-0.5-0.5-0.7-1-0.7-1.7v-29.6c0-0.7,0.2-1.2,0.7-1.7
		c0.5-0.5,1-0.7,1.7-0.7h16.7c0.7,0,1.2,0.2,1.7,0.6c0.4,0.4,0.7,1,0.7,1.7c0,0.6-0.2,1.1-0.7,1.5c-0.5,0.4-1,0.7-1.7,0.7H21.2z"/>
	<path d="M63.5,354.2c0.4,0.5,0.7,1,0.7,1.7v13c0,3.4-0.9,6-2.8,7.9c-1.9,1.9-4.5,2.8-8,2.8c-3.4,0-6-0.9-7.9-2.8
		c-1.9-1.9-2.8-4.5-2.8-7.9v-13c0-0.7,0.2-1.2,0.7-1.7c0.4-0.5,1-0.7,1.6-0.7c0.7,0,1.2,0.2,1.7,0.7c0.4,0.5,0.7,1,0.7,1.7v13
		c0,4.3,2,6.4,6,6.4c2,0,3.5-0.5,4.6-1.6s1.6-2.7,1.6-4.8v-13c0-0.7,0.2-1.2,0.7-1.7c0.4-0.5,1-0.7,1.6-0.7
		C62.5,353.5,63.1,353.8,63.5,354.2z"/>
	<path d="M75.5,378.5c-0.5,0.5-1,0.7-1.7,0.7c-0.7,0-1.2-0.2-1.6-0.7c-0.4-0.5-0.7-1-0.7-1.7v-31.6c0-0.7,0.2-1.2,0.7-1.7
		c0.5-0.5,1-0.7,1.7-0.7c0.7,0,1.2,0.2,1.6,0.7c0.4,0.5,0.7,1,0.7,1.7v31.6C76.2,377.5,75.9,378.1,75.5,378.5z"/>
	<path d="M87.9,378.5c-0.5,0.5-1,0.7-1.7,0.7c-0.7,0-1.2-0.2-1.6-0.7c-0.4-0.5-0.7-1-0.7-1.7v-31.6c0-0.7,0.2-1.2,0.7-1.7
		c0.5-0.5,1-0.7,1.7-0.7c0.7,0,1.2,0.2,1.6,0.7c0.4,0.5,0.7,1,0.7,1.7v31.6C88.6,377.5,88.3,378.1,87.9,378.5z"/>
	<path d="M95.7,366.8c-0.5-0.4-0.7-1-0.7-1.7c0-0.7,0.2-1.2,0.7-1.6c0.5-0.4,1-0.6,1.7-0.6h9.4c0.7,0,1.2,0.2,1.6,0.7
		c0.4,0.4,0.7,1,0.7,1.7c0,0.7-0.2,1.2-0.7,1.6c-0.4,0.4-1,0.6-1.6,0.6h-9.4C96.7,367.5,96.2,367.2,95.7,366.8z"/>
	<path d="M113.3,373.9c0-0.7,0.3-1.2,1-1.7c0.3-0.2,0.7-0.3,1.1-0.3c0.6,0,1.1,0.2,1.6,0.7c1,1.1,2,1.9,3.2,2.5
		c1.1,0.6,2.5,0.8,4,0.8c1.2,0,2.3-0.3,3.3-0.9c0.9-0.5,1.4-1.4,1.4-2.6c0-1.1-0.5-2-1.4-2.5c-1-0.6-2.4-1.1-4.2-1.6
		c-1.8-0.5-3.3-1-4.6-1.5c-1.2-0.5-2.2-1.3-3.1-2.4c-0.8-1-1.2-2.4-1.2-4c0-1.5,0.4-2.8,1.2-3.9c0.8-1.1,1.9-2,3.3-2.6
		c1.4-0.6,2.9-0.9,4.5-0.9c1.6,0,3.1,0.3,4.7,0.9c1.6,0.6,2.8,1.5,3.8,2.7c0.4,0.5,0.6,0.9,0.6,1.4c0,0.5-0.3,1-0.8,1.5
		c-0.3,0.3-0.7,0.4-1.2,0.4c-0.6,0-1.1-0.2-1.4-0.6c-0.7-0.8-1.5-1.4-2.5-1.8c-1-0.4-2.1-0.6-3.3-0.6c-1.2,0-2.3,0.3-3.2,0.8
		c-0.9,0.5-1.3,1.4-1.3,2.6c0,1.1,0.5,2,1.5,2.5c1,0.6,2.4,1.1,4.4,1.6c1.7,0.5,3.2,0.9,4.3,1.5c1.1,0.5,2.1,1.3,2.9,2.3
		c0.8,1,1.2,2.4,1.2,4c0,1.5-0.4,2.9-1.3,4c-0.9,1.1-2,2-3.5,2.6c-1.4,0.6-2.9,0.9-4.5,0.9c-2.1,0-4-0.4-5.7-1.1
		c-1.7-0.7-3.2-1.9-4.4-3.4C113.5,374.7,113.3,374.3,113.3,373.9z"/>
	<path d="M145.5,358.1v14.6c0,1.6,0.7,2.4,2.2,2.4c0.2,0,0.5-0.1,0.9-0.2c0.4-0.1,0.7-0.2,0.9-0.2c0.4,0,0.8,0.2,1.1,0.5
		c0.3,0.4,0.4,0.8,0.4,1.4c0,0.7-0.4,1.3-1.2,1.8c-0.8,0.5-1.7,0.7-2.6,0.7c-1.1,0-2.1-0.1-3-0.3s-1.7-0.8-2.4-1.7
		c-0.7-0.9-1.1-2.3-1.1-4.2v-14.8H138c-0.6,0-1.1-0.2-1.5-0.6c-0.4-0.4-0.6-0.9-0.6-1.5c0-0.6,0.2-1.1,0.6-1.5
		c0.4-0.4,0.9-0.6,1.5-0.6h2.8v-4.1c0-0.7,0.2-1.2,0.7-1.7c0.4-0.5,1-0.7,1.7-0.7c0.7,0,1.2,0.2,1.6,0.7c0.4,0.5,0.7,1,0.7,1.7v4.1
		h4.1c0.6,0,1.1,0.2,1.5,0.6c0.4,0.4,0.6,0.9,0.6,1.5s-0.2,1.1-0.6,1.5c-0.4,0.4-0.9,0.6-1.5,0.6H145.5z"/>
	<path d="M179.7,353.9c0.4,0.4,0.7,1,0.7,1.7v21.3c0,0.7-0.2,1.2-0.7,1.7c-0.4,0.5-1,0.7-1.7,0.7s-1.2-0.2-1.7-0.7
		c-0.4-0.4-0.6-1-0.6-1.7v-1.3c-0.8,1.1-2,2.1-3.5,2.9c-1.5,0.8-3.1,1.2-4.8,1.2c-2.2,0-4.2-0.6-6.1-1.7s-3.2-2.7-4.3-4.8
		c-1-2-1.5-4.3-1.5-6.9s0.5-4.8,1.5-6.9c1-2,2.4-3.6,4.2-4.8c1.8-1.1,3.8-1.7,5.9-1.7c1.7,0,3.3,0.4,4.8,1.1
		c1.5,0.7,2.7,1.6,3.6,2.7v-1.2c0-0.7,0.2-1.3,0.6-1.7c0.4-0.5,1-0.7,1.7-0.7S179.3,353.4,179.7,353.9z M172.1,374.2
		c1.2-0.8,2.1-1.9,2.8-3.2c0.7-1.4,1-2.9,1-4.7c0-1.7-0.3-3.2-1-4.6c-0.7-1.4-1.6-2.5-2.8-3.3c-1.2-0.8-2.6-1.2-4.1-1.2
		c-1.5,0-2.9,0.4-4.1,1.2c-1.2,0.8-2.1,1.9-2.8,3.2c-0.7,1.4-1,2.9-1,4.7s0.3,3.3,1,4.7c0.7,1.4,1.6,2.5,2.8,3.2
		c1.2,0.8,2.6,1.2,4.1,1.2C169.6,375.4,170.9,375,172.1,374.2z"/>
	<path d="M204.9,354.2c1.7,0.8,2.6,1.9,2.6,3.1c0,0.6-0.2,1.1-0.5,1.5c-0.4,0.4-0.8,0.7-1.4,0.7c-0.4,0-0.8-0.1-1-0.2
		c-0.2-0.1-0.6-0.3-1-0.6c-0.2-0.2-0.5-0.4-0.9-0.7c-0.4-0.2-0.9-0.4-1.7-0.5c-0.7-0.1-1.4-0.2-2-0.2c-1.7,0-3.2,0.4-4.5,1.2
		c-1.3,0.8-2.3,1.9-3,3.3c-0.7,1.4-1.1,2.9-1.1,4.6c0,1.7,0.4,3.3,1.1,4.7c0.7,1.4,1.7,2.5,3,3.2s2.7,1.2,4.4,1.2
		c1.7,0,3.1-0.3,4.1-0.8c0.2-0.1,0.5-0.3,0.9-0.6c0.3-0.3,0.6-0.5,0.9-0.6c0.2-0.1,0.5-0.2,0.9-0.2c0.7,0,1.2,0.2,1.5,0.6
		c0.4,0.4,0.6,0.9,0.6,1.6c0,0.7-0.4,1.4-1.3,2c-0.9,0.7-2,1.2-3.5,1.6c-1.5,0.4-3,0.6-4.7,0.6c-2.5,0-4.7-0.6-6.6-1.7
		s-3.4-2.8-4.4-4.8c-1-2-1.5-4.3-1.5-6.8s0.5-4.8,1.6-6.8c1.1-2,2.6-3.6,4.5-4.8c1.9-1.2,4.1-1.7,6.6-1.7
		C201,353,203.2,353.4,204.9,354.2z"/>
	<path d="M234.2,376.9c0,0.7-0.3,1.2-0.8,1.6c-0.5,0.4-1,0.7-1.6,0.7c-0.7,0-1.3-0.3-1.7-0.8l-9.7-10.2l-2.9,2.6v6.1
		c0,0.7-0.2,1.2-0.7,1.7c-0.4,0.5-1,0.7-1.6,0.7c-0.7,0-1.2-0.2-1.7-0.7c-0.4-0.5-0.7-1-0.7-1.7v-31.6c0-0.7,0.2-1.2,0.7-1.7
		c0.4-0.5,1-0.7,1.7-0.7c0.7,0,1.2,0.2,1.6,0.7c0.4,0.5,0.7,1,0.7,1.7v19.9l12-11c0.6-0.5,1.1-0.7,1.7-0.7c0.6,0,1.1,0.2,1.5,0.7
		c0.5,0.5,0.7,1,0.7,1.5c0,0.7-0.3,1.2-0.9,1.8L224,365l9.4,10.2C233.9,375.7,234.2,376.2,234.2,376.9z"/>
	<path d="M275.8,343.6c0.4,0.4,0.7,1,0.7,1.7v31.6c0,0.7-0.2,1.2-0.7,1.7c-0.4,0.5-1,0.7-1.7,0.7s-1.2-0.2-1.7-0.7
		c-0.4-0.4-0.6-1-0.6-1.7v-1.4c-0.8,1.2-2,2.2-3.5,3c-1.5,0.8-3.1,1.2-4.8,1.2c-2.2,0-4.2-0.6-6-1.7c-1.8-1.1-3.2-2.7-4.3-4.8
		c-1-2-1.6-4.3-1.6-6.9s0.5-4.8,1.5-6.9c1-2,2.4-3.6,4.2-4.8c1.8-1.1,3.8-1.7,5.9-1.7c1.7,0,3.3,0.4,4.8,1.1
		c1.5,0.7,2.7,1.6,3.6,2.8v-11.5c0-0.7,0.2-1.2,0.6-1.7c0.4-0.4,1-0.7,1.7-0.7S275.3,343.2,275.8,343.6z M268.2,374.2
		c1.2-0.8,2.1-1.9,2.8-3.2c0.7-1.4,1-2.9,1-4.7c0-1.7-0.3-3.2-1-4.6c-0.7-1.4-1.6-2.5-2.8-3.3c-1.2-0.8-2.6-1.2-4.1-1.2
		c-1.5,0-2.9,0.4-4.1,1.2c-1.2,0.8-2.1,1.9-2.8,3.3c-0.7,1.4-1,2.9-1,4.6c0,1.7,0.3,3.3,1,4.7c0.7,1.4,1.6,2.5,2.8,3.2
		c1.2,0.8,2.6,1.2,4.1,1.2C265.6,375.4,267,375,268.2,374.2z"/>
	<path d="M305.1,366.9c-0.5,0.4-1,0.6-1.6,0.6h-17.2c0.2,2.4,1.1,4.3,2.7,5.7c1.6,1.4,3.5,2.2,5.8,2.2c1.6,0,2.8-0.2,3.8-0.7
		c1-0.5,1.8-1,2.6-1.8c0.5-0.3,1-0.4,1.4-0.4c0.6,0,1,0.2,1.4,0.6c0.4,0.4,0.6,0.8,0.6,1.4c0,0.7-0.3,1.3-1,1.9
		c-0.9,0.9-2.2,1.7-3.8,2.4c-1.6,0.7-3.2,1-4.8,1c-2.6,0-5-0.6-7-1.7c-2-1.1-3.6-2.7-4.7-4.7c-1.1-2-1.6-4.2-1.6-6.8
		c0-2.7,0.6-5.2,1.7-7.2c1.1-2.1,2.6-3.7,4.5-4.8c1.8-1.1,3.8-1.7,6-1.7c2.1,0,4.1,0.5,5.9,1.6c1.8,1.1,3.3,2.6,4.4,4.5
		c1.1,1.9,1.7,4,1.7,6.4C305.8,366,305.6,366.5,305.1,366.9z M289.1,358.8c-1.3,1-2.2,2.6-2.6,4.8h14.5v-0.4
		c-0.2-1.7-0.9-3.2-2.3-4.3c-1.4-1.1-3-1.7-4.7-1.7C292,357.3,290.5,357.8,289.1,358.8z"/>
	<path d="M332.2,353.9c0.4,0.4,0.6,0.9,0.6,1.4c0,0.3-0.1,0.7-0.3,1.2l-9.3,21.2c-0.2,0.4-0.5,0.8-0.8,1c-0.4,0.3-0.8,0.4-1.2,0.4
		c-0.5,0.1-1,0-1.4-0.3c-0.4-0.3-0.8-0.7-1-1.2l-9.3-21.2c-0.2-0.5-0.2-0.9-0.2-1.2c0-0.5,0.2-1,0.6-1.4c0.4-0.4,1-0.6,1.7-0.6
		c0.5,0,0.9,0.1,1.3,0.4c0.4,0.2,0.7,0.6,0.9,1.1l7.4,17.2l7.4-17.2c0.5-1,1.2-1.5,2.1-1.5C331.2,353.3,331.8,353.5,332.2,353.9z"/>
	<path d="M359.4,366.9c-0.5,0.4-1,0.6-1.6,0.6h-17.2c0.2,2.4,1.1,4.3,2.7,5.7c1.6,1.4,3.5,2.2,5.8,2.2c1.6,0,2.8-0.2,3.8-0.7
		c1-0.5,1.8-1,2.6-1.8c0.5-0.3,1-0.4,1.4-0.4c0.6,0,1,0.2,1.4,0.6c0.4,0.4,0.6,0.8,0.6,1.4c0,0.7-0.3,1.3-1,1.9
		c-0.9,0.9-2.2,1.7-3.8,2.4c-1.6,0.7-3.2,1-4.8,1c-2.6,0-5-0.6-7-1.7c-2-1.1-3.6-2.7-4.7-4.7c-1.1-2-1.6-4.2-1.6-6.8
		c0-2.7,0.6-5.2,1.7-7.2s2.6-3.7,4.5-4.8c1.8-1.1,3.8-1.7,6-1.7c2.1,0,4.1,0.5,5.9,1.6c1.8,1.1,3.3,2.6,4.4,4.5
		c1.1,1.9,1.7,4,1.7,6.4C360.1,366,359.9,366.5,359.4,366.9z M343.4,358.8c-1.3,1-2.2,2.6-2.6,4.8h14.5v-0.4
		c-0.2-1.7-0.9-3.2-2.3-4.3c-1.4-1.1-3-1.7-4.7-1.7C346.3,357.3,344.7,357.8,343.4,358.8z"/>
	<path d="M369.9,378.5c-0.5,0.5-1,0.7-1.7,0.7s-1.2-0.2-1.6-0.7c-0.4-0.5-0.7-1-0.7-1.7v-31.6c0-0.7,0.2-1.2,0.7-1.7
		c0.5-0.5,1-0.7,1.7-0.7s1.2,0.2,1.6,0.7c0.4,0.5,0.7,1,0.7,1.7v31.6C370.6,377.5,370.4,378.1,369.9,378.5z"/>
	<path d="M400,373.2c-1.1,2-2.7,3.6-4.7,4.8c-2,1.1-4.2,1.7-6.5,1.7s-4.6-0.6-6.5-1.7c-2-1.1-3.5-2.7-4.7-4.8s-1.7-4.3-1.7-6.9
		s0.6-4.9,1.7-6.9s2.7-3.7,4.7-4.8c2-1.1,4.2-1.7,6.5-1.7s4.6,0.6,6.5,1.7c2,1.1,3.5,2.7,4.7,4.8c1.1,2.1,1.7,4.4,1.7,6.9
		S401.2,371.2,400,373.2z M396,361.7c-0.7-1.4-1.7-2.5-3-3.2c-1.3-0.8-2.7-1.2-4.2-1.2s-2.9,0.4-4.2,1.2c-1.3,0.8-2.3,1.8-3,3.2
		c-0.7,1.4-1.1,3-1.1,4.7c0,1.7,0.4,3.3,1.1,4.7c0.7,1.4,1.7,2.4,3,3.2c1.3,0.8,2.7,1.2,4.2,1.2s2.9-0.4,4.2-1.2
		c1.3-0.8,2.3-1.8,3-3.2s1.1-2.9,1.1-4.7C397.1,364.6,396.7,363,396,361.7z"/>
	<path d="M426.1,354.8c1.8,1.1,3.2,2.7,4.2,4.7c1,2,1.5,4.3,1.5,6.9s-0.5,4.8-1.5,6.8c-1,2-2.4,3.6-4.2,4.7
		c-1.8,1.1-3.8,1.7-5.9,1.7c-1.7,0-3.3-0.4-4.8-1.1c-1.5-0.8-2.7-1.7-3.6-2.7v10.9c0,0.7-0.2,1.2-0.7,1.7c-0.4,0.5-1,0.7-1.7,0.7
		c-0.7,0-1.2-0.2-1.6-0.7c-0.4-0.4-0.7-1-0.7-1.7v-30.8c0-0.7,0.2-1.3,0.6-1.7c0.4-0.5,1-0.7,1.7-0.7c0.7,0,1.2,0.2,1.7,0.7
		c0.4,0.5,0.7,1,0.7,1.7v1.4c0.8-1.1,1.9-2.1,3.4-2.9c1.5-0.8,3.1-1.2,4.8-1.2C422.3,353.1,424.3,353.7,426.1,354.8z M423.6,374.2
		c1.2-0.8,2.1-1.9,2.8-3.2c0.7-1.4,1-2.9,1-4.6c0-1.7-0.3-3.2-1-4.6c-0.7-1.4-1.6-2.4-2.8-3.2c-1.2-0.8-2.6-1.2-4.1-1.2
		c-1.5,0-2.9,0.4-4.1,1.2c-1.2,0.8-2.1,1.8-2.8,3.2c-0.7,1.4-1,2.9-1,4.6c0,1.7,0.3,3.2,1,4.6c0.7,1.4,1.6,2.4,2.8,3.2
		c1.2,0.8,2.6,1.2,4.1,1.2C421,375.3,422.4,375,423.6,374.2z"/>
	<path d="M459,366.9c-0.5,0.4-1,0.6-1.6,0.6h-17.2c0.2,2.4,1.1,4.3,2.7,5.7c1.6,1.4,3.5,2.2,5.8,2.2c1.6,0,2.8-0.2,3.8-0.7
		c1-0.5,1.8-1,2.6-1.8c0.5-0.3,1-0.4,1.4-0.4c0.6,0,1,0.2,1.4,0.6c0.4,0.4,0.6,0.8,0.6,1.4c0,0.7-0.3,1.3-1,1.9
		c-0.9,0.9-2.2,1.7-3.8,2.4c-1.6,0.7-3.2,1-4.8,1c-2.6,0-5-0.6-7-1.7c-2-1.1-3.6-2.7-4.7-4.7c-1.1-2-1.6-4.2-1.6-6.8
		c0-2.7,0.6-5.2,1.7-7.2s2.6-3.7,4.5-4.8c1.8-1.1,3.8-1.7,6-1.7c2.1,0,4.1,0.5,5.9,1.6c1.8,1.1,3.3,2.6,4.4,4.5
		c1.1,1.9,1.7,4,1.7,6.4C459.7,366,459.5,366.5,459,366.9z M443,358.8c-1.3,1-2.2,2.6-2.6,4.8h14.5v-0.4c-0.2-1.7-0.9-3.2-2.3-4.3
		c-1.4-1.1-3-1.7-4.7-1.7C445.9,357.3,444.4,357.8,443,358.8z"/>
	<path d="M480.2,353.6c0.6,0.4,0.9,1,0.9,1.6c0,0.8-0.2,1.4-0.6,1.8c-0.4,0.4-0.9,0.6-1.5,0.6c-0.3,0-0.7-0.1-1.3-0.3
		c-0.7-0.2-1.2-0.3-1.6-0.3c-1,0-2,0.4-3,1.1c-1,0.7-1.7,1.7-2.4,2.9c-0.6,1.2-0.9,2.6-0.9,4.1v11.8c0,0.7-0.2,1.2-0.7,1.7
		c-0.4,0.5-1,0.7-1.7,0.7c-0.7,0-1.2-0.2-1.7-0.7c-0.4-0.4-0.6-1-0.6-1.7v-21c0-0.7,0.2-1.2,0.7-1.7c0.4-0.5,1-0.7,1.6-0.7
		c0.7,0,1.2,0.2,1.7,0.7c0.4,0.5,0.7,1,0.7,1.7v2.5c0.7-1.6,1.8-2.9,3.2-3.9c1.4-1,3.1-1.5,4.9-1.5
		C478.8,353,479.5,353.2,480.2,353.6z"/>
	<path d="M45.2,436c0,0.5-0.2,0.9-0.5,1.4c-0.4,0.5-0.8,0.7-1.4,0.7c-0.6,0-1-0.1-1.4-0.4l-4.5-3.7c-3.1,3.1-6.9,4.6-11.6,4.6
		c-2.3,0-4.3-0.5-6.1-1.5c-1.8-1-3.3-2.4-4.3-4.1c-1-1.7-1.6-3.5-1.6-5.3c0-2.3,0.6-4.3,1.8-6.1c1.2-1.8,3-3.2,5.4-4.2
		c-0.7-0.9-1.1-1.8-1.5-2.7c-0.3-0.8-0.5-1.7-0.5-2.6c0-1.6,0.4-3.1,1.2-4.4c0.8-1.3,2-2.4,3.5-3.2c1.5-0.8,3.3-1.2,5.3-1.2
		c2.3,0,4.2,0.4,6,1.2c1.7,0.8,2.9,1.8,3.5,3.1c0.2,0.5,0.3,1,0.3,1.5c0,0.5-0.2,1-0.6,1.3s-0.9,0.5-1.5,0.5c-0.7,0-1.2-0.3-1.6-0.8
		c-0.7-1-1.5-1.7-2.5-2.2c-1-0.5-2.2-0.7-3.7-0.7c-1.7,0-2.9,0.4-3.8,1.3s-1.3,1.9-1.3,3.3c0,1.2,0.4,2.4,1.3,3.6
		c0.8,1.2,2.1,2.7,3.6,4.4l0.9,1c1.9,2.1,4.2,4.4,7,6.8c0.8-1.7,1.4-3.5,1.8-5.5c0.2-0.9,0.8-1.4,2-1.4c0.7,0,1.2,0.3,1.6,0.8
		c0.4,0.5,0.6,1.2,0.5,1.9c-0.4,2.7-1.2,5.1-2.5,7.2c1.3,1.2,2.7,2.4,4.2,3.5C44.9,434.6,45.2,435.2,45.2,436z M34.2,431.1
		c-3.5-3.1-6.5-6-8.9-8.7c-0.5-0.5-1-1.1-1.6-1.9c-1.9,0.6-3.2,1.4-4,2.5c-0.8,1.1-1.2,2.4-1.2,3.9c0,1.3,0.3,2.5,0.9,3.5
		s1.5,2,2.7,2.6c1.2,0.7,2.8,1,4.6,1C29.6,434.1,32.1,433.1,34.2,431.1z"/>
	<path d="M90.1,404.3c0.4,0.4,0.6,1,0.6,1.7v18.8c0,2.6-0.6,4.9-1.7,7c-1.1,2.1-2.7,3.7-4.7,4.8c-2,1.2-4.3,1.7-6.8,1.7
		c-2.5,0-4.8-0.6-6.9-1.7c-2-1.2-3.6-2.8-4.8-4.8c-1.1-2.1-1.7-4.4-1.7-7V406c0-0.7,0.2-1.2,0.7-1.7c0.5-0.4,1-0.7,1.8-0.7
		c0.6,0,1.2,0.2,1.6,0.7c0.5,0.5,0.7,1,0.7,1.7v18.8c0,1.7,0.4,3.2,1.2,4.6c0.8,1.4,1.8,2.4,3.1,3.2c1.3,0.8,2.7,1.1,4.2,1.1
		c1.6,0,3-0.4,4.4-1.1c1.3-0.8,2.4-1.8,3.2-3.2c0.8-1.4,1.2-2.9,1.2-4.6V406c0-0.7,0.2-1.2,0.6-1.7s0.9-0.7,1.6-0.7
		S89.6,403.9,90.1,404.3z"/>
	<path d="M102.9,437.3c-0.5,0.5-1.1,0.7-1.7,0.7c-0.7,0-1.3-0.2-1.7-0.7c-0.4-0.5-0.7-1-0.7-1.7v-29.5c0-0.7,0.2-1.2,0.7-1.7
		c0.5-0.5,1-0.7,1.8-0.7c0.7,0,1.2,0.2,1.7,0.7c0.5,0.5,0.7,1,0.7,1.7v29.5C103.7,436.3,103.4,436.9,102.9,437.3z"/>
	<path d="M109.4,443.9c-0.4-0.4-0.7-0.9-0.7-1.4c0-0.3,0.1-0.6,0.2-1l20.5-41.4c0.5-0.9,1.1-1.3,1.9-1.3c0.5,0,0.9,0.2,1.4,0.6
		c0.4,0.4,0.6,0.8,0.6,1.4c0,0.4-0.1,0.8-0.2,1.1l-20.5,41.4c-0.4,0.8-1,1.3-1.9,1.3C110.3,444.5,109.9,444.3,109.4,443.9z"/>
	<path d="M164.6,404.3c0.4,0.4,0.6,1,0.6,1.7v18.8c0,2.6-0.6,4.9-1.7,7c-1.1,2.1-2.7,3.7-4.7,4.8c-2,1.2-4.3,1.7-6.8,1.7
		c-2.5,0-4.8-0.6-6.9-1.7c-2-1.2-3.6-2.8-4.8-4.8c-1.1-2.1-1.7-4.4-1.7-7V406c0-0.7,0.2-1.2,0.7-1.7c0.5-0.4,1-0.7,1.8-0.7
		c0.6,0,1.2,0.2,1.6,0.7c0.5,0.5,0.7,1,0.7,1.7v18.8c0,1.7,0.4,3.2,1.2,4.6c0.8,1.4,1.8,2.4,3.1,3.2c1.3,0.8,2.7,1.1,4.2,1.1
		c1.6,0,3-0.4,4.4-1.1c1.3-0.8,2.4-1.8,3.2-3.2c0.8-1.4,1.2-2.9,1.2-4.6V406c0-0.7,0.2-1.2,0.6-1.7s0.9-0.7,1.6-0.7
		S164.2,403.9,164.6,404.3z"/>
	<path d="M197.4,434.5c0.3,0.4,0.4,0.9,0.4,1.4c0,0.7-0.2,1.2-0.7,1.7c-0.5,0.4-1,0.6-1.6,0.6c-0.8,0-1.5-0.3-1.9-1l-9.5-12.7
		l-9.3,12.7c-0.5,0.7-1.1,1-1.9,1c-0.6,0-1.1-0.2-1.5-0.6c-0.4-0.4-0.6-0.9-0.6-1.4c0-0.6,0.2-1.1,0.6-1.6l10-13.7l-10.1-13.6
		c-0.3-0.4-0.5-0.9-0.5-1.4c0-0.7,0.2-1.2,0.7-1.7c0.5-0.5,1-0.7,1.6-0.7c0.4,0,0.7,0.1,1.1,0.2c0.3,0.2,0.6,0.4,0.9,0.7l9.4,12.6
		l9.3-12.5c0.6-0.7,1.2-1.1,1.9-1.1c0.6,0,1.1,0.2,1.5,0.7c0.4,0.4,0.7,0.9,0.7,1.5c0,0.5-0.2,1-0.5,1.4l-10.2,13.6L197.4,434.5z"/>
	<path d="M239.5,402.4c0.4,0.4,0.7,1,0.7,1.7v31.6c0,0.7-0.2,1.2-0.7,1.7c-0.4,0.5-1,0.7-1.7,0.7s-1.2-0.2-1.7-0.7
		c-0.4-0.4-0.6-1-0.6-1.7v-1.4c-0.8,1.2-2,2.2-3.5,3c-1.5,0.8-3.1,1.2-4.8,1.2c-2.2,0-4.2-0.6-6-1.7c-1.8-1.1-3.2-2.7-4.3-4.8
		c-1-2-1.6-4.3-1.6-6.9s0.5-4.8,1.5-6.9c1-2,2.4-3.6,4.2-4.8c1.8-1.1,3.8-1.7,5.9-1.7c1.7,0,3.3,0.4,4.8,1.1
		c1.5,0.7,2.7,1.6,3.6,2.8v-11.5c0-0.7,0.2-1.2,0.6-1.7c0.4-0.4,1-0.7,1.7-0.7S239,402,239.5,402.4z M231.9,433
		c1.2-0.8,2.1-1.9,2.8-3.2c0.7-1.4,1-2.9,1-4.7c0-1.7-0.3-3.2-1-4.6c-0.7-1.4-1.6-2.5-2.8-3.3c-1.2-0.8-2.6-1.2-4.1-1.2
		c-1.5,0-2.9,0.4-4.1,1.2c-1.2,0.8-2.1,1.9-2.8,3.3c-0.7,1.4-1,2.9-1,4.6c0,1.7,0.3,3.3,1,4.7c0.7,1.4,1.6,2.5,2.8,3.2
		c1.2,0.8,2.6,1.2,4.1,1.2C229.3,434.2,230.7,433.8,231.9,433z"/>
	<path d="M268.8,425.7c-0.5,0.4-1,0.6-1.6,0.6H250c0.2,2.4,1.1,4.3,2.7,5.7c1.6,1.4,3.5,2.2,5.8,2.2c1.6,0,2.8-0.2,3.8-0.7
		c1-0.5,1.8-1,2.6-1.8c0.5-0.3,1-0.4,1.4-0.4c0.6,0,1,0.2,1.4,0.6c0.4,0.4,0.6,0.8,0.6,1.4c0,0.7-0.3,1.3-1,1.9
		c-0.9,0.9-2.2,1.7-3.8,2.4c-1.6,0.7-3.2,1-4.8,1c-2.6,0-5-0.6-7-1.7s-3.6-2.7-4.7-4.7c-1.1-2-1.6-4.2-1.6-6.8
		c0-2.7,0.6-5.2,1.7-7.2s2.6-3.7,4.5-4.8c1.8-1.1,3.8-1.7,6-1.7c2.1,0,4,0.5,5.9,1.6c1.8,1.1,3.3,2.6,4.4,4.5c1.1,1.9,1.7,4,1.7,6.4
		C269.5,424.8,269.3,425.3,268.8,425.7z M252.8,417.6c-1.3,1-2.2,2.6-2.6,4.8h14.5V422c-0.2-1.7-0.9-3.2-2.3-4.3
		c-1.4-1.1-3-1.7-4.7-1.7C255.7,416.1,254.1,416.6,252.8,417.6z"/>
	<path d="M273,432.7c0-0.7,0.3-1.2,1-1.7c0.3-0.2,0.7-0.3,1.1-0.3c0.6,0,1.1,0.2,1.6,0.7c1,1.1,2,1.9,3.2,2.5c1.1,0.6,2.5,0.8,4,0.8
		c1.2,0,2.3-0.3,3.3-0.9c0.9-0.5,1.4-1.4,1.4-2.6c0-1.1-0.5-2-1.4-2.5c-1-0.6-2.4-1.1-4.2-1.6c-1.8-0.5-3.3-1-4.6-1.5
		c-1.2-0.5-2.2-1.3-3.1-2.4c-0.8-1-1.2-2.4-1.2-4c0-1.5,0.4-2.8,1.2-3.9c0.8-1.1,1.9-2,3.3-2.6c1.4-0.6,2.9-0.9,4.5-0.9
		c1.6,0,3.1,0.3,4.7,0.9c1.6,0.6,2.8,1.5,3.8,2.7c0.4,0.5,0.6,0.9,0.6,1.4c0,0.5-0.3,1-0.8,1.5c-0.3,0.3-0.7,0.4-1.2,0.4
		c-0.6,0-1.1-0.2-1.4-0.6c-0.7-0.8-1.5-1.4-2.5-1.8c-1-0.4-2.1-0.6-3.3-0.6c-1.2,0-2.3,0.3-3.2,0.8c-0.9,0.5-1.3,1.4-1.3,2.6
		c0,1.1,0.5,2,1.5,2.5c1,0.6,2.4,1.1,4.4,1.6c1.7,0.5,3.2,0.9,4.3,1.5c1.1,0.5,2.1,1.3,2.9,2.3c0.8,1,1.2,2.4,1.2,4
		c0,1.5-0.4,2.9-1.3,4c-0.9,1.1-2,2-3.5,2.6c-1.4,0.6-2.9,0.9-4.5,0.9c-2.1,0-4-0.4-5.7-1.1c-1.7-0.7-3.2-1.9-4.4-3.4
		C273.2,433.5,273,433.1,273,432.7z"/>
	<path d="M298.4,408.3c-0.4-0.3-0.6-0.9-0.6-1.6v-0.8c0-0.8,0.2-1.3,0.7-1.7c0.4-0.3,1.1-0.5,2-0.5c0.9,0,1.6,0.2,2,0.5
		s0.6,0.9,0.6,1.6v0.8c0,0.8-0.2,1.3-0.6,1.7c-0.4,0.3-1.1,0.5-2,0.5C299.4,408.9,298.8,408.7,298.4,408.3z M302.1,437.3
		c-0.4,0.5-1,0.7-1.7,0.7c-0.7,0-1.2-0.2-1.6-0.7c-0.4-0.5-0.7-1-0.7-1.7v-21.2c0-0.7,0.2-1.2,0.7-1.7c0.4-0.5,1-0.7,1.6-0.7
		c0.7,0,1.2,0.2,1.7,0.7c0.4,0.5,0.7,1,0.7,1.7v21.2C302.7,436.3,302.5,436.9,302.1,437.3z"/>
	<path d="M332.6,412.7c0.4,0.4,0.7,1,0.7,1.7V436c0,2.6-0.6,4.9-1.7,6.6s-2.7,3.1-4.6,3.9c-1.9,0.8-4.1,1.3-6.5,1.3
		c-1.3,0-2.8-0.2-4.6-0.7c-1.7-0.5-2.9-0.9-3.4-1.4c-1-0.5-1.5-1.2-1.5-2c0-0.2,0.1-0.5,0.2-0.8c0.4-0.8,1-1.2,1.8-1.2
		c0.4,0,0.9,0.1,1.4,0.3c2.6,1,4.7,1.5,6.1,1.5c2.6,0,4.6-0.6,6-1.9c1.4-1.3,2.1-3,2.1-5.2v-2.6c-0.7,1.3-1.8,2.4-3.5,3.3
		s-3.3,1.4-5.1,1.4c-2.3,0-4.3-0.6-6.2-1.7c-1.9-1.1-3.3-2.7-4.4-4.8c-1.1-2-1.6-4.3-1.6-6.9s0.5-4.8,1.6-6.9c1.1-2,2.5-3.6,4.4-4.8
		s3.9-1.7,6.1-1.7c1.8,0,3.5,0.4,5,1.2c1.6,0.8,2.8,1.8,3.7,3v-1.6c0-0.7,0.2-1.3,0.6-1.7c0.4-0.5,1-0.7,1.7-0.7
		C331.6,412,332.2,412.2,332.6,412.7z M324.8,433c1.2-0.8,2.2-1.8,2.9-3.2s1.1-2.9,1.1-4.7s-0.4-3.3-1.1-4.7s-1.7-2.5-2.9-3.2
		c-1.2-0.8-2.7-1.2-4.3-1.2c-1.6,0-3,0.4-4.2,1.2c-1.2,0.8-2.2,1.9-2.9,3.3c-0.7,1.4-1.1,2.9-1.1,4.6s0.4,3.2,1.1,4.6
		c0.7,1.4,1.7,2.5,2.9,3.3s2.6,1.2,4.2,1.2C322.2,434.2,323.6,433.8,324.8,433z"/>
	<path d="M362.1,422.3v13.3c0,0.7-0.2,1.2-0.7,1.7c-0.4,0.5-1,0.7-1.7,0.7c-0.7,0-1.2-0.2-1.6-0.7c-0.4-0.5-0.7-1-0.7-1.7v-13.3
		c0-1.9-0.4-3.5-1.3-4.6c-0.9-1.1-2.3-1.7-4.3-1.7c-1.3,0-2.5,0.3-3.6,0.9c-1.1,0.6-1.9,1.3-2.5,2.3s-0.9,2-0.9,3.2v13.3
		c0,0.7-0.2,1.2-0.7,1.7c-0.4,0.5-1,0.7-1.7,0.7c-0.7,0-1.2-0.2-1.7-0.7c-0.4-0.4-0.6-1-0.6-1.7v-21c0-0.7,0.2-1.2,0.7-1.7
		c0.4-0.5,1-0.7,1.6-0.7c0.7,0,1.2,0.2,1.7,0.7c0.4,0.5,0.7,1,0.7,1.7v1.7c0.8-1.3,2-2.4,3.6-3.3s3.1-1.3,4.9-1.3
		C359.1,411.8,362.1,415.3,362.1,422.3z"/>
	<path d="M390.8,425.7c-0.5,0.4-1,0.6-1.6,0.6H372c0.2,2.4,1.1,4.3,2.7,5.7c1.6,1.4,3.5,2.2,5.8,2.2c1.6,0,2.8-0.2,3.8-0.7
		c1-0.5,1.8-1,2.6-1.8c0.5-0.3,1-0.4,1.4-0.4c0.6,0,1,0.2,1.4,0.6c0.4,0.4,0.6,0.8,0.6,1.4c0,0.7-0.3,1.3-1,1.9
		c-0.9,0.9-2.2,1.7-3.8,2.4c-1.6,0.7-3.2,1-4.8,1c-2.6,0-5-0.6-7-1.7c-2-1.1-3.6-2.7-4.7-4.7c-1.1-2-1.6-4.2-1.6-6.8
		c0-2.7,0.6-5.2,1.7-7.2s2.6-3.7,4.5-4.8c1.8-1.1,3.8-1.7,6-1.7c2.1,0,4.1,0.5,5.9,1.6c1.8,1.1,3.3,2.6,4.4,4.5
		c1.1,1.9,1.7,4,1.7,6.4C391.5,424.8,391.3,425.3,390.8,425.7z M374.8,417.6c-1.3,1-2.2,2.6-2.6,4.8h14.5V422
		c-0.2-1.7-0.9-3.2-2.3-4.3c-1.4-1.1-3-1.7-4.7-1.7C377.7,416.1,376.2,416.6,374.8,417.6z"/>
	<path d="M412,412.4c0.6,0.4,0.9,1,0.9,1.6c0,0.8-0.2,1.4-0.6,1.8c-0.4,0.4-0.9,0.6-1.5,0.6c-0.3,0-0.7-0.1-1.3-0.3
		c-0.7-0.2-1.2-0.3-1.6-0.3c-1,0-2,0.4-3,1.1c-1,0.7-1.7,1.7-2.4,2.9c-0.6,1.2-0.9,2.6-0.9,4.1v11.8c0,0.7-0.2,1.2-0.7,1.7
		c-0.4,0.5-1,0.7-1.7,0.7c-0.7,0-1.2-0.2-1.7-0.7c-0.4-0.4-0.6-1-0.6-1.7v-21c0-0.7,0.2-1.2,0.7-1.7c0.4-0.5,1-0.7,1.6-0.7
		c0.7,0,1.2,0.2,1.7,0.7c0.4,0.5,0.7,1,0.7,1.7v2.5c0.7-1.6,1.8-2.9,3.2-3.9c1.4-1,3.1-1.5,4.9-1.5C410.6,411.8,411.3,412,412,412.4
		z"/>
</g>
<g>
	<path d="M31.1,493.5c0.2,0.2,0.3,0.5,0.3,0.8s-0.1,0.6-0.3,0.8c-0.2,0.2-0.5,0.3-0.8,0.3H16.3c-0.3,0-0.6-0.1-0.8-0.3
		c-0.2-0.2-0.3-0.5-0.3-0.8v-25c0-0.3,0.1-0.6,0.4-0.8c0.2-0.2,0.5-0.3,0.9-0.3c0.3,0,0.6,0.1,0.9,0.3c0.2,0.2,0.4,0.5,0.4,0.8v23.8
		h12.6C30.6,493.2,30.9,493.3,31.1,493.5z"/>
	<path d="M50.2,475.6c0.2,0.2,0.3,0.5,0.3,0.8v17.2c0,2.1-0.4,3.8-1.2,5.3c-0.8,1.5-1.9,2.6-3.4,3.3c-1.4,0.8-3,1.1-4.8,1.1
		c-1.1,0-2.1-0.1-3.1-0.4c-0.9-0.2-1.7-0.5-2.4-0.9c-0.5-0.3-0.8-0.7-0.8-1.1c0-0.1,0-0.2,0.1-0.4c0.1-0.3,0.2-0.5,0.4-0.6
		c0.2-0.1,0.4-0.2,0.6-0.2c0.2,0,0.3,0,0.5,0.1c1.7,0.9,3.2,1.4,4.8,1.4c2.2,0,3.9-0.7,5.1-2c1.3-1.4,1.9-3.2,1.9-5.5v-1.4
		c-0.7,1.1-1.6,2-2.8,2.6c-1.2,0.7-2.5,1-4,1c-2.3,0-4-0.7-5.1-2s-1.8-3.2-1.8-5.5v-12c0-0.3,0.1-0.6,0.3-0.8
		c0.2-0.2,0.5-0.3,0.8-0.3c0.3,0,0.6,0.1,0.8,0.3c0.2,0.2,0.3,0.5,0.3,0.8V488c0,1.9,0.4,3.3,1.2,4.3c0.8,1,2.1,1.4,3.8,1.4
		c1.1,0,2.1-0.3,3.1-0.8c1-0.5,1.8-1.2,2.3-2.1s0.9-1.8,0.9-2.8v-11.6c0-0.3,0.1-0.6,0.3-0.8c0.2-0.2,0.5-0.3,0.8-0.3
		C49.7,475.2,49.9,475.3,50.2,475.6z"/>
	<path d="M73.5,490.8c-0.9,1.6-2,2.8-3.5,3.7c-1.5,0.9-3.2,1.3-5,1.3c-1.8,0-3.5-0.4-5-1.3c-1.5-0.9-2.7-2.1-3.5-3.7
		s-1.3-3.4-1.3-5.3c0-1.9,0.4-3.7,1.3-5.3s2-2.8,3.5-3.7c1.5-0.9,3.2-1.4,5-1.4c1.8,0,3.5,0.5,5,1.4c1.5,0.9,2.7,2.2,3.5,3.7
		s1.3,3.4,1.3,5.3C74.8,487.5,74.4,489.2,73.5,490.8z M71.5,481.3c-0.6-1.2-1.6-2.2-2.7-2.9c-1.2-0.7-2.4-1.1-3.8-1.1
		c-1.4,0-2.7,0.4-3.8,1.1c-1.1,0.7-2,1.7-2.7,2.9s-1,2.7-1,4.2c0,1.5,0.3,2.9,1,4.2c0.7,1.2,1.6,2.2,2.7,2.9s2.4,1.1,3.8,1.1
		c1.4,0,2.7-0.4,3.8-1.1c1.2-0.7,2.1-1.7,2.7-2.9c0.6-1.2,1-2.7,1-4.2C72.5,484,72.2,482.6,71.5,481.3z"/>
	<path d="M94.4,477.2c1.1,1.4,1.7,3.3,1.7,5.6v11.5c0,0.3-0.1,0.6-0.4,0.8s-0.5,0.3-0.8,0.3c-0.3,0-0.6-0.1-0.8-0.3
		c-0.2-0.2-0.3-0.5-0.3-0.8V483c0-1.7-0.4-3.1-1.3-4.1c-0.8-1.1-2.2-1.6-3.9-1.6c-1.1,0-2.2,0.3-3.2,0.8c-1,0.5-1.8,1.2-2.4,2.1
		C82.3,481,82,482,82,483v11.3c0,0.3-0.1,0.6-0.3,0.8c-0.2,0.2-0.5,0.3-0.8,0.3c-0.3,0-0.6-0.1-0.8-0.3c-0.2-0.2-0.3-0.5-0.3-0.8
		v-17.5c0-0.3,0.1-0.6,0.3-0.8c0.2-0.2,0.5-0.3,0.8-0.3c0.3,0,0.6,0.1,0.8,0.3c0.2,0.2,0.3,0.5,0.3,0.8v2.1c0.7-1.1,1.7-2,3-2.8
		c1.3-0.7,2.7-1.1,4-1.1C91.5,475.1,93.2,475.8,94.4,477.2z"/>
	<path d="M104.6,497.6c-0.4,0.7-0.9,1.4-1.4,1.8c-0.6,0.5-1.1,0.7-1.7,0.7c-0.3,0-0.5-0.1-0.7-0.2c-0.2-0.1-0.3-0.4-0.3-0.6
		c0-0.3,0.1-0.4,0.2-0.5c0.1-0.1,0.3-0.2,0.6-0.3s0.5-0.2,0.6-0.2c0.4-0.2,0.6-0.4,0.8-0.8c0.2-0.4,0.3-0.7,0.3-1.2
		c0-0.3-0.1-0.5-0.2-0.7c-0.2-0.2-0.4-0.3-0.6-0.3c-0.4,0-0.8,0.1-1.1,0.4c-0.3-0.3-0.5-0.6-0.5-0.9c0-0.5,0.2-0.9,0.7-1.2
		c0.5-0.4,1-0.5,1.5-0.5c0.7,0,1.2,0.2,1.7,0.6c0.4,0.4,0.6,1,0.6,1.8C105.2,496.1,105,496.8,104.6,497.6z"/>
	<path d="M137.2,468.5c0.2,0.2,0.3,0.5,0.3,0.8c0,0.3-0.1,0.6-0.3,0.8c-0.2,0.2-0.5,0.3-0.8,0.3h-13v9.8h11.2c0.3,0,0.6,0.1,0.8,0.3
		c0.2,0.2,0.3,0.5,0.3,0.8s-0.1,0.6-0.3,0.8c-0.2,0.2-0.5,0.3-0.8,0.3h-11.2v11.8c0,0.3-0.1,0.6-0.3,0.8c-0.2,0.2-0.5,0.3-0.8,0.3
		c-0.4,0-0.7-0.1-0.9-0.3c-0.2-0.2-0.3-0.5-0.3-0.8v-25c0-0.3,0.1-0.6,0.3-0.8c0.2-0.2,0.5-0.3,0.8-0.3h14.2
		C136.7,468.2,137,468.3,137.2,468.5z"/>
	<path d="M152.8,475.4c0.4,0.2,0.6,0.5,0.6,0.9c0,0.4-0.1,0.7-0.3,0.9c-0.2,0.2-0.5,0.3-0.7,0.3c-0.1,0-0.4-0.1-0.8-0.2
		c-0.4-0.1-0.7-0.2-1.1-0.2c-1,0-1.9,0.4-2.9,1.1c-0.9,0.7-1.7,1.7-2.3,2.9c-0.6,1.2-0.9,2.4-0.9,3.5v9.6c0,0.3-0.1,0.6-0.3,0.8
		c-0.2,0.2-0.5,0.3-0.8,0.3c-0.3,0-0.6-0.1-0.8-0.3c-0.2-0.2-0.3-0.5-0.3-0.8v-17.5c0-0.3,0.1-0.6,0.3-0.8c0.2-0.2,0.5-0.3,0.8-0.3
		c0.3,0,0.6,0.1,0.8,0.3c0.2,0.2,0.3,0.5,0.3,0.8v3.4c0.6-1.5,1.5-2.7,2.7-3.7s2.6-1.5,4.3-1.5C152,475.1,152.4,475.2,152.8,475.4z"
		/>
	<path d="M173.7,475.9c0.2,0.2,0.3,0.5,0.3,0.9v17.5c0,0.3-0.1,0.6-0.3,0.8c-0.2,0.2-0.5,0.3-0.8,0.3c-0.3,0-0.6-0.1-0.8-0.3
		c-0.2-0.2-0.3-0.5-0.3-0.8v-2.6c-0.7,1.2-1.6,2.2-2.9,3c-1.3,0.8-2.7,1.2-4.3,1.2c-1.7,0-3.3-0.5-4.7-1.4c-1.4-0.9-2.5-2.2-3.3-3.7
		c-0.8-1.6-1.2-3.4-1.2-5.3s0.4-3.8,1.2-5.3c0.8-1.6,1.9-2.8,3.3-3.7c1.4-0.9,2.9-1.3,4.6-1.3c1.6,0,3,0.4,4.3,1.1
		c1.3,0.8,2.3,1.7,2.9,3v-2.4c0-0.3,0.1-0.6,0.3-0.9c0.2-0.2,0.5-0.4,0.8-0.4C173.2,475.6,173.5,475.7,173.7,475.9z M168.4,492.6
		c1.1-0.7,1.9-1.7,2.5-3c0.6-1.3,0.9-2.7,0.9-4.2c0-1.5-0.3-2.9-0.9-4.1c-0.6-1.2-1.5-2.2-2.5-2.9c-1.1-0.7-2.3-1.1-3.6-1.1
		c-1.4,0-2.6,0.4-3.6,1.1c-1.1,0.7-1.9,1.7-2.5,2.9c-0.6,1.2-0.9,2.6-0.9,4.2c0,1.6,0.3,3,0.9,4.2c0.6,1.3,1.4,2.2,2.5,3
		c1.1,0.7,2.3,1.1,3.7,1.1C166.1,493.7,167.3,493.3,168.4,492.6z"/>
	<path d="M194.9,477.2c1.1,1.4,1.7,3.3,1.7,5.6v11.5c0,0.3-0.1,0.6-0.4,0.8s-0.5,0.3-0.8,0.3c-0.3,0-0.6-0.1-0.8-0.3
		c-0.2-0.2-0.3-0.5-0.3-0.8V483c0-1.7-0.4-3.1-1.3-4.1c-0.8-1.1-2.2-1.6-3.9-1.6c-1.1,0-2.2,0.3-3.2,0.8c-1,0.5-1.8,1.2-2.4,2.1
		c-0.6,0.9-0.9,1.8-0.9,2.8v11.3c0,0.3-0.1,0.6-0.3,0.8c-0.2,0.2-0.5,0.3-0.8,0.3c-0.3,0-0.6-0.1-0.8-0.3c-0.2-0.2-0.3-0.5-0.3-0.8
		v-17.5c0-0.3,0.1-0.6,0.3-0.8c0.2-0.2,0.5-0.3,0.8-0.3c0.3,0,0.6,0.1,0.8,0.3c0.2,0.2,0.3,0.5,0.3,0.8v2.1c0.7-1.1,1.7-2,3-2.8
		c1.3-0.7,2.7-1.1,4-1.1C192,475.1,193.7,475.8,194.9,477.2z"/>
	<path d="M214.7,475.5c1.1,0.3,1.9,0.6,2.5,1.1c0.6,0.5,1,1,1,1.5c0,0.3-0.1,0.5-0.3,0.8c-0.2,0.2-0.4,0.4-0.7,0.4
		c-0.3,0-0.5-0.1-0.6-0.2c-0.2-0.1-0.4-0.3-0.6-0.5c-0.3-0.3-0.7-0.6-1-0.7c-0.4-0.2-0.9-0.3-1.5-0.4c-0.6-0.1-1.3-0.2-2-0.2
		c-1.4,0-2.7,0.4-3.9,1.1c-1.2,0.7-2.1,1.7-2.8,3c-0.7,1.2-1,2.6-1,4.1c0,1.6,0.3,3,1,4.2c0.6,1.2,1.6,2.2,2.7,2.9s2.5,1.1,4,1.1
		c0.9,0,1.7-0.1,2.2-0.2c0.6-0.2,1.1-0.4,1.7-0.7c0.2-0.1,0.5-0.3,0.9-0.7c0.2-0.2,0.4-0.3,0.5-0.4c0.2-0.1,0.3-0.1,0.5-0.1
		c0.3,0,0.6,0.1,0.7,0.3c0.2,0.2,0.3,0.4,0.3,0.8c0,0.4-0.3,0.9-0.9,1.4c-0.6,0.5-1.5,0.9-2.6,1.3c-1.1,0.4-2.3,0.5-3.6,0.5
		c-1.9,0-3.6-0.4-5.1-1.3c-1.5-0.9-2.6-2.1-3.5-3.7c-0.8-1.6-1.2-3.4-1.2-5.3c0-1.9,0.4-3.6,1.2-5.2c0.8-1.6,2-2.8,3.5-3.8
		c1.5-0.9,3.2-1.4,5.2-1.4C212.5,475.1,213.7,475.2,214.7,475.5z"/>
	<path d="M239.2,485.2c-0.2,0.2-0.5,0.3-0.8,0.3h-14.7c0,1.6,0.3,3,1,4.2c0.6,1.2,1.5,2.2,2.7,2.9c1.2,0.7,2.6,1.1,4.2,1.1
		c1.2,0,2.4-0.3,3.4-0.8c1-0.5,1.8-1.2,2.4-2c0.3-0.2,0.6-0.4,0.8-0.4s0.5,0.1,0.7,0.3c0.2,0.2,0.3,0.4,0.3,0.7
		c0,0.3-0.1,0.6-0.4,0.8c-0.8,1-1.9,1.8-3.1,2.5c-1.3,0.6-2.6,1-4,1c-2,0-3.8-0.4-5.3-1.3c-1.5-0.9-2.7-2.1-3.6-3.6
		c-0.9-1.5-1.3-3.3-1.3-5.4c0-2.1,0.4-4,1.3-5.6c0.8-1.6,2-2.8,3.4-3.7c1.4-0.8,2.9-1.3,4.5-1.3c1.6,0,3,0.4,4.4,1.1
		c1.4,0.7,2.5,1.8,3.3,3.2c0.9,1.4,1.3,3.1,1.3,5C239.6,484.7,239.5,485,239.2,485.2z M226.3,478.9c-1.3,1-2.1,2.5-2.5,4.5h13.3
		v-0.3c-0.1-1.2-0.5-2.2-1.2-3.1c-0.6-0.9-1.5-1.5-2.4-2c-1-0.5-2-0.7-3-0.7C229,477.4,227.6,477.9,226.3,478.9z"/>
</g>
</svg>
