<?xml version="1.0" encoding="utf-8"?>
<!-- Generator: $$$/GeneralStr/196=Adobe Illustrator 27.6.0, SVG Export Plug-In . SVG Version: 6.00 Build 0)  -->
<svg version="1.1" id="Calque_1" xmlns="http://www.w3.org/2000/svg" xmlns:xlink="http://www.w3.org/1999/xlink" x="0px" y="0px"
	 viewBox="0 0 256 256" style="enable-background:new 0 0 256 256;" xml:space="preserve">
<style type="text/css">
	.st0{fill:#F1C40F;}
	.st1{fill:#FFFFFF;stroke:#000000;stroke-width:7.9252;stroke-linecap:round;stroke-linejoin:round;stroke-miterlimit:10;}
	.st2{stroke:#000000;stroke-width:7.9252;stroke-linecap:round;stroke-linejoin:round;stroke-miterlimit:10;}
</style>
<g>
	<rect x="718" y="-992" class="st0" width="1250" height="674"/>
</g>
<path class="st0" d="M188.4,236.5H67.6c-26.4,0-48.1-21.6-48.1-48.1V67.6c0-26.4,21.6-48.1,48.1-48.1h120.8
	c26.4,0,48.1,21.6,48.1,48.1v120.8C236.5,214.9,214.9,236.5,188.4,236.5z"/>
<g>
	<polygon class="st1" points="52.6,48.1 205.3,93.1 197.4,119.8 176.8,135.9 216.1,177 202.1,195.5 192.3,211.3 147.5,165.3 
		107.5,195.2 107.5,195.2 45,73.8 	"/>
	<path class="st1" d="M147.5,165.3l1.5-26.6l-31.1,23.6c-0.4,0.3-1,0.2-1.3-0.3l-64-113.9l152.7,45l-39.6,29.5l11.2,13.4"/>
	<line class="st1" x1="117.8" y1="162.3" x2="107.5" y2="195.2"/>
	<line class="st1" x1="148.9" y1="138.7" x2="202.1" y2="195.5"/>
	<polygon class="st2" points="192.3,211.3 205,200.1 216.1,177 199.1,190 	"/>
	<polygon points="117.3,162.1 148.4,140.6 146.4,166.1 111,191.3 	"/>
	<polygon points="168.1,120.7 177.9,137.1 198,117.7 201.5,95.9 	"/>
</g>
</svg>
