<?xml version="1.0" encoding="utf-8"?>
<!-- Generator: Adobe Illustrator 28.2.0, SVG Export Plug-In . SVG Version: 6.00 Build 0)  -->
<svg version="1.1" id="Calque_1" xmlns="http://www.w3.org/2000/svg" xmlns:xlink="http://www.w3.org/1999/xlink" x="0px" y="0px"
	 viewBox="0 0 100 200" style="enable-background:new 0 0 100 200;" xml:space="preserve">
<style type="text/css">
	.st0{fill:#5AD2E1;}
</style>
<path class="st0" d="M25.6,131.8c0-5,4.1-9.1,9.1-9.1h18.2c5,0,9.1,4.1,9.1,9.1c0,1-0.8,1.8-1.8,1.8s-1.8-0.8-1.8-1.8
	c0-3-2.4-5.5-5.5-5.5H34.7c-3,0-5.5,2.4-5.5,5.5V150c0,3,2.4,5.5,5.5,5.5c0,0,0,0,0,0h16.4c0.5-4.5,4.6-7.7,9-7.2s7.7,4.6,7.2,9
	c-0.5,4.5-4.6,7.7-9,7.2c-3.1-0.3-5.8-2.4-6.8-5.4H34.7c-5,0-9.1-4.1-9.1-9.1l0,0C25.6,150,25.6,131.8,25.6,131.8z M42,162.8
	c-1,0-1.8,0.8-1.8,1.8c0,5,4.1,9.1,9.1,9.1c0,0,0,0,0,0h18.2c5,0,9.1-4.1,9.1-9.1v-18.2c0-5-4.1-9.1-9.1-9.1c0,0,0,0,0,0H50.6
	c-1.5-4.3-6.2-6.5-10.5-5s-6.5,6.2-5,10.5c1.5,4.3,6.2,6.5,10.5,5c3-1,5.1-3.7,5.4-6.8h16.4c3,0,5.5,2.4,5.5,5.5v18.2
	c0,3-2.4,5.5-5.5,5.5H49.3c-3,0-5.5-2.4-5.5-5.5l0,0C43.8,163.6,43,162.8,42,162.8z"/>
<path class="st0" d="M47.7,35.7V24.3L35.3,36.7l-9.9,9.9L35.5,55l12.2,10.2V54c21.4-1.6,28.9,10.8,28.9,10.8
	c0-7.7-0.6-15.7-6.7-21.8C62.8,36,52.6,35.5,47.7,35.7z"/>
</svg>
