<?xml version="1.0" encoding="utf-8"?>
<!-- Generator: Adobe Illustrator 28.2.0, SVG Export Plug-In . SVG Version: 6.00 Build 0)  -->
<svg version="1.1" id="Calque_1" xmlns="http://www.w3.org/2000/svg" xmlns:xlink="http://www.w3.org/1999/xlink" x="0px" y="0px"
	 viewBox="0 0 566.9 320" style="enable-background:new 0 0 566.9 320;" xml:space="preserve">
<style type="text/css">
	.st0{fill:#5AD2E1;}
</style>
<g>
	<path class="st0" d="M199,264.1c-0.4,17.1-12.9,31.2-29.4,34c-0.7,0.1-1.3,0.3-2.1,0.4c-0.5,0-1,0-1.6,0c-0.5,0-1,0-1.6,0
		c-0.3,0-0.5,0-0.8,0c-0.8,0-1.6,0-2.4,0c-0.9,0-1.8-0.1-2.7-0.3c-0.3,0-0.5,0-0.8,0c-16.1-2.6-28.5-16.1-29.4-32.7h21.6
		c0.3,1.4,0.7,2.7,1.2,3.8c0.8,1.8,1.8,3.1,2.6,3.9c0.3,0.3,0.5,0.5,0.8,0.8c0.1,0.1,0.3,0.3,0.4,0.4c0.8,0.7,1.7,1.3,2.9,1.8
		c0.1,0,0.3,0,0.4,0c0.9,0.4,1.8,0.7,2.9,0.9c0.4,0,0.8,0,1.2,0c0.3,0,0.5,0,0.8,0s0.5,0,0.8,0s0.5,0,0.8,0s0.5,0,0.8,0
		c4.2-0.4,6.9-2.6,8.2-3.9s3.4-3.9,3.9-7.7v-23.1L199,264.1z M199.8,210.9v43.8l-22.4-22.4V211L199.8,210.9z"/>
	<path class="st0" d="M281.5,260.8H305l-0.5,2.2c-1.4,6.5-4.4,12.8-8.6,18.2c-4.1,5.2-9.4,9.7-15.3,12.7c-1,0.5-2.1,1-3.1,1.4
		c-5.8,2.4-11.8,3.5-18,3.5c-12.3,0-23.9-4.8-32.7-13.6c-8.8-8.8-13.6-20.4-13.6-32.7c0-5.2,0.9-10.5,2.6-15.4l0.9-2.7l19.3,19.3
		v0.7c0.4,5.5,2.7,10.7,6.7,14.6c3.9,3.9,9.2,6.3,14.6,6.7c1,0.1,2.2,0.1,3.3,0.1c2.4-0.1,4.7-0.7,6.9-1.4c0.8-0.3,1.4-0.5,2.1-0.9
		c2.2-1.2,4.3-2.6,6.1-4.4c2.2-2.2,3.9-4.7,5.1-7.6L281.5,260.8z M237.3,244.3l-16.9-16.9l0.9-1.2c8.6-12.4,22.9-19.9,38-19.9
		c10.6,0,20.9,3.7,29.2,10.3c8.1,6.5,13.7,15.7,15.9,25.8l0.5,2.2h-23.5l-0.5-1c-1.2-2.9-2.9-5.4-5.1-7.6
		c-4.4-4.4-10.3-6.9-16.6-6.9c-6.3,0-12.2,2.5-16.6,6.9c-1.8,1.8-3.3,3.9-4.4,6.1L237.3,244.3z"/>
	<path class="st0" d="M410.4,298.7h-31.5l-61.2-61.2v-28.6h1l35.6,33.9l53.2-35.2v26.7l-0.8,0.5l-36.3,24.1L410.4,298.7z
		 M317.7,247.9l22.2,22.2v28.8h-22.2V247.9z"/>
</g>
<g>
	<path class="st0" d="M71.8,160.2v-9.9l41.7,16.4v9.3l-41.7,16.4v-9.8l31.4-11.2L71.8,160.2z"/>
</g>
<g>
	<path class="st0" d="M176.2,135.2V98.6h11.6v98.1h-11.6v-8.9c-1.9,3.5-4.5,6.2-7.7,8s-6.9,2.7-11.1,2.7c-8.5,0-15.3-3.3-20.2-9.9
		c-4.9-6.6-7.3-15.8-7.3-27.4c0-11.5,2.5-20.5,7.4-27s11.6-9.8,20.1-9.8c4.2,0,8,0.9,11.2,2.7C171.8,129,174.3,131.7,176.2,135.2z
		 M142.1,161.5c0,9,1.4,15.8,4.3,20.4c2.9,4.6,7.1,6.9,12.7,6.9c5.6,0,9.9-2.3,12.8-6.9c2.9-4.6,4.4-11.4,4.4-20.3
		c0-9-1.5-15.7-4.4-20.3s-7.2-6.9-12.8-6.9s-9.8,2.3-12.7,6.9C143.5,145.7,142.1,152.5,142.1,161.5z"/>
	<path class="st0" d="M270.5,155.7v5.7h-50.3v0.4c-0.3,9.6,1.5,16.5,5.5,20.8c4,4.2,9.7,6.3,17,6.3c3.7,0,7.6-0.6,11.6-1.8
		c4-1.2,8.3-3,12.9-5.4v11.5c-4.4,1.8-8.7,3.2-12.8,4.1c-4.1,0.9-8.1,1.4-11.9,1.4c-11,0-19.6-3.3-25.7-9.9
		c-6.2-6.6-9.3-15.7-9.3-27.2c0-11.3,3-20.3,9.1-27s14.1-10.1,24.2-10.1c9,0,16.1,3,21.3,9.1C267.4,139.7,270.2,147,270.5,155.7z
		 M258.9,152.2c-0.5-4.9-2.3-9.1-5.3-12.6c-3-3.6-7.4-5.3-13.2-5.3c-5.6,0-10.2,1.9-13.8,5.6c-3.6,3.7-5.6,7.9-5.9,12.5L258.9,152.2
		z"/>
	<path class="st0" d="M283.9,126.1h12l20.5,59.3l20.6-59.3h12l-25,70.7h-15L283.9,126.1z"/>
</g>
</svg>
