<?xml version="1.0" encoding="utf-8"?>
<!-- Generator: Adobe Illustrator 28.3.0, SVG Export Plug-In . SVG Version: 6.00 Build 0)  -->
<svg version="1.1" id="Calque_1" xmlns="http://www.w3.org/2000/svg" xmlns:xlink="http://www.w3.org/1999/xlink" x="0px" y="0px"
	 viewBox="0 0 256 256" style="enable-background:new 0 0 256 256;" xml:space="preserve">
<style type="text/css">
	.st0{fill:#060C24;}
	.st1{fill:#5AD2E1;}
</style>
<path class="st0" d="M227.5,32c0-5.6-2.2-10.9-6.2-14.9c-4-3.9-9.3-6.1-14.9-6.1l-49.1,0.2c-11.6,0.1-20.9,9.4-20.9,21v46.7
	c0,4,1.1,7.9,3.3,11.2c-2,3.2-3,7-3,10.9v48.8c-0.5,1.7-1.5,3-2.4,3.9c-1.7,1.7-3.4,2.2-4.4,2.4H124c-0.1,0-0.2-0.1-0.4-0.2
	c-0.7-0.3-1.4-0.6-2.1-0.8l-1.4-1.4c0,0-0.7-0.7-1.4-2.2c0-0.1,0-0.1-0.1-0.2c-0.2-0.4-0.7-1.7-1.2-4c-2.1-9.7-10.6-16.6-20.5-16.6
	H49.5c-5.8,0-11.3,2.4-15.2,6.6c-4,4.2-6,9.8-5.7,15.6c1.2,22.3,10.1,43.7,25.1,60.3c14.9,16.4,35.1,27.4,56.9,31
	c1,0.2,2.1,0.3,3.1,0.3c2.6,0.4,5.3,0.7,7.9,0.7h14c0.9,0,1.7-0.1,2.6-0.2c1.9-0.2,3.5-0.6,4.5-0.8c0.2,0,0.4-0.1,0.6-0.1
	c0.1,0,0.3,0,0.4-0.1c46.4-7.9,80.8-47.7,81.9-94.7c0.1-3.2-0.6-6.4-1.9-9.2c2.3-3.4,3.7-7.5,3.7-11.9L227.5,32L227.5,32z"/>
<path class="st1" d="M204.7,148.6c-0.9,37.5-28.3,68.4-64.4,74.5c-1.5,0.2-2.8,0.7-4.6,0.9c-1.1,0-2.2,0-3.5,0c-1.1,0-2.2,0-3.5,0
	c-0.7,0-1.1,0-1.8,0c-1.8,0-3.5,0-5.3,0c-2,0-3.9-0.2-5.9-0.7c-0.7,0-1.1,0-1.8,0c-35.3-5.7-62.5-35.3-64.4-71.7h47.3
	c0.7,3.1,1.5,5.9,2.6,8.3c1.8,3.9,3.9,6.8,5.7,8.5c0.7,0.7,1.1,1.1,1.8,1.8c0.2,0.2,0.7,0.7,0.9,0.9c1.8,1.5,3.7,2.8,6.4,3.9
	c0.2,0,0.7,0,0.9,0c2,0.9,3.9,1.5,6.4,2c0.9,0,1.8,0,2.6,0c0.7,0,1.1,0,1.8,0c0.7,0,1.1,0,1.8,0c0.7,0,1.1,0,1.8,0s1.1,0,1.8,0
	c9.2-0.9,15.1-5.7,18-8.5s7.5-8.5,8.5-16.9V101L204.7,148.6z M206.5,32v96l-49.1-49.1V32.2L206.5,32z"/>
</svg>
