<?xml version="1.0" encoding="utf-8"?>
<!-- Generator: $$$/GeneralStr/196=Adobe Illustrator 27.6.0, SVG Export Plug-In . SVG Version: 6.00 Build 0)  -->
<svg version="1.1" id="Calque_1" xmlns="http://www.w3.org/2000/svg" xmlns:xlink="http://www.w3.org/1999/xlink" x="0px" y="0px"
	 viewBox="0 0 566.9 320" style="enable-background:new 0 0 566.9 320;" xml:space="preserve">
<style type="text/css">
	.st0{fill:#FFFFFF;}
</style>
<g>
	<path class="st0" d="M115.4,14.3c0.5,0.7,1.1,1.6,1.1,2.4v122.8c0,0.8-0.3,1.7-1.1,2.4c-0.7,0.7-1.6,1.1-2.4,1.1
		c-1.1,0-1.9-0.3-2.6-1.1c-0.5-0.7-1.1-1.6-1.1-2.4v-16.7c-2.7,6.2-7.2,11.4-13.2,15.5c-6.1,4.2-12.8,6.3-20.4,6.3
		c-7.7,0-14.4-2-20.7-6.1c-6.3-4-11.2-9.6-14.9-16.6c-3.6-7-5.4-14.9-5.4-23.5s1.7-16.5,5.4-23.5c3.6-7,8.4-12.6,14.7-16.5
		c6.2-3.9,13.1-5.9,20.7-5.9c7.2,0,14,2,20.2,6.1s10.7,9.4,13.7,16v-58c0-1.1,0.3-1.7,1.1-2.4c0.5-0.7,1.5-1.1,2.6-1.1
		S114.7,13.5,115.4,14.3z M93.5,132.9c5.1-3.5,9.2-8.1,12.1-14.2c2.8-6.1,4.3-12.8,4.3-20.2c0-7.5-1.5-14.2-4.3-20.2
		c-2.8-5.9-6.9-10.7-12.1-14c-5.1-3.3-11-5-17.5-5c-6.3,0-12.1,1.7-17.3,5c-5.2,3.3-9.2,8.1-12.3,14.2c-3,5.9-4.5,12.6-4.5,20.1
		s1.5,14.3,4.5,20.2s7,10.7,12.3,14.2s10.9,5.1,17.3,5.1C82.5,138.1,88.4,136.3,93.5,132.9z"/>
	<path class="st0" d="M216.9,122.9c0.5,0.5,0.8,1.3,0.8,2.2c0,0.8-0.3,1.6-0.7,2.2c-3.9,5.1-8.6,9.3-14.4,12.7s-11.9,4.9-18.5,4.9
		c-8.8,0-16.6-1.9-23.4-5.7c-6.8-3.8-12.1-9.1-15.9-16.1c-3.8-6.9-5.7-14.9-5.7-24.1c0-9.3,1.9-17.6,5.5-24.7
		c3.8-7,8.5-12.6,14.7-16.2c6.2-3.6,12.6-5.7,19.5-5.7s13.2,1.5,19.2,4.5c5.9,3,10.7,7.5,14.4,13.4c3.8,5.9,5.8,13.2,5.9,22.1
		c0,1.1-0.3,1.7-1.1,2.6c-0.7,0.7-1.6,1.2-2.4,1.2H146v2.3c0,7.2,1.5,13.9,4.3,20s7.2,10.8,13,14.3s12.7,5.1,20.7,5.1
		c5.7,0,10.9-1.3,15.9-4.2c4.9-2.7,8.8-6.2,11.7-10.4c0.8-1.1,1.7-1.6,3-1.6C215.6,121.9,216.3,122.1,216.9,122.9z M165.7,63
		c-4.5,2.3-8.5,5.7-12,10.3c-3.5,4.5-5.8,10-6.9,16.5h64.5v-1.6c-0.5-5.9-2.4-11.1-5.7-15.3c-3.2-4.2-7.2-7.5-12-9.8
		c-4.7-2.2-9.7-3.4-14.9-3.4C174.6,59.6,170.3,60.8,165.7,63z"/>
	<path class="st0" d="M309.3,53c0.7,0.5,1.2,1.2,1.2,2c0,0.7-0.1,1.5-0.5,2.2l-35,83.4c-0.3,0.7-0.7,1.3-1.3,1.6
		c-0.5,0.4-1.3,0.5-2,0.5c-0.7,0-1.3-0.1-2-0.5c-0.5-0.4-1.2-1.1-1.3-1.6l-35.1-83.3c-0.3-0.7-0.3-1.2-0.3-1.6
		c0-1.1,0.3-1.7,1.1-2.4c0.5-0.7,1.6-1.1,2.7-1.1c0.5,0,1.2,0.1,1.9,0.5c0.5,0.4,1.2,1.1,1.3,1.7l31.7,76.4l31.9-76.4
		c0.5-1.6,1.9-2.3,3.8-2.3C307.7,52.3,308.4,52.5,309.3,53z"/>
</g>
<g>
	<path d="M155.1,313c-1.5-1.5-2.2-3.4-2.2-5.5v-1.6c0-3.9,2.4-6.3,7.2-7.5c7.5-2.2,11.2-8,11.2-17.6v-83.7c0-2.3,0.8-4.3,2.3-5.9
		c1.5-1.6,3.6-2.4,6.1-2.4c2.3,0,4.3,0.8,5.9,2.4c1.6,1.6,2.3,3.6,2.3,5.9V285c0,6.1-1.3,11.4-3.8,16.1c-2.4,4.6-5.9,8.1-10.1,10.5
		c-4.2,2.4-8.6,3.6-13.5,3.6C158.4,315.3,156.5,314.5,155.1,313z M172.3,174.5c-1.5-1.3-2.2-3.2-2.2-5.9v-2.7c0-2.7,0.8-4.7,2.3-5.9
		s4-1.7,7.2-1.7c3.4,0,5.7,0.5,7,1.9c1.5,1.3,2.2,3.2,2.2,5.9v2.7c0,2.7-0.7,4.7-2.3,5.9s-3.9,1.7-7.2,1.7
		C176.2,176.3,173.8,175.7,172.3,174.5z"/>
	<path d="M277.8,191c6.1,2.8,9.2,6.6,9.2,11.2c0,2-0.5,3.8-1.9,5.4c-1.3,1.6-2.8,2.3-4.9,2.3c-1.6,0-2.7-0.3-3.6-0.7
		c-0.8-0.4-2-1.3-3.6-2.3c-0.7-0.7-1.9-1.6-3.4-2.4c-1.5-0.7-3.5-1.3-5.9-1.7c-2.6-0.4-4.9-0.7-7-0.7c-6.1,0-11.4,1.5-16.2,4.2
		c-4.6,2.7-8.4,6.6-10.8,11.7c-2.6,4.9-3.9,10.5-3.9,16.6c0,6.2,1.3,11.7,3.8,16.7c2.4,4.9,6.1,8.8,10.7,11.6
		c4.6,2.7,9.8,4.2,15.5,4.2c6.1,0,10.9-0.8,14.7-2.7c0.8-0.4,1.9-1.3,3.4-2.3c1.2-0.8,2.2-1.6,3-2.2c0.8-0.4,2-0.7,3.2-0.7
		c2.3,0,4.2,0.7,5.5,2.2s2,3.4,2,5.7c0,2.4-1.6,4.9-4.6,7.2c-3,2.4-7.2,4.3-12.4,5.9c-5.1,1.6-10.8,2.3-16.7,2.3
		c-8.9,0-16.7-2-23.5-6.2s-12-10-15.8-17.2c-3.8-7.2-5.5-15.4-5.5-24.6c0-8.9,1.9-17.2,5.8-24.6c3.9-7.4,9.2-13,16.2-17.2
		c6.9-4.2,14.7-6.2,23.6-6.2C264,186.7,271.6,188.1,277.8,191z"/>
	<path d="M382.6,272.3c0,2.3-0.8,4.3-2.7,5.9c-1.9,1.6-3.8,2.3-5.8,2.3c-2.6,0-4.6-0.8-6.1-2.7l-34.5-36.7l-10.5,9.6v21.7
		c0,2.3-0.8,4.3-2.3,5.9c-1.6,1.6-3.5,2.4-5.9,2.4s-4.5-0.8-6.1-2.4s-2.3-3.6-2.3-5.9v-113c0-2.3,0.8-4.3,2.3-5.9
		c1.5-1.6,3.6-2.4,6.1-2.4c2.3,0,4.3,0.8,5.9,2.4c1.6,1.6,2.3,3.6,2.3,5.9v71.3l43.1-39.6c2-1.7,4-2.6,6.1-2.6s3.8,0.8,5.5,2.6
		c1.6,1.7,2.4,3.5,2.4,5.4c0,2.3-1.2,4.5-3.4,6.3l-30.4,27l33.6,36.6C381.7,268.1,382.6,270.1,382.6,272.3z"/>
</g>
</svg>
